<?xml version="1.0" encoding="utf-8"?>
<!-- Generator: Adobe Illustrator 19.0.0, SVG Export Plug-In . SVG Version: 6.00 Build 0)  -->
<svg version="1.1" id="Layer_1" xmlns="http://www.w3.org/2000/svg" xmlns:xlink="http://www.w3.org/1999/xlink" x="0px" y="0px"
	 viewBox="-165 0 722.6 1000" style="enable-background:new -165 0 722.6 1000;" xml:space="preserve">
<g id="Guide">
</g>
<g id="Layer_4">
</g>
<g id="Layer_3">
	<path d="M37.6,594.6c-17.7,0-36.3-4.2-53.3-12.4c-25.7-12.5-39.5-32.6-42.6-37.5c-24.2-33-27.6-71.1-9.8-110.3
		c14.2-31.1,39.3-56.6,70.9-71.7c20.3-9.7,45.6-19.9,70.8-29.3c-2.7-24.8-5.8-51.4-9.3-79.6c-1-7.9-5.7-14.3-12.9-17.6
		c-7.2-3.3-15.2-2.6-21.8,1.8l-176,118.1l-19.3-28.8l176-118.1c16.6-11.1,37.3-12.8,55.4-4.6c18.1,8.3,30.5,25,33,44.8
		c3.2,25.5,6,49.4,8.5,71.8c39-13.7,71.2-23.8,73.7-24.5l19.4-6l15.7,109.8L481.5,291l13.2,32L188.1,449.5L171.9,336
		c-14.9,4.9-37,12.2-60.9,20.7c10.1,99.1,11.8,161.1,5.1,184.7c-5.9,20.8-19.5,36.4-39.5,45.4C64.9,592,51.5,594.6,37.6,594.6z
		 M-29,526.1c0.6,1,10.4,16.1,28.5,24.9c21.1,10.2,45.8,11.9,63,4.2c10.4-4.7,17.3-12.5,20.3-23.2c5.1-18,3-76.5-5.4-162.8
		c-21.6,8.2-42.6,16.8-59.6,24.9c-24.2,11.6-43.5,31-54.3,54.8c-12.8,28.1-10.6,52.9,6.5,75.9l0.6,0.8L-29,526.1z"/>
</g>
</svg>
