<?xml version="1.0" encoding="utf-8"?>
<!-- Generator: Adobe Illustrator 19.0.0, SVG Export Plug-In . SVG Version: 6.00 Build 0)  -->
<svg version="1.1" id="Layer_1" xmlns="http://www.w3.org/2000/svg" xmlns:xlink="http://www.w3.org/1999/xlink" x="0px" y="0px"
	 viewBox="-161 0 676 1000" style="enable-background:new -161 0 676 1000;" xml:space="preserve">
<g id="Guide">
</g>
<g id="Layer_4">
</g>
<g id="Layer_3">
	<path d="M64.9,596.8c-20.2,0-38.9-6.2-54.2-18.2c-26.2-20.8-38.3-55.4-33.1-94.8c0.2-1.5,0.5-3.2,0.8-5
		c5.6-28.7,21.8-54.2,45.7-71.7c27.2-20,60.3-38.4,93.8-55c-8.5-29.2-18.7-57.1-28-80.3c-5.1,17.5-12.6,35.7-22.9,52.4
		c-28,45.1-71,72.3-124.3,78.5c-4.1,0.5-8.2,0.7-12.2,0.7c-29.8,0-57.6-12.8-74.6-34.9c-19.8-25.8-22.7-60.3-8.2-97l32.5,12.9
		c-10,25.2-8.8,46.9,3.4,62.8c11.8,15.4,32.9,23.3,55,20.7c42.3-4.9,75.1-25.3,97.6-60.5c26.6-41.7,29-89.7,26.1-98.6l32.1-13.7
		c2.3,4.5,33.6,67.5,55.6,141.6c22.4-10.4,44-19.8,63.3-28.2c12.5-5.4,24.3-10.6,34.5-15.2l26.7-12.1l-9.2,129.4
		c52.1-20.3,152.6-59.4,161.6-62.1l9.9,33.6l0,0c-8.5,2.6-117.7,45-184.6,71.2l-25.8,10.1l9-126.3c-2.7,1.2-5.5,2.4-8.3,3.6
		c-20.6,9-44.1,19.2-68,30.4c11.1,46.3,16.6,94.1,7.9,132.8c-7.1,31.9-15.8,60-49,78.7c-3,2.4-7.1,4.4-12.9,6.6
		C91.5,594.3,77.9,596.8,64.9,596.8z M127,386.7c-29.6,14.9-58.5,31.3-82.1,48.6c-16.8,12.3-28.1,30.1-32.1,50.2
		c-0.2,1.1-0.4,2.1-0.5,2.9c-3.5,26.9,3.8,49.8,20.1,62.8c15.4,12.2,36.9,14.1,60.5,5.2c0.7-0.3,1.3-0.5,1.8-0.7l0.2-0.4l4.5-2.4
		c20.3-10.9,26.5-25.6,33.4-56.6C139.9,465.1,135.8,425.9,127,386.7z"/>
</g>
</svg>
