<?xml version="1.0" encoding="utf-8"?>
<!-- Generator: Adobe Illustrator 19.0.0, SVG Export Plug-In . SVG Version: 6.00 Build 0)  -->
<svg version="1.1" id="Layer_1" xmlns="http://www.w3.org/2000/svg" xmlns:xlink="http://www.w3.org/1999/xlink" x="0px" y="0px"
	 viewBox="194 -104 560 1000" style="enable-background:new 194 -104 560 1000;" xml:space="preserve">
<g id="Guide">
</g>
<g id="Layer_4">
</g>
<g id="Layer_3">
	<path d="M359.1,594.1c-22.4,0-49-4.8-71.9-21.8c-31.8-23.7-43-54.9-46.7-77c-3.9-23.2,2.6-42.4,19.7-58.8l0.5-0.4
		c1.7-1.5,4.5-4.1,8-7.5C289.5,409,336,365.1,400,323.3l-15.1-72.1L213.3,364.7l-19.1-28.9l214.2-141.7l23,109.7
		c12.7-7.4,25.9-14.6,39.6-21.4c9.6-4.8,20.8-5.2,30.8-1.2c10,4,17.9,12.2,21.5,22.4l0,0.1l7.4,21.2c0.5,1.3,1.5,1.9,2.1,2.1
		c0.7,0.3,1.7,0.4,2.8-0.2c48.5-26.7,113.8-60.6,149.2-70.5l9.4,33.3c-25.2,7.1-75.5,31.1-141.8,67.5c-9.8,5.4-21.4,6.2-31.9,2.2
		c-10.5-4-18.7-12.4-22.4-23.1l-7.4-21.1c-0.4-1.2-1.3-1.7-1.8-1.9c-0.8-0.3-1.6-0.3-2.4,0.1c-16.6,8.3-32.5,17.1-47.6,26.3
		L470,487.9c3.3,15.8,1.3,33.6-5.8,50c-7.3,16.9-19.5,30.9-34.4,39.5c-3,2.4-7.2,4.5-13.3,6.7c-4.9,1.8-13,4.4-23.7,6.5
		C383.9,592.5,372.2,594.1,359.1,594.1z M284,461.8c-10,9.6-11,17.7-9.3,27.7c3.9,22.9,15.1,41.4,33.3,55
		c19.2,14.3,43.6,15.9,60.7,14.6c17.9-1.3,32.5-6,38.2-8.3l0.2-0.4l4.2-2.3c19.3-10.4,28.4-35.8,24.8-53.1l-28.4-135.2
		c-55.7,37.8-96.4,76.3-115.2,94C288.8,457.4,286.1,460,284,461.8z"/>
</g>
</svg>
