<?xml version="1.0" encoding="utf-8"?>
<!-- Generator: Adobe Illustrator 19.0.0, SVG Export Plug-In . SVG Version: 6.00 Build 0)  -->
<svg version="1.1" id="Layer_1" xmlns="http://www.w3.org/2000/svg" xmlns:xlink="http://www.w3.org/1999/xlink" x="0px" y="0px"
	 viewBox="-55 -80.1 485 1000" style="enable-background:new -55 -80.1 485 1000;" xml:space="preserve">
<g id="Guide">
</g>
<g id="Layer_4">
</g>
<g id="Layer_3">
	<path d="M166.4,620.6c-19.3,0-37.6-5.8-52.9-17.3c-14.2-10.6-25.2-25.7-31.8-43.7c-6.7-18.3-8.8-38.8-6.3-60.9
		c2-16.6,14.9-41.7,21.1-50.9c18.1-26.6,58.9-54.9,104-81.8l-5.2-27.6c-6.5-34.5-27.4-63.1-55.9-76.4c-24.6-11.5-51.4-10.5-75.4,2.9
		c-9.4,5.2-18.1,10.4-26.1,15.5c11.3,8.4,25.6,21.3,32.4,37.2l0.4,0.7l0.3,0.7c6.8,17.1,5.7,36.3-3.1,52.6
		c-8.8,16.3-24.3,27.9-42.4,31.7l-1.9,0.4c-27.2,5.7-54.2-6-68.9-29.7c-14.4-23.4-12.8-52.2,4.1-73.6l0.8-0.9
		c0.2-0.3,0.5-0.6,0.8-0.9c0.7-0.8,1.3-1.5,1.9-2.2c18.3-20.1,46.7-40.9,84.6-62.1c33.6-18.7,72.7-20.2,107.3-4
		c38.6,18.1,66.8,56.1,75.4,101.6l2.9,15.6c17.3-9.7,34.5-19,50.9-27.9c27.5-14.9,51.2-27.7,66.5-37.6l19,29.4
		c-16.4,10.6-40.7,23.8-68.8,39c-18.9,10.2-39.9,21.6-60.7,33.4l22.8,121.2c3.2,17.2,1.2,36.5-5.6,54.5c-7.1,18.8-19.2,34.4-34,44.2
		c-2.9,2.6-7,5-12.9,7.5l-0.1,0C195.1,617.5,180.4,620.6,166.4,620.6z M207.4,402.8c-36.7,22.4-68.7,45.3-82,64.7
		c-5.7,8.5-14.4,27.6-15.3,35.3c-3.6,31.3,5.4,58.4,24.2,72.5c16.4,12.3,38.3,13.7,61.5,3.8c0.8-0.3,1.4-0.6,2-0.9l0.2-0.5l4.3-2.6
		c20.1-12.2,29.4-42.8,25.5-63.7L207.4,402.8z M-14,322.6c-11.3,14.6-4,29-1.5,33c5.4,8.8,16.6,17,31.9,13.9l1.9-0.4
		c8-1.7,14.9-6.8,18.8-14c3.8-7,4.3-15.1,1.6-22.5l-0.5-1c-4.7-11.6-21.6-24.1-30.7-29.5c-7.6,6.2-14.1,12.2-19.4,18.1l-0.5,0.5
		c-0.1,0.1-0.1,0.2-0.2,0.3l-0.7,0.9C-13.5,322.1-13.7,322.3-14,322.6z"/>
</g>
</svg>
