<?xml version="1.0" encoding="utf-8"?>
<!-- Generator: Adobe Illustrator 19.0.0, SVG Export Plug-In . SVG Version: 6.00 Build 0)  -->
<svg version="1.1" id="Layer_1" xmlns="http://www.w3.org/2000/svg" xmlns:xlink="http://www.w3.org/1999/xlink" x="0px" y="0px"
	 viewBox="-54 -80.1 486 1000" style="enable-background:new -54 -80.1 486 1000;" xml:space="preserve">
<g id="Guide">
</g>
<g id="Layer_4">
</g>
<g id="Layer_3">
	<path d="M170.4,622.4c-22.8,0-44.6-7.2-62.2-21.2c-27.5-21.8-40.9-57-36-94.3c1.7-12.6,9.1-34.8,16.6-45.8
		c17-25.2,61.7-50.3,112.1-73.9l-26.4-124.4c-27.2,9.4-79.7,28.8-124.8,52.8c3.7,8.1,9.8,21.4,15.6,33.9
		c12.1,26.2,4.9,57.3-17.6,75.5c-0.4,0.3-0.7,0.6-1,0.8c-19.2,15.1-45.5,17.4-67.2,5.8c-17.7-9.5-29.6-26.2-32.7-45.9
		c-3-19.1,2.8-38.1,16-52.1c0.8-0.9,1.5-1.6,2-2l0.2-0.2c60.3-58.9,211-106.3,217.4-108.3l18.5-5.8l32.8,155
		c13.6-6,27.2-11.9,40.6-17.7c31.8-13.7,61.8-26.7,78.6-36.3l17.5,30.6c-18.5,10.6-48,23.3-82.1,38.1c-15.1,6.5-31.1,13.4-47.1,20.6
		l23.3,110c3.3,16,1.3,34-5.8,50.6c-7.3,17.2-19.5,31.3-34.6,40c-3,2.4-7.2,4.5-13,6.7C197.6,619.9,183.9,622.4,170.4,622.4z
		 M208.3,422.7c-8.9,4.3-17.6,8.5-25.8,12.8c-43.3,22.5-59,37.1-64.6,45.4c-3.9,5.7-9.7,22.3-10.8,30.7c-3.3,25.2,5.1,47.8,23,62
		c18.6,14.7,43.6,17.7,68.6,8.3c0.7-0.3,1.3-0.5,1.8-0.7l0.2-0.4l4.5-2.4c19.3-10.4,28.4-36.1,24.7-53.5L208.3,422.7z M-11,357.2
		l-0.4,0.4c-5.8,6.1-8.4,14.3-7,22.6c1.4,8.7,6.7,16.1,14.6,20.4c9.3,5,20.5,4,28.7-2.4c0.3-0.2,0.5-0.4,0.8-0.6
		c9.8-8.1,13-21.7,7.7-33.2c-5.1-11-10.4-22.6-14.2-30.7c-11.4,7.4-21.5,15.1-29.5,23C-10.5,356.8-10.7,357-11,357.2z"/>
</g>
</svg>
