<?xml version="1.0" encoding="utf-8"?>
<!-- Generator: Adobe Illustrator 19.0.0, SVG Export Plug-In . SVG Version: 6.00 Build 0)  -->
<svg version="1.1" id="Layer_1" xmlns="http://www.w3.org/2000/svg" xmlns:xlink="http://www.w3.org/1999/xlink" x="0px" y="0px"
	 viewBox="194 -104 442.7 1000" style="enable-background:new 194 -104 442.7 1000;" xml:space="preserve">
<g id="Guide">
</g>
<g id="Layer_4">
</g>
<g id="Layer_3">
	<path d="M496.4,667.2l-96.4-427.7C365.5,254,292.8,284.6,257,299.7c-9.9,4.2-18.1,11.6-23.2,21l-0.1,0.3c-0.7,1.3-8,16.1-3.5,33.4
		c1.2,2.7,6.8,14.5,17.3,18.9c7.1,3,22.5,5.2,35.3-5.6c2.7-2.3,12.5-12.9,7.4-19.6c-3-4-6-6.1-8.8-6.4c-4.5-0.5-9.8,3.1-11.3,4.4
		l0.2-0.1L247,320.3c1.7-1.5,17.2-15,37.5-13.1c8.9,0.8,21.8,4.9,33.2,20c17.2,22.5,6.7,50.7-12.6,67c-23.9,20.2-53.2,18.6-71.1,11
		c-25.4-10.7-35.5-36.4-36.5-39.3l-0.2-0.6l-0.2-0.6c-8.9-31.5,4.3-57,6.3-60.6c8.8-16.2,23.1-29.1,40.1-36.3
		c48-20.2,162.2-68.2,162.2-68.2l19.1-8l105.4,468.1L496.4,667.2z"/>
</g>
<path d="M336.7,477.7l-17.1-30.1c15-8.5,205.7-88.2,243.8-104.1l13.3,32C489.6,411.7,347.5,471.6,336.7,477.7z"/>
</svg>
