<?xml version="1.0" encoding="utf-8"?>
<!-- Generator: Adobe Illustrator 19.0.0, SVG Export Plug-In . SVG Version: 6.00 Build 0)  -->
<svg version="1.1" id="Layer_1" xmlns="http://www.w3.org/2000/svg" xmlns:xlink="http://www.w3.org/1999/xlink" x="0px" y="0px"
	 viewBox="30 -80.1 656.9 1000" style="enable-background:new 30 -80.1 656.9 1000;" xml:space="preserve">
<style type="text/css">
	.st0{fill:#010101;}
	.st1{fill:none;stroke:#020202;stroke-width:35;stroke-miterlimit:10;}
</style>
<g id="Guide">
</g>
<g id="Layer_4">
	<g id="Layer_3">
		<path class="st0" d="M256.2,611c-23,0-45-7.3-62.7-21.4c-27-21.5-40.3-56.1-35.5-92.6c0.3-2.5,0.8-4.8,1.3-7l0.3-1.3
			c4.6-19.3,14.5-37.2,28.7-51.8c18.9-19.5,55.5-56.4,91.5-89.1c-10.4-31.1-29.6-58.6-53.1-76c-25.9-19.1-59.2-21.5-89.1-6.3
			c-21.5,10.9-38.7,26-54.1,47.6C76.2,323.2,71,334.2,68,345.5c-1.6,5.9-2.4,11.2-2.5,15.9c0,0,0,0.1,0,0.1
			c0.2,7.2,2.3,24.6,16.1,32c1.2,0.6,16.5,7.5,30.3,0.5c1.8-0.9,3.6-2.3,5.3-3.9c5.9-5.8,18.2-20.8,3.9-36.3
			c-7.2-7.9-16.2-8.2-22.3-7.7l-0.2,0L96.1,311l0.2,0c25.7-1.9,41.7,9.3,50.6,18.9c12.6,13.6,17.8,29.9,15.2,47
			c-2.1,13.7-9.4,27.3-20.5,38.1c-4.2,4.1-8.8,7.4-13.7,9.9c-30.5,15.7-61,0.2-62.3-0.5l-0.1-0.1c-30.2-16-34.5-48.6-34.9-61.9
			l0-0.6l0-0.6c0.1-7.6,1.3-16,3.7-24.8c4.1-15.4,11.1-30.2,21-44c18.8-26.3,40-44.9,66.7-58.4c41.9-21.3,88.9-17.7,125.7,9.4
			c25.6,18.9,47,47.2,60.4,79.5c11.6-9.7,22.5-18.3,32.1-25c28.4-19.6,53.8-26.7,75.3-21.1c16.1,4.2,29.5,15.6,37.5,32.1
			c2.3,4.7,3.7,10.1,4.4,15.6c11-7.8,24.2-16.8,38.7-25.9c54.1-33.9,97.9-51.8,130.2-53.2l1.5,35c-53.1,2.3-148.1,69.3-180.2,95
			l-42.1,33.6l14.3-51.9c3-11.1,4.5-27.3,1.9-32.8c-2.5-5.1-7.1-11.6-15-13.6c-10.9-2.8-27.5,2.8-46.6,16
			c-12,8.3-26.3,19.9-41.4,33.1l28.6,133.3c4.5,21.1,3.1,42.6-4.3,62.1c-7.1,18.8-18.6,33.2-33.3,41.7c-2.7,2.1-6.6,4.1-12.8,6.4
			C283.3,608.5,269.6,611,256.2,611z M193.7,496.6l-0.2,0.9c-0.3,1.3-0.6,2.7-0.7,3.4l-0.1,0.5c-3.3,24.6,5,46.8,22.6,60.9
			c18.4,14.7,44.3,17.8,69.3,8.5c0.9-0.3,1.6-0.6,2.2-0.9l0.2-0.4l4.1-2.2c8.1-4.3,14.5-12.5,18.9-24.2c5-13.2,5.9-27.9,2.8-42.5
			l-24.3-113.4c-30.1,28.2-59.2,57.6-75.3,74.1C203.6,471.3,196.8,483.5,193.7,496.6z"/>
		<g id="Layer_4_1_">
			<g id="Layer_4_2_">
				<path id="XMLID_21_" class="st1" d="M155.3,376.1"/>
				<path id="XMLID_20_" class="st1" d="M155.3,376.1"/>
			</g>
		</g>
	</g>
</g>
</svg>
