<?xml version="1.0" encoding="utf-8"?>
<!-- Generator: Adobe Illustrator 19.0.0, SVG Export Plug-In . SVG Version: 6.00 Build 0)  -->
<svg version="1.1" id="Layer_1" xmlns="http://www.w3.org/2000/svg" xmlns:xlink="http://www.w3.org/1999/xlink" x="0px" y="0px"
	 viewBox="0 0 1000 1000" style="enable-background:new 0 0 1000 1000;" xml:space="preserve">
<style type="text/css">
	.st0{fill:none;stroke:#000000;stroke-width:35;stroke-miterlimit:10;}
</style>
<g id="Layer_1_1_">
</g>
<g id="Layer_2">
	<path d="M283.6,511.7c-4-33.1-20.8-85.8-48.6-152.3c-6.2-15-20.2-25.3-37.4-27.8c-17-2.5-33.3,3.6-43.5,16.2l-0.4,0.4L27.2,494.5
		L0.8,471.5l126.4-146.1c18-22.1,46.2-32.8,75.5-28.6c29.5,4.2,53.7,22.6,64.7,49c29.4,70.4,46.6,124.8,51,161.6L283.6,511.7z"/>
	<path d="M545,700.4c-24.1,0-49.7-4.7-69.8-12.9c-35-14.3-62.8-42-76.4-76c-5.8-14.6-9.1-30-9.7-45.8c-2.1-52.8,27.9-91.8,29.2-93.5
		l16.2-20.7l12.8,22.9c26.5,47.2,44.4,43.3,60.3,39.8c12.6-2.8,23-9.8,29.2-19.6c5.7-9.1,7.4-19.8,4.9-30.9
		c-1.5-6.5-3.6-12.5-6.2-17.8c-18.6-37.1-59-65.6-105.5-74.5c-44.6-8.5-95.2-1.4-150.6,21.2l-0.7,0.3c-0.1,0.1-20,7.4-46.6,26.7
		c-24.4,17.7-59.7,49.3-89.2,99.6c-17.1,29.1-22.4,63.9-14.3,93.2c5,18.1,16.7,33.7,31.9,42.9l0.3,0.2c0.9,0.6,2,1.2,3.7,2
		c10,5.1,20.8,7.5,31.5,7.5c20,0,39.8-8.4,54-24.3l0.1-0.1c4.6-5,9-10.9,13.2-17.4c22.2-34.6,26.6-84.7,19.4-116.3l34.1-7.8
		c10.5,45.9,0.6,104.7-24,143.1c-5.3,8.2-10.9,15.5-16.7,22c-21,23.4-50.4,35.8-80.1,35.8c-16.1,0-32.3-3.7-47.2-11.2
		c-1.7-0.8-4-2-6.3-3.5c-22.8-13.7-40.1-36.8-47.5-63.4c-10.6-38.2-3.9-83.2,17.9-120.3c61.6-105.3,146.3-138.6,153.8-141.4
		C328,335,385.2,327.2,436.5,337c27.1,5.2,53.3,16.1,75.6,31.7c23.7,16.5,42.6,37.7,54.5,61.5c4,7.8,7.1,16.6,9.1,25.8
		c4.6,20,1.2,40.4-9.5,57.3c-11.2,17.8-29.4,30.2-51.2,35.1c-13.4,3-29.5,5-47-2.6c-12.4-5.4-24-15-35-29.1
		c-5.2,12.4-9.9,29-9.2,47.6c0.5,11.8,2.9,23.3,7.3,34.2c10.1,25.2,30.9,45.9,57.2,56.6c27.1,11.1,90,21.9,133.9-16.6
		c31.7-27.8,44.3-58.7,43.5-106.7c-0.7-40.7-23.8-74.7-48.8-105.4L593,396.8l38.2,1.1c0.5,0,54.3,1.3,111.6-14.7
		c73.3-20.5,117.8-58.4,132.2-112.7l33.8,9c-17.6,66.5-72.1,114.1-157.5,137.7c-32.7,9.1-63.8,12.9-86.4,14.6
		c19.4,28.3,35.3,61.2,35.9,99.5c0.6,39-5.1,89.4-55.5,133.5c-25,21.9-57.4,34.1-94,35.5C549.3,700.4,547.2,700.4,545,700.4z"/>
	<path id="XMLID_7_" class="st0" d="M633.9,416.7"/>
</g>
</svg>
