<?xml version="1.0" encoding="utf-8"?>
<!-- Generator: Adobe Illustrator 19.0.0, SVG Export Plug-In . SVG Version: 6.00 Build 0)  -->
<svg version="1.1" xmlns="http://www.w3.org/2000/svg" xmlns:xlink="http://www.w3.org/1999/xlink" x="0px" y="0px"
	 viewBox="0 0 1000 1000" style="enable-background:new 0 0 1000 1000;" xml:space="preserve">
<style type="text/css">
	.st0{fill:none;stroke:#000000;stroke-width:35;stroke-miterlimit:10;}
</style>
<g id="Layer_1">
</g>
<g id="Layer_2">
	<path id="XMLID_5_" class="st0" d="M301,509.6c-5.1-42.4-28.2-105.3-49.8-157c-18.2-43.7-80.3-53.3-110.6-15.9L14,483"/>
	<path id="XMLID_3_" class="st0" d="M299.6,502.9c8.7,38,2,92.8-21.7,129.7c-4.9,7.6-9.9,14.1-15,19.7
		c-26.9,29.9-70.5,38.9-106.4,20.7c-1.8-0.9-3.5-1.8-5.1-2.8c-19.5-11.7-33.7-31.3-39.8-53.2c-9.8-35.4-2.5-75,16.1-106.7
		c60.7-103.7,145-133.9,145-133.9c50.7-20.7,106.7-32.5,160.5-22.2c49,9.4,95.6,39.6,117.8,83.8c3.5,6.9,6,14.2,7.7,21.8v0
		c7.6,33.3-13.1,63.8-47.4,71.5c-21.7,4.8-48.3,7-79.3-48.3c0,0-27.4,35-25.5,82c0.6,15.1,3.9,28.5,8.5,40
		c12.1,30.3,36.5,53.9,66.8,66.3c31.5,12.9,101.9,24.4,152.1-19.6c41.1-36,50.2-76.4,49.5-120.1s-23.2-79.9-52.7-116.2
		c0,0,222.2,6.6,261.2-140.4"/>
	<path id="XMLID_7_" class="st0" d="M633.9,416.7"/>
</g>
</svg>
