<?xml version="1.0" encoding="utf-8"?>
<!-- Generator: Adobe Illustrator 19.0.0, SVG Export Plug-In . SVG Version: 6.00 Build 0)  -->
<svg version="1.1" id="Layer_1" xmlns="http://www.w3.org/2000/svg" xmlns:xlink="http://www.w3.org/1999/xlink" x="0px" y="0px"
	 viewBox="-54 -80.1 486.6 1000" style="enable-background:new -54 -80.1 486.6 1000;" xml:space="preserve">
<g id="Guide">
</g>
<g id="Layer_4">
</g>
<path d="M111,619.8c-22.4,0-49-4.8-71.9-21.8c-31.8-23.7-43-54.9-46.7-77c-3.9-23.2,2.6-42.4,19.7-58.8l0.5-0.5
	c1.8-1.6,4.6-4.2,8.1-7.5c18.2-17.1,56.1-52.8,109.4-89.4c7.3-5,14.6-9.9,22-14.5l-15.4-73.4L-34.9,390.4L-54,361.6l214.2-141.7
	l23.4,111.5c49.3-28,99.4-48.6,149.5-61.4l8.6,33.6C285.1,318,234.4,341.5,191.1,367l30.8,146.6c3.3,15.8,1.3,33.6-5.8,50
	c-7.3,16.9-19.4,30.9-34.4,39.5c-3,2.4-7.2,4.5-13.3,6.7c-4.9,1.8-13,4.4-23.7,6.5C135.8,618.2,124.1,619.8,111,619.8z M35.8,487.5
	c-10,9.6-10.9,17.7-9.3,27.7c3.9,22.9,15.1,41.4,33.3,55c19.2,14.3,43.6,15.9,60.7,14.6c17.9-1.3,32.5-6,38.2-8.3l0.2-0.4l4.2-2.3
	c19.3-10.4,28.4-35.8,24.8-53.1l-28.2-134.2c-56.1,37.1-96.1,74.8-115.3,92.9C40.8,482.9,38,485.6,35.8,487.5z"/>
</svg>
