<?xml version="1.0" encoding="utf-8"?>
<!-- Generator: Adobe Illustrator 19.0.0, SVG Export Plug-In . SVG Version: 6.00 Build 0)  -->
<svg version="1.1" id="Layer_3" xmlns="http://www.w3.org/2000/svg" xmlns:xlink="http://www.w3.org/1999/xlink" x="0px" y="0px"
	 viewBox="-184 0 631 1000" style="enable-background:new -184 0 631 1000;" xml:space="preserve">
<g>
	<g>
		<path d="M366.2,215.6l-32.3,13.4c18,43.6,19.1,92,3.1,133c-16.5,42.4-52.3,76.5-93.4,89.3l-136.7,37c-4.3,0.6-8.4,1.4-12.4,2.4
			c-7.2-30.1-22.6-85.4-46.5-123C20.1,324-24.2,298.1-67.5,300.1c-25.5,1.2-50,11.9-70.7,31c-18.9,17.4-33.1,40.7-40,65.5
			c-5.2,18.7-9.1,46.7,2.3,73.8c11.4,27.1,36.1,45.6,63,47.3c1.2,0.1,2.5,0.1,3.7,0.1c21.7,0,42.8-11.3,54.6-29.6
			c16.4-25.3,11.5-60.1-10.9-77.4c-12.4-9.7-30.1-12.5-46.1-7.3c-15.2,4.9-26.3,15.7-30.5,29.7l33.5,10c1.2-4.1,6.1-5.9,7.6-6.4
			c5-1.6,10.6-1,14,1.7c8,6.2,9.4,20.8,3,30.7c-5.7,8.7-16.5,14.2-26.9,13.6c-13.3-0.8-26.8-11.5-32.8-25.9
			c-7.5-17.8-4.6-37.5-0.9-50.8c9.5-33.9,39.5-69.2,78.6-71c30.4-1.4,63.5,18.8,84.3,51.4c16.2,25.4,32.2,69.1,43.2,117.7
			c-23,13.7-36.9,31.7-41.9,39.1C8.9,558.9-8.4,590.9-2.4,630.5c4,26.7,17.8,52,38.7,71.4c22.2,20.5,50.4,32.1,79.4,32.5
			c0.6,0,1.3,0,1.9,0c26.7,0,52.2-9.3,73.8-26.9c18.9-15.4,33.9-36.5,42.1-59.3c0.9-2.4,7.2-20.6,7.7-44.3
			c0.6-30.9-9.1-58.3-28-79.3c-8.3-9.3-17.5-16.4-26.8-21.7l66.6-18l0.6-0.2c25.7-7.9,50.1-22.5,70.5-42.1
			c19.8-19.1,35.6-42.6,45.5-68C388.9,325.4,387.6,267.4,366.2,215.6z M115.3,522.5L115.3,522.5c2.1-0.2,5.1-0.4,8.9-0.4
			c15.5,0,43,3.6,63.1,26c13,14.5,19.4,33.1,19,55.3c-0.4,18.5-5.5,32.8-5.6,32.9l0,0.1c-11,30.5-41.6,63.1-83.1,63.1
			c-0.4,0-0.9,0-1.3,0c-45.7-0.7-78.7-38.3-84.1-74.2c-4.2-27.6,8.4-50.7,16.3-62l0.1-0.1c5.4-7.9,24.6-32.5,58-39.3l0.2,0.7
			l6.9-1.9C114.2,522.6,114.7,522.6,115.3,522.5z"/>
	</g>
</g>
</svg>
