<?xml version="1.0" encoding="utf-8"?>
<!-- Generator: Adobe Illustrator 19.0.0, SVG Export Plug-In . SVG Version: 6.00 Build 0)  -->
<svg version="1.1" id="Layer_1" xmlns="http://www.w3.org/2000/svg" xmlns:xlink="http://www.w3.org/1999/xlink" x="0px" y="0px"
	 viewBox="24 -104 957 1000" style="enable-background:new 24 -104 957 1000;" xml:space="preserve">
<g id="Guide">
</g>
<g id="Layer_3">
	<path d="M477.3,596.6c-12.6,0-25.1-1.8-37-5.5c-37.2-11.6-68.6-41.6-81.8-78.3c-8.8-24.4-9.5-49.5-10.2-73.8
		c-0.1-2.2-0.1-4.3-0.2-6.5c-1.4-47.1-6.5-95.3-33.9-130c-36-45.4-112.5-56.4-167.2-23.9c-63.7,37.8-92.7,91.6-86.1,159.7
		c0.4,3,8,52.3,42.8,78.7c19.3,14.6,44.1,19.9,73.8,15.6c27.4-3.9,47.5-35.4,49.1-62.3c1.7-27.9-18.6-56.2-44.4-61.8
		c-12.7-2.7-27.3,0.5-39.3,8.6c-11.1,7.5-18.5,18.4-20.4,29.8l-34.5-5.7c3.4-20.8,16.3-40.2,35.2-53.1c20-13.6,44.2-18.7,66.4-13.9
		c21.1,4.6,40.1,17.5,53.6,36.3c13.2,18.4,19.7,40.3,18.4,61.9c-2.5,41.4-32.8,88.1-79.1,94.8c-39.4,5.7-73.2-1.9-100.2-22.5
		C34.7,508.6,26.4,445.2,26,442.5l0-0.4c-8-81.9,27.6-148.8,103.1-193.6c33-19.6,72.9-27.4,112.4-22.1
		c41.1,5.5,76.7,24.8,100.1,54.4c33.7,42.6,39.9,97.6,41.5,150.6c0.1,2.2,0.1,4.4,0.2,6.6c0.7,22.5,1.3,43.8,8.2,62.9
		c9.6,26.6,32.3,48.4,59.2,56.7c27,8.4,58.1,3.4,81-13c35.9-25.7,48.7-73.6,53.2-109.3c10.3-82.3-19.5-162-78.2-209.5
		c-2.3-1.5-4.3-3.2-6.1-4.9l22.8-26.4c1.3,1,2.7,2.1,4,3.1c6.1,3.6,21.2,8.4,49.6,10c30.4,1.7,68.2-0.9,106.2-7.1
		c92.7-15.3,171.3-48.5,215.6-91.2l24.3,25.2c-49.3,47.5-134.7,84.1-234.2,100.5c-40.5,6.7-80.9,9.3-113.8,7.5
		c-1.6-0.1-3.1-0.2-4.7-0.3c13.9,18.8,25.3,39.8,33.8,62.4c15.8,42.2,21.1,88.9,15.3,135.1c-5.4,42.6-21.4,100.3-67.6,133.3
		C530.6,588.5,503.9,596.6,477.3,596.6z"/>
</g>
</svg>
