<?xml version="1.0" encoding="utf-8"?>
<!-- Generator: Adobe Illustrator 19.0.0, SVG Export Plug-In . SVG Version: 6.00 Build 0)  -->
<svg version="1.1" xmlns="http://www.w3.org/2000/svg" xmlns:xlink="http://www.w3.org/1999/xlink" x="0px" y="0px"
	 viewBox="0 0 478 1000" style="enable-background:new 0 0 478 1000;" xml:space="preserve">
<style type="text/css">
	.st0{fill:none;stroke:#000000;stroke-width:35;stroke-miterlimit:10;}
</style>
<g id="Guide">
</g>
<g id="Layer_3">
	<path id="XMLID_19_" d="M156.9,699c-12.3,0-23.6-1.1-34-3.3c-28-5.9-50.3-26.8-58.2-54.6c-7.9-27.9,0.2-57.7,21.2-77.6l1.2-1.1
		l0.9-0.6L261.2,434c1.1-1.1,2.2-2.1,3.3-3.2c17.1-16.4,29.5-28.3,30.5-56.5c0.3-9.5-7.5-24.8-16.4-32.1c-8.7-7.1-22.4-6.5-29.8-5.5
		c-24,3.2-41.3,21.6-51.6,36.5c-13.5,19.5-18.3,37.9-18.1,42.3l-34.4,5.6c-6.3-26.2-42.7-30.7-46.4-31.1
		c-40.5-0.7-56.6,28.8-63,53.8c-2.6,10.1-2.2,20.3,1.1,29.4c0.1,0.4,0.3,0.8,0.4,1.2c4.9,12.6,18.5,20.2,32.4,18.1
		c7-1.1,19.3-4,23.6-11.7c0.4-0.8,0.9-1.4,1.2-1.9c0.9-1.3,3.6-5.4,1.8-14.2c-1.7-8-7.2-12.3-7.3-12.3c-8.3-6.2-19.8-2.8-20.3-2.7
		L58,416.1c14-4.3,34.8-4.4,51.5,8.2c2.7,2,16.3,13.1,20.5,33.1c2.2,10.6,2.8,26.2-6.9,40.8c-8.7,15.3-25.5,25.2-48.6,28.8
		c-14.4,2.2-29.4-0.5-42.1-7.6C19.6,512.1,9.6,500.6,4.3,487c-0.3-0.7-0.5-1.4-0.8-2.1c-5.6-15.7-6.3-32.9-2.1-49.8
		c3.5-13.8,10.8-33.8,25.7-50.4c18.1-20.2,43.3-30.5,72.7-29.8l0.9,0c1.8,0.1,31.9,2.6,54.7,21c3.6-7.5,7.9-15,12.7-22.1
		c20.2-29.6,47.3-48,76.2-51.9c22.6-3,42.7,1.7,56.7,13.2c15.1,12.4,29.9,37.2,29.1,60.4c-1.5,42.4-22.6,62.6-41.2,80.5
		c-1.3,1.3-2.7,2.6-4.1,3.9l-0.8,0.8L109.7,589.3c-11.4,11.1-15.6,26.9-11.3,42.4c4.4,15.4,16.2,26.6,31.8,29.8
		c15.4,3.2,34.2,3.4,56.1,0.4c43.6-6,86.1-21.5,122.8-44.8c38.6-24.6,66-59.9,75.2-96.9c7.9-32,3.2-67-2.5-97l34.4-6.5
		c6.4,33.8,11.6,73.4,2,111.9c-11.5,46.3-43.5,88.2-90.4,118c-40.9,26-88.2,43.3-136.8,50C179.1,698.2,167.6,699,156.9,699z"/>
	<path id="XMLID_5_" class="st0" d="M208.4,397.5"/>
</g>
</svg>
