<?xml version="1.0" encoding="utf-8"?>
<!-- Generator: Adobe Illustrator 19.0.0, SVG Export Plug-In . SVG Version: 6.00 Build 0)  -->
<svg version="1.1" id="Layer_1" xmlns="http://www.w3.org/2000/svg" xmlns:xlink="http://www.w3.org/1999/xlink" x="0px" y="0px"
	 viewBox="-69 0 861 1000" style="enable-background:new -69 0 861 1000;" xml:space="preserve">
<g>
	<path d="M609.6,804.4c-13.6-173.3,4.8-297.8,22.7-371.7c10-41.5,20.9-72.2,29.4-92.5c-39.6,7.7-77.1,25.4-107.9,51.4
		c-38.7,32.5-66.6,77.5-78.4,126.8l-34-8.2c13.6-56.5,45.5-108.1,90-145.4c44.4-37.3,100.8-59.8,158.8-63.4l32.8-2l-16.7,28.3
		c-0.2,0.3-21.9,38.3-40.3,115.2c-17,71.1-34.5,191.1-21.3,358.6L609.6,804.4z"/>
	<path d="M215,697.4c-8.5,0-16.9-1.9-25.1-5.7c-13.9-6.5-25.4-18.1-32.3-32.6c-13.6-28.5-14.3-63.8-1.9-96.9
		c11.1-29.7,31.9-57.5,63.5-85.1c5.9-5.2,12.1-10.2,18.4-15c-0.8-2.2-1.5-4.4-2.1-6.7c-6.8-24.8-13.4-53.7-10.2-80.1
		c0.2-1.9,0.5-3.7,0.8-5.6c-67.4,33.7-149.6,79.3-150.7,79.9l-0.8,0.4C32,471.1,1.2,496.7-17,526.2l-0.1,0.2
		c-10.2,16.8-15.9,36.4-16.6,56.9c-0.5,16.5,2.6,31.6,8.3,39.2c5.2,7,10.8,11.4,17.6,13.8c10.7,3.7,22.6,2.8,33.6-2.4
		c26.6-12.7,20.9-46.5,20.2-50.3c-2-10.5-7.5-18.1-17-23.4c-8-4.5-15.7-5.5-15.8-5.5l0.1,0l3.6-34.8c18.5,1.9,55.6,16.3,63.4,57.1
		c3.1,16,2,32.8-3,47.3c-6.4,18.7-19.1,32.9-36.5,41.2c-19.4,9.3-40.8,10.6-60.2,3.9c-13.4-4.7-25-13.4-34.3-26
		c-14.3-19.3-15.6-46.7-15.2-61.2c0.9-26.5,8.4-52.1,21.7-73.9l0.3-0.4c21.6-35.1,57.1-65,105.6-88.9c10.4-5.8,157-87,217.9-111.2
		l13.4,32.3c-31.7,13.7-37.9,41.3-22.1,101.1c28-17.4,58.4-31.5,90.1-41.5c51.3-16.3,106-22,158.2-16.6l-3.6,34.8
		c-80-8.3-163.3,12.4-231.1,56.1c1.7,3.3,3.3,6.7,4.9,10.1c8.2,18.3,13.9,38.9,16.9,61.2c4.4,32.3,2,61-7.2,85.1
		c-11.8,30.9-35.5,54.9-63.5,64.1C226.8,696.4,220.9,697.4,215,697.4z M252.8,494.7c-3.6,2.9-7.1,5.8-10.6,8.8
		c-27.1,23.6-44.7,46.8-53.7,70.9c-8.9,23.9-8.6,49.9,0.7,69.6c3.4,7.2,8.9,12.8,15.5,15.9c5.8,2.7,11.4,3.2,17,1.3
		c18-5.9,33.6-22.1,41.7-43.3c7.1-18.6,8.8-41.5,5.2-68c-2.5-19-7.3-36.3-14.1-51.5C254,497.2,253.4,495.9,252.8,494.7z"/>
</g>
</svg>
