<?xml version="1.0" encoding="utf-8"?>
<!-- Generator: Adobe Illustrator 19.0.0, SVG Export Plug-In . SVG Version: 6.00 Build 0)  -->
<svg version="1.1" id="Layer_1" xmlns="http://www.w3.org/2000/svg" xmlns:xlink="http://www.w3.org/1999/xlink" x="0px" y="0px"
	 viewBox="-38 -104 534.3 1000" style="enable-background:new -38 -104 534.3 1000;" xml:space="preserve">
<g id="Guide">
</g>
<g id="Layer_3">
	<g>
		<path d="M269.2,361.6c-6.3,4-11.9,8.1-16.9,12.2c8.4-79.6,40.4-153.2,40.8-154.1l12.7-28.8l-31.2,4.5
			c-38.1,5.4-67.9,17.5-91.3,36.8c-21,17.4-36.6,40.2-47.1,69.3c-9.1-9.5-18.8-17-32.3-23.5l-0.1,0c-9.7-4.5-20.6-9.6-33-12.2
			c-26-5.3-53.9,1.8-74.7,19.2c-19.7,16.5-32.4,42-33.9,68.3c-1.4,24,6.5,46.4,21.5,61.3c16.2,16,36,21.9,58.9,17.5
			c15.1-3,28.5-13.6,36.9-29.2c9.4-17.7,10.5-39.1,2.9-57.1c-8.6-20.2-33-37.1-61.9-35.5c12.3-9.3,28.7-13.2,43.3-10.2
			c8.3,1.7,16.9,5.7,25.2,9.6c16.4,7.8,24.1,17.4,41.1,38.5l23.6,29.3l7.7-36.1c12.2-57.3,39.1-90,87.8-104.8
			c-15,42.2-38.1,120.9-33,194.9l2.7,164.3l35-0.6L251,430.5l0-0.9c-0.1-1.3-0.2-2.6-0.2-3.9c2.6-3.8,14.7-20.5,39-35.6
			c37-23,83.2-31.5,137.3-25.5l3.9-34.8C352.3,321,299.6,342.3,269.2,361.6z M50.2,359.4c3.5,8.4,3,18.5-1.6,27
			c-3.2,6.1-8.1,10.4-12.6,11.3c-11.6,2.3-19.6,0-27.5-7.9c-4.6-4.6-7.9-10.9-9.8-18.1l0,0c0-0.1,0-0.1-0.1-0.2
			c-0.1-0.5-0.2-1-0.4-1.6c-0.3-1.9-0.2-5.1,2.1-9.4c4.4-8.1,12.8-13.6,15.2-14.3C33.9,341.7,47.4,352.8,50.2,359.4z"/>
	</g>
</g>
</svg>
