<?xml version="1.0" encoding="utf-8"?>
<!-- Generator: Adobe Illustrator 19.0.0, SVG Export Plug-In . SVG Version: 6.00 Build 0)  -->
<svg version="1.1" xmlns="http://www.w3.org/2000/svg" xmlns:xlink="http://www.w3.org/1999/xlink" x="0px" y="0px"
	 viewBox="-38 -104 584 1000" style="enable-background:new -38 -104 584 1000;" xml:space="preserve">
<style type="text/css">
	.st0{fill:none;stroke:#000000;stroke-width:35;stroke-miterlimit:10;}
</style>
<g id="Layer_1">
	<g id="Guide">
	</g>
	<path d="M218.7,595.9L216,431.5c-5.1-74,18-152.7,33-194.9c-48.7,14.8-75.6,47.5-87.8,104.8l-7.7,36.1L130,348.2
		c-16.9-21.1-24.7-30.7-41.1-38.5c-8.3-3.9-16.8-7.9-25.2-9.6c-14.6-3-31,0.9-43.3,10.2c28.9-1.6,53.4,15.3,61.9,35.5
		c7.6,18,6.5,39.3-2.9,57.1c-8.3,15.6-21.7,26.3-36.9,29.2c-22.9,4.5-42.7-1.4-58.9-17.5c-15.1-15-22.9-37.3-21.5-61.3
		c1.5-26.3,14.1-51.9,33.9-68.3c20.8-17.4,48.7-24.6,74.7-19.2c12.4,2.6,23.3,7.7,33,12.2l0.1,0c13.5,6.4,23.2,14,32.3,23.5
		c10.6-29.1,26.1-51.9,47.1-69.3c23.4-19.3,53.2-31.4,91.3-36.8l31.2-4.5l-12.7,28.8c-0.5,1.1-49,112.7-42.2,209.8l0,0.9l2.7,164.8
		L218.7,595.9z M-1.3,371.7c1.8,7.2,5.2,13.5,9.8,18.1c8,7.9,15.9,10.2,27.5,7.9c4.6-0.9,9.4-5.2,12.6-11.3c4.5-8.5,5.1-18.6,1.6-27
		c-2.8-6.7-16.3-17.8-34.6-13.2c-2.4,0.7-10.8,6.2-15.2,14.3c-2.3,4.3-2.4,7.5-2.1,9.4c0.1,0.5,0.2,1,0.4,1.6
		C-1.4,371.6-1.3,371.6-1.3,371.7L-1.3,371.7z"/>
	<path id="XMLID_10_" class="st0" d="M390.9,347.5"/>
</g>
<g id="Layer_2">
	<path d="M382.6,529.8c-16.6,0-32.2-4.7-45-13.7c-14.6-10.3-25.8-25.7-35.4-48.4c-3.8-9.2-7.6-18.5-11.2-27.5
		c-2.6-6.5-5.3-13.2-8-19.8c-9.5-23-38.2-20.2-38.5-20.2l-3.7-34.8c1.4-0.2,14.2-1.4,29.2,2.7c21.6,5.8,37.3,19.3,45.4,39
		c2.8,6.7,5.5,13.5,8.1,20c3.6,8.9,7.3,18.1,11,27c6.9,16.4,14.3,27,23.3,33.3c17.4,12.3,46.3,8.6,64.4-8.3
		c17.3-16.1,26.9-42.5,26.2-72.4c-0.4-19-4.6-34.8-12.4-47l29.4-18.9c11.4,17.7,17.5,39.6,18,65.2c0.8,39.9-12.8,75.9-37.4,98.8
		c-14.1,13.1-32.5,21.7-51.9,24.2C390.3,529.5,386.5,529.8,382.6,529.8z"/>
</g>
</svg>
