<?xml version="1.0" encoding="utf-8"?>
<!-- Generator: Adobe Illustrator 19.0.0, SVG Export Plug-In . SVG Version: 6.00 Build 0)  -->
<svg version="1.1" id="Layer_1" xmlns="http://www.w3.org/2000/svg" xmlns:xlink="http://www.w3.org/1999/xlink" x="0px" y="0px"
	 viewBox="59 0 1161 1000" style="enable-background:new 59 0 1161 1000;" xml:space="preserve">
<g id="Guide">
</g>
<g id="Layer_3">
	<path d="M611.8,700.2c-50.9,0-88.3-18.7-89.9-19.6l-0.2-0.1c-18.9-10-34.6-26.5-45.4-47.8c-9.4-18.5-15.1-40.1-16.2-62.5
		c-2.1-40.1,3.9-73.4,11-112c2.3-13,2.8-25.6,1.5-37.3c-1.2-10.1-5.4-16.9-13.5-21.5c-6.5-3.7-13.1-4.5-13.9-4.6l-1.6-0.1l-1.3-0.4
		c-23.8-5.8-48.3,12.7-61,32.3c-11.6,18-18.1,39.2-25,61.7c-2.3,7.5-4.7,15.3-7.3,22.9c-16.6,49.1-40.8,87.2-71.7,113.2
		c-27.2,22.8-63.3,35-101.8,35c-9.8,0-19.7-0.8-29.7-2.4c-25.7-4.1-46.8-17.2-61.2-38c-24.6-35.4-25.7-86.5-18.5-122.5l34.3,6.9
		c-5.5,27.6-5.5,69.2,12.9,95.7c9.1,13.1,21.5,20.8,38,23.4c39.4,6.3,77.1-2.8,103.5-24.9c26-21.8,46.5-54.6,61.1-97.6
		c2.4-7.2,4.7-14.7,7-22c7.3-23.8,14.8-48.3,29.1-70.4c10.4-16.1,25.1-29.8,41.2-38.6c18.4-10,37.8-13.1,56.1-9.1
		c19,1.8,53.5,15.7,58.3,56.9c1.7,15.1,1.1,31.1-1.9,47.5c-6.6,36.5-12.3,67.9-10.5,103.9c1.5,29,13.6,65.5,42.9,81.2
		c1.8,0.9,35,16.8,78.4,15.7c58.4-1.5,107.5-32,146.1-90.7c26.3-40,33.7-75.5,37.8-108c1-7.7,1.2-15.8,0.8-24.2
		c-3.7,2-7.3,3.8-11,5.6c-31.3,15.1-61.5,22.2-104.1,24.4c-16.7,0.9-38.5,0.8-59.3-7.4l-0.1,0c-0.2-0.1-0.4-0.1-0.6-0.2l-0.1,0
		c-0.1,0-0.1-0.1-0.2-0.1c-18-7.4-31.9-22.1-38.3-40.5c-6.5-18.7-4.7-39.3,5-56.7c3.3-6.5,29.1-53.2,92.3-64.7
		c31.4-5.7,63.5,0.7,90.4,18.1c23.9,15.4,41.7,38.1,50.9,64.7c15.9-11.1,33.6-24.5,54.4-40.7c17.1-13.3,63.5-47.4,123.5-76.6
		c58.6-28.5,110.6-42.9,154.3-42.6l-0.2,35c-0.4,0-0.8,0-1.1,0c-87.5,0-201.3,70.2-254.9,111.8c-26,20.2-47.8,36.5-67.6,49.8
		c2.3,17,2.5,33.3,0.6,48.7c-4.6,36.7-13,76.9-43.2,122.9c-56.9,86.4-127.2,105.6-176.2,106.5C614.2,700.1,613,700.2,611.8,700.2z
		 M639.7,432.4c11.3,4.4,25,5.9,44.4,4.9c44.6-2.4,74.2-10.1,111.3-32.1c0-0.1,0-0.2-0.1-0.2l-0.2-0.8
		c-11.8-46.1-57.5-75.6-104.2-67.2c-49.1,8.9-67.2,45.6-67.3,46l-0.6,1.1c-4.9,8.7-5.9,19-2.6,28.3c3.2,9.1,9.8,16.1,18.6,19.7
		C639.2,432.2,639.4,432.3,639.7,432.4z"/>
</g>
</svg>
