<?xml version="1.0" encoding="utf-8"?>
<!-- Generator: Adobe Illustrator 19.0.0, SVG Export Plug-In . SVG Version: 6.00 Build 0)  -->
<svg version="1.1" id="Layer_1" xmlns="http://www.w3.org/2000/svg" xmlns:xlink="http://www.w3.org/1999/xlink" x="0px" y="0px"
	 viewBox="6 -104 679 1000" style="enable-background:new 6 -104 679 1000;" xml:space="preserve">
<g id="Guide">
</g>
<g id="Layer_3">
	<path d="M532.7,864.9l-21.4-27.7c43.9-33.9,72.2-80.6,77.6-128.2c3.4-29.8-3-57.1-17.5-74.9c-12.7-15.5-33.9-26.7-57.5-31.9
		c3.7,25,3.1,54.4-8.6,84.2c-6.4,16.4-16.2,41.2-43,53.5c-28,12.9-63.6,6.7-84.7-14.6c-14.9-15.1-21.6-36.9-18.6-61.6
		c2.3-19.4,10.3-39.5,22-55.2c23.8-32,59.4-38.8,74.6-41.7l0.1,0c4.2-0.8,8.4-1.4,12.7-1.9c-3.3-11.6-8.9-30.7-15.8-54.1
		c-11.3,6.8-23.2,12.8-35.8,18c-37.7,15.7-70.4,19.9-84.3,21.6c-1.5,0.2-2.8,0.4-3.7,0.5l-0.9,0.1c-5.1,0.5-10.5,0.7-16.1,0.7
		c-42.1,0-96-13.6-125.2-39.9c-34.4-30.7-51.6-77-44.9-120.9c3.8-24.6,14.4-46.4,24.8-67.6c11.5-23.6,22.4-46,22.1-69.1
		c-0.3-24.4-12.5-54.3-34.6-61.4c-31-9.9-56.2-9.1-75.1,2.4c-28.5,17.4-34.9,54.7-35,55.1l-0.2,1l-0.3,0.9
		c-3.2,11.8-1.4,25.8,4.8,36.5c3.2,5.5,8.9,12.6,18.2,15l-8.8,33.9c-16.4-4.3-30.5-15.4-39.7-31.3C7.2,287.8,4,264.5,9.4,243.9
		c1.4-7.9,11.4-53.9,50.8-78.2c28-17.3,63.1-19.3,104.4-6.1c39.8,12.8,58.4,57.8,58.9,94.2c0.4,31.5-12.9,58.6-25.7,84.9
		c-9.6,19.7-18.7,38.3-21.6,57.6c-4.9,31.8,8.4,66.9,33.7,89.5c24.8,22.3,78.9,33.7,114.3,30.5c1.1-0.2,2.4-0.3,4-0.5
		c44.7-5.7,82.8-19,114.2-39.7c-16.4-54.7-37.1-121.5-55.4-173.9c-10.5-30-12.7-58.8-6.5-83.4c6.4-25.1,21.1-44.7,42.5-56.6
		c31.2-17.4,66.9-7.7,77.1-4.3l0.2,0.1c42.7,14.7,61.5,52.6,65.2,65.9c5.2,19,28,118.7-35.3,213.4c-13.3,19.8-29,37.3-47.2,52.3
		c11.4,38.4,19.8,67.5,22.1,75.7c9.8,1.1,19.6,3.1,29,6c27.2,8.1,49.5,22.2,64.6,40.7c20.8,25.4,29.7,61.3,25.2,101
		C617.2,769.9,584,825.2,532.7,864.9z M477.9,599.3c-5.3,0.3-10.5,0.9-15.6,1.9l-0.1,0c-12.1,2.3-37.4,7.1-53.1,28.2
		c-13.9,18.6-23.9,53.8-6.6,71.2c10.8,10.9,30.7,14.1,45.3,7.4c14-6.4,19.9-21.3,25-34.5C483,647.3,482.2,620.9,477.9,599.3z
		 M464.2,187.1c-7.9,0-16.5,1.4-24.2,5.7c-28,15.6-35.7,53.2-20,98c16.9,48.7,36,109.6,51.8,161.9c10.9-10.4,20.6-22,29.1-34.9
		c54.7-81.9,35.2-167.9,30.7-184.6c-0.3-1-11.1-31.2-42.8-42.1C485.8,190.1,475.8,187.1,464.2,187.1z"/>
</g>
</svg>
