<?xml version="1.0" encoding="utf-8"?>
<!-- Generator: Adobe Illustrator 19.0.0, SVG Export Plug-In . SVG Version: 6.00 Build 0)  -->
<svg version="1.1" id="Layer_1" xmlns="http://www.w3.org/2000/svg" xmlns:xlink="http://www.w3.org/1999/xlink" x="0px" y="0px"
	 viewBox="-66 -80.1 463 1000" style="enable-background:new -66 -80.1 463 1000;" xml:space="preserve">
<g id="Guide">
</g>
<g id="Layer_5">
	<path d="M286.2,612.6c-27.1-37.4-54-73.4-86.3-103.1c-5.4-5-10.9-9.7-16.5-14.1c-23.4,9.2-49.4,15.6-77.7,19.1l-3.1,0.4
		c-29.1,3.6-69,8.4-94-17.6c-20.2-21-9.8-46.7-1.2-57.8c16.6-23.3,49.5-32.7,88-25.3c31.3,6.1,62.7,19.9,92.6,40.6
		c0.5-0.3,1-0.5,1.5-0.8c41.4-21.3,75.7-58.3,94.2-101.4c18.3-42.9,21.1-93.2,7.5-138.1c-6-19.6-13.9-34.2-24.2-44.5
		c-16.1-16.2-41.7-23.1-63.9-17.2l-0.2,0.1c-0.5,0.2-1.2,0.4-2.1,0.6c-24.5,7.4-42.3,29.9-44.4,56l-0.9,11.7l-35.2-0.9
		c-0.5-18.2-4.8-31-14.8-44.2c-8.7-11.5-22.2-17.1-31.9-19.9c-27.4-7.7-48.6-5.2-66.9,7.9c-5.9,4.3-11.5,9.8-16.4,16.4
		C-23,198.4-24.1,206.9-28,238.5c-0.8,6.6-1.8,14.2-3,22.8l-35-4.9c1.2-8.4,2.1-15.9,2.9-22.4c4.3-33.9,6.2-49.3,25-74.5
		c7.1-9.5,15.2-17.7,24.2-24.1c27.3-19.5,59-23.8,96.9-13.2c21.5,6,39,17.3,50.5,32.5c1.3,1.7,2.5,3.4,3.7,5.1
		c12.5-19,31.3-33.6,53.7-40.3l0.6-0.2c0.1,0,0.2-0.1,0.4-0.1c0.5-0.2,1-0.3,1.5-0.5l0.3-0.1c34.6-9.3,73.2,1,98.3,26.3
		c14.5,14.5,25.3,33.9,33,59.2c8,26.4,11.2,53.9,9.7,81.9c-1.5,28-7.8,55-18.6,80.3c-10.8,25.3-26,48.5-45,69
		c-15.7,17-33.5,31.4-53,43c1.9,1.7,3.8,3.4,5.7,5.1c34.6,31.9,62.8,69.4,90.9,108.3L286.2,612.6z M35.3,461.1
		c-1.4,1.9-5.1,7.8-1.3,11.8c12.8,13.3,40.2,10,64.3,7l3.2-0.4c15.9-2,31-4.9,45.1-8.9c-19.2-10.6-38.7-17.9-57.9-21.7
		c-19-3.7-42.9-2.7-52.7,11.3L35.3,461.1z"/>
</g>
</svg>
