<?xml version="1.0" encoding="utf-8"?>
<!-- Generator: Adobe Illustrator 19.0.0, SVG Export Plug-In . SVG Version: 6.00 Build 0)  -->
<svg version="1.1" xmlns="http://www.w3.org/2000/svg" xmlns:xlink="http://www.w3.org/1999/xlink" x="0px" y="0px"
	 viewBox="0 0 561.6 1000" style="enable-background:new 0 0 561.6 1000;" xml:space="preserve">
<style type="text/css">
	.st0{fill:#FFFFFF;}
</style>
<g id="Guide">
</g>
<g id="Layer_4">
	<g id="XMLID_3_">
		<g id="XMLID_16_">
			<path id="XMLID_46_" class="st0" d="M165.8,1316.4c62.3,19.3,127.8,27.9,193,25.3c3.2-0.1,3.2-5.1,0-5
				c-64.8,2.6-129.7-5.9-191.7-25.1C164,1310.6,162.7,1315.4,165.8,1316.4L165.8,1316.4z"/>
		</g>
	</g>
	<path id="XMLID_5_" d="M114,700.5c-13.8,0-27.4-2-40.4-6c-33.3-10.2-55.5-27.8-66.2-52.3c-15.3-35.2,0.1-70.4,3.4-77.1
		c21-43.3,82.7-78.7,137.1-109.9c23.5-13.5,45.7-26.2,59.9-37.1c16.2-12.4,19.2-42.6,6-62.1c-12.8-19-40.5-27-61.8-17.7
		c-21,9.2-34.4,35.1-29.9,57.8L87.9,403c-3.7-18.8-0.7-39,8.6-56.9c9.3-18,24.1-32.1,41.6-39.8c36.6-16,82.6-2.7,104.8,30.2
		c10.8,16,15.8,36.8,13.9,57c-2.1,21.8-12,40.4-27.6,52.4c-16.1,12.3-39.3,25.6-63.8,39.7c-47.5,27.3-106.7,61.2-123,94.8
		c-4.6,9.5-10.4,30.3-2.7,47.8c6.4,14.7,21.3,25.7,44.4,32.8c46.4,14.3,104.6-7.4,138.5-51.5c34.8-45.3,39.5-108.5,41.1-164.3
		l0.7-24.6l23,8.8c0.5,0.2,60.4,22.1,109.6-10.8c25-16.7,47.6-42.3,69.3-78.5l30,18c-24.4,40.7-50.5,70-79.9,89.6
		c-43.5,29-91.2,26-118.7,20.6c-2.7,55.4-11.2,115.3-47.5,162.5c-19.9,25.8-47.8,46.6-78.7,58.5C152.3,696.8,132.8,700.5,114,700.5z
		"/>
</g>
</svg>
