<?xml version="1.0" encoding="utf-8"?>
<!-- Generator: Adobe Illustrator 19.0.0, SVG Export Plug-In . SVG Version: 6.00 Build 0)  -->
<svg version="1.1" xmlns="http://www.w3.org/2000/svg" xmlns:xlink="http://www.w3.org/1999/xlink" x="0px" y="0px"
	 viewBox="0 0 1007.1 1000" style="enable-background:new 0 0 1007.1 1000;" xml:space="preserve">
<style type="text/css">
	.st0{fill:none;stroke:#000000;stroke-width:35;stroke-miterlimit:10;}
</style>
<g id="Guide">
</g>
<g id="Layer_3">
	<path id="XMLID_5_" d="M491.2,815.7c-17.8,0-35.1-3.8-50.7-11.5c-23.1-11.3-42.2-31.2-53.7-55.9c-11.5-24.8-14.4-52.1-8.2-77.1
		l34,8.5c-8.8,35.3,10.6,77.1,43.3,93.1c40.1,19.6,97,0.7,124.3-41.3c26.8-41.3,30.9-86.8,11.9-135.2c-7.4-19-19.6-35.4-33.3-45
		c-27.1-18.9-87.8-19.7-108.9-18.4l-3.5-34.8c23.8-3.3,41-13.1,59.2-34c16.4-18.8,24.5-42.3,21.7-63.1c-4-29.5-16.6-45.7-43.5-55.6
		c-32.3-12-70.5-14.8-104.7-7.6c-22,4.6-42,11.9-59,21.4c8.4,8,15.7,16.6,21.4,25.5c25.2,40.2,25.5,92.3,0.7,129.8
		c-12.1,18.3-28.3,28.5-45.4,28.7c-11.5,0.1-23-4.3-34.2-13.2c-20.8-16.3-33.7-41.4-36.4-70.6c-2.5-26.8,4.2-54.9,18.2-77.2
		c5-8,11.1-15.7,18-22.8c-16.7-10-34.9-17.7-51-20.9c-35.1-7-72.6,2.3-100.5,25c-55,44.8-80.7,114.4-73.2,194.8
		c2.9-3.8,6.1-7.5,9.7-11.1c13.2-13.1,30.1-22.5,47.5-26.6c19.5-4.6,38.5-2.4,55,6.2c44.3,23.1,61.9,75.7,40.3,119.9
		c-17.6,35.8-54,57.5-90.7,54c-23.4-2.2-44.9-15.2-62.2-37.5c-13.2-17-23.4-38.8-27.9-59.9C-14.2,494,14.8,396.7,88.7,336.4
		c17.3-14.1,37.9-24.5,59.7-30.2c23.1-6,46.6-6.7,69.8-2c21.5,4.3,48.5,15.9,72.6,31.9c22.7-14.9,50.3-26.1,81-32.6
		c40.4-8.5,85.6-5.2,124,9.1c38.8,14.4,60.4,41.8,66,83.8c4.2,31.1-6.7,64.2-30,90.8c-4.1,4.6-8.6,9.5-13.8,14.3
		c25.9,4,46.2,11.1,60.7,21.2c19.3,13.5,36,35.7,45.9,60.9c23,58.7,17.7,116.5-15.2,167.1c-17,26.2-44.3,47.2-74.9,57.7
		C520.1,813.3,505.5,815.7,491.2,815.7z M60.4,635.6c10.2,15.5,24.6,28.5,42.4,30.2c22.3,2.1,44.8-11.8,56-34.6
		c13.2-27,2.2-59.2-25-73.4c-18.2-9.5-43.6-3.6-61.7,14.3C65.2,578.9,44.2,603.4,60.4,635.6z M291.1,380.2
		c-6.8,6.4-12.6,13.3-17.2,20.7c-19,30.3-19.5,78.4,10.2,101.7c4.7,3.7,9.1,5.8,12.3,5.7c4.9,0,11.2-5,16.5-13
		c17.1-25.8,16.6-63.6-1.2-91.9C307,395.7,299.7,387.8,291.1,380.2z"/>
	<path id="XMLID_6_" class="st0" d="M1132.8,416.7"/>
	<path id="XMLID_20_" d="M645.8,534.2c-2.4,0-4.8,0-7.3-0.1c-136.8-2.5-156.1-0.5-157.8-0.3c0.2,0,2.1-0.3,4.3-1.4l-15.1-31.6
		c3.1-1.5,5-2.4,29.7-2.8c28-0.5,75-0.2,139.6,1.1c2.2,0,4.5,0.1,6.7,0.1c145.5,0,278.9-87.1,280.3-88l19.3,29.2
		c-1.5,1-37.4,24.6-93.1,48C802.3,509.5,726.4,534.2,645.8,534.2z"/>
</g>
</svg>
