<?xml version="1.0" encoding="utf-8"?>
<!-- Generator: Adobe Illustrator 19.0.0, SVG Export Plug-In . SVG Version: 6.00 Build 0)  -->
<svg version="1.1" xmlns="http://www.w3.org/2000/svg" xmlns:xlink="http://www.w3.org/1999/xlink" x="0px" y="0px"
	 viewBox="0 0 648 1000" style="enable-background:new 0 0 648 1000;" xml:space="preserve">
<g id="Guide">
</g>
<g id="Layer_3">
	<path id="XMLID_18_" d="M223.4,699.6c-12.8,0-25.5-1.8-37.8-5.7c-30.5-9.5-54.7-30.3-64.8-55.6c-13.2-33.1-4-73.3,26.6-116.3
		c4.2-5.9,8.6-11.7,12.9-17.4c16.9-22.5,32.9-43.7,37.6-67.9c6.4-33-11.2-70.3-42.9-90.7c-11.3-7.3-22.1-11.1-32-11.5
		c-11.6-0.4-24.5,3.9-38.2,12.7c-23,14.8-39.5,36.6-45.1,59.8c-2.2,9.3-2.8,19.1-1.7,28.7c23.2-12.8,59-14.3,76.9,4.6
		c10.2,10.7,14.4,26.5,11.4,42.1c-3.1,16.1-13.3,29.5-27.3,35.9c-16,7.3-36.3,5.8-52.8-4c-12.8-7.6-23.4-19.5-31.4-35.3
		c-12.4-24.8-15.7-53.2-9.2-80.1c7.7-31.9,29.6-61.4,60.2-81c19.8-12.7,39.5-18.9,58.3-18.2c16.4,0.6,33.1,6.3,49.8,17
		c20.5,13.2,37.6,32.6,48.1,54.7c11.2,23.5,14.7,48.4,10.2,72.1c-6.2,32.1-25.4,57.7-44,82.3c-4.3,5.7-8.4,11.1-12.3,16.7
		c-16.3,22.9-33.5,55.8-22.6,83c6.3,15.7,22.2,28.8,42.7,35.2c37.9,11.8,84-3.1,107.1-34.6c27.7-37.6,29.6-84,28.5-140.4l-0.1-5
		c0,0,0,0,0,0v0l35-0.8c0,1.6,0.1,3.2,0.1,4.8l1,45.6c5.7,31.4,11.5,59.3,24.2,83.6c13.7,26.2,35.4,44.7,58,49.6
		c25.2,5.5,55.1-5.8,74.3-28c17.8-20.6,27.9-50.2,28.3-83.3c0.8-64.9-36.5-131.8-95.1-170.6l19.3-29.2c33,21.8,60.8,51.6,80.5,86.3
		c20.3,35.9,30.8,75.3,30.3,113.9c-0.5,41.4-13.6,78.9-36.8,105.8c-27.8,32.1-70.3,47.6-108.2,39.3c-33-7.2-62.8-31.8-81.5-67.5
		c-3.5-6.6-6.5-13.4-9.2-20.2c-5,12.9-11.7,25.2-20.4,37C306.8,680.1,265.1,699.6,223.4,699.6z M50.1,470c3.4,5.2,8,10.6,14,14.1
		c6.8,4,14.8,4.9,20.5,2.3c3.6-1.7,6.5-5.8,7.4-10.7c0.9-4.6,0-8.8-2.4-11.3c-2.5-2.6-10.7-4.4-21-2.6C58.3,463.5,52,467.8,50.1,470
		z"/>
</g>
</svg>
