<?xml version="1.0" encoding="utf-8"?>
<!-- Generator: Adobe Illustrator 19.0.0, SVG Export Plug-In . SVG Version: 6.00 Build 0)  -->
<svg version="1.1" id="Layer_1" xmlns="http://www.w3.org/2000/svg" xmlns:xlink="http://www.w3.org/1999/xlink" x="0px" y="0px"
	 viewBox="109 -50 1217 1100" style="enable-background:new 109 -50 1217 1100;" xml:space="preserve">
<style type="text/css">
	.st0{fill:none;stroke:#010101;stroke-width:35;stroke-miterlimit:10;}
	.st1{fill:#010101;}
</style>
<g id="Guide">
</g>
<g>
	<g id="Layer_4">
		<path id="XMLID_6_" class="st0" d="M618,333.2"/>
		<path id="XMLID_10_" class="st0" d="M618,333.2"/>
		<g id="Layer_4_1_">
			<path id="XMLID_4_" class="st0" d="M356.8,342.4"/>
			<path id="XMLID_3_" class="st0" d="M356.8,342.4"/>
			<path class="st1" d="M400.2,897.5c-16.3,0-32.7-1.2-49.1-3.6c-63.6-9.3-121.2-36-154.1-71.7l-0.4-0.4
				c-59.6-68.8-63.3-101.7-68-143.3c-0.9-7.8-1.8-15.8-3.1-24.5l34.6-5.3c1.4,9.4,2.4,17.8,3.3,25.9c4.3,38.3,7.2,63.7,59.4,124.1
				c27.3,29.4,78.3,52.6,133.2,60.6c65.4,9.5,131.4-2.6,186-34.1c30.4-17.6,61-49.2,86.2-89c22.5-35.6,37.5-73.9,39.1-99.9
				c2-30.9,6.6-103.1-51.3-136.7c-13.8-8-67.1-8.4-98.7-6.2l-34.6,2.4l18.7-29.3c0.3-0.4,27.7-43.6,38-67.3
				c10.8-24.7,5.9-71.1,3-87.5c-18.3-75.5-62-110.8-86.5-125.1l-0.8-0.5c-7.3-4.8-15.6-9-24.8-12.4c-44.4-16.6-95.6-11.2-136.9,14.5
				c-27.4,17.1-49.5,41.2-65.6,71.7l-0.3,0.6c-0.4,0.6-37.9,68.1-15.4,139.8l0.2,0.7c10.6,39.8,34.2,65.5,63,68.8
				c19.1,2.2,36.3-6.3,44.8-22.2c1.9-3.6,18-35.6-8.5-53.9c-14.8-10.2-26.3-6.7-31.8-3.8c-7.9,4.2-12.9,12.1-12.8,20.2l-35,0.6
				c-0.3-21,11.9-41.3,31.2-51.6c21.1-11.3,46.6-9.1,68.2,5.8c17.3,11.9,27.6,29,29.8,49.4c1.8,16.4-1.9,34.1-10.3,49.9
				c-13.7,25.6-40.4,41-69.9,41c-3.2,0-6.5-0.2-9.8-0.6c-20.3-2.4-39.5-11.7-55.4-27.1c-17.2-16.6-29.8-39.2-37.3-67.1
				c-26.4-84.7,14.8-160.8,18.4-167.1c19-35.9,45.2-64.5,77.9-84.8c24.8-15.4,53-25.2,81.8-28.3c29.1-3.2,58.8,0.5,85.9,10.7
				c11.5,4.3,22,9.6,31.4,15.7c20.1,11.8,38.1,27.3,53.7,46.1c23,27.9,39.5,62,48.9,101.3l0.2,1c1.2,7,11.7,69.1-5.3,108.2
				c-5.6,12.8-15,29.8-23.5,44.1c4.2,0,8.7,0,13.3,0c35.4,0.5,59.1,4.4,72.2,12c76.7,44.5,70.9,135.2,68.7,169.3
				c-2.1,32-18.7,75.5-44.5,116.4c-28.1,44.6-63,80.3-98.3,100.7c-32.4,18.7-67.9,31.4-105.4,37.6
				C436.3,896.1,418.3,897.5,400.2,897.5z"/>
		</g>
	</g>
	<path class="st1" d="M944.3,616.2l7.5-40c2.6-14,5.1-32.8,1-53.4l-0.1-0.5c-13.3-80-35.9-103.3-61.9-123.6
		c-22.1-17.3-63.9-26.8-91.4-26.1c-34.8,0.9-57.4,16.6-65.9,22.5c-1.3,0.9-2.3,1.6-3.3,2.2c-36.7,23-55.4,78.1-63.3,101.6
		c-1.2,3.7-2.2,6.6-3.1,8.8l-32.7-12.5c0.6-1.6,1.5-4.3,2.6-7.5c9.1-27.1,30.6-90.4,77.9-120.1c0.3-0.2,1.2-0.8,1.9-1.3
		c9.8-6.8,39.7-27.5,84.9-28.7c34.1-0.9,84.1,10.3,113.9,33.5c36.9,28.8,61,61.8,74.9,145.2c2.1,10.7,2.8,20.9,2.7,30.4
		c21.1-11.8,52-27.8,88.6-43.3c40.5-17.1,79.7-29.9,116.6-38.1c46.7-10.4,89.7-13.3,128-8.8l-4.2,34.8
		c-151-18-338.6,101.6-340.4,102.8L944.3,616.2z"/>
</g>
</svg>
