<?xml version="1.0" encoding="utf-8"?>
<!-- Generator: Adobe Illustrator 19.0.0, SVG Export Plug-In . SVG Version: 6.00 Build 0)  -->
<svg version="1.1" id="Layer_1" xmlns="http://www.w3.org/2000/svg" xmlns:xlink="http://www.w3.org/1999/xlink" x="0px" y="0px"
	 viewBox="48 -104 707 1000" style="enable-background:new 48 -104 707 1000;" xml:space="preserve">
<g id="Layer_5">
	<g>
		<path d="M683.5,307c-5.7-38.3-27.1-71-57.4-87.3c-12.3-6.6-26.9-11.1-43.3-13.2c-42.6-5.7-85.5,5.9-114.8,31.2
			c-8.8,7.6-16.1,16.6-21.7,27c-5-9.6-11.2-18.5-18.8-26.1c-24.6-24.9-46.1-32.4-70.7-36c-18.7-2.8-39.2,0-59.2,8.1
			c-11,4.5-20.2,11.9-26.9,17.2c-13,10.3-23.3,24.2-31.5,38.8c-8.8-24-30.2-45.7-55.4-54.8c-32.6-11.9-68.9-0.2-97,31.3
			c-29.8,33.4-37.5,76.2-38.7,106.2c-2.1,51.6,20.2,104.9,61.3,146.2c33.3,33.6,78.6,59.8,134.6,77.8c20.6,6.7,38.9,11.1,55.9,13.6
			c20.7,3,41.6,3.6,61.1,3.6c5.5,0,10.9,0,16.2-0.1c21.9-0.1,41.7-0.4,61.8-2.8c49.7-6.2,97.9-26.9,139.3-59.9
			C619,495.3,650.4,453.2,669,406C683.1,370.5,688,337.1,683.5,307z M636.4,393.2C603,477.8,521.9,542,434.6,552.9
			c-18.2,2.2-36.9,2.5-57.7,2.6c-22.5,0.2-48,0.4-72-3.1c-15-2.2-31.4-6.2-50.1-12.2c-50.7-16.3-91.2-39.6-120.5-69.2
			c-34.2-34.5-52.8-78.3-51.1-120.2c1.4-34.4,12-64.3,29.9-84.3c5.7-6.4,23.6-24.1,45.4-24.1c4.4,0,9,0.7,13.6,2.4
			c17.5,6.3,33,23.4,36.1,39.7c3.1,16.3,3.2,32.5,3.2,49.5c0,5.4,0,11,0.2,16.7l34.8,2.3c3-19.3,17.2-74.6,46.4-97.8l0,0
			c6.6-5.2,12.4-9.8,18.2-12.1c14.2-5.7,28.3-7.8,40.9-5.9c19.5,2.9,32.8,7.7,50.9,26c21.2,21.5,27.4,60.7,29.2,83.7
			c0.1,0.8,0.1,1.7,0.2,2.5l34.9-2.5c-0.1-0.9-0.1-1.8-0.2-2.7c-2.5-37.6,5.4-63.8,24.2-80c21.8-18.8,54.4-27.4,87.3-23
			c12.2,1.6,22.8,4.8,31.3,9.3c20.3,11,35.4,34.6,39.4,61.7C652.5,336.1,648.3,363.3,636.4,393.2z"/>
	</g>
</g>
</svg>
