<?xml version="1.0" encoding="utf-8"?>
<!-- Generator: Adobe Illustrator 19.0.0, SVG Export Plug-In . SVG Version: 6.00 Build 0)  -->
<svg version="1.1" id="Layer_1" xmlns="http://www.w3.org/2000/svg" xmlns:xlink="http://www.w3.org/1999/xlink" x="0px" y="0px"
	 viewBox="0 0 658 1000" style="enable-background:new 0 0 658 1000;" xml:space="preserve">
<style type="text/css">
	.st0{fill:none;stroke:#000000;stroke-width:39.5786;stroke-miterlimit:10;}
</style>
<g id="Guide">
</g>
<g id="Layer_4">
	<path id="XMLID_6_" class="st0" d="M234,432.7"/>
	<path id="XMLID_10_" class="st0" d="M234,432.7"/>
	<path d="M421.3,761.5c-14.6,0-28.9-1.9-42.5-5.7c-30.8-8.6-57-26.4-77.7-52.7l28.1-22.1c43,54.6,103.3,46.4,127.1,40.3
		c50.7-12.9,92.4-50.8,99.2-90.3c11.6-67.4,16.8-127.3-36.6-177.2c-22.5-21-46.5-34.1-71.6-39c6.2,23.6,6.6,48,1.1,72.4
		c-1,4.4-2.2,9.4-3.7,14.7c-7.5,27.6-20.6,50-39,66.6c-16.6,14.9-36.6,24.1-57.9,26.6c-36,4.2-69.4-11.5-85-40.1
		c-7.7-14-12-39.6-9.3-54.7c5.4-29.8,23.2-52.5,33.3-63.4l0.1-0.1c18-19.1,54.3-45.1,97.8-55.4c2.3-0.6,4.7-1.1,7.1-1.5
		c0,0,0-0.1-0.1-0.1c-9.8-13.8-21.5-24-34.9-35.8c-5.6-4.9-11.4-10-17.4-15.6l-112.2-87.2c-24.5,17.3-84.7,60.6-112.6,86.9
		c-6.3,5.9-12.3,11.1-18.1,16.2C83.1,356,71.4,366.1,61.6,380c-22.3,31.5-29.6,65-21.8,99.5c1,4.5,2.2,9.2,3.3,13.2
		c10.4,38.4,35.4,63.5,66.6,67.1c21.4,2.5,40.8-6,49.3-21.7c1.9-3.5,17.8-34.5-8.3-52.3c-16.2-11-29.9-5.7-35.1-3
		c-8,4.3-13.1,11.6-13,18.6L67,502.1c-0.3-20.5,11.8-39.9,31.8-50.6c22.7-12.3,49.7-10.4,72.2,4.9c36.9,25.1,36,68.9,19.6,98.9
		c-15.5,28.6-48.8,44.3-84.8,40.1c-21.3-2.5-41.3-11.7-57.9-26.6c-18.4-16.6-31.6-39-39.1-66.7c-1.2-4.4-2.6-9.6-3.7-14.7
		c-10-44.2-0.5-88.5,27.5-128c12.3-17.4,26-29.4,40.6-42c5.6-4.8,11.3-9.9,17.1-15.3c37.2-35.1,123.8-95.2,127.5-97.8l10.8-7.5
		l134.3,104.4l0.6,0.6c5.7,5.4,11.5,10.4,17,15.2c14.6,12.7,28.3,24.7,40.6,42c4.2,5.9,7.9,11.8,11.2,17.9
		c33.4,1.8,72.4,14.5,111.2,50.7c30.8,28.7,48.3,62.7,53.7,103.7c4.7,36.1-0.8,73.5-6.3,105.7c-9.2,53.5-60.9,102.4-125.6,118.9
		C450.5,759.6,435.7,761.5,421.3,761.5z M313,461.2c-7.5,8.1-20.5,24.7-24.3,45.5c-1.3,7,1.8,24.4,5.5,31.1
		c8.6,15.7,28,24.3,49.4,21.7c31.2-3.7,56.1-28.8,66.6-67.1c1.3-4.8,2.4-9.2,3.3-13.1c5.1-22.6,3.8-44.7-4-66.1
		c-5.5,0.6-11,1.6-16.6,2.9C354.8,425.2,324.8,448.7,313,461.2z"/>
</g>
</svg>
