<?xml version="1.0" encoding="utf-8"?>
<!-- Generator: Adobe Illustrator 19.0.0, SVG Export Plug-In . SVG Version: 6.00 Build 0)  -->
<svg version="1.1" id="Layer_1" xmlns="http://www.w3.org/2000/svg" xmlns:xlink="http://www.w3.org/1999/xlink" x="0px" y="0px"
	 viewBox="0 0 660 1000" style="enable-background:new 0 0 660 1000;" xml:space="preserve">
<style type="text/css">
	.st0{fill:none;stroke:#000000;stroke-width:39.5786;stroke-miterlimit:10;}
</style>
<g id="Guide">
</g>
<g>
	<g id="Layer_4_1_">
		<path id="XMLID_4_" class="st0" d="M241,433.4"/>
		<path id="XMLID_2_" class="st0" d="M241,433.4"/>
		<path d="M355.5,825.3c-9.3,0-18.4-0.5-27.5-1.4c-48.1-5.1-92.8-23.8-129.4-54.1c-49.5-41-67.3-119.6-68-122.9l34.9-7.7
			c0.2,0.7,16,70,56,103.1c62.5,51.8,150.7,61.6,235.7,26.3c50.8-21.1,90.2-72.4,105.5-137.4c11.5-67.2,16.6-126.9-36.7-176.7
			c-38.3-35.7-80.7-48.4-126-37.6c-38.2,9.1-68.2,32.6-80,45.1L294,437.5c18-19.1,54.3-45.1,97.8-55.4c39.7-9.4,99.4-9.1,158.7,46.3
			c30.8,28.7,48.3,62.7,53.7,103.7c4.7,36.1-0.8,73.5-6.3,105.7l-0.2,1c-17.8,76.3-65.2,137.2-126.7,162.7
			C433,817.3,393.6,825.3,355.5,825.3z"/>
	</g>
	<g id="Layer_4">
		<path id="XMLID_6_" class="st0" d="M231.1,433.7"/>
		<path id="XMLID_10_" class="st0" d="M231.1,433.7"/>
		<path d="M346.3,597.6c-30.4,0-57.8-15.5-71.6-41.2c-16.1-30-20.1-53.3,2.6-97.2c5-9.8,16.8-22.6,23.6-28.7l23.9,26.9
			c-5.5,4.9-13.5,14.3-15.6,18.3c-18.2,35.1-12.4,45.8-2.8,63.7c8.3,15.5,26.5,24.1,46.3,21.8c29.9-3.5,54.1-29,64.7-68.4
			c10.7-39.7,11.8-70.6,4-103.2c-20.4-85.1-71.3-120.5-86.4-129.3c-40.1-23.5-84.6-31.7-132.3-24.5c-60.1,9-113.3,47-142.1,101.7
			c-8.6,16.1-15.1,33.4-19.4,51.5c-7.8,32.9-6.6,63.8,4,103.3c10.5,39.4,34.7,65,64.6,68.4c19.8,2.3,38-6.3,46.3-21.9
			c1.9-3.6,17.8-35.2-8.4-53.3c-15.9-11-29.5-5.8-34.6-3.1c-8.2,4.4-13.3,11.9-13.2,19.1l-36,0.6c-0.3-20.9,12-40.6,32.2-51.4
			c22.7-12.2,49.6-10.2,72,5.2c17.4,12,27.7,29.2,30,49.8c1.8,16.5-1.9,34.3-10.4,50.2C174,581.6,146.5,597,116.1,597
			c-3.5,0-7-0.2-10.5-0.6C84.6,594,65,584.6,48.6,569.3c-17.9-16.8-30.8-39.6-38.3-67.7c-12.2-45.6-13.5-81.8-4.2-120.9
			c5-21.1,12.6-41.3,22.6-60c16.9-32.1,41.4-60.1,70.6-80.9c29-20.6,62.8-34.3,97.9-39.5c55.2-8.3,109.1,1.7,155.9,29.1
			c18.2,10.6,79.5,53,103.2,151.9c9.2,38.3,7.9,75.6-4.2,121c-7.6,28.1-20.5,50.9-38.4,67.7c-16.3,15.3-36,24.7-56.9,27.1
			C353.2,597.4,349.7,597.6,346.3,597.6z"/>
	</g>
</g>
</svg>
