<?xml version="1.0" encoding="utf-8"?>
<!-- Generator: Adobe Illustrator 19.0.0, SVG Export Plug-In . SVG Version: 6.00 Build 0)  -->
<svg version="1.1" id="Layer_1" xmlns="http://www.w3.org/2000/svg" xmlns:xlink="http://www.w3.org/1999/xlink" x="0px" y="0px"
	 viewBox="28 -80.1 651 1000" style="enable-background:new 28 -80.1 651 1000;" xml:space="preserve">
<g id="Guide">
</g>
<g id="Layer_4">
	<path d="M417,619.5c-34.7,0-60.8-8.9-71.7-13.4c-25.5-10.3-49.3-26.8-67.1-46.6c-15.6-17.5-31.4-44.3-40.4-68.4
		c-16.3-43.7-6.8-66.6,4-78c24.7-26.3,64.6-18.8,96.7-12.9c11,2.1,21.5,4,30.1,4.5c9.5,0.5,12.4-1.1,12.9-1.4
		c5.4-3.6,5.4-16.9,0-32.4c-9.6-27.3-33.3-57.3-61.8-78.2c-24.5-18-64.4-38.4-115.6-33.7c-18.1,1.7-61.1,14.1-94.1,48.6
		c-10.9,11.3-32.8,37.5-40.9,72.8c0.6-0.4,1.3-0.8,1.9-1.2c28.3-17.2,61.3-12.5,81.4-0.2c10,6.2,16.6,13.7,19.6,17.7
		c11.7,15.4,14.2,31.7,14.7,40.1c1.2,19.6-5.3,46.5-27.1,63.4c-14.5,11.3-33.8,15.9-54.2,13c-16.9-2.4-33.9-10-46.5-20.8
		c-28.9-24.6-30.1-60.5-30.8-79.8c-1.1-30.4,6.8-60.6,23.2-89.5c8.5-15,19.1-29.1,31.3-41.8c40.6-42.5,93.3-57.8,118-60.1
		c63-5.8,111.8,19,141.6,40.9c35,25.7,63.1,61.7,75.2,96.3c11.9,34.1,6.3,62.8-15,76.8c-18.7,12.3-44,7.5-70.9,2.5
		c-24.2-4.5-51.5-9.6-62,1.5c-2.6,2.8-5.1,14.4,4,38.7c7.3,19.7,20.6,42.4,33.1,56.3c14,15.5,32.8,28.6,53,36.7l0.1,0
		c7.9,3.2,36.7,13.5,74,9.7c9.1-0.9,18-2.7,27.4-5.3c57.4-16.4,101-66,111.2-126.2c8.3-48.9,9.9-106.2,4.9-170.5l37.9-3
		c5.2,67.3,3.5,127.8-5.3,179.7c-6.2,36.6-22.3,70.5-46.6,98.2c-24.6,28-56.3,48.2-91.8,58.3c-11.4,3.2-22.8,5.4-33.9,6.5
		C430.5,619.2,423.6,619.5,417,619.5z M71.3,445.4c2.5,6.7,6.4,12.9,12.2,17.9c12.2,10.5,37.4,18.6,52.7,6.7
		c9.5-7.4,13.1-20.9,12.5-31.1l0-0.2c-0.2-3.2-1.2-11.5-6.9-19.1c-0.9-1.1-4.2-5.2-9.2-8.3c-9.9-6-27.1-8.5-41.6,0.3
		c-18.1,11.1-19.2,32.9-19.3,33.8L71.3,445.4z"/>
</g>
</svg>
