<?xml version="1.0" encoding="utf-8"?>
<!-- Generator: Adobe Illustrator 19.0.0, SVG Export Plug-In . SVG Version: 6.00 Build 0)  -->
<svg version="1.1" id="Layer_1" xmlns="http://www.w3.org/2000/svg" xmlns:xlink="http://www.w3.org/1999/xlink" x="0px" y="0px"
	 viewBox="-6 -104 973 1000" style="enable-background:new -6 -104 973 1000;" xml:space="preserve">
<g id="Guide">
</g>
<g id="Layer_3">
	<path d="M301.2,596.3c-42.1,0-96-13.6-125.2-39.9c-34.4-30.7-51.6-77-44.9-120.9c3.8-24.6,14.4-46.4,24.8-67.6
		c11.5-23.6,22.4-46,22.1-69.1c-0.3-24.4-12.5-54.3-34.6-61.4c-31-9.9-56.2-9.1-75.1,2.4c-28.5,17.4-34.9,54.7-35,55.1l-0.2,1
		l-0.3,0.9c-3.2,11.8-1.4,25.8,4.8,36.5c3.2,5.5,8.9,12.6,18.2,15l-8.8,33.9c-16.4-4.3-30.5-15.4-39.7-31.3
		C-3.3,332.3-6.4,309-1,288.4c1.4-7.9,11.4-53.9,50.8-78.2c28-17.3,63.1-19.3,104.4-6.1c39.8,12.8,58.4,57.8,58.9,94.2
		c0.4,31.5-12.9,58.6-25.7,84.9c-9.6,19.7-18.7,38.3-21.6,57.6c-4.9,31.8,8.4,66.9,33.7,89.5c24.9,22.4,79.4,33.8,114.7,30.4
		l0.7-0.1l0.7,0c0.3,0,31.2-0.7,67.3-14.3c46.9-17.8,80.3-48.3,99.3-90.7c6.2-13.9,12.4-28.8,15.2-44.1
		c11.6-65.5-8.9-141.5-50.2-187.5c-3.6-3.6-5.5-5.9-5.8-6.3l26.3-23c1.6,1.7,3.2,3.4,4.8,5.1c9,8.6,35.3,30,85.4,42
		c59.9,14.4,166.7,18.3,335.1-45.3l12.4,32.7c-78.8,29.7-151.8,48-216.9,54.1c-52.9,5-100.9,2.1-142.7-8.5
		c-11.9-3-22.7-6.6-32.4-10.3c20.2,47.1,27.5,102.1,18.5,153c-3.4,19.1-10.9,37-17.6,52.2c-22.8,51-64.3,88.9-120.1,109.7
		c-38.7,14.4-71.6,16-77.2,16.1C311.8,596.1,306.6,596.3,301.2,596.3z"/>
</g>
</svg>
