<?xml version="1.0" encoding="utf-8"?>
<!-- Generator: Adobe Illustrator 19.0.0, SVG Export Plug-In . SVG Version: 6.00 Build 0)  -->
<svg version="1.1" xmlns="http://www.w3.org/2000/svg" xmlns:xlink="http://www.w3.org/1999/xlink" x="0px" y="0px"
	 viewBox="0 0 302.1 1000" style="enable-background:new 0 0 302.1 1000;" xml:space="preserve">
<g id="Guide">
</g>
<g id="Layer_3">
	<path id="XMLID_18_" d="M164.6,701.3l-5.4-61.9c-6.2-71.1-0.9-142.4,15.7-211.9c8.1-33.9,14.3-59.9,18.6-77.8
		c-25.2,7-43.3,9.6-60.9,12.1c-9.3,1.4-19,2.8-29.7,4.8c-12.8,2.4-30.9,11-44.9,21.4c7.8,0.5,14.1,1.6,17.2,2.3
		c22.2,5.4,37,29.7,32.3,53c-4,19.9-20.9,36.4-42.2,41c-13,2.8-26.1,1.1-36.8-4.9c-12.5-7-21.9-20.1-25.7-35.9
		c-2.7-11.2-1.2-21.5,0.1-30.7c0.2-1.1,0.3-2.2,0.5-3.4C8.8,369.5,66,339,96.5,333.1c11.5-2.2,21.5-3.6,31.2-5.1
		c23.2-3.4,45.1-6.5,83.9-19.7l29.2-9.9l-7.1,30c-0.9,3.7-9.5,39.7-25.5,107c-15.7,65.9-20.7,133.5-14.9,201l5.4,61.9L164.6,701.3z
		 M36,423.3c-0.6,4.7-0.8,9,0,12.4c1.5,6.4,5,11.7,9.1,14c3.4,1.9,8.1,2.4,12.9,1.3c7.9-1.7,14.6-7.7,15.9-14.3
		c1.1-5.3-2.5-12-6.8-13.1C57.8,421.4,43.7,421.6,36,423.3z"/>
</g>
</svg>
