<?xml version="1.0" encoding="utf-8"?>
<!-- Generator: Adobe Illustrator 19.0.0, SVG Export Plug-In . SVG Version: 6.00 Build 0)  -->
<svg version="1.1" id="Layer_1" xmlns="http://www.w3.org/2000/svg" xmlns:xlink="http://www.w3.org/1999/xlink" x="0px" y="0px"
	 viewBox="-348 0 461.3 1000" style="enable-background:new -348 0 461.3 1000;" xml:space="preserve">
<style type="text/css">
	.st0{fill:#FFFFFF;}
</style>
<g id="Guide">
</g>
<g>
	<g id="Layer_3">
		<path d="M-183.7,701.3l-5.4-61.9c-6.2-71.1-0.9-142.4,15.7-212c5.3-22.4,12.9-54,18.4-77.1c-24.9,6.8-42.8,9.4-60.2,11.9
			c-9.3,1.4-19,2.8-29.8,4.8c-8.8,1.7-20.1,6.4-30.9,12.8c3.9,1.2,7.7,2.8,11.3,4.9c20.2,11.3,29.6,33.8,24.5,58.7
			c-4,20.1-21.1,36.7-42.4,41.3c-13.1,2.8-26.2,1.1-37-4.9c-12.7-7.1-22.2-20.3-25.9-36.2l0-0.1c-3.8-16.6,0.3-33.8,0.9-36
			c5.6-22.4,24.6-39.8,39.6-50.4c17-12.1,37.5-21.5,53.6-24.5c11.5-2.2,21.5-3.6,31.3-5.1c23.2-3.4,45-6.5,83.8-19.6l30.2-10.2
			l-7.6,30.9c-0.9,3.7-10.2,42.6-25.5,106.8c-15.7,65.9-20.7,133.5-14.9,200.8l5.4,61.9L-183.7,701.3z M-311.5,435.7
			c1.5,6.2,4.8,11.3,8.9,13.6c3.2,1.8,7.9,2.3,12.5,1.3c7.7-1.7,14.3-7.6,15.6-14.1c1.2-5.8,1.8-16.2-7.4-21.3l-0.3-0.2
			c-7.6-4.4-16.2-2.9-21.6,0.1c-4.9,2.6-8.1,6.6-8.3,10.4h0C-312.3,428.9-312.2,432.5-311.5,435.7z"/>
	</g>
	<g>
		<line class="st0" x1="-168.9" y1="503" x2="49" y2="427"/>
		<rect x="-77.4" y="349.6" transform="matrix(0.3294 0.9442 -0.9442 0.3294 398.8513 368.4558)" width="35" height="230.8"/>
	</g>
</g>
</svg>
