<?xml version="1.0" encoding="utf-8"?>
<!-- Generator: Adobe Illustrator 19.0.0, SVG Export Plug-In . SVG Version: 6.00 Build 0)  -->
<svg version="1.1" xmlns="http://www.w3.org/2000/svg" xmlns:xlink="http://www.w3.org/1999/xlink" x="0px" y="0px"
	 viewBox="0 0 725 1000" style="enable-background:new 0 0 725 1000;" xml:space="preserve">
<g id="Guide">
</g>
<g id="Layer_4">
</g>
<g id="Layer_3">
	<path id="XMLID_8_" d="M537.6,700c-9,0-17.6-0.5-25.6-1.2c-13.3-1.1-28.9-2.9-44.2-7.7c-32.1-10.1-60.6-33-80.4-64.5
		c-16.5-26.3-26.9-58.1-30.8-94.6l38.6-4.2c3.3,30.6,11.8,56.9,25.1,78.2c14.9,23.7,35.9,40.8,59.2,48.2c11.6,3.7,24.5,5.1,35.7,6
		c23.2,1.9,52.6,2.5,74.5-10.3c29.5-17.2,40.1-55,37.4-84.8c-1.2-13.4-4.5-23.5-10.2-30.9c-9.3-12.1-37.1-17.5-53.3-18.8
		c-2.2,0-4.5-0.2-6.7-0.4l2.5-38.7c0.9,0,2.8,0.1,5.4,0.3c21.2-0.2,42.7-19,47.2-42.2c4.7-24.3-7.1-52.7-29.3-70.6
		c-20.5-16.5-49.9-25.6-82.6-25.4c-18.4,0.1-34.5,3-47.9,8.6c-35.3,14.8-59.5,50.9-82.9,85.8l-2.5,3.7
		c-28.7,42.8-62.1,84.1-111.6,96.4c-31.8,7.9-67.8,2.9-109.9-15.2l15.3-35.6c34.1,14.7,61.9,19,85.2,13.2
		c36.8-9.1,64.4-44,88.7-80.3l2.5-3.7c25.3-37.8,54-80.7,100.1-100c18.1-7.6,39.2-11.5,62.7-11.6c41.7-0.2,79.7,11.9,107.1,34
		c33.6,27.1,50.5,69.6,43.1,108.2c-3.5,18.2-13.3,35.8-27.3,49.2c9.6,4.8,18.4,11.1,24.9,19.5c10.4,13.4,16.3,30.2,18.2,51.2
		c2.1,23.2-1.7,47.5-10.7,68.4c-10,23.3-25.8,41.7-45.8,53.4C586.7,696.6,561,700,537.6,700z"/>
	<path id="XMLID_19_" d="M97.9,564.6c-52.2,0-94.7-42.5-94.7-94.7s42.5-94.7,94.7-94.7s94.7,42.5,94.7,94.7S150.1,564.6,97.9,564.6z
		 M97.9,410.1c-32.9,0-59.7,26.8-59.7,59.7s26.8,59.7,59.7,59.7s59.7-26.8,59.7-59.7S130.8,410.1,97.9,410.1z"/>
</g>
</svg>
