<?xml version="1.0" encoding="utf-8"?>
<!-- Generator: Adobe Illustrator 19.0.0, SVG Export Plug-In . SVG Version: 6.00 Build 0)  -->
<svg version="1.1" id="Layer_1" xmlns="http://www.w3.org/2000/svg" xmlns:xlink="http://www.w3.org/1999/xlink" x="0px" y="0px"
	 viewBox="-43 0 911.1 1000" style="enable-background:new -43 0 911.1 1000;" xml:space="preserve">
<g id="Guide">
</g>
<g id="Layer_3">
	<path d="M547.3,702c-13,0-25.7-0.9-37.9-2.7c-30.9-4.5-59-14.7-83.4-30.3c-42.1-27-58.8-60.9-59.5-62.4l-0.3-0.7l-0.3-0.7
		c-9.7-25.7-5.2-57.5,12-85.1c14.7-23.4,35.4-41,53.7-56.6c8.8-7.5,17.7-15.1,26.6-22.6c8.9-7.5,17.7-15.1,26.6-22.6
		c7.6-6.4,16.1-13.7,20.1-21.7c5.4-10.9,3.4-26.1-5.1-37.7c-8.3-11.3-22.2-19.9-39.2-24c-41.2-10.2-85.3,8.2-119.2,25.4
		c-114.2,58-124.4,139.2-125.2,154.9l-34.9,0.9c-5.7-52.5-29.4-92.3-64.9-109.1c-26-12.2-56.6-10.2-81.9,5.5
		c-17.7,11-27.5,21.9-34.8,39c-6.4,14.7-9.3,30.8-8.6,47.3c1-1.2,2-2.4,3.1-3.6c22-24.3,52.9-32.9,87.1-24.1
		c17.7,4.5,33.2,16.5,43.8,33.7c9.2,14.9,14.1,32.7,14,50.1c-0.3,23.1-11,47.1-27.3,61.2c-3.2,2.8-21,17.3-48.8,17.3
		c-12.9,0-27.9-3.1-44.6-11.9C-22.3,600-37.1,552.2-42.3,516c-4-27.1-0.5-54.2,10-78.4c10.2-23.7,24.7-40.1,48.5-54.9
		c35.5-21.9,78.5-24.6,115.3-7.4c29.9,14.1,53.2,39.5,68.1,73c2.2-4.5,4.6-9,7.3-13.7c24.9-42.6,64.9-78.1,118.8-105.5
		c39.3-19.9,91.1-41.1,143.4-28.2c25,6.1,46,19.4,59.1,37.4c16.3,22.3,19.5,51.3,8.1,74c-7.3,14.4-19.2,24.5-28.7,32.6
		c-8.8,7.5-17.7,15.1-26.6,22.6c-8.9,7.5-17.7,15.1-26.6,22.6c-16.4,13.9-34.9,29.7-46.7,48.5c-11.3,18-14.7,37.8-9.3,53.3
		c2.2,4,16.4,28.8,48.1,48.5c46.5,29,107,34.3,179.8,15.7c71.9-18.4,110.1-76,129.5-121.1c13.2-30.7,18.1-64.6,16.1-109.8l0-0.4
		l-2.5-126.6l35-0.7L807,424c2.2,50.6-3.6,89.2-18.9,125c-22.5,52.3-67.3,119.3-153.1,141.2C604.2,698,574.8,702,547.3,702z
		 M6.1,558.6c6.5,13.2,15.7,25.1,28.6,32c14.5,7.7,28.2,9.7,40.6,6.1c8.1-2.4,12.9-6.4,12.9-6.4l0.5-0.5c8.8-7.6,15.1-22,15.2-35.1
		c0.1-20.3-11.6-44.4-31.5-49.5c-26.9-6.9-43.3,3.7-52.4,13.7C7.6,532.7,4,550.6,6.1,558.6z"/>
</g>
</svg>
