<?xml version="1.0" encoding="utf-8"?>
<!-- Generator: Adobe Illustrator 19.0.0, SVG Export Plug-In . SVG Version: 6.00 Build 0)  -->
<svg version="1.1" id="Layer_1" xmlns="http://www.w3.org/2000/svg" xmlns:xlink="http://www.w3.org/1999/xlink" x="0px" y="0px"
	 viewBox="0 0 1388.5 1000" style="enable-background:new 0 0 1388.5 1000;" xml:space="preserve">
<g id="Guide">
</g>
<g id="Layer_3">
	<path d="M563.1,698.8c-21.1,0-42.2-3.7-62.2-11c-0.5-0.2-1.1-0.4-1.6-0.6c-26.8-10-47.3-31.4-56.2-58.6c-8.9-27.2-5-56.6,10.7-80.5
		c0.3-0.5,0.5-0.8,0.7-1.1c6.9-11,15.1-21.2,23.1-31c9.8-12.1,19-23.5,25.1-35.4c11.6-22.5,10.7-52.7-2.4-80.8l-1.1-2.3
		c-17.8-36.1-49-55.9-85.8-54.1c-42.6,2-81.2,32.6-98.4,77.9l0,0.1c-2.8,7.3-69.3,179.4-99,224c-22.6,33.9-60.7,49.4-107.4,43.7
		c-38.2-4.7-72-25.1-92.8-56.1c-22.3-33.2-22.5-66.7-18.7-89c4.9-29,21.5-54.4,45.7-69.7c16.2-10.2,33.4-14.7,50.9-13.1l-3.5,40.7
		c-8.5-0.7-17.1,1.6-25.6,7c-14.3,9-24.2,24.3-27.2,41.9c-3.7,21.7,0.5,41.7,12.4,59.4c14.1,21.1,37.4,35,63.8,38.3
		c31.4,3.9,54.4-4.8,68.4-25.8c22.6-33.8,76-167.3,94.8-215.9c11.6-30.6,30.7-56.5,55.4-75c23.7-17.7,51.1-27.8,79.3-29.2
		c53-2.5,99.5,26.2,124.4,76.9l1.4,2.8c18.6,39.5,19.3,83.3,1.9,117c-8,15.6-19,29.2-29.6,42.4c-7.6,9.4-14.8,18.4-20.5,27.4
		l-0.6,0.9c0,0-0.2,0.2-0.4,0.6c-8.8,13.5-11,30-6,45.4c5,15.4,16.6,27.4,31.7,33.1c0.4,0.2,0.9,0.3,1.3,0.5
		c31.8,11.6,67.1,11.3,99.3-0.9c52-19.8,141.5-69.8,157.7-183.1c3.6-67.8-10.2-96.9-44.5-140l-30.2-37.9l48.2,4.8
		c1,0.1,98.5,9.6,200.1,0.9c58.7-5,107-15,143.8-29.6c42.3-16.9,68.3-39.6,77.3-67.7l38.9,12.5c-22.7,70.8-109.2,113.1-257.1,125.7
		c-63.6,5.4-124.4,4.1-163.5,2.1c8,13.2,13.8,25.6,18.1,38.6c8.8,26.1,11.7,55.1,9.6,93.8l0,0.9l-0.1,0.8
		c-8.3,59.7-34.6,110.8-78.2,151.7c-36.4,34.2-77.5,54.1-105.5,64.8C607.5,694.7,585.3,698.8,563.1,698.8z"/>
</g>
</svg>
