<?xml version="1.0" encoding="utf-8"?>
<!-- Generator: Adobe Illustrator 19.0.0, SVG Export Plug-In . SVG Version: 6.00 Build 0)  -->
<svg version="1.1" xmlns="http://www.w3.org/2000/svg" xmlns:xlink="http://www.w3.org/1999/xlink" x="0px" y="0px"
	 viewBox="0 0 769 1000" style="enable-background:new 0 0 769 1000;" xml:space="preserve">
<g id="Guide">
</g>
<g id="Layer_3">
	<path id="XMLID_18_" d="M238,699.4c-4.6,0-9.2-0.2-13.7-0.5c-1.1-0.1-2.3-0.2-3.4-0.3c-58.6-5-109.4-44.7-129.3-101.1
		c-6.5-18.3-20.5-65.6-10.1-108.3c14.2-58.5,78.1-83.1,80.8-84.2l18.7-7l4.5,19.5c10,43.5,24.8,71.2,45.3,84.5
		c21.7,14.2,43,13.4,63.3-2.2c21-16.2,18.3-59.7,1.9-87.7c-24.8-42.3-72.7-71.5-121.9-74.5c-45-2.7-102.5,14.1-129.5,57.5
		c-9.1,14.7-11.3,29.7-6.6,44.7c3.9,12.1,10.9,19.9,11,19.9l-0.1-0.1l-25.5,24c-1.2-1.3-11.8-12.8-18.2-31.4
		c-6.1-17.7-9.3-45.3,9.6-75.7c15.7-25.2,40.3-45.5,71-58.6c27.6-11.8,59.7-17.2,90.3-15.4c30,1.8,59.8,11.2,86.3,27.4
		c26.6,16.2,48.6,38.4,63.8,64.3c11.6,19.8,18.1,44.5,17.9,67.8c-0.3,28.1-10.4,51.3-28.5,65.3c-14.6,11.3-30.3,17.8-46.7,19.3
		c-19.3,1.8-38.5-3.4-57-15.5c-24.4-15.9-42.3-43.6-54.6-84.5c-15.2,9.3-35.6,26-41.6,50.6c-5.7,23.3-2.3,56.4,9,88.4
		c15.4,43.5,54.4,74,99.3,77.9c0.9,0.1,1.8,0.1,2.7,0.2c56.6,3.8,116.2-22,151.8-65.6c65.9-80.8,54.2-202,54.1-203.2l-2-19.1
		l19.2-0.2c33.7-0.3,68.5-0.6,99.7-11.2c11.9-4.1,24.5-10.1,39.7-18.9c44.3-25.7,69.3-43.4,100.4-80.4l26.8,22.5
		c-34.3,40.8-62.7,61-109.7,88.2c-17.2,10-31.8,16.9-45.9,21.7c-30.3,10.3-62.5,12.4-92.4,12.9c0.3,14.3-0.1,35.5-3.2,60.1
		c-7.7,59.6-28.3,111.4-59.6,149.8c-20,24.6-46.7,44.9-77,58.9C299.8,692.5,268.8,699.4,238,699.4z"/>
</g>
</svg>
