<?xml version="1.0" encoding="utf-8"?>
<!-- Generator: Adobe Illustrator 19.0.0, SVG Export Plug-In . SVG Version: 6.00 Build 0)  -->
<svg version="1.1" id="Layer_1" xmlns="http://www.w3.org/2000/svg" xmlns:xlink="http://www.w3.org/1999/xlink" x="0px" y="0px"
	 viewBox="0 0 373 1000" style="enable-background:new 0 0 373 1000;" xml:space="preserve">
<style type="text/css">
	.st0{display:none;}
</style>
<g id="Guide">
</g>
<g id="Layer_3" class="st0">
</g>
<g id="Layer_4">
	<path d="M279.7,707.5l-43.5-131.7c-7.1,13.8-17.1,25.4-27.6,36.8c-12.5,13.5-33,23.6-61,29.9c-21.8,4.9-47.7,0.8-69.1-11
		c-16.4-9-28.8-19.5-37.6-32.1C25,576.9,27.2,557,31.4,540.4c5.1-20.4,20.3-36.7,46.4-49.7c26.2-13.2,45.6-27.9,59.3-44.9
		c9.9-12.3,15.4-24.2,16.5-35.5c1.1-11.4-3.3-22.7-10.9-28.2c-6.4-4.6-16.6-4.2-21,0.7l-9.5,13.5c-2.4,4.3-5.3,8.4-8.8,12.3
		L76.1,387l6.4-9.2c5.9-11.7,3.8-24.9-6.2-34.2l-1.2-1.2c-2.6-2.5-2.6-2.5-5.8-3.5c-3.4-1.1-12.7,0.1-18.1,3
		c-6.2,3.3-10.8,9.1-14.2,17.8c-0.9,2.3-1.1,5.9-1.1,8.9c-0.1,10.1,1.5,19.3,4.1,24.5C46.3,405.5,52,410,65,416.6l-15.7,31.3
		C31.6,439,19.4,429.8,8.7,409c-6.7-13.4-8-29.6-7.9-40.8l0-0.2c0.1-6.2,0.6-13.4,3.5-20.8l0-0.1c6.5-16.5,16.7-28.6,30.3-35.9
		c11.6-6.2,30.9-10.1,45.4-5.5c10.2,3.3,14.4,6.9,19.3,11.6l0.9,0.8c8.6,8,14.5,17.6,17.7,27.8c14.9-4.2,32-1.8,45.3,7.7
		c17.9,12.9,27.6,35.9,25.3,60c-1.8,18.3-9.9,36.5-24.1,54.1c-16.8,21-40,38.7-70.8,54.2c-16.5,8.2-25.7,17.1-28.2,27
		c-3.5,13.8-2.6,20.8,4,30.1c5.7,8.2,14.2,15.2,25.9,21.6c14,7.7,31,10.6,44.5,7.6c20.4-4.6,35.7-11.6,43-19.5
		c15-16.3,26.6-30.3,28.8-50.7c1.9-17.8-0.5-36.1-8.1-61.2l33.4-10.5l76,230.1L279.7,707.5z"/>
</g>
</svg>
