<?xml version="1.0" encoding="utf-8"?>
<!-- Generator: Adobe Illustrator 19.0.0, SVG Export Plug-In . SVG Version: 6.00 Build 0)  -->
<svg version="1.1" id="Layer_1" xmlns="http://www.w3.org/2000/svg" xmlns:xlink="http://www.w3.org/1999/xlink" x="0px" y="0px"
	 viewBox="0 0 1000 1000" style="enable-background:new 0 0 1000 1000;" xml:space="preserve">
<style type="text/css">
	.st0{display:none;}
	.st1{fill:none;stroke:#000000;stroke-width:35;stroke-miterlimit:10;}
</style>
<g id="Guide">
</g>
<g id="Layer_3" class="st0">
	
		<image style="display:inline;overflow:visible;enable-background:new    ;" width="608" height="389" id="XMLID_4_" xlink:href="../അ.JPG"  transform="matrix(1.7044 0 0 1.7044 -898.6161 179.6667)">
	</image>
</g>
<g id="Layer_4">
	<path id="XMLID_3_" class="st1" d="M547,371c-12.8,8.6-50.1,28.4-66,29.4c-12.1,0.7-20.5,2.1-40.5-10.4c-8.4-5.2-16.1-16-19-27
		c-4.2-15.9,1.2-50.4,2.5-60.7l-0.9,4.4c-21.3,39.7-46.6,77-79.1,108.2"/>
	<path id="XMLID_6_" class="st1" d="M547,371c-23.7,23.2-96,86.9-114.5,114.5c-15.3,22.6-28.9,47.4-32,74.5s6.4,57.1,29.2,72.1
		c17.4,11.4,40.4,12.6,60.2,6.1s36.7-20,50.5-35.7c30.6-34.9,46.7-82.1,43.9-128.4l0.5,65.7C585.9,594.5,604.6,653,622,705
		c8,24,33,75,33,75"/>
</g>
</svg>
