<?xml version="1.0" encoding="utf-8"?>
<!-- Generator: Adobe Illustrator 19.0.0, SVG Export Plug-In . SVG Version: 6.00 Build 0)  -->
<svg version="1.1" id="Layer_1" xmlns="http://www.w3.org/2000/svg" xmlns:xlink="http://www.w3.org/1999/xlink" x="0px" y="0px"
	 viewBox="0 0 436.7 1000" style="enable-background:new 0 0 436.7 1000;" xml:space="preserve">
<style type="text/css">
	.st0{display:none;}
	.st1{fill:none;stroke:#000000;stroke-width:35;stroke-miterlimit:10;}
</style>
<g id="Guide">
</g>
<g id="Layer_3" class="st0">
</g>
<g id="Layer_4">
	<path d="M231.4,855c-21.2,0-37.8-5.9-50.7-18.1c-8.7-8.1-15.3-19-18.5-30.7c-5.2-18.7-5.3-38.6-0.3-57.7
		c7.5-28,26.4-54.2,56.2-77.7c16.5-13,33.5-23.5,50.6-31.5c-5.5-26.1-13.3-52.2-22.9-79.4c-8.4,19.3-22.7,36.5-36.6,51.5
		c-15.7,17-41.9,25.6-61.1,29.9c-21.7,4.9-47.6,0.8-69.1-11.1c-16.5-9.1-28.9-19.7-37.6-32.1C25.8,576,27.9,556,32,539.5
		c7.4-30.1,36.7-44.9,46.4-49.8c26.2-13.3,45.7-28,59.4-45c9.8-12.1,15.4-24,16.5-35.5c1.1-11.4-3.3-22.7-10.9-28.2
		c-6.3-4.5-16.6-4.1-21.1,0.8l-9.5,13.6c-2.4,4.3-5.3,8.4-8.7,12.2L76.7,386l6.4-9.1c5.9-11.7,3.8-24.9-6.2-34.3l-1.2-1.1
		c-2.6-2.5-2.6-2.5-5.8-3.5c-3.4-1.1-12.8,0.1-18.1,3c-6.3,3.4-11,9.2-14.2,17.7c-0.8,2-1.1,4.8-1.1,8.6l0,0.2
		c-0.1,10.2,1.4,19.4,4.1,24.5l0.1,0.1c6.3,12.4,12,17,25,23.4l-15.7,31.3c-17.7-8.8-30-18-40.6-38.9c-6.7-13.1-8-29.3-7.9-40.7
		c0-8.2,1.1-14.9,3.5-21.1c6.3-16.4,16.5-28.5,30.3-36c11.8-6.3,31.2-10.2,45.6-5.4c10,3.2,14.2,6.8,19.1,11.5l0.9,0.9
		c8.5,8,14.4,17.5,17.6,27.7c14.8-4.2,31.8-1.9,45.3,7.7c18,12.9,27.7,35.9,25.4,60c-1.8,18.4-9.9,36.7-24.1,54.2
		c-16.9,20.9-40,38.6-70.8,54.2c-16.6,8.4-25.8,17.2-28.2,27c-3.4,13.8-2.5,20.9,4.1,30.3c5.6,8,14.1,15.1,25.9,21.6
		c14,7.7,31,10.6,44.5,7.5c20-4.4,35.7-11.6,43-19.5c15-16.2,32.5-37.5,34.7-57.7c2.4-22.1,1.7-27.5-1.4-46.9l33.8-8.5l3.8,11
		c20.4,49.1,37,95.1,47.2,141.2c20.8-6.2,48.1-11.3,75-7.4l-5.1,34.6c-17.9-2.6-40.6,0.1-63.4,7.3c5.2,34.9,6.5,70.3,2.9,107.6
		c-1.4,14.9-5.3,37.1-22.3,57c-15.8,18.6-34.2,28.3-54.7,28.8C233.1,855,232.3,855,231.4,855z M274.8,675.5
		c-11.8,6.2-23.5,13.9-35.1,23c-23.7,18.7-38.5,38.6-44,59.1c-3.5,13-3.4,26.5,0.1,39.2c1.6,5.5,4.8,10.9,8.8,14.7
		c6.6,6.2,15.4,8.9,28.5,8.6c6.5-0.2,16.5-2,28.8-16.5c10.4-12.2,13-25.9,14.1-37.7C279.1,734.5,278.5,704.8,274.8,675.5z"/>
	<path id="XMLID_10_" class="st1" d="M538.7,475.8"/>
</g>
</svg>
