<?xml version="1.0" encoding="utf-8"?>
<!-- Generator: Adobe Illustrator 19.0.0, SVG Export Plug-In . SVG Version: 6.00 Build 0)  -->
<svg version="1.1" id="Layer_1" xmlns="http://www.w3.org/2000/svg" xmlns:xlink="http://www.w3.org/1999/xlink" x="0px" y="0px"
	 viewBox="0 0 1000 1000" style="enable-background:new 0 0 1000 1000;" xml:space="preserve">
<style type="text/css">
	.st0{display:none;}
	.st1{fill:none;stroke:#000000;stroke-width:35;stroke-miterlimit:10;}
</style>
<g id="Guide">
</g>
<g id="Layer_3" class="st0">
	
		<image style="display:inline;overflow:visible;enable-background:new    ;" width="608" height="389" id="XMLID_4_" xlink:href="../അ.JPG"  transform="matrix(1.7044 0 0 1.7044 -898.6161 179.6667)">
	</image>
</g>
<g id="Layer_4">
	<path id="XMLID_7_" class="st1" d="M368.8,433.2c-14.8-7.4-24.1-14-32.8-31.2c-4.8-9.3-6.1-22.2-6-32.7c0-5.1,0.5-10.2,2.3-14.9
		c4.4-11.5,11.4-21,22.3-26.9c8.4-4.5,22.7-7.2,31.8-4.2c7.7,2.5,9.5,4.7,13.5,8.5c19.9,18.6,19.3,46.8,2.2,66.2l17.5-25
		c10.6-12.8,31.6-13.8,45.1-4.2c13.5,9.7,19.7,27.5,18.1,44.1s-9.8,31.9-20.3,44.8c-17.3,21.4-40.6,37.2-65.1,49.6
		c-16,8.1-32.7,19.8-37.3,38.4c-4.3,17.3-3.5,29.9,6.7,44.5c8.1,11.5,19.5,20.1,31.8,26.9c18.1,10,39.6,13.2,56.8,9.3
		c21.6-4.8,41.1-12.9,52-24.7c17.1-18.5,36.5-42.3,39.2-67.7c2.5-23.5,1.9-30.2-1.5-51.5l4,11.5c40.6,97.4,64.8,179.6,55.5,275.5
		c-1.5,15.5-5.3,32.2-18.2,47.3c-11.8,13.9-25.4,22.3-41.8,22.7c-14,0.3-28.9-2.1-40.8-13.3c-6.4-6-11.3-14.2-13.7-22.7
		c-4.4-15.7-4.4-32.6-0.2-48.4c7.4-27.8,27.5-50.6,50.1-68.4c15.8-12.4,32.9-23.2,51.3-31.3c27.8-12.3,63.3-21,93.8-16.5"/>
	<path id="XMLID_10_" class="st1" d="M849.8,477.8"/>
</g>
</svg>
