<?xml version="1.0" encoding="utf-8"?>
<!-- Generator: Adobe Illustrator 19.0.0, SVG Export Plug-In . SVG Version: 6.00 Build 0)  -->
<svg version="1.1" id="Layer_1" xmlns="http://www.w3.org/2000/svg" xmlns:xlink="http://www.w3.org/1999/xlink" x="0px" y="0px"
	 viewBox="0 0 1000 1000" style="enable-background:new 0 0 1000 1000;" xml:space="preserve">
<style type="text/css">
	.st0{display:none;}
	.st1{fill:none;stroke:#000000;stroke-width:35;stroke-miterlimit:10;}
</style>
<g id="Guide">
</g>
<g id="Layer_3" class="st0">
	
		<image style="display:inline;overflow:visible;enable-background:new    ;" width="608" height="389" id="XMLID_4_" xlink:href="../അ.JPG"  transform="matrix(1.7044 0 0 1.7044 -898.6161 179.6667)">
	</image>
</g>
<g id="Layer_4">
	
		<image style="overflow:visible;enable-background:new    ;" width="689" height="245" id="XMLID_3_" xlink:href="../u.JPG"  transform="matrix(2.764 0 0 2.764 1054.575 183.8218)">
	</image>
</g>
<g id="Layer_5">
	<path id="XMLID_5_" class="st1" d="M825.1,339.8c-18.4,18.2-36.8,36.5-55.1,54.7c-26.8,26.5-55.4,51.5-89,68.6
		c-28.2,14.3-61.3,12.3-101.5-11.1l-19.6-13.5c5.6,4.1,65.2,49.8,61.5,122.4c-2.4,45.8-27.4,96.6-70.9,110.6
		c-60.5,19.5-90-18-93.5-32.5c-0.4-1.7-0.2-171,0-235.4c0-20.9-18-53.2-49.1-69.9c-48.2-25.9-107,7.7-116.8,13.3
		c-57.7,32.9-75.1,92.2-80,109c-3.6,12.3-22.9,82.5,15,150c12.7,22.6,35.3,62.9,79,69c27.8,3.9,64.5-6.1,84-37
		c17.3-27.4,19.4-68.2-5.3-95c-21.4-23.2-55.1-27.3-79.7-19c-38.4,13-64.2,59.9-55,112"/>
</g>
</svg>
