<?xml version="1.0" encoding="utf-8"?>
<!-- Generator: Adobe Illustrator 19.0.0, SVG Export Plug-In . SVG Version: 6.00 Build 0)  -->
<svg version="1.1" id="Layer_1" xmlns="http://www.w3.org/2000/svg" xmlns:xlink="http://www.w3.org/1999/xlink" x="0px" y="0px"
	 viewBox="0 0 713 1000" style="enable-background:new 0 0 713 1000;" xml:space="preserve">
<style type="text/css">
	.st0{display:none;}
</style>
<g id="Guide">
</g>
<g id="Layer_3" class="st0">
	
		<image style="display:inline;overflow:visible;enable-background:new    ;" width="608" height="389" id="XMLID_4_" xlink:href="../New folder/അ.JPG"  transform="matrix(1.7044 0 0 1.7044 -898.6161 179.6667)">
	</image>
</g>
<g id="Layer_5">
	<path d="M334.1,694.5c-19.1,0-33.8-5.3-43.9-11c-19.5-11-31.2-28.2-34.2-40.4l0-0.1c-0.7-2.8-0.7-3.1-0.7-98.2
		c0-47.4,0.1-106.8,0.2-141.3c0-13.8-13.9-40.5-39.9-54.4c-35.8-19.2-81.7,2.7-99.8,13.1c-34.3,19.6-58.5,52.8-71.9,98.7
		c-4.6,15.9-16.7,68.2,6,121.3c9-35.2,32.5-63.9,64.6-74.8c29-9.8,70.6-6.2,98.2,23.7c31.4,34.1,27.4,84.3,7.2,116.2
		c-23.7,37.6-67.9,49.7-101.2,45c-52.2-7.3-78-53.1-91.8-77.7c-39.3-70-22.6-142.9-16.6-163.6c16-54.9,45.7-95.1,88.1-119.3
		c15.9-9.1,32.1-15.9,48.2-20.2c32.5-8.7,61.3-6.4,85.6,6.7c37.9,20.3,58.3,59.1,58.3,85.3c-0.2,65.4-0.4,212.6-0.1,232.4
		c1.5,3.5,6.9,11.4,17.1,17c14.2,7.9,32.8,8.5,53.6,1.8c35.9-11.6,56.8-56.5,58.8-94.9c3.3-64.4-52-105.6-54.4-107.4l20.3-28.5
		l19,13.1c32.9,19,60.4,22.4,84.2,10.3c33.5-17,61.6-42.6,84.6-65.4c18-17.9,36.6-36.4,55.1-54.7l24.6,24.9
		c-18.5,18.3-37.1,36.8-55.1,54.7c-25,24.7-55.6,52.6-93.4,71.8c-20.4,10.4-42.5,13.3-66,8.9c10.3,20.4,17.5,45.3,16,74.2
		c-1.4,26.5-9.4,53.2-22.5,75.3c-15.2,25.6-36.1,43.2-60.5,51.1C357.8,692.7,345.2,694.5,334.1,694.5z M81.3,633.1
		c10.7,12,24.5,22.1,42.2,24.5c22.2,3.1,51.4-4.7,66.8-29c13.1-20.7,16.1-52.7-3.4-73.8c-16.9-18.3-43.6-20.2-61.2-14.3
		c-14.6,4.9-27.1,16.5-35.3,32.7c-8.9,17.5-11.7,38.7-8,59.7L81.3,633.1z"/>
</g>
</svg>
