<?xml version="1.0" encoding="utf-8"?>
<!-- Generator: Adobe Illustrator 19.0.0, SVG Export Plug-In . SVG Version: 6.00 Build 0)  -->
<svg version="1.1" id="Layer_1" xmlns="http://www.w3.org/2000/svg" xmlns:xlink="http://www.w3.org/1999/xlink" x="0px" y="0px"
	 viewBox="-38 -80.1 519 1000" style="enable-background:new -38 -80.1 519 1000;" xml:space="preserve">
<style type="text/css">
	.st0{display:none;}
</style>
<g id="Guide">
</g>
<g id="Layer_3" class="st0">
	
		<image style="display:inline;overflow:visible;enable-background:new    ;" width="608" height="389" id="XMLID_4_" xlink:href="../New folder/അ.JPG"  transform="matrix(1.7044 0 0 1.7044 -742.6161 -4.4433)">
	</image>
</g>
<g id="Layer_4">
</g>
<g id="Layer_5">
	<path d="M112.7,518.3c-10.2,0-20.6-1.6-30.9-4.7c-35.7-11-64.8-40.1-70.7-70.9c-7.4-38.4,1.4-74.9,27.7-114.7
		c10.5-15.9,24.5-30.9,38-45.3c16.7-17.8,33.9-36.2,39-51.4c4.5-13.5,1-56.1-33.7-72.4c-25.5-12-53.7,0.7-67.5,16
		c17.1-3.4,34-0.2,46.8,9.1c14.5,10.4,23.8,29.3,23.6,48c0,4.6-0.7,13.6-5.3,23.7c-1.6,3.5-8.8,18.2-24.5,27.2
		c-19.2,11-46,9.4-65.3-3.9c-38.1-26-27-81.9-24.4-92.8l0.1-0.3c1.4-5.4,3.9-15.5,10.9-26.4c22.1-34.9,75.3-58.9,122.7-36.7
		c31.7,14.9,46,40.9,52.3,60.1c6.9,21,7.8,44.4,2.2,61c-7.9,23.3-27.2,44-47.7,65.9c-12.4,13.3-25.2,27-33.9,40.1
		c-20.8,31.4-27.3,56.9-21.9,85.1c2.7,13.9,18.8,32.9,43.3,40.4c13.5,4.2,39.9,7.5,64.6-17.1c19.1-19,27.4-77.5,15.6-109.7
		l-11.9-32.5l34,6c0.7,0.1,69.8,11.7,115-16.9c24.1-15.3,56.2-41.9,72.1-81.9l37,14.8c-15.7,39.4-46.1,74.2-87.8,100.7
		c-37.6,23.8-84.7,26.5-114.4,25.3c1.8,15.7,1.6,33-0.9,50.3c-2.6,18.1-10.1,51.6-30.7,72.1C165.4,507.5,139.6,518.3,112.7,518.3z
		 M6.2,238.9c1.5,3,3.6,5.5,6.2,7.3c5.9,4,16.4,6,23,2.2l0.1-0.1c4.2-2.3,7-7,7.8-8.6l0.2-0.4c1.7-3.7,1.8-6.8,1.8-7.4v-0.2
		c0-6-3-12.5-7.1-15.5c-4.1-3-11-3.7-18-1.8c-6.9,1.9-12.5,6-14.5,10.5c-1.9,4.4-0.7,9.9,0.7,13.8L6.2,238.9z"/>
</g>
</svg>
