<?xml version="1.0" encoding="utf-8"?>
<!-- Generator: Adobe Illustrator 19.0.0, SVG Export Plug-In . SVG Version: 6.00 Build 0)  -->
<svg version="1.1" id="Layer_1" xmlns="http://www.w3.org/2000/svg" xmlns:xlink="http://www.w3.org/1999/xlink" x="0px" y="0px"
	 viewBox="194 -104 336.8 1000" style="enable-background:new 194 -104 336.8 1000;" xml:space="preserve">
<style type="text/css">
	.st0{display:none;}
</style>
<g id="Guide">
</g>
<g id="Layer_3" class="st0">
	
		<image style="display:inline;overflow:visible;enable-background:new    ;" width="608" height="389" id="XMLID_4_" xlink:href="../New folder/അ.JPG"  transform="matrix(1.7044 0 0 1.7044 -704.6161 75.6667)">
	</image>
</g>
<g id="Layer_4">
	<path d="M341.3,594.2c-1.8-25.8-3.5-50.2-5.1-73.8c-5.7-84.6-10.7-158.8-20.4-255.3c-13.4,11.5-25.2,21.4-36.1,30.5
		c-21.3,17.8-39.7,33.2-61.6,54L194,324.3c22.7-21.6,41.5-37.3,63.3-55.5c17.2-14.3,36.6-30.6,60.8-52.2l25.5-22.8l3.6,34
		c12.1,114.1,17.6,195.7,24,290.3c1.6,23.6,3.2,47.9,5,73.7L341.3,594.2z"/>
	<g id="XMLID_7_">
		<g id="XMLID_20_">
			<path id="XMLID_29_" d="M243.8,451c13.1,0,25.6-11.4,25-25c-0.6-13.6-11-25-25-25c-13.1,0-25.6,11.4-25,25
				C219.3,439.6,229.8,451,243.8,451L243.8,451z"/>
		</g>
	</g>
</g>
<g id="Layer_5">
</g>
<g id="XMLID_1_">
	<g id="XMLID_2_">
		<path id="XMLID_3_" d="M445.8,436.3c13.1,0,25.6-11.4,25-25s-11-25-25-25c-13.1,0-25.6,11.4-25,25S431.8,436.3,445.8,436.3
			L445.8,436.3z"/>
	</g>
</g>
</svg>
