<?xml version="1.0" encoding="utf-8"?>
<!-- Generator: Adobe Illustrator 19.0.0, SVG Export Plug-In . SVG Version: 6.00 Build 0)  -->
<svg version="1.1" xmlns="http://www.w3.org/2000/svg" xmlns:xlink="http://www.w3.org/1999/xlink" x="0px" y="0px"
	 viewBox="0 0 1000 1000" style="enable-background:new 0 0 1000 1000;" xml:space="preserve">
<style type="text/css">
	.st0{fill:none;stroke:#000000;stroke-width:43.8327;stroke-miterlimit:10;}
	.st1{fill:none;stroke:#000000;stroke-width:39.5786;stroke-miterlimit:10;}
</style>
<g id="Guide">
</g>
<g id="Layer_4">
	<path id="XMLID_7_" class="st0" d="M224.7,415.9c-18.9-5-27.3-30.8-22.3-51.1c3.2-13.1,10.7-24.9,20.9-33
		c16.9-13.4,40-15.5,60.4-10.1c12.3,3.2,24.2,9.1,33.2,18.7c22.9,24.3,17.5,61.5,18.6,96c0.6,17.4-4.3,51.9,13.6,108.4
		c35.1,110.6,261.5,180.4,405.5,93.1c24.6-14.9,69.7-42.6,83.6-106.5C856,450,805,409,779,409"/>
	<path id="XMLID_6_" class="st1" d="M369,536.7"/>
	<path id="XMLID_10_" class="st1" d="M369,536.7"/>
	<g id="XMLID_5_">
		<g id="XMLID_20_">
			<path id="XMLID_24_" d="M266.4,394.5c7.8,0,15.4-6.9,15-15c-0.4-8.1-6.6-15-15-15c-7.8,0-15.4,6.9-15,15
				C251.8,387.6,258,394.5,266.4,394.5L266.4,394.5z"/>
		</g>
	</g>
</g>
</svg>
