<?xml version="1.0" encoding="utf-8"?>
<!-- Generator: Adobe Illustrator 19.0.0, SVG Export Plug-In . SVG Version: 6.00 Build 0)  -->
<svg version="1.1" id="Layer_1" xmlns="http://www.w3.org/2000/svg" xmlns:xlink="http://www.w3.org/1999/xlink" x="0px" y="0px"
	 viewBox="194 -104 1000 1000" style="enable-background:new 194 -104 1000 1000;" xml:space="preserve">
<style type="text/css">
	.st0{fill:none;stroke:#000000;stroke-width:39.5786;stroke-miterlimit:10;}
</style>
<g id="Guide">
</g>
<g>
	<path d="M613.7,592.7c-45.5,0-91.5-8.3-133.7-24.1C409,541.9,359.3,498,343.4,448c-15.5-49-14.9-82.7-14.5-102.8
		c0.1-4.1,0.1-7.6,0.1-10.3c-0.2-6.8-0.2-13.6-0.2-20.2c0.1-25.6,0.2-49.7-13.7-64.4c-7.5-8-17.7-11.9-24.9-13.8
		c-17.1-4.5-34-2-45.1,6.9c-7.1,5.7-12.5,14.2-14.8,23.4c-3.1,12.5,1.9,28,9.8,30l-9,33.8c-29.5-7.8-41.9-43.6-34.8-72.2
		c4.1-16.8,13.7-32,27-42.5c19.8-15.7,48.1-20.6,75.8-13.3c16.7,4.3,31.1,12.5,41.5,23.6c23.4,24.8,23.3,58.7,23.2,88.5
		c0,6.6,0,12.8,0.2,18.9c0.1,3.6,0,7.5,0,12.1c-0.4,19.1-0.9,48.1,12.8,91.5c12.4,39.1,55.6,75.9,115.4,98.3
		c89.9,33.8,193.7,27.9,264.3-14.9c23.6-14.3,63.2-38.3,75.6-95.3c9.8-44.8-4.6-71.2-14.1-83c-10.7-13.3-22.9-18.2-28-18.2v-35
		c18.6,0,39.8,12,55.3,31.3c13.4,16.6,33.9,53.3,21,112.4c-15.6,71.7-66.9,102.8-91.6,117.7c-41.6,25.2-92.6,39.6-147.4,41.7
		C622.8,592.6,618.2,592.7,613.7,592.7z"/>
	<path id="XMLID_6_" class="st0" d="M380,434.6"/>
	<path id="XMLID_10_" class="st0" d="M380,434.6"/>
	<g id="XMLID_5_">
		<g id="XMLID_20_">
			<path id="XMLID_24_" d="M277.4,292.4c7.8,0,15.4-6.9,15-15s-6.6-15-15-15c-7.8,0-15.4,6.9-15,15
				C262.8,285.5,269,292.4,277.4,292.4L277.4,292.4z"/>
		</g>
	</g>
</g>
</svg>
