<?xml version="1.0" encoding="utf-8"?>
<!-- Generator: Adobe Illustrator 19.0.0, SVG Export Plug-In . SVG Version: 6.00 Build 0)  -->
<svg version="1.1" id="Layer_1" xmlns="http://www.w3.org/2000/svg" xmlns:xlink="http://www.w3.org/1999/xlink" x="0px" y="0px"
	 viewBox="-35 -80.1 524 1000" style="enable-background:new -35 -80.1 524 1000;" xml:space="preserve">
<style type="text/css">
	.st0{fill:none;stroke:#000000;stroke-width:39.5786;stroke-miterlimit:10;}
</style>
<g id="Guide">
</g>
<g id="Layer_4">
	<path id="XMLID_6_" class="st0" d="M196.1,456.1"/>
	<path id="XMLID_10_" class="st0" d="M196.1,456.1"/>
	<path d="M311.3,620c-30.4,0-57.8-15.5-71.6-41.2c-8.5-15.8-12.2-33.7-10.4-50.2c2.3-20.6,12.6-37.8,30-49.8
		c22.4-15.4,49.4-17.3,72.1-5.1c20.2,10.8,32.5,30.5,32.1,51.3l-36-0.6c0.1-7.2-5-14.7-13.2-19c-5.1-2.7-18.7-7.9-34.7,3
		c-26.2,18.1-10.2,49.7-8.3,53.3c8.3,15.5,26.5,24.1,46.3,21.8c29.9-3.5,54.1-29,64.7-68.4c10.7-39.7,11.8-70.6,4-103.2
		C365.9,327,315,291.6,299.9,282.8c-40.1-23.5-84.7-31.7-132.3-24.5c-60.1,9-113.3,47-142.1,101.7c-8.6,16.1-15.1,33.4-19.4,51.5
		c-7.8,32.9-6.6,63.8,4,103.3c10.5,39.4,34.7,65,64.6,68.4c19.8,2.3,38-6.3,46.3-21.9c1.9-3.6,17.8-35.2-8.4-53.3
		c-15.9-11-29.5-5.8-34.6-3.1c-8.2,4.4-13.3,11.9-13.2,19.1l-36,0.6c-0.3-20.9,12-40.6,32.2-51.4c22.7-12.2,49.6-10.2,72,5.2
		c17.4,12,27.8,29.2,30,49.8c1.8,16.5-1.9,34.3-10.4,50.2c-15.4,28.7-47.6,44.6-82.2,40.6C49.6,616.4,30,607,13.6,591.7
		c-17.9-16.8-30.8-39.6-38.3-67.7c-12.2-45.6-13.5-81.8-4.2-120.9c5-21.1,12.6-41.3,22.6-60C10.6,311,35.1,283,64.4,262.1
		c29-20.6,62.8-34.3,97.9-39.5c55.2-8.3,109.1,1.7,155.9,29.1c18.2,10.6,79.5,53,103.2,151.9c9.2,38.3,7.9,75.6-4.2,121
		c-7.6,28.1-20.5,50.9-38.4,67.7c-16.3,15.3-36,24.7-56.9,27.1C318.2,619.8,314.7,620,311.3,620z"/>
</g>
</svg>
