<?xml version="1.0" encoding="utf-8"?>
<!-- Generator: Adobe Illustrator 19.0.0, SVG Export Plug-In . SVG Version: 6.00 Build 0)  -->
<svg version="1.1" xmlns="http://www.w3.org/2000/svg" xmlns:xlink="http://www.w3.org/1999/xlink" x="0px" y="0px"
	 viewBox="0 0 1000 1000" style="enable-background:new 0 0 1000 1000;" xml:space="preserve">
<style type="text/css">
	.st0{fill:none;stroke:#000000;stroke-width:39.5786;stroke-miterlimit:10;}
	.st1{fill:none;stroke:#000000;stroke-width:35.7578;stroke-miterlimit:10;}
</style>
<g id="Guide">
</g>
<g id="Layer_4">
	<path id="XMLID_6_" class="st0" d="M500,536.7"/>
	<path id="XMLID_10_" class="st0" d="M500,536.7"/>
	<path id="XMLID_3_" class="st1" d="M350.8,605.8c-0.5-29.7,40.2-55.1,76-30.7c28.4,19.3,26.5,52.7,14,75.6
		c-26.8,49.3-122.9,46.2-148.9-49.3c-1.3-4.8-2.5-9.4-3.5-13.9c-9.2-40.7,0.4-79.6,24.6-113.8c15.6-22.1,34.8-35.3,55.3-54.6
		C405,384.5,493.7,323,493.7,323L617,418.8c20.5,19.3,39.7,32.6,55.3,54.6c24.2,34.2,33.8,73.1,24.6,113.8c-1,4.5-2.2,9.2-3.5,13.9
		c-26,95.5-122,98.6-148.9,49.3c-12.5-23-14.4-56.3,14-75.6c35.8-24.3,76.5,1,76,30.7"/>
</g>
</svg>
