<?xml version="1.0" encoding="utf-8"?>
<!-- Generator: Adobe Illustrator 19.0.0, SVG Export Plug-In . SVG Version: 6.00 Build 0)  -->
<svg version="1.1" xmlns="http://www.w3.org/2000/svg" xmlns:xlink="http://www.w3.org/1999/xlink" x="0px" y="0px"
	 viewBox="0 0 1000 1000" style="enable-background:new 0 0 1000 1000;" xml:space="preserve">
<style type="text/css">
	.st0{fill:none;stroke:#000000;stroke-width:34.6399;stroke-miterlimit:10;}
</style>
<g id="Guide">
</g>
<g id="Layer_4">
</g>
<g id="Layer_3">
	<path id="XMLID_3_" class="st0" d="M286,454.3l192.9-127.6l56.4,268.8c5.1,24.2-6.7,57.5-33.5,71.9c-2.7,4.5-74.3,30.5-121.9-5
		c-27.1-20.2-36.7-46.7-40-66c-2.4-14.3-0.7-28.7,14.6-43.3c21.1-18.6,141.5-144.2,313.3-188"/>
	<g id="XMLID_5_">
		<g id="XMLID_17_">
			<path id="XMLID_21_" d="M688,484.9c7.8,0,15.4-6.9,15-15c-0.4-8.1-6.6-15-15-15c-7.8,0-15.4,6.9-15,15
				C673.4,478,679.6,484.9,688,484.9L688,484.9z"/>
		</g>
	</g>
</g>
</svg>
