<?xml version="1.0" encoding="utf-8"?>
<!-- Generator: Adobe Illustrator 19.0.0, SVG Export Plug-In . SVG Version: 6.00 Build 0)  -->
<svg version="1.1" id="Layer_1" xmlns="http://www.w3.org/2000/svg" xmlns:xlink="http://www.w3.org/1999/xlink" x="0px" y="0px"
	 viewBox="-93 -80.1 409 1000" style="enable-background:new -93 -80.1 409 1000;" xml:space="preserve">
<g id="Guide">
</g>
<g id="Layer_4">
</g>
<g>
	<g id="Layer_3">
		<g>
			<path d="M116.2,200.9c-2.1-9-9.3-15.8-18.4-17.4c-9.1-1.5-18.2,2.5-23.1,10.3c-6.1,9.7-26.1,29-91.8,50.5
				c-39.3,12.9-75.5,19.9-75.9,20l6.6,34c1.6-0.3,38.4-7.5,79.8-21c43.5-14.2,74.6-29.5,94.2-46.4l95.9,425.6l33.6-7.6L116.2,200.9z
				"/>
		</g>
	</g>
	<g>
		<g>
			<path d="M242.7,307.4C204.6,323.3,13.9,403-1.1,411.5L16,441.6c10.8-6.1,153-66,240-102.2L242.7,307.4z"/>
		</g>
	</g>
</g>
</svg>
