<?xml version="1.0" encoding="utf-8"?>
<!-- Generator: Adobe Illustrator 19.0.0, SVG Export Plug-In . SVG Version: 6.00 Build 0)  -->
<svg version="1.1" id="Layer_1" xmlns="http://www.w3.org/2000/svg" xmlns:xlink="http://www.w3.org/1999/xlink" x="0px" y="0px"
	 viewBox="194 -104 639.4 1000" style="enable-background:new 194 -104 639.4 1000;" xml:space="preserve">
<g id="Guide">
</g>
<g id="Layer_4">
</g>
<g id="Layer_3">
	<path d="M615.8,595.1c-16.6,0-34-7.3-50-21.3c-16.4-14.3-29.4-34-34.8-52.8l-54.5-189.8c-0.8-2.9-3-4.2-4.2-4.7
		c-1.3-0.5-3.8-1.2-6.5,0.3c-9.1,4.8-17.9,9.7-26.4,14.7l30.7,146.4c3.3,15.8,1.3,33.6-5.8,50.1c-7.3,17-19.5,31-34.4,39.6
		c-3,2.4-7.2,4.5-13.4,6.7c-4.9,1.8-13,4.4-23.8,6.5c-23.9,4.7-69.3,8.6-105.6-18.5c-31.8-23.7-43-55-46.8-77.1
		c-3.9-23.2,2.6-42.5,19.8-58.9l0.5-0.5c1.8-1.6,4.7-4.3,8.4-7.8c19.8-18.6,66.2-62.2,131.1-103.6l-15.3-73.1L213.3,364.9L194,335.7
		l214.4-141.8l23.4,111.6c5.7-3.3,11.6-6.5,17.6-9.6c11.4-6,24.8-6.6,36.7-1.5c11.8,5.1,20.6,15,24,27.3l54.5,189.7
		c7,24.3,35.6,52.6,55.4,48.3c31.7-6.8,62.6-30,84.8-63.6c23.8-36,35.7-80.5,33.5-125.2l0-0.5l0-0.5c0.5-55.1-17.2-103.6-46.1-126.5
		c-15.1-11.9-31.9-15.7-50-11.3c-7.8,1.9-14.1,7.2-17.2,14.5c-7.9,18.5-7.4,39.1,1.3,55.2c14.9,27.5,50.5,39.5,82.7,27.9l11.8,32.9
		c-48.4,17.4-102.2-1.6-125.3-44.1c-13.8-25.4-14.8-57.4-2.7-85.6c7.5-17.5,22.5-30.1,41.1-34.7c28.8-7,56.4-0.8,80.1,17.9
		c18.6,14.8,33.9,37,44.3,64.4c10.1,26.6,15.3,57.5,15.1,89.4c2.4,51.9-11.5,103.7-39.2,145.7c-27.6,41.8-65.4,69.7-106.6,78.5
		C623.6,594.7,619.7,595.1,615.8,595.1z M284,462c-9.9,9.5-10.8,17.6-9.2,27.5c3.9,22.9,15.1,41.4,33.2,54.9
		c19.2,14.3,43.5,15.8,60.5,14.6c17.8-1.3,32.3-5.8,38.1-8.3l0.2-0.4l4.2-2.3c19.2-10.3,28.3-35.7,24.7-52.9l-28.1-133.8
		c-55.7,36.9-95.2,74-114.8,92.4C289.1,457.3,286.2,460,284,462z"/>
</g>
</svg>
