<?xml version="1.0" encoding="utf-8"?>
<!-- Generator: Adobe Illustrator 19.0.0, SVG Export Plug-In . SVG Version: 6.00 Build 0)  -->
<svg version="1.1" id="Layer_1" xmlns="http://www.w3.org/2000/svg" xmlns:xlink="http://www.w3.org/1999/xlink" x="0px" y="0px"
	 viewBox="0 0 1000 1000" style="enable-background:new 0 0 1000 1000;" xml:space="preserve">
<style type="text/css">
	.st0{fill:none;stroke:#000000;stroke-width:35.2308;stroke-miterlimit:10;}
</style>
<g id="Guide">
</g>
<g id="Layer_4">
</g>
<g id="Layer_3">
	<path class="st0" d="M687,411.7c-54.8,31.4-225.5,88.8-258.3,137.4c-5.7,8.4-12.3,27.7-13.7,38.2c-8.8,67.1,51.2,113.3,115.3,89.1
		c5.1-1.9,8.2-3.6,8.7-4.5c26.9-14.5,38.7-48.2,33.6-72.6L513,318c0,0-152.3,47.5-210.3,104.1c-0.5,0.5-1,0.9-1.4,1.4
		c-20.6,21.5-14.4,56.6,11.9,70.7l0,0c15.5,8.3,34.5,6.6,48.2-4.3c0.1-0.1,0.3-0.2,0.4-0.3c16.4-13.2,21.7-35.6,12.9-54.6
		c-9.1-19.7-19.1-41.5-19.1-41.5"/>
</g>
</svg>
