<?xml version="1.0" encoding="utf-8"?>
<!-- Generator: Adobe Illustrator 19.0.0, SVG Export Plug-In . SVG Version: 6.00 Build 0)  -->
<svg version="1.1" id="Layer_1" xmlns="http://www.w3.org/2000/svg" xmlns:xlink="http://www.w3.org/1999/xlink" x="0px" y="0px"
	 viewBox="0 0 1000 1000" style="enable-background:new 0 0 1000 1000;" xml:space="preserve">
<style type="text/css">
	.st0{fill:none;stroke:#000000;stroke-width:35;stroke-miterlimit:10;}
</style>
<g id="Guide">
</g>
<g id="Layer_4">
</g>
<g id="Layer_3">
	<path class="st0" d="M214,454.3l192.9-127.6l56.4,268.8c5.1,24.2-6.7,57.5-33.5,71.9c-2.7,4.5-74.3,30.5-121.9-5
		c-27.1-20.2-36.7-46.7-40-66c-2.4-14.3-0.7-28.7,14.6-43.3c15.4-13.5,83.3-83.7,185.4-137.8c14-7.4,31.4-0.1,35.7,15.1l54.5,189.8
		c8.9,30.9,44.5,67.4,75.9,60.6c74.1-16,131-109.3,126-211.5c-4-81.3-78.4-180.6-134.4-151.9c-24.3,17.9-4.4,79.7-2.9,91.2"/>
</g>
</svg>
