<?xml version="1.0" encoding="utf-8"?>
<!-- Generator: Adobe Illustrator 19.0.0, SVG Export Plug-In . SVG Version: 6.00 Build 0)  -->
<svg version="1.1" id="Layer_1" xmlns="http://www.w3.org/2000/svg" xmlns:xlink="http://www.w3.org/1999/xlink" x="0px" y="0px"
	 viewBox="194 -104 363.2 1000" style="enable-background:new 194 -104 363.2 1000;" xml:space="preserve">
<style type="text/css">
	.st0{display:none;}
	.st1{fill:none;stroke:#000000;stroke-width:35;stroke-miterlimit:10;}
</style>
<g id="Guide">
</g>
<g id="Layer_4" class="st0">
	
		<image style="display:inline;overflow:visible;enable-background:new    ;" width="265" height="200" id="XMLID_3_" xlink:href="C:\Users\Indrajith\Desktop\123154564.JPG"  transform="matrix(3.0674 0 0 3.0674 62.7093 65.635)">
	</image>
</g>
<g id="Layer_3">
	<path d="M415.3,596.7l-2.9-353.6c-8.2,4.1-15.3,9.9-20.8,17.2c-4.7,6.3-8.7,12.4-11.7,18c-7.8,14.4-9.2,31.6-11,51.7
		c-0.4,4.6-0.8,9.4-1.3,14.4l-34.9-1.8v-15.6c0-6.3-0.9-12.6-2.6-18.7c-3.5-12.8-7.8-27.5-14.2-40.5c-15.2-30.8-26.1-34.2-35.1-35
		c-14.1-1.3-33.4,9.2-44,23.9c-8.9,12.3-10.4,32.1-3.6,49.1c2.3,5.7,8.9,19.2,21.7,21.6c12.6,2.4,23.5-1.1,25.9-8.3
		c0.9-2.6,0.3-7.8-3-10.8c-3.2-2.8-8-3.1-10.6-1.8l-0.3,0.1c-0.6,0.3-1,0.7-1.2,0.9l-26.3-23c3.3-3.8,7.5-7,12.1-9.3
		c15.8-7.9,36.2-5,49.6,7c13.2,11.8,18.4,31.6,12.8,48.2c-8.2,24.3-35.2,37.2-65.5,31.5c-21-3.9-38.4-19.6-47.7-43
		c-11.2-28.2-8.2-60.6,7.7-82.6c14.7-20.4,44.6-41,75.5-38.3c33.7,2.9,51,29.1,63.4,54.4c1.1,2.3,2.2,4.6,3.2,6.9
		c3.6-6.4,7.9-12.9,13.1-19.8c10.7-14.2,25.2-25.1,42.1-31.4l0.2-0.1c9.7-3.6,15.9-5.8,18.9-6.7l22.3-6.6l3.3,401.8L415.3,596.7z"/>
	<path id="XMLID_5_" class="st1" d="M350.3,346.1"/>
	<rect x="394.8" y="285.5" transform="matrix(0.5427 0.8399 -0.8399 0.5427 503.8046 -174.6151)" width="35" height="179.7"/>
</g>
</svg>
