<?xml version="1.0" encoding="utf-8"?>
<!-- Generator: Adobe Illustrator 19.0.0, SVG Export Plug-In . SVG Version: 6.00 Build 0)  -->
<svg version="1.1" id="Layer_1" xmlns="http://www.w3.org/2000/svg" xmlns:xlink="http://www.w3.org/1999/xlink" x="0px" y="0px"
	 viewBox="22 -104 656.9 1000" style="enable-background:new 22 -104 656.9 1000;" xml:space="preserve">
<style type="text/css">
	.st0{fill:#010101;}
	.st1{fill:none;stroke:#020202;stroke-width:35;stroke-miterlimit:10;}
</style>
<g id="Guide">
</g>
<g id="Layer_4">
	<g id="Layer_3">
		<path class="st0" d="M248.2,595.9c-23,0-45-7.3-62.7-21.4c-27-21.5-40.3-56.1-35.5-92.6c0.3-2.5,0.8-4.8,1.3-7l0.3-1.3
			c4.6-19.3,14.5-37.2,28.7-51.8c19-19.5,55.7-56.6,91.8-89.4l-19.7-92c-27.1,9.3-79.8,28.5-124.9,52.2c3.7,8,9.8,21,15.5,33.2
			c12.2,26,4.9,56.7-17.6,74.9c-0.4,0.3-0.7,0.6-1,0.8c-19.2,14.9-45.4,17.2-66.9,5.8c-17.7-9.3-29.6-25.9-32.7-45.5
			c-3-18.9,2.8-37.7,16-51.6c0.8-0.9,1.5-1.6,1.9-2L43,308c60.3-58.1,210.9-105.1,217.3-107l18.3-5.6L302.2,306
			c10.7-8.9,20.8-16.8,29.8-23c28.4-19.6,53.8-26.7,75.3-21.1c16.1,4.2,29.5,15.6,37.5,32.1c2.3,4.7,3.7,10.1,4.4,15.6
			c11-7.8,24.2-16.8,38.7-25.9c54.1-33.9,97.9-51.8,130.2-53.2l1.5,35c-53.1,2.3-148.1,69.3-180.2,95l-42.1,33.6l14.3-51.9
			c3-11.1,4.5-27.3,1.9-32.8c-2.5-5.1-7.1-11.6-15-13.6c-10.9-2.9-27.5,2.8-46.6,16c-12,8.3-26.3,19.9-41.4,33.1l31.6,147.2
			c3.3,15.6,1.2,33.9-5.8,50.2c-7.4,17.1-19.7,31.1-34.7,39.7c-2.7,2.1-6.6,4.1-12.7,6.4C275.3,593.4,261.6,595.9,248.2,595.9z
			 M185.7,481.5l-0.2,0.9c-0.3,1.3-0.6,2.7-0.7,3.4l-0.1,0.5c-3.3,24.6,5,46.8,22.6,60.9c18.4,14.7,44.3,17.8,69.3,8.5
			c0.9-0.3,1.6-0.6,2.2-0.9l0.2-0.4l4.1-2.2c19.3-10.2,28.3-35.5,24.7-52.7l-27.3-127.3c-30.1,28.2-59.2,57.6-75.3,74.1
			C195.6,456.2,188.8,468.4,185.7,481.5z M66.8,333.6l-0.5,0.5c-5.8,6-8.3,14.1-7,22.2c1.4,8.6,6.7,15.9,14.5,20
			c9.4,5,20.7,4,29-2.4c0.3-0.2,0.5-0.4,0.8-0.6c9.8-8,13-21.4,7.7-32.7c-5.1-10.9-10.4-22.4-14.2-30.4c-11.5,7.4-21.6,15-29.7,22.8
			C67.1,333.3,67,333.5,66.8,333.6z"/>
		<g id="Layer_4_1_">
			<g id="Layer_4_2_">
				<path id="XMLID_21_" class="st1" d="M147.3,352.2"/>
				<path id="XMLID_20_" class="st1" d="M147.3,352.2"/>
			</g>
		</g>
	</g>
</g>
</svg>
