<?xml version="1.0" encoding="utf-8"?>
<!-- Generator: Adobe Illustrator 19.0.0, SVG Export Plug-In . SVG Version: 6.00 Build 0)  -->
<svg version="1.1" xmlns="http://www.w3.org/2000/svg" xmlns:xlink="http://www.w3.org/1999/xlink" x="0px" y="0px"
	 viewBox="0 0 1000 1000" style="enable-background:new 0 0 1000 1000;" xml:space="preserve">
<style type="text/css">
	.st0{fill:none;stroke:#000000;stroke-width:35;stroke-miterlimit:10;}
</style>
<g id="Guide">
</g>
<g id="Layer_4">
</g>
<g id="Layer_3">
	<path id="XMLID_5_" class="st0" d="M307.9,444c-11.6-46.8,11.3-84.1,32.8-105.2c2-2,4.1-3.8,6.2-5.4c36.3-27.8,80.3-14.7,96.9,28
		c12.4,31.8,27,66.5,37.8,113.1c10.6,45.7,5.2,99.6-37.9,122c-20.5,10.6-40.6,0.8-51-9.9c-10.3-10.6-16.5-24.3-18.5-39
		c-2.7-19.9,3.9-48.4,10.9-63.8C412.3,423,428,415,457.9,372c15.4-22.1,30.4-39.8,55.7-49c27.8-10.1,64.2-4.9,90.4,8.7
		c38.4,20,49.1,48.4,57.6,66c43.5,90.5,46.8,214-27.2,276c-14.8,12.4-48.1,9-60-2.7c-34.7-34-50.6-123.1-1.3-211
		c36-64.2,94.3-120.2,94.3-120.2c19.2-18.4,39.6-35.2,49.9-65.8c10.2-30.3,5.5-59.4-0.2-79.5"/>
</g>
</svg>
