<?xml version="1.0" encoding="utf-8"?>
<!-- Generator: Adobe Illustrator 19.0.0, SVG Export Plug-In . SVG Version: 6.00 Build 0)  -->
<svg version="1.1" id="Layer_1" xmlns="http://www.w3.org/2000/svg" xmlns:xlink="http://www.w3.org/1999/xlink" x="0px" y="0px"
	 viewBox="0 0 1000 1000" style="enable-background:new 0 0 1000 1000;" xml:space="preserve">
<style type="text/css">
	.st0{fill:none;stroke:#000000;stroke-width:35.4713;stroke-miterlimit:10;}
</style>
<g id="Guide">
</g>
<g id="Layer_4">
</g>
<g id="Layer_3">
	<path class="st0" d="M830.7,444.8c0,0,19.6,160.6-68.7,171.4C648.4,630.1,644.5,451,644.5,451c8.9,117.5-8.3,163.8-74.8,168.9
		c-46.9,3.6-89.5-27.5-100.6-74.1c-0.1-0.5-0.9-6.1-1-6.6c-3.4-14.8-4.5-30-3.8-45.2c2.4-49.3-5.1-83.6-16.7-105.9
		c-14.9-28.5-53.1-34.6-76.4-12.4C325.3,419.5,234.1,510.9,216,547.8c-4.5,9.2-7.2,19.6-8.6,30.3c-8.8,68,58.2,121.4,122.2,96.9
		c5.1-1.9,8.2-3.7,8.7-4.6c26.9-14.7,38.7-48.8,33.6-73.6l-44.4-218.9c-8.9-44-54.8-70.6-97.1-55.3c-39.8,14.4-72.4,49.7-63.7,69.7"
		/>
</g>
</svg>
