<?xml version="1.0" encoding="utf-8"?>
<!-- Generator: Adobe Illustrator 19.0.0, SVG Export Plug-In . SVG Version: 6.00 Build 0)  -->
<svg version="1.1" id="Layer_1" xmlns="http://www.w3.org/2000/svg" xmlns:xlink="http://www.w3.org/1999/xlink" x="0px" y="0px"
	 viewBox="0 0 1000 1000" style="enable-background:new 0 0 1000 1000;" xml:space="preserve">
<style type="text/css">
	.st0{fill:none;stroke:#000000;stroke-width:35;stroke-miterlimit:10;}
</style>
<g id="Guide">
</g>
<g id="Layer_4">
</g>
<g id="Layer_3">
	<path class="st0" d="M687,377.2C632.2,412.6,476,483,438.5,538c-6.2,9.2-16.8,31.2-18.2,43.1c-8.8,75.6,45.9,121.7,110,94.5
		c5.1-2.2,8.2-4.1,8.7-5.1c26.9-16.4,38.7-54.3,33.6-81.8l-32.6-173.1c-15-79.5-92.4-121.6-157-85.6c-31.2,17.4-61.1,37.5-80.4,58.8
		c-0.5,0.5-1,1.1-1.4,1.6c-0.4,0.4-0.7,0.9-1.1,1.3c-27.3,34.4,4.3,84.3,47.4,75.3l1.9-0.4c27.3-5.7,43.1-34.7,32.8-60.7
		c-0.1-0.2-0.2-0.4-0.3-0.6c-9.1-22.2-40.5-39.3-40.5-39.3"/>
</g>
</svg>
