<?xml version="1.0" encoding="utf-8"?>
<!-- Generator: Adobe Illustrator 19.0.0, SVG Export Plug-In . SVG Version: 6.00 Build 0)  -->
<svg version="1.1" id="Layer_1" xmlns="http://www.w3.org/2000/svg" xmlns:xlink="http://www.w3.org/1999/xlink" x="0px" y="0px"
	 viewBox="-40 -80.1 514 1000" style="enable-background:new -40 -80.1 514 1000;" xml:space="preserve">
<g id="Guide">
</g>
<g id="Layer_4">
</g>
<g id="Layer_3">
	<path d="M280.5,674.5c-2,0-3.9-0.1-5.5-0.2c-16.6-1.1-31.2-6.7-40-15.4c-21.4-21-35-56.3-37.4-96.8c-1.8-31.6,2.5-80.7,33.1-135.3
		c18.7-33.3,42.8-64.2,62.4-86.8c-6.3-6.2-14.1-12.1-24.3-17.4c-23.7-12.3-55.1-15.5-76.3-7.8c-19.8,7.2-32.3,21.1-47.3,42.6
		c-0.3,0.5-0.7,1-1,1.5c9.5,24.8,19.5,52.8,27.4,87.1c4.5,19.4,8.3,48.6,1.1,77.9c-7.1,29-23.7,51-48,63.6
		c-27,14-55.4,3.4-71.6-13.2c-12.7-13-20.7-29.9-23.3-48.8c-3.1-23.2,4-55.1,12.3-73.4c19.7-44,34-62.1,50.7-83.1
		c3.8-4.8,7.7-9.7,11.8-15.2c-1.4-3.6-2.8-7.1-4.2-10.6c-6.1-15.7-16.8-26.4-30-30.1c-12.9-3.6-27.1-0.2-39.9,9.6
		c-1.6,1.3-3.1,2.5-4.5,3.9l-0.1,0.1c-12.1,11.9-39,44.3-28.1,88.5l-34,8.4C-51.6,362-15.3,318,1.1,301.9c2.4-2.4,5.1-4.7,7.9-6.9
		c21.4-16.4,47.2-22.1,70.6-15.5c20.7,5.8,38.1,20.7,48.9,41.5c12.7-15.9,28.4-30.4,51.8-38.9c30.7-11.2,71.7-7.4,104.4,9.6
		c13.1,6.8,23.4,14.6,31.7,22.6c6.6-6.9,10.9-11,11.5-11.6c2.1-2,4.1-3.9,6.2-5.9c16.9-15.9,31.4-29.7,39.3-52.9
		c6.9-20.5,6.7-43.8-0.5-69.1l33.7-9.5c9.2,32.3,9.1,62.5,0,89.9c-10.6,31.5-30.7,50.5-48.4,67.2c-2,1.9-4,3.8-6,5.7
		c-0.2,0.2-5.6,5.4-13.9,14.3c4.1,7,7.2,13.5,9.7,18.9c0.7,1.5,1.4,3,2.1,4.4c46.1,95.8,49.9,228.6-31.7,297
		C306.6,672.5,291.1,674.5,280.5,674.5z M313.5,370.1c-17.2,20.5-37,46.6-52.4,74c-26.5,47.2-30.2,89.2-28.6,116.2
		c1.8,31.5,11.9,59,26.9,73.8c1.9,1.9,8.7,4.8,17.8,5.4c9.2,0.6,16-1.4,18.7-3.6c38.8-32.5,49.4-80.4,51.4-114.9
		c2.7-45.3-7.8-96.4-28.8-140.1c-0.7-1.5-1.5-3.1-2.2-4.7C315.4,374.1,314.5,372.1,313.5,370.1z M119,392.1
		c-15.3,19.3-27.6,35.2-45.1,74.4l0,0.1c-6.3,13.8-11.6,38.9-9.5,54.2c1.6,11.4,6.3,21.5,13.7,29.2c1.5,1.5,14.9,14.6,30.4,6.6
		c34.6-18,37.6-64.8,28.9-102.5C132,430.8,125.5,410.5,119,392.1z"/>
</g>
</svg>
