<?xml version="1.0" encoding="utf-8"?>
<!-- Generator: Adobe Illustrator 19.0.0, SVG Export Plug-In . SVG Version: 6.00 Build 0)  -->
<svg version="1.1" id="Layer_1" xmlns="http://www.w3.org/2000/svg" xmlns:xlink="http://www.w3.org/1999/xlink" x="0px" y="0px"
	 viewBox="194 -104 762.7 1000" style="enable-background:new 194 -104 762.7 1000;" xml:space="preserve">
<g id="Guide">
</g>
<g id="Layer_4">
</g>
<g id="Layer_3">
	<path d="M343.7,594.8c-23.8,0-47.1-8-66.7-23.4c-30.5-24-45.7-61.2-40.7-99.6c1.8-13.5,5.2-25.5,10.3-35.8
		c15.2-31,72.6-91.7,115-134.2l-5-24.4c-3.3-16.2-13.4-30.1-27.9-38.2c-14.1-7.9-30.8-9.3-45.8-3.9c-15.4,5.6-30.4,15.1-41.2,26.2
		c-11,11.2-12.4,18.7-12.2,20c0,0,0-0.1-0.1-0.2l-32.5,14.1c-3-6.8-5.1-18,1.2-32.8c10.3-23.9,40.2-48.9,72.7-60.6
		c24.8-9,52.2-6.6,75.3,6.3c23.4,13.2,39.9,35.8,45.2,62.1l0.3,1.7c5.9-5.8,10.7-10.3,13.7-13.2c15.2-14.5,35.9-20.9,56.7-17.4
		c20.6,3.4,38,16,47.7,34.5c14.7,28.3,21,67,18.7,115c-0.7,14.2,0.5,27.8,3.4,40.4l0.1,0.5c0.1,0.6,0.2,1.2,0.7,4.2
		c0.1,0.9,0.3,1.8,0.4,2.4c9.3,37.7,43.6,62.9,81.8,59.9c27.3-2.1,42-11.2,50.7-31.6c8.7-20.4,11.6-52.9,8.9-101.6
		c-1-10-1.1-16.6-1.2-17.6l35.4-1.7c0.4,5.4,0.8,10.6,1.1,15.7c2.7,28.3,12.3,90,45.7,118.9c14,12.1,30.7,16.8,50.9,14.3
		c27.6-3.4,45.1-28.3,52-74.2c5.8-38.7,1.3-77.1,1.3-77.5l35.2-4.3c0.2,1.7,5.1,43-1.3,86.4c-11.8,79.7-51.6,100.9-82.9,104.8
		c-30.4,3.7-56.8-3.9-78.5-22.8c-12.2-10.6-21.9-24-29.6-38.5c-1.3,4.3-2.8,8.3-4.4,12c-13.9,32.6-40.3,49.9-80.6,53
		c-56,4.3-106.1-32.6-119.2-87.7l-0.1-0.6c-0.1-0.6-0.2-1.2-0.7-4.2c-0.1-1-0.3-1.9-0.4-2.5c-3.5-15.6-4.9-32.2-4.1-49.4
		c2.5-51.9-6.6-81.3-14.7-96.9c-4.4-8.5-12.5-14.3-22-15.9c-9.7-1.6-19.3,1.4-26.4,8.1c-9.8,9.3-19.8,19-29.8,29l35.7,175.8
		c3.3,16.1,1.2,34.2-5.8,51c-7.3,17.3-19.5,31.6-34.5,40.5c-3.1,2.5-7.3,4.7-13.1,6.8C369.7,592.4,356.6,594.8,343.7,594.8z
		 M370,343.7c-43.5,44.6-81.8,87.8-91.6,107.9c-3.3,6.8-5.7,15.2-6.9,24.8c-3.3,25.8,6.9,51,27.5,67.2c20.3,16,46.8,20.1,70.8,10.9
		l0.1-0.1c0.6-0.2,1.2-0.4,1.6-0.6l0.2-0.4l4.5-2.5c19.3-10.6,28.4-36.7,24.7-54.5L370,343.7z"/>
</g>
</svg>
