<?xml version="1.0" encoding="utf-8"?>
<!-- Generator: Adobe Illustrator 19.0.0, SVG Export Plug-In . SVG Version: 6.00 Build 0)  -->
<svg version="1.1" id="Layer_1" xmlns="http://www.w3.org/2000/svg" xmlns:xlink="http://www.w3.org/1999/xlink" x="0px" y="0px"
	 viewBox="194 -104 552.8 1000" style="enable-background:new 194 -104 552.8 1000;" xml:space="preserve">
<g id="Guide">
</g>
<g id="Layer_4">
</g>
<g id="Layer_3">
	<path d="M435.6,654.1l-95.7-424.4c-0.2-1-0.9-1.6-1.5-1.9c-0.7-0.4-1.5-0.4-2.2-0.1l-127.7,53.5l-13.4-31.9l127.6-53.5
		c10.1-4.3,21.6-3.9,31.4,1.1c9.9,5.1,17.1,14.2,19.6,25.1l95.7,424.5L435.6,654.1z"/>
</g>
<path d="M268,439.2l-17.2-30.1c15.6-8.9,194.4-83.5,196.2-84.2c9.1-3.8,19.2-3.2,27.8,1.8c8.6,5,14.3,13.4,15.5,23.3l4.8,38.4
	c47-28.4,169-101.3,174.7-104.5l16.9,30.2c-4.7,2.7-135.2,80.6-180.2,107.8c-8.8,5.2-19.3,5.7-28.4,1.2c-9.1-4.4-15.2-13-16.4-23
	l-5.2-41.6C384.6,388.5,277.5,433.9,268,439.2z"/>
</svg>
