<?xml version="1.0" encoding="utf-8"?>
<!-- Generator: Adobe Illustrator 19.0.0, SVG Export Plug-In . SVG Version: 6.00 Build 0)  -->
<svg version="1.1" id="Layer_1" xmlns="http://www.w3.org/2000/svg" xmlns:xlink="http://www.w3.org/1999/xlink" x="0px" y="0px"
	 viewBox="0 0 1000 1000" style="enable-background:new 0 0 1000 1000;" xml:space="preserve">
<style type="text/css">
	.st0{fill:none;stroke:#000000;stroke-width:34.6399;stroke-miterlimit:10;}
	.st1{fill:none;stroke:#000000;stroke-width:35;stroke-miterlimit:10;}
</style>
<g id="Guide">
</g>
<g id="Layer_4">
</g>
<g id="Layer_3">
	<path class="st0" d="M195.1,395.9c0,0,147.5-28.5,179.1-78.2c2.6-4.1,8.9-3.1,10,1.7l100.9,447.9"/>
</g>
<path class="st1" d="M277,531c100-122,204.2-118.1,242.1-96.7c4.7,2.7,9,5.3,12.8,7.9c20.3,13.6,33,36,34.3,60.4c0,0.3,0,0.5,0,0.8
	c1.7,36.6-11.1,55.3-19.4,110c-0.9,6-2.6,17.8,0.5,32.5c1.1,5.5,3.8,17.7,12.8,29.8c11.5,15.5,26.5,21.8,35.9,25.6
	c7.3,2.9,30.5,11.2,59.1,5.5c39.8-8,78.1-40.7,84.1-81.4c1.9-12.7,0.1-22.6-1.2-29.3c-8.3-43.7-40.2-69.8-53.1-79.2"/>
</svg>
