<?xml version="1.0" encoding="utf-8"?>
<!-- Generator: Adobe Illustrator 19.0.0, SVG Export Plug-In . SVG Version: 6.00 Build 0)  -->
<svg version="1.1" id="Layer_1" xmlns="http://www.w3.org/2000/svg" xmlns:xlink="http://www.w3.org/1999/xlink" x="0px" y="0px"
	 viewBox="194 -104 651.8 1000" style="enable-background:new 194 -104 651.8 1000;" xml:space="preserve">
<g id="Guide">
</g>
<g id="Layer_4">
</g>
<g id="Layer_3">
	<path d="M471.1,667.1l-95.9-425.6c-19.6,16.9-50.7,32.2-94.2,46.4c-41.4,13.5-78.2,20.7-79.8,21l-6.6-34l3.3,17l-3.3-17
		c0.4-0.1,36.6-7.1,75.9-20c65.7-21.5,85.7-40.8,91.8-50.5c4.9-7.8,14-11.8,23.1-10.3c9.1,1.6,16.3,8.4,18.4,17.4l100.9,448
		L471.1,667.1z"/>
</g>
<g id="Layer_3_1_">
	<path d="M592.9,572.1c-12.9,0-24.6-2.8-34.9-8.3c-21.6-11.5-35.8-34.1-42.3-67l-0.3-1.8l2-145.7c-1-1.7-2.5-2.6-3.4-3
		c-1.3-0.5-3.8-1.2-6.5,0.3l-0.6,0.3l-0.6,0.3L284.6,443l-13.9-32.1l221.1-95.6c11.3-5.7,24.3-6.1,36-1.1c11.8,5.1,20.6,15,24,27.3
		l0.7,2.5l-2,147.9c4.4,21.1,12.5,35,24,41.2c13,6.9,32.1,5.2,56.7-5.1C702.4,498,742.2,446,749.5,373.3
		c5.8-57.7-5-130.7-89.6-150.7l8.1-34.1c44.9,10.6,77.6,34.3,97.4,70.5c17.3,31.6,23.7,71.3,19,117.8c-4,39.7-16.5,74.9-37.2,104.5
		c-23.7,33.8-58.2,60.4-102.4,78.9C625.7,568.1,608.4,572.1,592.9,572.1z"/>
</g>
</svg>
