<?xml version="1.0" encoding="utf-8"?>
<!-- Generator: Adobe Illustrator 19.0.0, SVG Export Plug-In . SVG Version: 6.00 Build 0)  -->
<svg version="1.1" id="Layer_1" xmlns="http://www.w3.org/2000/svg" xmlns:xlink="http://www.w3.org/1999/xlink" x="0px" y="0px"
	 viewBox="17 -104 646.9 1000" style="enable-background:new 17 -104 646.9 1000;" xml:space="preserve">
<g id="Guide">
</g>
<g id="Layer_4">
</g>
<g id="Layer_3">
	<path d="M435.6,595.7c-6,0-12.1-0.3-18.3-0.9c-40.2-4.1-72.6-20.1-84.6-26.8c-23.2-12.9-38.3-31.8-43.5-54.7
		c-4.9-21.4-0.7-45,11.9-68.1c7.6-13.9,17.9-26.4,30.5-37.4l41.9-36.3c17.5-16.5,24.7-30.9,27.7-54.9c1.3-10.6,0.9-21.3-1.4-31.8
		c-4.7-21.4-15.8-37.8-29.8-43.9c-61.6-27-96.9,17.1-97.2,17.6l-0.5,0.6l-0.5,0.6c-17.7,18.9-28.2,68.2-30.6,84.1l-34.7-4.3
		c3.1-30.5,0.1-54.1-9.1-70.3c-16.1-28.3-51.2-52.4-97.4-27.2c-25.4,13.9-40.7,31.9-45.5,53.6c-2.7,11.9-1.6,24.6,2.4,36.3
		c7.1-12.1,17.8-25.7,33.5-34.2c16.7-9.1,35.3-10.6,55.2-4.5c24.7,7.6,43.4,32.4,42.3,55.7c0.5,19.6-9.5,37.7-27.6,49.8
		c-23.8,15.9-56.6,18.1-83.6,5.5C34.8,384.7,10,333.7,20.2,288.1c7.1-32,28.3-57.8,62.9-76.7c28.9-15.8,58.7-19.1,86.2-9.6
		c24,8.3,44.7,26.1,58.4,50.2c1.1,2,2.2,4,3.2,6.1c4.2-8.1,9.1-15.6,14.8-21.7c2.9-3.6,15.3-17.7,36.6-28
		c21.7-10.6,57-19.1,101.7,0.5c24.5,10.6,42.8,35.6,50,68.5c3.1,14.4,3.8,29.1,2,43.6c-4,32.4-14.9,53.8-38.7,76.3l-0.6,0.5
		l-42.2,36.5c-9.5,8.2-17.1,17.6-22.7,27.8c-8.3,15.1-23.1,52.7,17.8,75.4c6,3.3,43.8,23.3,86.6,23.3c22,0,45.3-5.2,66.4-20.7
		c49.8-36.6,72-83.2,66-138.6c-4.6-42.3-24.1-73.6-24.3-73.9l29.6-18.6c1,1.6,24,38.6,29.4,88.8c5.2,47.3-4.6,115.2-80.1,170.6
		C498.5,586.3,468.5,595.7,435.6,595.7z M79.8,365.3c3.6,2.9,7.5,5.3,11.6,7.2c18.3,8.6,38,4.7,49.4-2.9c4.7-3.1,12.5-10,12-20.2
		l0-1.1l0.1-1.1c0.4-5.9-7.3-17.5-17.6-20.6c-10.8-3.3-20-2.7-28.3,1.8C90.6,337.4,82,359,79.8,365.3z"/>
</g>
</svg>
