<?xml version="1.0" encoding="utf-8"?>
<!-- Generator: Adobe Illustrator 19.0.0, SVG Export Plug-In . SVG Version: 6.00 Build 0)  -->
<svg version="1.1" id="Layer_1" xmlns="http://www.w3.org/2000/svg" xmlns:xlink="http://www.w3.org/1999/xlink" x="0px" y="0px"
	 viewBox="-77 -104 456.9 1000" style="enable-background:new -77 -104 456.9 1000;" xml:space="preserve">
<g id="Guide">
</g>
<g id="Layer_4">
</g>
<g id="Layer_3">
	<path d="M181.4,595.4c-21.5,0-41.2-6.8-57.8-20.2c-17.7-14.3-31-35.1-38.6-60.3c-6.9-23-8.2-47.4-3.7-68.8
		c7.8-36.9,43.1-109,73.4-166.5c-14.9,7.2-31.4,11.9-48.8,11.8c-30.3-0.2-57.8-14.6-82.2-42.8c-22,26.4-63.1,82.4-63.3,132.6l0,1.3
		l-0.1,0.8c-0.1,1-0.7,9.5,2.7,19.3c4.5,13,14.1,22.7,28.5,28.8c10.3,4.4,20.6,4.4,29.8,0.2c9.5-4.3,17.1-13,20.4-23.3
		c3.4-10.5-1.3-22.3-11.1-28c-0.2-0.1-0.5-0.3-0.7-0.4l-0.2-0.1c-5.9-3-11.1-1.3-13.8,0.1c-4.7,2.4-7.9,6.8-8.7,12L7,393.7
		l-34.6-5.5l0.3-1.9c2.5-16.2,12.8-30.3,27.5-37.8c14.6-7.4,31.2-7.4,45.6,0c0.4,0.2,0.8,0.4,1.2,0.6l0.8,0.4
		c24.2,13.8,35.7,43,27.3,69.2c-6.3,19.7-20.6,35.9-39.1,44.4c-18.1,8.3-38.8,8.4-58.1,0.2c-46.5-19.8-54.6-62.6-52.4-83.6
		c0.9-82,83.1-167.5,86.6-171.1L27,193.5l12.1,17.5c20.6,29.8,43.2,45.1,67.1,45.2c0.1,0,0.3,0,0.4,0c41.7,0,82.8-45,95.2-62.4
		l29.4,18.8c-1,1.8-103,180.1-115.7,240.5c-6.2,29.6,3.3,73.2,30,94.7c19.2,15.5,44,16.7,73.5,3.5c43-19.2,58.3-73.7,63.5-116.1
		c6.3-51.3,0-98.5-0.1-99c0.1,0.3,0.1,0.6,0.1,0.7l34.2-7.5c1,4.7,7,54.1,0.8,107.5c-3.8,32.4-11.3,60.5-22.5,83.3
		c-14.6,30-35.4,51.3-61.8,63C215.4,591.4,197.9,595.4,181.4,595.4z"/>
</g>
</svg>
