<?xml version="1.0" encoding="utf-8"?>
<!-- Generator: Adobe Illustrator 19.0.0, SVG Export Plug-In . SVG Version: 6.00 Build 0)  -->
<svg version="1.1" id="Layer_1" xmlns="http://www.w3.org/2000/svg" xmlns:xlink="http://www.w3.org/1999/xlink" x="0px" y="0px"
	 viewBox="-73 -104 465 1000" style="enable-background:new -73 -104 465 1000;" xml:space="preserve">
<g id="Guide">
</g>
<g id="Layer_4">
</g>
<g id="Layer_3">
	<path d="M97.2,593.7c-12.8,0-25.4-2.6-37.7-7.7C4,563-25.7,494.8-28.8,487.3c-2-4.4-9.5-22.5-2.4-42.8
		c5.4-15.5,17.4-27.6,35.8-36.1c6.6-3,13.2-6.1,19.7-9.1C61,382.5,98.2,365.3,138.8,349l-20.2-96.2l-174,103L-73,326l215.6-127.6
		l29,138c45.2-16.7,95.2-31.9,153.3-44.4l7.3,33.9c-58.8,12.6-108.3,27.9-153.4,44.7l20.3,97c0.2,0.9,3.7,21.6-1.6,45.9
		c-7.3,33.6-27.5,58.2-58.4,71.2C125,590.8,111,593.7,97.2,593.7z M146,383.3c-37,15-71.7,31.1-107.2,47.5c-6.6,3-13.2,6.1-19.8,9.1
		c-9.5,4.4-15.4,9.7-17.5,16c-2.8,8,0.9,16.5,1,16.5l0.3,0.7l0.3,0.7c0.2,0.6,25.8,62,69.8,80.2c16.9,7,34.2,6.6,52.8-1.2
		c20.3-8.6,33.1-24.2,37.9-46.6c3.6-16.4,1.6-30.7,1.3-32.4L146,383.3z"/>
</g>
</svg>
