<?xml version="1.0" encoding="utf-8"?>
<!-- Generator: Adobe Illustrator 19.0.0, SVG Export Plug-In . SVG Version: 6.00 Build 0)  -->
<svg version="1.1" id="Layer_1" xmlns="http://www.w3.org/2000/svg" xmlns:xlink="http://www.w3.org/1999/xlink" x="0px" y="0px"
	 viewBox="-73 -104 668 1000" style="enable-background:new -73 -104 668 1000;" xml:space="preserve">
<g id="Guide">
</g>
<g id="Layer_4">
</g>
<g id="Layer_3">
	<path d="M98.3,594.6c-12.8,0-25.4-2.6-37.7-7.7c-55.5-23.1-85.2-91.2-88.3-98.6c-2-4.4-9.5-22.5-2.4-42.8
		c5.4-15.5,17.4-27.6,35.7-36.1c24.7-11.4,45.3-21.7,65.2-31.6c22.5-11.3,43.8-21.9,68.2-32.7l-19.2-91.4l-174,103l-17.6-29.8
		l215.6-127.6l27.8,132.3c27.8-11,60.5-22.3,102.6-34.8l16.8-5L335.5,449c9.4,33.3,31,61.3,60.8,79c25.6,15.2,58.7,9,77-14.4
		c18.5-23.6,27.3-50.1,27.6-83.4c0-4.9-0.4-10.1-1.4-15.4l-25.8-138.9l34.1-6.3l25.8,138.9c1.4,7.5,2.1,14.9,2,22
		c-0.3,40.8-11.8,75-35,104.5c-18.4,23.4-46,35.9-74.1,35.9c-16.4,0-32.9-4.3-47.8-13.1c-37.4-22.2-64.6-57.5-76.5-99.3l-35-123.5
		c-35.6,11-64,21.1-88.4,31l21.5,102.5c0.2,0.9,3.7,21.6-1.6,46c-7.3,33.6-27.5,58.2-58.4,71.2C126.1,591.6,112.1,594.6,98.3,594.6z
		 M146.2,379.8c-21.1,9.5-40,19-59.9,29c-20.1,10.1-41,20.5-66.2,32.1c-9.4,4.3-15.3,9.7-17.5,16c-2.8,8,0.9,16.5,1,16.5l0.3,0.7
		l0.3,0.7c0.2,0.6,25.8,62,69.8,80.2c16.9,7,34.2,6.6,52.8-1.2c20.3-8.6,33.1-24.2,38-46.6c3.6-16.4,1.6-30.7,1.3-32.4L146.2,379.8z
		"/>
</g>
</svg>
