<?xml version="1.0" encoding="utf-8"?>
<!-- Generator: Adobe Illustrator 19.0.0, SVG Export Plug-In . SVG Version: 6.00 Build 0)  -->
<svg version="1.1" id="Layer_1" xmlns="http://www.w3.org/2000/svg" xmlns:xlink="http://www.w3.org/1999/xlink" x="0px" y="0px"
	 viewBox="28 -104 509 1000" style="enable-background:new 28 -104 509 1000;" xml:space="preserve">
<style type="text/css">
	.st0{fill:none;stroke:#000000;stroke-width:35.3725;stroke-miterlimit:10;}
</style>
<g id="Guide">
</g>
<g id="Layer_4">
</g>
<g id="Layer_3">
	<path class="st0" d="M593,524.6"/>
	<path d="M200.2,595.8c-12.9,0-25.7-2.6-38.2-7.8c-56.2-23.3-86.2-92.2-89.3-99.7c-2.1-4.4-9.6-22.8-2.5-43.4
		c5.4-15.7,17.6-28,36.2-36.6c25-11.5,45.8-21.9,65.9-32c22.7-11.4,44.2-22.1,68.8-33l-19.3-92l-175.6,104l-18-30.4l218.1-129.1
		l28.1,133.7c28.1-11.1,61.1-22.5,103.5-35.2l17.2-5.1l82.4,293.9l-34.1,9.6l-72.7-259.3c-35.8,11.1-64.4,21.3-89,31.2l21.7,103.4
		c0.2,0.9,3.8,21.9-1.6,46.5c-7.4,34-27.8,58.9-59.1,72.1C228.4,592.8,214.2,595.8,200.2,595.8z M248.5,378.9
		c-21.2,9.6-40.3,19.1-60.4,29.2c-20.4,10.2-41.4,20.7-66.9,32.5c-9.5,4.4-15.4,9.8-17.6,16c-2.8,8.1,0.9,16.5,1,16.6l0.3,0.7
		l0.3,0.7c0.2,0.6,26,62.6,70.4,80.9c17.1,7.1,34.5,6.6,53.3-1.3c47.8-20.1,40.3-74.9,39.6-79.7L248.5,378.9z"/>
</g>
</svg>
