<?xml version="1.0" encoding="utf-8"?>
<!-- Generator: Adobe Illustrator 19.0.0, SVG Export Plug-In . SVG Version: 6.00 Build 0)  -->
<svg version="1.1" id="Layer_1" xmlns="http://www.w3.org/2000/svg" xmlns:xlink="http://www.w3.org/1999/xlink" x="0px" y="0px"
	 viewBox="-44 -104 510 1000" style="enable-background:new -44 -104 510 1000;" xml:space="preserve">
<style type="text/css">
	.st0{fill:none;stroke:#000000;stroke-width:35;stroke-miterlimit:10;}
</style>
<g id="Guide">
</g>
<g id="Layer_4">
	<path id="XMLID_6_" class="st0" d="M181.9,362.4"/>
	<path id="XMLID_10_" class="st0" d="M181.9,362.4"/>
	<path class="st0" d="M-28,196"/>
	<path d="M406.9,768h-35V494.5c-15.7,23.5-35.7,44.1-58.6,60.3c-28.9,20.4-62.7,33.9-97.6,39.1c-55,8.3-108.8-1.7-155.5-28.8
		c-11-6.4-32.7-21.2-54.3-48.3c-31.4-39.5-49-89.7-49.6-141.2l0-0.1l0.7-179.7l35,0.1l-0.7,179.4c0.5,43.7,15.4,86.2,42,119.6
		c18,22.6,35.6,34.6,44.5,39.8c40.3,23.4,84.9,31.6,132.7,24.4c60.3-9,113.6-46.8,142.4-101.2l0.3-0.6c12.2-22.8,18.7-49,18.7-75.5
		V196h35V768z"/>
</g>
</svg>
