<?xml version="1.0" encoding="utf-8"?>
<!-- Generator: Adobe Illustrator 19.0.0, SVG Export Plug-In . SVG Version: 6.00 Build 0)  -->
<svg version="1.1" id="Layer_1" xmlns="http://www.w3.org/2000/svg" xmlns:xlink="http://www.w3.org/1999/xlink" x="0px" y="0px"
	 viewBox="125 -104 632.1 1000" style="enable-background:new 125 -104 632.1 1000;" xml:space="preserve">
<style type="text/css">
	.st0{fill:none;stroke:#000000;stroke-width:35;stroke-miterlimit:10;}
</style>
<g id="Guide">
</g>
<g>
	<g id="Layer_4_1_">
		<path d="M304.1,596.7c-28.7,0-63.3-7.4-98.3-32.5c-0.9-0.6-1.8-1.3-2.8-2c-22.2-15.8-59.3-42.1-76.2-128.7l-0.2-0.8l-0.1-0.8
			c-3.4-34.3-0.4-54,5.1-89.6c0.9-6,1.9-12.6,3-19.8l34.6,5.1c-1.1,7.3-2.1,13.9-3,20c-5.3,34.6-7.7,50.6-4.9,80
			c14.3,72.2,43,92.6,62,106.1c1,0.7,2,1.4,2.9,2.1c31.3,22.6,66,30.5,102.9,23.6c47.3-8.7,89.2-46,112.3-99.8
			c12.4-34.9,14.4-60.8,6.7-86.6c-5-16.9-34.8-78.8-45.9-101.2l-12.5-25.2h191.7c24.5,0,47.8-9.9,64-27.1
			c12.9-13.8,17.5-27.6,14-42.2c-15-62.6-74.4-110.4-151.5-121.9c-79.4-11.8-141.8,18.8-173.8,51.3c-15.9,16.1-20.5,29.1-19.7,33.9
			l-34.5,5.7c-3.1-18.7,7.6-42.1,29.2-64.2c38-38.7,111.6-75.1,203.9-61.3c46.2,6.9,87.7,25.1,120,52.7
			c30.8,26.3,51.7,59.4,60.4,95.7c6.3,26.2-1.5,51.9-22.6,74.3c-22.8,24.3-55.4,38.2-89.5,38.2H446c12.8,26.6,31.2,66.1,35.8,81.5
			c9.8,33.1,7.5,66.6-7.4,108.6l-0.5,1.4c-13.6,31.9-33.4,59.8-57.2,80.6c-23.9,20.9-52,34.8-81.1,40.2
			C326.3,595.5,315.7,596.7,304.1,596.7z"/>
		<path class="st0" d="M471,200.7"/>
	</g>
</g>
</svg>
