<?xml version="1.0" encoding="utf-8"?>
<!-- Generator: Adobe Illustrator 19.0.0, SVG Export Plug-In . SVG Version: 6.00 Build 0)  -->
<svg version="1.1" id="Layer_1" xmlns="http://www.w3.org/2000/svg" xmlns:xlink="http://www.w3.org/1999/xlink" x="0px" y="0px"
	 viewBox="-44 -104 822 1000" style="enable-background:new -44 -104 822 1000;" xml:space="preserve">
<style type="text/css">
	.st0{fill:none;stroke:#000000;stroke-width:35;stroke-miterlimit:10;}
</style>
<g id="Guide">
</g>
<g id="Layer_4">
	<path id="XMLID_6_" class="st0" d="M187.7,362.4"/>
	<path id="XMLID_10_" class="st0" d="M187.7,362.4"/>
	<path d="M184,596.8c-41.8,0-82-10.7-118-31.6c-18.2-10.5-79.3-52.6-103-150.6c-9.3-38.5-8.1-74.4,4.2-119.9l25.5-98.3l33.9,8.8
		L1,303.7c-10.7,39.5-11.9,70.2-4,102.6c20.5,84.6,71.4,119.8,86.6,128.6c40.3,23.4,84.9,31.6,132.7,24.4
		c60.3-9,113.6-46.8,142.4-101.2c8.6-16,15.1-33.2,19.4-51.2c6.8-28.4,5.7-55.5-4.1-103.3l-27.8-107.8l34.1,16.7
		c0.2,0.1,26.9,12.5,80.3,16.7c49.5,3.9,132.7,1.2,247.7-33.3l10.1,33.5c-165.8,49.8-271.5,37.6-320.8,25.4l10.6,41.4
		c9.3,44.9,13.2,80.4,4,118.9c-5,21-12.6,41-22.6,59.5c-16.9,31.8-41.3,59.6-70.5,80.2c-28.9,20.4-62.7,33.9-97.6,39.1
		C208.9,595.8,196.3,596.8,184,596.8z"/>
</g>
</svg>
