<?xml version="1.0" encoding="utf-8"?>
<!-- Generator: Adobe Illustrator 19.0.0, SVG Export Plug-In . SVG Version: 6.00 Build 0)  -->
<svg version="1.1" xmlns="http://www.w3.org/2000/svg" xmlns:xlink="http://www.w3.org/1999/xlink" x="0px" y="0px"
	 viewBox="0 0 351.6 1000" style="enable-background:new 0 0 351.6 1000;" xml:space="preserve">
<style type="text/css">
	.st0{fill:none;stroke:#000000;stroke-width:34.4628;stroke-miterlimit:10;}
</style>
<g id="Guide">
</g>
<g id="Layer_4">
	<path id="XMLID_19_" d="M182.8,698.2c-10.8,0-21.7-1.5-32.1-4.5c-13.3-3.9-25.2-9.8-36.6-15.6c-13.7-6.9-30.8-15.5-42.3-31.3
		l27.9-20.2c6.5,9,18.9,15.2,29.8,20.7c10.5,5.3,20.5,10.3,30.7,13.3c22.3,6.5,47.3,2.9,67-9.5c19.6-12.4,33.6-33.5,37.3-56.4
		c2.3-14.1,0.5-32.8-11.6-43.1c-10.1-8.6-24.9-13-44-13c0,0-0.1,0-0.1,0l-28.2,0.5l-1.5-34.4c33.7-2.3,65.3-27.5,75.2-59.8
		c9.8-32.3-2.4-70.8-29-91.5c-26.7-20.7-67.5-24.4-101.7-9.1C91.8,358.5,65,388.2,50,425.7c-13,32.7-17.7,71.7-14,116l-34.3,2.9
		C-2.5,494.9,3,450.6,18,413c18.2-45.7,51.6-82.2,91.6-100.1c21.9-9.8,46.1-13.9,70-11.9c25.2,2.1,48.3,10.8,66.9,25.2
		c38.1,29.6,55,82.6,40.9,128.8c-6.7,21.9-20,41.2-37.3,55.8c9.5,3.5,18,8.4,25.3,14.6c19.1,16.4,28,45,23.2,74.8
		c-5.3,32.5-25.1,62.4-52.9,80C227,692.1,204.9,698.2,182.8,698.2z"/>
	<path id="XMLID_18_" class="st0" d="M180.8,524.1"/>
</g>
</svg>
