<?xml version="1.0" encoding="utf-8"?>
<!-- Generator: Adobe Illustrator 19.0.0, SVG Export Plug-In . SVG Version: 6.00 Build 0)  -->
<svg version="1.1" xmlns="http://www.w3.org/2000/svg" xmlns:xlink="http://www.w3.org/1999/xlink" x="0px" y="0px"
	 viewBox="0 0 850 1000" style="enable-background:new 0 0 850 1000;" xml:space="preserve">
<style type="text/css">
	.st0{fill:none;stroke:#000000;stroke-width:35;stroke-miterlimit:10;}
</style>
<g id="Guide">
</g>
<g id="Layer_4">
	<path id="XMLID_5_" d="M180.9,699.7c-33,0-56-6.2-60.2-7.4C54.2,676.3,3.1,612.9,1.7,544.6l35-0.7c1.1,52.2,41.7,102.5,92.5,114.5
		l1.1,0.3c0.5,0.2,58.2,16.9,124.7-6.4c28.1-9.9,48.6-26.4,56.1-45.4c10-25.3,7.5-46.5-7.9-64.6c-11.8-14-26.7-20.7-26.9-20.7
		l-1.1-0.5c-18.2-9.4-58.4-11.1-72.3-11l-55,0.5l44.6-32.2c30.6-22.1,45.6-51.1,41.2-79.6c-4.7-30.8-30.4-57.2-61-62.9
		c-30.6-5.7-64,9.8-79.5,36.7c-12.5,21.7-14,49.1-13.9,75.4l-35,0.2c-0.2-29.7,1.8-64,18.5-93c11-19.2,28.7-35.1,49.8-44.9
		s44.7-12.9,66.5-8.8c21.8,4.1,42.7,15.5,58.8,32.2c16.2,16.7,27,37.9,30.3,59.8c4.6,29.6-4.1,58.9-24.2,84.1
		c16.2,2,33.8,5.7,46.8,12.3c4.2,1.9,23.2,11.2,39.1,30c16.6,19.6,32.4,52.9,13.6,100.1c-15.4,38.9-54.9,57.8-77.1,65.6
		C234.9,696.3,205.2,699.7,180.9,699.7z"/>
	<path id="XMLID_6_" d="M598.1,667.6c-23.8,0-46.5-4.6-65.3-13.8c-16.3-8-49.4-29.5-88.3-83.6c-2.2-3.1-4.5-6.3-6.7-9.4
		c-16.1-22.8-31.4-44.3-52.9-56.1c-12.6-6.9-29.3-8.5-42.5-4.1c-5.9,2-13.8,6.1-17.7,14.7l-31.9-14.5c7.1-15.6,20.8-27.5,38.5-33.4
		c22.3-7.4,49.3-4.9,70.4,6.6c28.7,15.7,47,41.6,64.7,66.6c2.2,3.1,4.4,6.2,6.5,9.2c35.7,49.7,64.6,67.3,75.3,72.6
		c31.3,15.4,79.5,13.3,119.8-5.3c29.3-13.4,67.1-41.1,81.4-96.4c1.9-7.5,17.9-74.4-17.4-123.3c-19.1-26.5-56.4-48.9-90.7-40.5
		c-18.2,4.5-35.8,20.6-32.6,41.6c2.8,18.7,16.5,27.6,16.7,27.7c0,0-0.7-0.4-1.8-0.8l-11.7,33c-8.3-2.9-32.8-21.4-37.8-54.7
		c-5.5-36.4,19.8-71.1,58.9-80.8c51.6-12.7,102.3,19.1,127.5,54c43.7,60.5,26.8,137.7,22.9,152.5c-13.9,53.6-49.6,96-100.7,119.4
		C655.6,661.3,626,667.6,598.1,667.6z"/>
	<path id="XMLID_34_" class="st0" d="M601,449"/>
</g>
</svg>
