<?xml version="1.0" encoding="utf-8"?>
<!-- Generator: Adobe Illustrator 19.0.0, SVG Export Plug-In . SVG Version: 6.00 Build 0)  -->
<svg version="1.1" id="Layer_1" xmlns="http://www.w3.org/2000/svg" xmlns:xlink="http://www.w3.org/1999/xlink" x="0px" y="0px"
	 viewBox="-34 -104 720 1000" style="enable-background:new -34 -104 720 1000;" xml:space="preserve">
<g id="Guide">
</g>
<g id="Layer_3">
	<path d="M284.7,596.8c-16.2,0-32.5-2.1-48.2-6.5c-21.5-6-51.7-18.9-73.3-46.5c-20.3-26.1-27.2-60.1-17.9-88.7
		c3.9-12.3,10.2-21.9,18.6-28.6c20.3-16.4,51.2-14.3,82.6,5.5c16.2,10.2,31.1,22,45.5,33.4c14,11.2,27.3,21.7,41.6,30.8
		c13.1,8.3,34.9,19.7,58.5,21.8c24.9-23.3,41.3-51.9,45.3-80.4c2.2-15.6-3.9-34.4-13.8-42.7c-20-16.6-56.9,4.5-58.6,5.5
		c-0.1,0-0.1,0.1-0.2,0.1l-18-29.6c0.1-0.1,0.3-0.2,0.5-0.3c24.2-14.6,41.1-35.5,46.3-57.4c4.6-19,3.9-49.6-12.9-73.2
		c-11.3-15.9-37.6-33.3-68.7-34c-0.6,0-1.3,0-1.9,0c-35.1,0-70.3,21.3-101.7,61.6c-13.4,17.2-25.1,39.6-36.4,61.3
		c-20.9,40.1-40.6,77.9-73.4,92c-9.7,4.2-19.8,6.1-29.9,6.1c-37.7,0-75.7-26.4-93.5-59.2c-7.7-14.1-10.9-28.5-9.4-41.7
		c1.8-15.8,10.2-29.1,24.3-38.5c19-12.7,40.7-11.9,58.1,2.2c13.3,10.8,23.7,29.2,28.5,50.5c3.9,17.6,3.8,35.5-0.3,51.3
		c2.9-0.5,5.7-1.4,8.5-2.5c21.5-9.3,39.3-43.3,56.4-76.2c12-23,24.4-46.8,39.7-66.5c49.2-63.2,98.8-75.7,131.6-75
		c43.2,0.9,79.5,25.1,96.2,48.6c23.5,33,24.9,74,18.3,101.3c-2.7,11.5-7.6,22.6-14.2,33.1c11.2,1.3,22.5,5.4,32.7,13.8
		c19.2,15.9,29.8,46.4,25.9,74.1c-3.4,24-13.5,47.8-28.7,69.5c9.5-2.1,22.6-6.1,37.2-14.3c38.9-21.7,70.6-62.6,91.7-118.1
		c17.3-45.6,17.9-89.6,16.1-130.4l34.6-1.6c2,44.5,1.2,92.7-18.3,144.2c-13.5,35.6-30.9,65.9-51.8,90.2
		c-17.1,19.8-36.4,35.6-57.6,47.1c-30.3,16.4-56,19-64.8,19.4c-8,2.4-16.4,3.8-25.1,4.2c-6.3,5.2-12.9,10-19.8,14.6
		C355.5,586.6,320.1,596.8,284.7,596.8z M196.7,450.1c-4.3,0-8.2,1-11.2,3.4c-3,2.4-5.5,6.6-7.3,12.2c-5.7,17.6-0.9,39.9,12.3,56.8
		c12.3,15.7,32,28,55.3,34.5c36.2,10.1,76.1,5.5,109.1-12c-13.2-4.6-26.6-11.1-39.8-19.5c-15.9-10.1-30.5-21.7-44.7-32.9
		c-14.3-11.4-27.8-22.1-42.4-31.3C218.7,455.3,206.5,450.1,196.7,450.1z M18.2,313.1c-2.7,0-5.5,1.1-8.7,3.2
		c-11,7.3-12.3,19.1-3.7,34.9c7.7,14.2,21.4,27,36.5,34.4c7.8-25.2-1.6-57.6-15.7-69C23.7,314.3,21,313.1,18.2,313.1z"/>
</g>
</svg>
