<?xml version="1.0" encoding="utf-8"?>
<!-- Generator: Adobe Illustrator 19.0.0, SVG Export Plug-In . SVG Version: 6.00 Build 0)  -->
<svg version="1.1" xmlns="http://www.w3.org/2000/svg" xmlns:xlink="http://www.w3.org/1999/xlink" x="0px" y="0px"
	 viewBox="0 0 561.6 1000" style="enable-background:new 0 0 561.6 1000;" xml:space="preserve">
<g id="Guide">
</g>
<g id="Layer_2">
</g>
<g id="Layer_3">
	<path id="XMLID_5_" d="M129.3,698.5c-26.5,0-45.3-6.4-46.1-6.7l-1.3-0.5l-1.2-0.6c-17.5-9.3-30.5-26-36.5-47
		c-6.7-23.4-3.9-48.6,7.9-69c16.8-29.2,53.3-67.8,82.7-98.8c8-8.4,15.5-16.3,21.3-22.7c23.7-26.1,21.8-69.2-4.3-96.1
		c-0.4-0.5-0.9-0.9-1.3-1.3c-19.1-18.7-48.7-25.7-73.8-17.3c-0.5,0.2-1,0.3-1.6,0.5c-8.3,2.7-25.4,8.2-35,37
		c-5.3,16.1,3,36.2,19.8,47.7l-20.1,29.5C9.5,432.5-4.3,396.2,6.1,364.7c15.2-46,47.3-56.4,57.9-59.8c0.4-0.1,0.9-0.3,1.2-0.4
		c38-12.7,81.2-2.6,110,25.7c0.7,0.6,1.3,1.3,2,2c18.7,19.2,29.7,44.6,31,71.4c1.3,27.6-7.8,53.7-25.8,73.5
		c-6.1,6.7-13.7,14.8-21.8,23.3c-26.6,28.1-62.9,66.5-77.7,92c-6.9,11.9-8.5,27.3-4.5,41.3c3.2,11,9.4,19.7,17.7,24.6
		c4.5,1.3,21.2,5.6,42.4,4c32.2-2.4,59.6-16.6,81.5-42.3c0.3-0.4,30.2-36,25.8-77.3c-2.2-20.9-11.4-30.6-27.5-38.9
		c-2.6-1.1-5.1-2.3-7.4-3.7l16.6-31.5c1.8,0.8,3.6,1.7,5.4,2.6c13.9,4.9,45.3,3.7,87.6-10.3c54.3-18.1,125.7-58.5,148.1-112.8
		l33,13.6c-27,65.5-105.4,111.7-169.8,133.1c-12.8,4.3-35.4,10.9-58.8,13.6c4.2,8.4,7.2,18.5,8.5,30.6c6,56.4-32.5,102.3-34.1,104.2
		c-35.8,42-78.4,53-107.8,54.9C135.9,698.4,132.5,698.5,129.3,698.5z"/>
</g>
</svg>
