<?xml version="1.0" encoding="utf-8"?>
<!-- Generator: Adobe Illustrator 19.0.0, SVG Export Plug-In . SVG Version: 6.00 Build 0)  -->
<svg version="1.1" id="Layer_1" xmlns="http://www.w3.org/2000/svg" xmlns:xlink="http://www.w3.org/1999/xlink" x="0px" y="0px"
	 viewBox="19 -104 785 1000" style="enable-background:new 19 -104 785 1000;" xml:space="preserve">
<g id="Guide">
</g>
<g id="Layer_3">
	<path d="M456.9,719.8c-13.1,0-27.1-2.4-41.8-7.3c-15.6-5.1-35.3-22.3-41.5-47.7c-4.9-20.1-3-52,34.1-90
		c47.6-48.8,91.7-67.6,137.1-82.7c7.4-106.8-7.1-214.9-18-296.5c-6.1-45.2-10.9-81-10.9-106.7h35c0,23.4,4.9,59.8,10.5,102
		c10.7,79.7,24.7,184.1,19.1,289.7c23.2-7.5,47.3-15.8,72.7-28.4c31.9-15.8,49.8-43,53.2-80.8c2.7-30.2-5.1-56.1-5.1-56.4l33.5-10.3
		c0.4,1.3,9.7,31.8,6.6,68.6c-4.2,50.7-29.3,88.8-72.6,110.3c-32.5,16.1-61.9,25.4-90.4,34.4c-0.2,0.1-0.5,0.1-0.7,0.2
		c-0.8,7.5-1.6,15-2.6,22.5c-0.1,0.9-0.3,3-0.5,5.3c-1.2,14-3.8,43.1-12.6,73.8c-11.5,40.3-29.8,68.9-54.2,85
		C492.7,714.9,475.6,719.8,456.9,719.8z M541.1,530.5c-36.7,13.3-71.2,30.7-108.4,68.8c-20.5,21-29.2,40.8-25.2,57.2
		c3.4,13.9,14.7,21.6,18.4,22.8c25.6,8.4,46,7.2,62.5-3.6c27.8-18.3,45-62.9,51.2-132.7c0.3-3,0.5-5.2,0.7-6.8
		C540.6,534.3,540.9,532.4,541.1,530.5z"/>
	<path d="M320.2,492.3c-42.1,0-96-13.6-125.2-39.9c-34.4-30.7-51.6-77-44.9-120.9c3.8-24.6,14.4-46.4,24.8-67.6
		c11.5-23.6,22.4-46,22.1-69.1c-0.3-24.4-12.5-54.3-34.6-61.4c-31-9.9-56.2-9.1-75.1,2.4c-28.5,17.4-34.9,54.7-35,55.1l-0.2,1
		l-0.3,0.9c-3.2,11.8-1.4,25.8,4.8,36.5c3.2,5.5,8.9,12.6,18.2,15l-8.8,33.9c-16.4-4.3-30.5-15.4-39.7-31.3
		C15.7,228.3,12.6,205,18,184.4c1.4-7.9,11.4-53.9,50.8-78.2c28-17.3,63.1-19.3,104.4-6.1c39.8,12.8,58.4,57.8,58.9,94.2
		c0.4,31.5-12.9,58.6-25.7,84.9c-9.6,19.7-18.7,38.3-21.6,57.6c-4.9,31.8,8.4,66.9,33.7,89.5c24.9,22.4,79.4,33.8,114.7,30.4
		l0.7-0.1l0.7,0c0.3,0,31.2-0.7,67.3-14.3c46.9-17.8,80.3-48.3,99.3-90.7l0-0.1c0.3-0.7,30.9-70.6,22-184.1l34.9-2.8
		c9.7,122.7-23.3,197.7-25,201.3c-22.7,50.9-64.2,88.8-120,109.6c-38.7,14.4-71.6,16-77.2,16.1C330.8,492.1,325.6,492.3,320.2,492.3
		z"/>
</g>
</svg>
