<?xml version="1.0" encoding="utf-8"?>
<!-- Generator: Adobe Illustrator 19.0.0, SVG Export Plug-In . SVG Version: 6.00 Build 0)  -->
<svg version="1.1" id="Layer_1" xmlns="http://www.w3.org/2000/svg" xmlns:xlink="http://www.w3.org/1999/xlink" x="0px" y="0px"
	 viewBox="77 -104 706 1000" style="enable-background:new 77 -104 706 1000;" xml:space="preserve">
<g id="Guide">
</g>
<g id="Layer_4">
</g>
<path d="M492.9,597.4c-30.2,0-62.7-2.8-92.9-14.2c-37.6-14.2-72.5-42.1-101-80.7c-23.2-31.5-40.2-63.3-50.3-94.3
	c-8.3-25.3-12-50.3-11.2-74.2c1.4-41.2,15.9-64.9,17.5-67.5l0.5-0.7c8.1-11.4,17-23.3,29.1-32.4c17.2-13.2,40.3-18.9,63.3-15.8
	c19.6,2.7,37.6,11.5,50.5,24.8c9.6-20.2,28-36.1,49.9-41.7c30.1-7.6,63.4,4.8,81.1,30.2c3,4.3,5.4,8.7,7.4,13.3
	c11.7-12.5,26-23.1,41.2-29.8c24.5-10.8,49.1-11.3,71.3-1.5c23.6,10.5,43.3,31.7,55.6,59.7c9,20.7,13.9,44.5,15.3,74.8
	c2.6,54.8-7.5,105.4-29,146.2c-12.2,23.1-28.9,43.9-48.2,60.3c-20.9,17.7-44,29.9-68.7,36.3c-17.7,4.4-35.3,5.9-56.3,6.7
	C510,597.2,501.5,597.4,492.9,597.4z M284.5,285.6c-1.5,2.6-11.4,21.2-12,52.1c-0.9,44.6,18.1,94.4,54.7,144.1
	c24.4,33.2,53.8,56.9,85.1,68.7c33,12.4,69.7,12.8,104.4,11.4c18.8-0.7,34.4-2,49-5.7c38.2-9.8,73.6-39.3,94.6-79
	c18.6-35.3,27.3-79.6,25-128.2c-1.2-25.9-5.2-45.8-12.5-62.4c-8.7-20-22.1-34.8-37.7-41.7c-16.3-7.2-32.4-3.2-43,1.5
	c-20.3,8.9-38.9,27.9-46,46.6l-2.6,55.7l-35-1.6l2.7-57.9c-1.1-17.4-4.5-29.6-10.6-38.4c-9.4-13.5-27.8-20.3-43.8-16.3
	c-15.8,4-28.5,18.7-30.5,35l-2.7,35.1c0.8,12.7-0.3,26.2-3.2,40.2l-34.6-4.9l2.7-35.4c-1-11.5-4.2-23.6-11.8-33.7
	c-7.5-9.9-19.8-16.7-33.7-18.6c-13.9-1.9-27.5,1.4-37.4,8.9l-0.1,0.1C297.8,267.4,291.1,276.2,284.5,285.6z"/>
<path d="M111.9,384.6l-33.7-9.3c14.1-51.2,51.5-85,108.3-97.8c40.9-9.2,77.6-4.1,79.1-3.9l-5,34.6c-0.3,0-32.6-4.5-67.3,3.6
	C149.8,321.9,122.4,346.4,111.9,384.6z"/>
</svg>
