<?xml version="1.0" encoding="utf-8"?>
<!-- Generator: Adobe Illustrator 19.0.0, SVG Export Plug-In . SVG Version: 6.00 Build 0)  -->
<svg version="1.1" xmlns="http://www.w3.org/2000/svg" xmlns:xlink="http://www.w3.org/1999/xlink" x="0px" y="0px"
	 viewBox="0 0 817.6 1000" style="enable-background:new 0 0 817.6 1000;" xml:space="preserve">
<style type="text/css">
	.st0{fill:none;stroke:#000000;stroke-width:35;stroke-miterlimit:10;}
</style>
<g id="Guide">
</g>
<g id="Layer_3">
	<path id="XMLID_6_" class="st0" d="M323.1,531.1"/>
	<path id="XMLID_19_" d="M479.3,702.1c-10.7,0-21.4-0.8-32-2.5c-18.2-2.9-32-7.8-43.5-15.4c-14.2-9.4-24-22.7-30.9-33.2
		c-19.1-28.8-28.4-56.6-27.7-82.6c0.9-31.5,15.9-63,45.9-96.1c7.4-8.1,15.1-15.9,22.6-23.4c15.1-15.2,29.3-29.5,40.4-46
		c6-9,9.4-16.4,10.6-23.2c2.4-13.9-5-30.1-17.7-38.5c-12.7-8.4-30.8-9.8-46.1-3.6c-20.7,8.3-36.5,28.8-50.4,46.8l-58.8,76
		c-14.4,18.6-29.3,37.9-49.5,53.1c-1.3,1-2.6,2-3.9,3c-14.3,10.8-31.3,23.7-51.4,23.7c-6,0-12.4-1.2-19-3.9
		c-3.8-1.6-13.4-7.2-20.8-11.6l-14.3-8.6l7.9-14.7c10.9-20.3,9.4-36.7-5.4-60.7c-12.9-20.9-39.8-31.7-61.2-24.6
		c-21.4,7.1-37.2,31.8-37.7,58.6c-0.2,14.5,3.9,27.3,11.3,35.1c7,7.4,18.6,10.2,25.8,6.3l16.6,30.8c-7.4,4-15.8,5.9-24.2,5.9
		c-15.7,0-31.9-6.6-43.6-19C8.5,519.2,1.1,498,1.5,474c0.7-41.8,26-79.3,61.6-91.2c36.8-12.3,80.6,4.7,102.1,39.4
		c17.8,28.9,22.1,54.2,13.3,80.1c1.3,0.7,2.3,1.3,2.9,1.6c9.1,3.7,18.4-2.2,35.8-15.4c1.4-1,2.7-2.1,4.1-3.1
		c16.4-12.3,29.8-29.7,42.8-46.5l58.8-76c15.8-20.5,35.5-46,65-57.8c26.1-10.5,56.2-7.9,78.6,6.9c24.5,16.2,37.7,45.8,32.8,73.7
		c-2.1,11.8-7.1,23.4-16,36.6c-12.9,19.4-29,35.6-44.6,51.3c-7.5,7.6-14.6,14.7-21.5,22.3c-24.2,26.7-36.2,50.7-36.8,73.6
		c-0.5,18.6,6.8,39.6,21.9,62.2c5.1,7.8,12.2,17.4,21.1,23.3c7.2,4.8,16.6,7.9,29.6,10c32,5.1,65.9,0.8,95.6-12.2
		c35.2-15.3,64.7-42.1,91.2-68.8c37.1-37.2,75.8-82.5,82-136.3c4.2-37-6.7-77.6-34.3-127.9l30.7-16.9
		c31.3,56.9,43.5,104.2,38.4,148.7c-3.3,29.2-14.2,57.7-33.3,87.1c-14.2,21.8-32.8,44-58.7,70c-29,29.1-61.5,58.5-102,76.1
		C536.5,696.2,507.8,702.1,479.3,702.1z"/>
</g>
</svg>
