<?xml version="1.0" encoding="utf-8"?>
<!-- Generator: Adobe Illustrator 19.0.0, SVG Export Plug-In . SVG Version: 6.00 Build 0)  -->
<svg version="1.1" xmlns="http://www.w3.org/2000/svg" xmlns:xlink="http://www.w3.org/1999/xlink" x="0px" y="0px"
	 viewBox="0 0 526 1000" style="enable-background:new 0 0 526 1000;" xml:space="preserve">
<g id="Guide">
</g>
<g id="Layer_4">
</g>
<g id="Layer_3">
	<path id="XMLID_18_" d="M228.5,699.7c-35.2,0-70.4-8.3-102.8-24.8C65.1,644,21.9,588.3,7.2,522.1l-0.3-1.3
		c-8.5-39.1-7.6-74.1,2.7-104.1c10.9-31.8,33.2-59.5,64.4-80.1c28-18.5,62.5-30.5,97.2-33.8c12.6-1.2,29.2-1.9,45.2,3.8
		c0.3,0.1,0.7,0.3,1.1,0.4c20.5,7.7,35.4,25,40,46.5c4.7,21.7-2,43.9-17.7,59.5c-11.1,11-24.2,20.8-38.8,29.2
		c-24.9,14.2-61.5,19.5-108.8,15.8c-24-1.9-44.5-5.6-54.8-7.8c-2.6,18.8-1.4,39.9,3.7,63.1l0.3,1.1c12.5,56,49,103.1,100.3,129.2
		c51,26,110.2,27.9,162.4,5.3c15.6-6.8,31.1-15.6,46.2-26.4c87-62,82.5-147.1,76.5-180.9c-5.3-29.7-19.6-66.8-34.1-88.4
		c-6.8-10.1-14.9-18.7-23.9-25.6l21.1-27.9c12.2,9.2,22.9,20.6,31.9,33.9c17.2,25.5,33.5,67.4,39.6,101.9
		c4.1,23.2,6.5,59.2-5.2,99.3c-13.6,46.3-42.3,85.4-85.5,116.2c-17.1,12.2-34.8,22.3-52.6,30C289.3,693.5,258.9,699.7,228.5,699.7z
		 M47.3,416.6c33,6.6,101.7,14.9,136.4-4.8c11.9-6.8,22.5-14.7,31.4-23.6c7.2-7.2,10.3-17.4,8.1-27.4c-2.1-9.9-8.7-17.5-18.1-21.1
		l-0.5-0.2c-9.6-3.4-21.2-2.8-30.2-2C126.2,342.2,70.3,368.3,47.3,416.6z"/>
</g>
</svg>
