<?xml version="1.0" encoding="utf-8"?>
<!-- Generator: Adobe Illustrator 19.0.0, SVG Export Plug-In . SVG Version: 6.00 Build 0)  -->
<svg version="1.1" id="Layer_1" xmlns="http://www.w3.org/2000/svg" xmlns:xlink="http://www.w3.org/1999/xlink" x="0px" y="0px"
	 viewBox="182 -104 933 1000" style="enable-background:new 182 -104 933 1000;" xml:space="preserve">
<g id="Guide">
</g>
<g id="Layer_3">
	<path d="M854.1,391.7c-36.8,0-74.7-9.1-106.5-25.7c-38.3-19.9-59.8-46.4-74-64c-1.9-2.3-4.3-5.3-7.1-9
		c-25,35.8-48.3,62.5-86.6,79.3c-22.6,9.9-43.8,12-66.2,14.3c-3.3,0.3-6.5,0.7-9.9,1c-5.3,0.6-11,0.9-16.9,0.9
		c-41.3,0-95.5-13.8-124.7-40c-34.4-30.7-51.6-77-44.9-120.9C321,203,331.6,181.1,342,160c11.5-23.6,22.4-46,22.1-69.1
		c-0.3-24.4-12.5-54.3-34.6-61.4c-31-9.9-56.2-9.1-75.1,2.4c-28.5,17.4-34.9,54.7-35,55.1l-0.2,1l-0.3,0.9
		c-3.2,11.8-1.4,25.8,4.8,36.5c3.2,5.5,8.9,12.6,18.2,15l-8.8,33.9c-16.4-4.3-30.5-15.4-39.7-31.3c-10.7-18.6-13.9-41.9-8.5-62.5
		c1.4-7.9,11.4-53.9,50.8-78.2c28-17.3,63.1-19.3,104.4-6.1C380,9,398.7,54,399.1,90.4c0.4,31.5-12.9,58.6-25.7,84.9
		c-9.6,19.7-18.7,38.3-21.6,57.6c-4.9,31.8,8.4,66.9,33.7,89.5c25.1,22.6,80.4,34.1,114.5,30.5c3.4-0.4,6.8-0.7,10.1-1
		c20.5-2.1,38.1-3.8,55.7-11.5c32.7-14.3,51.1-36.5,79.3-78.1c-4.6-7.7-9.3-16.3-13.6-25.5c-19.3-41.2-24.8-81.4-16.5-119.3
		c9-40.9,39.8-99.2,77.2-94.6c12.1,1.5,29,10.3,41,43.7c7,19.6,10.9,44.3,10.4,66.1c-1.2,46.3-21.9,77.9-56.4,129.8
		c4.2,5.9,8.7,11.8,13.5,17.8c13.2,16.2,31.2,38.5,63,55c51.2,26.6,129.3,34.1,188.1-9.1c61.1-44.9,68.8-118.6,68-158.5
		c-1.7-77.9-46.7-130.7-65.9-149.8l24.6-24.9c22.3,22.1,74.3,83.3,76.3,173.9c0.2,10.1,0.9,40.8-8.9,77
		c-12.6,46.8-37.3,84-73.3,110.5C939,378.7,898.1,391.7,854.1,391.7C854.1,391.7,854.1,391.7,854.1,391.7z M687.9,57.4
		c-2,0.5-9.3,4.5-18.8,19.3c-8.9,13.7-16.3,31.7-19.9,48c-7.3,32.9-1.3,68,17.7,104.6c27.2-41.2,40.9-65,41.7-97.8
		c0.4-16.5-2.4-35.6-7.4-50.8C695.7,64.1,689.7,58.4,687.9,57.4z"/>
</g>
</svg>
