<?xml version="1.0" encoding="utf-8"?>
<!-- Generator: Adobe Illustrator 19.0.0, SVG Export Plug-In . SVG Version: 6.00 Build 0)  -->
<svg version="1.1" id="Layer_1" xmlns="http://www.w3.org/2000/svg" xmlns:xlink="http://www.w3.org/1999/xlink" x="0px" y="0px"
	 viewBox="81 -104 773 1000" style="enable-background:new 81 -104 773 1000;" xml:space="preserve">
<g id="Guide">
</g>
<g id="Layer_4">
</g>
<g id="Layer_3">
	<path d="M603,598.1c-13.9,0-27.1-2.4-39.1-7.3c-21.8-8.8-37.2-24.8-43.3-45.1c-6.3-20.7,2.9-61.6,18.4-126.7
		c9.3-39,18.9-79.4,20.6-104.5c2.1-31.6-13.1-50.9-26.3-61.6c-23.3-18.8-60.2-26.7-87.9-18.8l-1.7,0.6c-28.3,9-50.7,37.2-68.5,86.3
		c-5.8,16-11,32.6-16.1,48.7c-8.8,28-17.8,56.9-30.5,84.4c-2.4,5.2-4.8,10.6-7.3,16.3c-18.7,42.1-39.9,89.9-80.6,112.5
		c-21.7,12.1-49,16.2-74.9,11.2c-28-5.4-51.3-20.5-65.6-42.5c-12.3-19.2-18.8-43.8-18.8-71.4c0-24.8,5.5-50.1,15.3-71.2l31.7,14.8
		c-14,30.1-18.4,78.5,1.1,108.8c20.2,31.2,65.8,35.4,94.1,19.7c30.5-16.9,49.2-59,65.6-96.1c2.6-5.8,5-11.3,7.5-16.7
		c11.7-25.5,20.1-52.1,28.9-80.3c5.2-16.5,10.5-33.5,16.6-50.2c21.7-59.7,51.2-94.9,90.3-107.5c1.2-0.5,2.3-0.8,3-1l0.3-0.1
		c39-11.2,87-1,119.5,25.2c27.8,22.4,41.7,54.8,39.2,91.2c-1.9,28-11.9,69.8-21.5,110.3c-6.1,25.8-11.9,50.1-15.7,70.5
		c-5.3,29-3.7,36.7-3.3,37.9c6.8,22.5,38.1,33,72.7,24.4c63.5-15.7,97.1-31.8,140.8-90.5c16.1-21.7,25.8-42.3,31-61.4
		c-9.9,7.9-20.7,13.4-30.2,16.5c-8.3,2.7-16.3,3.8-23.9,3.8c-28.5,0-51.1-15.9-60.8-24.1c-36-30.4-35.4-74.2-35.2-79.1l0-0.1
		c1.2-30.1,13.6-55.4,35.1-71.3c1.5-1.1,14.7-10.4,34.6-13.7c18.7-3.1,47-1.3,75.9,24.3c16.7,14.8,36.6,44.8,42.5,84.8
		c4.9,32.7,1.7,83.8-41,141.1c-24.8,33.3-47.6,55.2-74,71.2c-25.7,15.5-53.2,24.1-86.5,32.4C624.2,596.7,613.4,598.1,603,598.1z
		 M704.2,282.2c-12.8,9.5-20,24.8-20.7,44.3l0,0.2c0,1.3-0.9,31,22.8,50.9c7.8,6.6,28.5,21.1,51.3,13.7c13.2-4.3,29.4-16,35.9-32.5
		c5.3-13.5,3.5-28.4-5.3-44.5l0.4-0.2c-5.9-10.9-12.5-18.9-17.7-23.4c-14.5-12.9-29.9-18.3-45.8-16.1
		C713.2,276.3,704.9,281.7,704.2,282.2z"/>
</g>
</svg>
