<?xml version="1.0" encoding="utf-8"?>
<!-- Generator: Adobe Illustrator 19.0.0, SVG Export Plug-In . SVG Version: 6.00 Build 0)  -->
<svg version="1.1" xmlns="http://www.w3.org/2000/svg" xmlns:xlink="http://www.w3.org/1999/xlink" x="0px" y="0px"
	 viewBox="0 0 639 1000" style="enable-background:new 0 0 639 1000;" xml:space="preserve">
<style type="text/css">
	.st0{fill:#010101;}
	.st1{fill:none;stroke:#010101;stroke-width:35;stroke-miterlimit:10;}
</style>
<g id="Guide">
</g>
<g id="Layer_4">
	<g id="Layer_3">
		<path id="XMLID_19_" class="st0" d="M335.6,926.3c-8.1,0-16-1.4-23.6-4.1c-19.5-7.1-35.8-22.9-45.9-44.7
			c-18.6-40-9.5-87.9,22.8-119.1c4-3.8,8.9-8.2,14.6-13c26.1-21.7,55.2-40.2,86.8-54.9c11.2-5.2,26-12.7,41.4-21.8
			c-1.3-57.2-10.1-108.4-22.8-153.2c-7.4,50.1-31.1,87.3-55,113.1c-28.6,30.8-65.4,52.9-106.3,63.7c-40.7,10.8-83.6,9.9-123.9-2.4
			c-9-2.7-18.1-6.1-27.8-10.3c-32.9-14.4-61.5-37.9-82.8-68.2l-0.2-0.2l-0.9-1.3C-0.1,592.5-1.7,570,7.7,551.1
			c9.4-18.9,27.5-30.7,48.5-31.7l0.6,0l0.4-0.1l1.3,0c4-0.1,8-0.2,12-0.3c7-0.2,14.2-0.4,21.5-0.4c-15.9-8.6-56.2-40.2-63.1-88.9
			c-2.5-17.5-1.1-44.6,19.8-74.5l0.1-0.1c22.1-31.8,54.2-41.7,68-45.9l0.1,0c14.5-4.4,58.5-17.9,102.8,6.9
			c13.8,7.7,39,25.6,51.7,58.2c10.1,25.8,9.8,54.7-0.8,83.4c-5.3,14.4-13.5,27.7-24.3,39.6l-0.6,0.6l-5.1,5.1
			c-24.9,24.7-55.6,41.1-89,47.2c-15.8,2.9-32.5,4.1-49.7,3.6c-10-0.3-19.9,0-30.3,0.3c-3.8,0.1-7.7,0.2-11.5,0.3
			c-1,0.1-1.9,0.1-2.6,0.1c-11.4,0.7-16.7,8.8-18.4,12.3c-3.6,7.2-3.2,15.3,0.9,22l0,0l0.9,1.3c17.7,25.6,41.6,45.5,69,57.4
			c8.4,3.7,16.2,6.6,23.8,8.9l0.1,0c69.3,21.2,145.6,1,194.3-51.6c50.3-54.3,61.3-123.6,32.7-206c-0.6-1.7-1.4-3.6-2.3-5.7
			c-15.4-27.9-31.1-50.5-44.3-67.6c-0.9-1.1-1.6-2.1-2.2-2.8l27.8-21.3c17.1,21.9,38.3,51.2,49.4,74.7c8.9,16.2,18.2,34.9,27.2,56.1
			c28.5,67.4,45,138.8,49.2,213.1c10.1-8.1,19.3-16.9,26.5-26.1c37.8-48.9,50.4-129.1,50.5-129.9l34.6,5.3
			c-0.6,3.7-14.2,90.1-57.5,146.1c-13.8,17.8-32.9,33.6-53.1,47.2c-0.1,9.9-0.3,19.9-0.8,29.9l0,0.7c-0.1,1.6-3.6,40.1-16.2,83.3
			c-17.7,60.9-44.2,99.9-78.7,116.1C359.2,923.5,347.2,926.3,335.6,926.3z M431.3,709.1c-9.2,4.9-18.1,9.3-26.3,13.1
			c-28.8,13.4-55.4,30.3-79.1,50.1c-5.1,4.2-9.3,8-12.7,11.2c-21.5,20.8-27.7,52.7-15.4,79.2c6.2,13.2,15.4,22.6,26.1,26.5
			c9.7,3.5,20.5,2.5,32.3-3c24.6-11.6,45.4-44.2,59.9-94.2c11.1-38,14.5-72.7,14.9-76.3C431.1,713.5,431.2,711.3,431.3,709.1z
			 M121.8,325.9l5.1,16.7c-12,3.7-34.3,10.6-49.5,32.4l-0.1,0.1c-14.3,20.6-15.4,38.4-13.8,49.6c5,35.3,37.1,58.8,45.4,63.2l0.1,0
			c33.2,17.7,69,13.3,79.2,11.6c9.9-5.9,19.2-13,27.6-21.4l4.8-4.8c7.6-8.5,13.4-17.8,17.1-27.9c7.7-20.9,8.1-40.6,1-58.6
			c-8.7-22.5-26.4-34.9-36.1-40.4c-31.3-17.5-63.4-7.7-75.5-4L121.8,325.9z"/>
		<path id="XMLID_3_" class="st1" d="M587,500"/>
	</g>
</g>
</svg>
