<?xml version="1.0" encoding="utf-8"?>
<!-- Generator: Adobe Illustrator 19.0.0, SVG Export Plug-In . SVG Version: 6.00 Build 0)  -->
<svg version="1.1" xmlns="http://www.w3.org/2000/svg" xmlns:xlink="http://www.w3.org/1999/xlink" x="0px" y="0px"
	 viewBox="0 0 771.6 1000" style="enable-background:new 0 0 771.6 1000;" xml:space="preserve">
<style type="text/css">
	.st0{fill:none;stroke:#000000;stroke-width:34.8164;stroke-miterlimit:10;}
</style>
<g id="Guide">
</g>
<g id="Layer_3">
	<path id="XMLID_5_" d="M243.8,700.1c-3.1,0-6.2,0-9.3-0.1c-35.8-1.1-60.3-10.9-87.4-35.2c-22.2-19.9-36.1-57-34.6-92.4
		c2.9-71.4,80.5-128.9,83.8-131.3l19.9-14.6l7,23.6c5.9,19.6,12,38.5,23.1,53.6c11,15,26.1,24.1,40.4,24.3c0.2,0,0.4,0,0.6,0
		c15.2,0,26.3-9.6,33-17.6c9.5-11.5,15.9-27.5,17.1-42.7c3.2-41.3-19.7-85.4-57.2-109.8c-36.1-23.5-84.5-29.8-129.5-16.9
		c-26.3,7.5-50.9,21.2-71.1,39.5c-15.2,13.8-34.5,36.4-40.3,65.9c-4.9,25,2.3,51.2,18.5,66.7l-24.1,25.1
		C8.8,514.3-2.1,476.5,5.1,439.6c7.6-38.8,32-67.6,51.1-85c24.1-21.8,53.5-38.1,84.8-47.1c54.6-15.7,113.7-7.8,158.1,21.1
		c23.2,15.1,42.4,36.2,55.5,61.1c13.5,25.6,19.5,53.5,17.4,80.6c-3.5,44.7-36.8,92.4-84.7,92.4c-0.4,0-0.8,0-1.1,0
		c-25.2-0.4-50.6-14.8-68-38.6c-8.8-12.1-15.1-25.4-20.1-39c-20.1,19.1-49.3,52.7-50.8,88.6c-1,24.3,8.9,52.3,23.1,65
		c20.7,18.6,37.8,25.5,65.1,26.3c55.2,1.6,103.1-13,142.5-43.5c40.9-31.7,61.7-77.5,60.3-132.6l34.8-0.9
		c0.9,33.1-5.1,63.7-17.8,91.2c-12.6,27.2-31.4,50.7-56,69.8C355.7,682.9,303.4,700.1,243.8,700.1z"/>
	<path id="XMLID_9_" class="st0" d="M457,490.1"/>
	<path id="XMLID_4_" d="M585.8,700.2c-11.2,0-21.4-1.5-30.2-3.6c-27.1-6.4-46-19.5-49.4-21.9c-72.3-48.5-66.9-179.9-66.6-185.4
		l34.8,1.6c-0.1,1.2-4.7,117.6,51.5,155.1l0.8,0.6c2.3,1.7,59.6,43.2,118.2-3c24.5-19.3,29.3-64.1,30.2-82.5
		c2.4-47.5-13.4-82.4-37.7-130.2l31-15.8c26,51.2,44.3,91.8,41.4,147.8c-1.8,35.1-10.8,82.3-43.4,108.1
		C638.1,693.4,609.7,700.2,585.8,700.2z"/>
</g>
</svg>
