<?xml version="1.0" encoding="utf-8"?>
<!-- Generator: Adobe Illustrator 19.0.0, SVG Export Plug-In . SVG Version: 6.00 Build 0)  -->
<svg version="1.1" id="Layer_1" xmlns="http://www.w3.org/2000/svg" xmlns:xlink="http://www.w3.org/1999/xlink" x="0px" y="0px"
	 viewBox="-18 -104 573.6 1000" style="enable-background:new -18 -104 573.6 1000;" xml:space="preserve">
<g id="Guide">
</g>
<g id="Layer_4">
</g>
<g id="Layer_3">
	<path d="M179.8,595.3c-41.3,0-80.6-13.7-115.7-40.6c-37-28.5-56.2-61.8-57-63.2l-0.6-1.1C-22.1,430.1-24,360.5,1.5,304.1
		c13.4-29.6,34.5-55.4,61.2-74.8c27.5-20,58.9-31.6,90.8-33.4l0.8,0c24.4-1.3,48.2,8.1,65.3,25.8c17,17.6,25.5,41.6,23.4,65.9
		c-2.4,27.8-16.2,64.9-67.8,84c-70.7,26-131.6,23.8-156.4,21.3c0.5,27.5,6.9,55.7,19.3,81.8c2.3,3.8,18.9,30.5,48.6,53
		c41.2,31.3,87.5,40.2,137.5,26.5c52.4-14.3,83.1-70.1,96.7-102c20.5-48.4,32.2-101.6,33.6-153.9l-6.7-101.1l34.9-2.3l6.9,102.7
		l0,0.8c-1.4,56.9-14,114.8-36.4,167.5c-12.5,29.3-27.8,54.2-45.6,74.1c-21.8,24.3-46.7,40.5-74.1,48
		C215.2,592.8,197.3,595.3,179.8,595.3z M21.3,357.8c20.5,2,77,4.6,141.6-19.2c28-10.3,42.8-28,45.1-54.1
		c1.2-14.2-3.8-28.2-13.7-38.5c-10-10.4-24-15.9-38.3-15.1l-0.6,0c-50.6,2.9-99.7,38.2-122,87.7C27.7,330.9,23.7,344.1,21.3,357.8z"
		/>
	<path d="M457,755.5c-42.6-130.8-75.5-265.7-97.6-401.1l-0.1-1l-4.8-46.5l34.8-3.6l4.7,46c21.9,133.4,54.3,266.5,96.3,395.4
		L457,755.5z"/>
</g>
</svg>
