<?xml version="1.0" encoding="utf-8"?>
<!-- Generator: Adobe Illustrator 19.0.0, SVG Export Plug-In . SVG Version: 6.00 Build 0)  -->
<svg version="1.1" xmlns="http://www.w3.org/2000/svg" xmlns:xlink="http://www.w3.org/1999/xlink" x="0px" y="0px"
	 viewBox="0 0 729 1000" style="enable-background:new 0 0 729 1000;" xml:space="preserve">
<g id="Guide">
</g>
<g id="Layer_3">
	<path id="XMLID_18_" d="M489.3,698.8c-53.8,0-87.7-22.7-108-45.3c-29-32.1-40.9-67.4-36.5-108c0.1-1.4,0.3-2.7,0.5-4.1
		c-0.5,0.8-0.9,1.6-1.4,2.4c-20.5,36.2-50.5,61.9-89.3,76.6c-28,10.6-59.9,15.1-94.7,13.5C71.1,629.8,1.2,557.5,0.6,469.4
		c-0.1-7.3,0.4-12.1,0.5-13.1c0.5-4.8,9.1-83.2,62.7-126c27.6-22,61.6-30.7,101.2-25.6c3.6,0.5,35.8,5.3,58.8,33
		c28.9,34.9,29.8,89.5,1.9,124.4c-15.8,19.7-39.7,31.8-67.2,33.9c-31.4,2.4-64.4-8.7-86.3-28.9c-12.8-11.8-22-27.1-28.2-42.8
		c-6.3,19.9-8,35.4-8,35.7l0,0.3l0,0c0,0-0.4,3.4-0.3,9.1c0.5,69.5,55.7,126.5,125.8,129.7c49.4,2.2,115.8-8.5,152-72.3
		c3-5.4,6.2-10.6,9.3-15.7c7.2-12,13.9-23.3,19-35.2c10.8-25.9,20-52.7,27.2-79.9l34.1,7.7c-0.2,0.9-17.4,91.7-23.3,145.9
		c-3.3,30.4,5.5,56.1,27.7,80.7c30.6,33.9,77.2,42.3,138.5,25.2l0.7-0.2c1.1-0.3,2.1-0.6,3.2-0.9c6.7-1.7,65.9-19.6,81.7-108.7
		c6.7-38,7-65.8-11-103.8c-13-27.4-57.5-77.8-100.6-126.6c-27.4-31-55.8-63.1-76.8-90.3c-27.3-35.2-38.2-56.3-37.4-72.6l35,1.6l0,0
		c0,1.8,1.5,12.8,30.7,50.4c20.3,26.1,48,57.4,74.8,87.7c46.8,52.9,90.9,102.9,106,134.8c21.8,46,21.4,81.9,13.8,124.8
		c-8.1,45.8-27.1,82.2-56.3,107.9c-22.9,20.2-44.8,27-51,28.6c-0.9,0.2-1.7,0.5-2.5,0.7l-0.8,0.2
		C530.5,695.8,508.6,698.8,489.3,698.8z M69.4,374c-0.9,15.7,6.6,48.8,26.5,67.1c15,13.8,38,21.4,59.9,19.7
		c12.6-0.9,30.1-5.3,42.5-20.8c17.3-21.6,16.6-58.3-1.5-80.2c-14.6-17.7-36-20.6-36.3-20.6c-29.8-3.8-54.9,2.3-74.8,18.2
		C79.6,362.4,74.2,368,69.4,374z"/>
</g>
</svg>
