<?xml version="1.0" encoding="utf-8"?>
<!-- Generator: Adobe Illustrator 19.0.0, SVG Export Plug-In . SVG Version: 6.00 Build 0)  -->
<svg version="1.1" xmlns="http://www.w3.org/2000/svg" xmlns:xlink="http://www.w3.org/1999/xlink" x="0px" y="0px"
	 viewBox="0 0 735.6 1000" style="enable-background:new 0 0 735.6 1000;" xml:space="preserve">
<g id="Guide">
</g>
<g id="Layer_4">
</g>
<g id="Layer_3">
	<g id="XMLID_3_">
		<path id="XMLID_19_" d="M434,696.9c-10.5,0-20.9-0.9-31.1-2.7c-73.1-12.7-132.5-74.5-138-143.6c-1.4-17.6,0.3-35,5.2-52
			c6.9-24.1,19.4-43,36.3-54.7l17.3-12l9,19.1c0.1,0.2,15.8,32,45.6,40.2l0.1,0l0,0c0,0,0.8,0.2,2.3,0.6
			c24.5,5.5,50.1-0.1,70.2-15.2c19.9-15,32.1-37.7,33.6-62.3c1-16-2.3-29.7-9.6-40.7c-0.4-0.6-0.8-1.2-1.3-1.8
			c-13.2-18.6-33-30.8-55.8-34.2c-23.4-3.5-47.7,2.8-66.6,17.4c-3.3,2.5-6.6,5.3-9.7,8.3c-17.4,16.4-28.8,32-42.1,50.1
			c-12.8,17.6-27.4,37.5-50.5,62.6c-25.7,28-72.6,22.7-81.3,21.4c-30.7-2.2-57.6-23.1-67-52.3l-0.2-0.5c-1.9-5.8-3.3-11.6-4.8-17.2
			c-2.6-9.8-5-19.1-8.9-27.2c-4.1-8.3-12.2-18.3-21.7-18.8C53.6,381,43,394.8,39.8,408c-5.5,22.2,2,47.6,18.6,63.3l-24.5,26
			C7.7,472.6-3.6,434.2,5.1,399.4c6.9-27.9,30.4-55.2,61.9-53.5c20.9,1.1,40.8,16,51.9,38.8c5.5,11.3,8.5,22.8,11.4,33.9
			c1.4,5.4,2.7,10.4,4.3,15.3l0.1,0.4c5,15.5,19.4,26.6,35.9,27.6l0.9,0.1l0.9,0.1c9.2,1.4,38.4,2.6,50.2-10.2
			c21.7-23.6,35.6-42.7,47.9-59.5c13.7-18.7,26.6-36.4,46.5-55.1c4-3.8,8.2-7.3,12.3-10.5c26.6-20.5,60.7-29.4,93.7-24.5
			c32.5,4.9,60.8,22.3,79.7,48.9c0.6,0.8,1.2,1.7,1.7,2.5c11.8,17.6,17.1,38.7,15.6,62.8c-2.1,35.1-19.5,67.4-47.7,88.7
			c-28.5,21.5-64.7,29.3-99.5,21.6c-2.3-0.5-3.7-0.9-4.1-1c-25.8-7.1-43.9-24.4-55-38.5c-4.6,7.1-7.5,14.9-9.3,21.3
			c-3.7,12.8-5,26-3.9,39.2c4.3,53.4,51,101.3,108.6,111.3c53.8,9.4,113.9-12.4,156.7-56.7c48.3-50.1,65.9-115.3,72-161.2
			c4.3-32.1,1.6-54.3-8.8-69.6l29.7-19.9c20.4,30.3,18,68.3,14.5,94.3c-6.9,51.2-26.7,124.2-81.7,181.2
			C548.4,671.7,490.3,696.9,434,696.9z"/>
	</g>
</g>
</svg>
