<?xml version="1.0" encoding="utf-8"?>
<!-- Generator: Adobe Illustrator 19.0.0, SVG Export Plug-In . SVG Version: 6.00 Build 0)  -->
<svg version="1.1" xmlns="http://www.w3.org/2000/svg" xmlns:xlink="http://www.w3.org/1999/xlink" x="0px" y="0px"
	 viewBox="0 0 1258.4 1000" style="enable-background:new 0 0 1258.4 1000;" xml:space="preserve">
<g id="Guide">
</g>
<g id="Layer_3">
	<path id="XMLID_4_" d="M307.8,562.5c-19.6,0-38.6-4.4-55.1-13c-33.1-17.3-53.6-49.2-67.8-75.2c-3.4-6.2-6.7-12.5-9.9-18.6
		c-11-21-21.3-40.8-35.8-57.1c-15.1-17-40.1-33.3-65.1-28.5c-17.7,3.4-33.2,18.8-36.8,36.5c-3.6,17.7,4.7,37.9,19.7,48l-19.5,29.1
		c-26.7-17.9-40.9-52.4-34.5-84c6.4-31.5,32.9-57.8,64.5-63.9c17.7-3.4,36.7-0.9,55,7.4c15.7,7.1,30.6,18.3,43,32.2
		c17.3,19.5,29.2,42.2,40.6,64.1c3.1,5.9,6.3,12.1,9.5,17.9c11.8,21.6,28.6,48,53.3,61c19,9.9,43.2,11.8,66.3,5.2
		c17.5-5,56.1-38.7,83.6-67.8l25.5,24c-10.6,11.2-65,67.6-99.4,77.4C332.6,560.8,320.1,562.5,307.8,562.5z"/>
	<path id="XMLID_6_" d="M605.8,698.6c-40.8,0-75-9.6-101.8-28.6c-37-26.2-64.8-66.9-78.4-114.7c-4.2-14.7-7-29.8-9.2-42.8l-0.2-1.1
		l-2.1-43.3l0-0.5c0.4-39.7,11.4-75.9,31.7-104.7c23-32.7,58.7-54.6,95.4-58.5c20.6-2.2,42,1.2,62,9.8c19.5,8.4,36.8,21.5,49.8,37.7
		c25.7,32,35.8,76,26.9,117.6c-3.6,16.8-9.8,31.2-18.5,42.9c-30.1,40.3-78.2,58.9-128.6,49.9c-23.9-4.3-54.3-19.6-79-40.2
		c1.5,7.8,3.3,15.9,5.6,23.7c11.4,40.2,34.5,74.2,65,95.7c27,19.1,63.4,25.8,111.2,20.4c56.1-6.4,98.4-29.3,125.8-68.2
		c63.5-90,30.2-236.8,29.8-238.3l-5.4-23l23.6,1.6c48.2,3.3,184.7,5.6,236-22.7c3.4-1.9,6.6-3.6,9.7-5.4
		c58.7-32.3,69.3-38.2,112.7-92.3l27.3,21.9c-47.7,59.6-63.7,68.4-123.1,101.1c-3.1,1.7-6.3,3.5-9.7,5.3
		c-30.3,16.7-82.8,26.3-155.9,28.5c-30.8,0.9-58.6,0.3-76.9-0.4c2.6,16.9,5.5,41.9,5.8,70.9c0.6,71.3-14.6,129.5-45.3,173
		c-33.4,47.4-84,75.2-150.5,82.8C627.7,697.9,616.5,698.6,605.8,698.6z M449.1,463.9c15.8,29.5,60.9,58.7,89.7,63.9
		c53.5,9.6,83.8-22.2,94.4-36.3c5.7-7.6,9.8-17.4,12.3-29.3c6.6-31-1-64.8-19.9-88.4c-19.5-24.2-51.2-37.8-80.8-34.6
		c-26.8,2.9-53.2,19.3-70.6,43.9C455,410.4,449.8,441.4,449.1,463.9z"/>
</g>
</svg>
