<?xml version="1.0" encoding="utf-8"?>
<!-- Generator: Adobe Illustrator 19.0.0, SVG Export Plug-In . SVG Version: 6.00 Build 0)  -->
<svg version="1.1" id="Layer_1" xmlns="http://www.w3.org/2000/svg" xmlns:xlink="http://www.w3.org/1999/xlink" x="0px" y="0px"
	 viewBox="-140 -104 416 1000" style="enable-background:new -140 -104 416 1000;" xml:space="preserve">
<g id="Guide">
</g>
<g id="Layer_4">
</g>
<g>
	<path d="M-23.1,598.8C-40.2,491.4-49.3,382.1-50,273.2l-65.5,57.5l-23.1-26.3l124.1-109l-0.5,39.3C-16.3,354.4-7.4,475,11.5,593.2
		L-23.1,598.8z"/>
	<path d="M0,532.4l-31.8-14.5c0.5-1.2,54.8-120.3,70.6-167.4l7.5-22.5l19.3,13.9c13.9,10,45.4,17.5,76.4,11.6
		c14.5-2.8,34-9.6,44.8-26.4l29.4,18.9c-13.9,21.6-37.3,36-67.7,41.8c-28.1,5.3-59.5,2.4-83.5-7C44,435.8,2,528,0,532.4z"/>
</g>
<g>
	<image style="overflow:visible;" width="300" height="110" xlink:href="30524540.jpg"  transform="matrix(1 0 0 1 -8026 -7900)">
	</image>
</g>
</svg>
