<?xml version="1.0" encoding="utf-8"?>
<!-- Generator: Adobe Illustrator 19.0.0, SVG Export Plug-In . SVG Version: 6.00 Build 0)  -->
<svg version="1.1" xmlns="http://www.w3.org/2000/svg" xmlns:xlink="http://www.w3.org/1999/xlink" x="0px" y="0px"
	 viewBox="0 0 458 1000" style="enable-background:new 0 0 458 1000;" xml:space="preserve">
<style type="text/css">
	.st0{fill:#FFFFFF;}
</style>
<g id="Guide">
</g>
<g id="Layer_3">
	<g id="XMLID_30_">
		<g id="XMLID_42_">
			<path id="XMLID_46_" class="st0" d="M-293,1039.1c10.7,18.5,26.5,33.5,45.7,43.1c2.9,1.4,5.4-2.9,2.5-4.3
				c-18.4-9.2-33.6-23.4-43.9-41.3C-290.3,1033.8-294.6,1036.3-293,1039.1L-293,1039.1z"/>
		</g>
	</g>
	<g id="XMLID_33_">
		<path id="XMLID_32_" d="M164,702.7c-16.7-97.8-27.3-217.4-29.3-329.1c-24.4,22.3-49.4,44.2-74.6,65.5l-22-26.1
			c34.5-29.1,68.6-59.5,101.4-90.3l28.2-26.6l1,71.3c1.7,111.7,12.3,231.8,29,329.7L164,702.7z"/>
		<path id="XMLID_53_" d="M287,563.3c-4.4,0-8.7-0.4-13-1.1c-35.8-6.3-58.3-37.5-66.8-49.2c-3.7-5.2-7.4-9.5-11.3-13.3
			c-16.4-15.9-30.4-22.7-42.6-21l-4.9-34.7c23.6-3.3,47.1,6.6,71.8,30.5c5.4,5.2,10.5,11.1,15.4,18c6.2,8.6,22.6,31.4,44.4,35.2
			c13.8,2.4,30.1-2.5,44.9-13.6c21-15.7,34.8-40.5,37.9-68.1c2.5-22.4,0.7-37.3-1.7-56.1l-0.2-2c-10.2-82.8-62.2-154.4-146.5-201.7
			c-26.8-15.1-67.5-26.2-103.8-28.3c-33.7-2-64.9,9.4-83.5,30.5L1,165.3c25.6-29.1,67.4-44.9,111.8-42.3
			c41.7,2.4,87.3,15,118.9,32.7c94.2,52.9,152.4,133.8,164,227.9l0.2,1.9c2.4,19.5,4.7,37.8,1.7,64.4c-4.2,37.2-23,70.8-51.7,92.2
			C327.5,556,306.7,563.3,287,563.3z"/>
	</g>
</g>
</svg>
