<?xml version="1.0" encoding="utf-8"?>
<!-- Generator: Adobe Illustrator 19.0.0, SVG Export Plug-In . SVG Version: 6.00 Build 0)  -->
<svg version="1.1" id="Layer_1" xmlns="http://www.w3.org/2000/svg" xmlns:xlink="http://www.w3.org/1999/xlink" x="0px" y="0px"
	 viewBox="-129 -104 352 1000" style="enable-background:new -129 -104 352 1000;" xml:space="preserve">
<g id="Guide">
</g>
<g id="Layer_4">
</g>
<g id="Layer_3">
	<path d="M64.5,595.6c-18.5,0-37.3-2.8-56.5-8.4c-29.5-8.6-58.6-23.9-84-44.1c-20.4-16.4-34-31.9-42.6-49c-4-7.7-6.6-16.8-7.8-27.1
		c-2.5-21.2,2.5-43.4,14-62.3l0.7-1.1l124.4-174c8.6-12,20.1-21.2,33.1-26.8c14.1-5.9,27-8,44.6,0.7c18,9,23.2,22.2,26.9,31.8
		c31.8,81.5,46,175.9,43.2,288.6v0c-1.1,43.2-37.9,62.9-57.3,67.3C90.7,594.2,77.7,595.6,64.5,595.6z M-83.1,423.2
		c-7.3,12.3-10.5,26.4-8.9,39.8c0.7,6.1,2.1,11.3,4.2,15.3l0,0.1c6.4,12.5,17,24.5,33.4,37.6c46.3,36.7,102.4,52.3,150,41.5
		c0.6-0.1,8.6-2.3,16.3-7.9c9.2-6.7,13.8-15.4,14.1-26.5v0c2.7-108.1-10.7-198.1-40.8-275.2c-3.2-8.2-4.3-10.5-10.1-13.4
		c-6.4-3.2-8.6-2.8-15.8,0.2c-7.1,3-13.5,8.2-18.4,15L-83.1,423.2z"/>
</g>
</svg>
