<?xml version="1.0" encoding="utf-8"?>
<!-- Generator: Adobe Illustrator 19.0.0, SVG Export Plug-In . SVG Version: 6.00 Build 0)  -->
<svg version="1.1" xmlns="http://www.w3.org/2000/svg" xmlns:xlink="http://www.w3.org/1999/xlink" x="0px" y="0px"
	 viewBox="0 0 710.1 1000" style="enable-background:new 0 0 710.1 1000;" xml:space="preserve">
<style type="text/css">
	.st0{fill:none;stroke:#000000;stroke-width:35;stroke-miterlimit:10;}
</style>
<g id="Guide">
</g>
<g id="Layer_5">
	<path id="XMLID_19_" d="M534.6,701.3c-3.6,0-7.2-0.2-10.8-0.6c-21.8-2.4-43.2-12.3-60.4-28.1c-16.8-15.4-28.8-35.7-33.8-57.1
		c-10.4-44.1,6.7-88.6,20.5-118.3l33.2,15.4c-18.5,39.9-24,69.1-18.1,94.6c7,29.9,33.3,54,62.5,57.1c2.2,0.2,4.5,0.4,6.7,0.4
		c25.5,0,52-15.2,66.2-38.7c14.9-24.7,17.1-58.3,5.8-87.9c-7.2-18.8-19-35.9-31.6-53.9c-1.5-2.2-3-4.3-4.5-6.5
		c-23.3-33.8-41.3-67.3-58.4-110.2c-1.1,2.5-2.3,5.2-3.5,7.9c-14.8,32.4-34.7,65.1-54.5,89.8c-3.3,4.3-48,61.1-104.1,81.3
		c-48.9,17.6-102.4,11-139.6-17.2c-11.7-8.8-21.3-19.3-30.6-29.4c-12.1-13.1-23.5-25.6-37.5-32.1c-32.6-15.3-74.4,7.3-91.6,37.1
		c-10.9,19-14.5,40.1-9.9,58.1c4.8,18.7,19.2,33.6,35.8,37.3c16.1,3.5,34.7-5.6,39.9-19.5c3.2-8.5-0.1-19.1-7.6-24
		c-3.7-2.5-8.9-2.6-12.6-0.4c-3.6,2.1-5.1,6.1-4.7,11.8l-36.5,3c-1.6-19.7,6.8-37,22.6-46.3c15.8-9.4,36-8.8,51.5,1.4
		c21.8,14.4,30.9,42.8,21.7,67.4c-5.8,15.5-17.8,28.3-33.7,36.2c-15.2,7.5-32.4,9.7-48.4,6.2c-30.2-6.6-55.2-31.7-63.5-63.9
		c-7-27.2-2-58.3,13.6-85.5c13.1-22.8,34.9-41.7,59.6-52c27.2-11.3,55.3-11.3,79.3-0.1c20.5,9.6,34.9,25.3,48.9,40.5
		c8.6,9.4,16.7,18.2,25.8,25c27,20.5,68.2,25.2,105,11.9c47.1-16.9,87.2-68.7,87.6-69.2l0.2-0.3c17.2-21.5,34.8-50.3,48.3-79
		c15.7-33.5,18-50.2,17.6-53.4c0,0,0,0.3,0.2,0.7l34.7-11.7c0.1,0.3,0.2,0.7,0.3,1c22.9,68.8,43.7,112.9,74.1,157
		c1.5,2.1,3,4.3,4.4,6.4c13.2,19.1,26.9,38.8,35.7,61.7c15.4,40.4,12.2,85.3-8.6,119.9C611.2,679.5,573,701.3,534.6,701.3z"/>
	<path id="XMLID_7_" class="st0" d="M491.1,460.4"/>
</g>
</svg>
