<?xml version="1.0" encoding="utf-8"?>
<!-- Generator: Adobe Illustrator 19.0.0, SVG Export Plug-In . SVG Version: 6.00 Build 0)  -->
<svg version="1.1" id="Layer_3" xmlns="http://www.w3.org/2000/svg" xmlns:xlink="http://www.w3.org/1999/xlink" x="0px" y="0px"
	 viewBox="0 0 631 1000" style="enable-background:new 0 0 631 1000;" xml:space="preserve">
<style type="text/css">
	.st0{fill:none;stroke:#000000;stroke-width:35;stroke-miterlimit:10;}
</style>
<g id="XMLID_3_">
	<path id="XMLID_8_" d="M74.7,517.8c-1.2,0-2.4,0-3.6-0.1c-26.8-1.6-51.5-20.1-62.9-47.3c-11.4-27-7.6-55-2.4-73.7
		c6.9-24.9,21.1-48.1,40-65.5c20.7-19.1,45.1-29.9,70.7-31.1c43.3-2,87.6,23.8,115.5,67.6c26.8,41.9,43.1,107.1,48.9,133.1
		l-34.2,7.6c-5.4-24.2-20.4-84.7-44.2-121.9c-20.9-32.7-54-52.9-84.3-51.4c-39.2,1.9-69.2,37.1-78.6,71c-3.7,13.4-6.6,33,0.9,50.8
		c6.1,14.5,19.6,25.1,32.7,25.9c10.4,0.6,21.2-4.9,26.9-13.6c6.4-9.9,5-24.5-3-30.7c-3.3-2.6-9-3.2-14-1.6c-1.5,0.5-6.4,2.3-7.6,6.4
		l-33.5-10c4.2-14,15.2-24.9,30.4-29.7c16-5.2,33.7-2.4,46.2,7.3c22.5,17.4,27.4,52.2,10.9,77.4C117.5,506.5,96.4,517.8,74.7,517.8z
		"/>
	<path id="XMLID_6_" class="st0" d="M258.2,483"/>
	<path id="XMLID_7_" d="M319.8,508.1l-31-16.2c8.5-16.3,23.1-27.4,43.2-32.7c15.7-4.2,33.1-4.7,49.9-5.1c16.6-0.4,32.3-0.9,44.8-4.6
		c41.4-12.4,77.5-46.3,94.4-88.6c16.3-41,15.6-89.5-2.1-133.1l32.4-13.1c21,51.9,21.8,109.9,2.2,159.1c-10.1,25.4-26,48.8-46,67.7
		c-20.5,19.4-45,33.8-70.8,41.5c-17,5.1-35.8,5.6-53.9,6.1C349.3,489.9,328.4,491.7,319.8,508.1z"/>
	<path id="XMLID_20_" d="M284,698.5c-0.5,0-1,0-1.6,0c-24.9-0.4-49-10.3-67.9-27.8c-17.9-16.6-29.6-38.2-33.1-61
		c-3.8-25.2,2.7-51,18.9-74.6c6.9-10,32.9-43,78.7-47.5h0c12.6-1.2,55.9-2.6,86.7,31.7c38.5,42.9,19.7,99.3,17.4,105.6
		c-7,19.5-19.8,37.4-35.9,50.6C328.8,690.6,306.9,698.5,284,698.5z M282.4,522.4c-30.8,3-48.6,25.6-53.3,32.5
		c-11.1,16.1-15.6,33.2-13.1,49.5c4.3,28,31.1,58.6,67,59.1c0.3,0,0.7,0,1,0c33,0,57.5-26,66.3-50.4c0.6-1.7,14.8-42.1-10.6-70.4
		C319.4,520,288.4,521.8,282.4,522.4L282.4,522.4z"/>
</g>
</svg>
