<?xml version="1.0" encoding="utf-8"?>
<!-- Generator: Adobe Illustrator 19.0.0, SVG Export Plug-In . SVG Version: 6.00 Build 0)  -->
<svg version="1.1" xmlns="http://www.w3.org/2000/svg" xmlns:xlink="http://www.w3.org/1999/xlink" x="0px" y="0px"
	 viewBox="0 0 859 1000" style="enable-background:new 0 0 859 1000;" xml:space="preserve">
<g id="Guide">
</g>
<g id="Layer_3">
	<path id="XMLID_18_" d="M627.5,699.6c-16.3,0-31.2-4.5-43.3-13.4c-17.7-13-28.8-35.7-30.7-62c-1.2-17.9,1.6-34.9,4.2-51.4
		c0.5-2.8,0.9-5.6,1.3-8.4c4-26,7.5-59.8-1.9-90.6c-8.8-29-29-51.3-52.6-58.2c-10-2.9-22-3.5-36.4-1.9c-13.1,1.5-25.9,4.5-38.2,8.9
		c1.2,3,2.4,6.2,3.5,9.3l0.1,0.2c1.2,3.4,28,84.8-9,169.2c-10.3,23.6-27.6,63-66,68.7c-22.2,3.3-40.4-1.4-53.9-14.1
		c-9.7-9-16.3-21.3-20.8-38.7c-1.2-4.6-2-9.3-2.4-14.1c-4.1-52.7,12.5-108,44.5-148c15.6-19.4,34.6-35.8,55.9-48.4
		c-5.2-7.3-11-13.8-17.2-19.1c-16.8-14.4-38.1-24.5-63.4-30c-40.9-8.9-85-3.3-124.3,15.6c-27.2,13.1-51.3,29.2-71.5,47.9
		c-34.2,31.6-57.8,71.6-66.4,112.7c-8.9,42.3-0.4,82.5,22.8,107.5c13.5,14.6,31.6,23,48.5,22.5c17.2-0.5,33.2-11.3,38.1-25.7
		c5.3-15.3-3.6-35-18.5-41.2c-6.9-2.9-10.4-3.4-16.5-2.6c-5.1,0.7-10.2,2.3-15.4,4.7l-21.8,10.1l-14.7-31.8l21.8-10.1
		c8.2-3.8,16.7-6.3,25.2-7.5c14.3-2,24.3,0.5,34.8,4.9c31.9,13.3,49.4,52.2,38.2,84.9c-9.6,28-38.5,48.3-70.1,49.3
		c-26.8,0.8-54.9-11.7-75.2-33.7C5.3,631.8-6.4,580,4.8,526.6c10.2-48.1,37.5-94.7,76.9-131.2c22.8-21.1,49.7-39.1,80.1-53.7
		c46.3-22.3,98.5-28.8,146.9-18.3c31.1,6.7,57.6,19.4,78.8,37.7c9.7,8.4,18.5,18.6,26.2,30.3c16.2-6.2,33.2-10.4,50.5-12.4
		c19.1-2.1,35.5-1.1,50,3.1c34.9,10.1,64.2,41.4,76.4,81.6c11.4,37.6,7.5,76.4,2.9,106.1c-0.4,2.9-0.9,5.7-1.4,8.6
		c-2.5,15.2-4.8,29.5-3.9,43.4c1.1,16.1,7.1,29.3,16.5,36.3c16.3,12,42.2,5.7,61.1-4.3c46.1-24.3,80.8-76.1,92.8-138.6
		c22.6-117.2-42.4-198.3-43-199.1l27.1-22.2c0.8,1,19.7,24.3,35.2,64c14.3,36.4,28.5,94.4,15.1,164c-6.6,34.1-19.4,66.5-37,93.7
		c-19.7,30.4-44.5,53.7-73.9,69.2C663.5,694.7,644.7,699.6,627.5,699.6z M398.4,437.7c-17.1,10.4-32.4,23.7-45,39.4
		c-26.6,33.2-40.4,79.3-36.9,123.3c0.2,2.7,0.7,5.4,1.3,8c6.1,23.3,15.1,30.1,35.7,27c17.8-2.6,28.6-24.3,39.1-48.1
		c31.2-71.2,8.7-141.5,7.9-143.8C399.8,441.5,399.1,439.6,398.4,437.7z"/>
</g>
</svg>
