<?xml version="1.0" encoding="utf-8"?>
<!-- Generator: Adobe Illustrator 19.0.0, SVG Export Plug-In . SVG Version: 6.00 Build 0)  -->
<svg version="1.1" xmlns="http://www.w3.org/2000/svg" xmlns:xlink="http://www.w3.org/1999/xlink" x="0px" y="0px"
	 viewBox="0 0 404.1 1000" style="enable-background:new 0 0 404.1 1000;" xml:space="preserve">
<g id="Guide">
</g>
<g id="Layer_3">
	<path id="XMLID_7_" d="M256.8,700.1l-2.7-164.4c-5.1-74,17.9-152.7,33-194.9c-48.6,14.8-75.5,47.5-87.8,104.8l-7.7,36.1l-23.2-29
		c-17.1-21.4-24.9-31.1-41.4-39c-9-4.3-17.1-7.9-25.1-9.6c-14.6-3-30.9,0.9-43.2,10.1c28.9-1.5,53.2,15.4,61.8,35.5
		c7.6,17.9,6.6,39.3-2.8,57c-8.3,15.7-21.7,26.4-36.9,29.3c-23,4.5-42.8-1.4-58.9-17.6c-9-9-15.4-20.6-18.8-33.6
		c-0.4-1.5-0.8-3.1-1.1-4.6c-1.5-7.4-2.1-15.1-1.6-23c1.5-26.3,14.1-51.9,33.9-68.3c20.8-17.3,48.7-24.5,74.7-19.2
		c11.9,2.4,22.5,7.2,33.1,12.3c13.7,6.5,23.2,13.9,32.4,23.5c10.6-29.1,26.1-51.9,47.1-69.2c23.4-19.4,53.2-31.4,91.2-36.8l31.2-4.4
		L331.2,324c-0.5,1.1-49,112.7-42.1,209.8l0,1l2.7,164.8L256.8,700.1z M36.2,473.5c1.7,8.1,5.2,15.3,10.3,20.3
		c7.9,7.9,15.9,10.2,27.4,7.9c4.6-0.9,9.5-5.3,12.7-11.4c4.5-8.5,5.1-18.6,1.6-26.9c-2.8-6.7-16.3-17.8-34.6-13.2
		c-2.4,0.7-10.8,6.1-15.2,14.2C36.3,468.6,36,471.6,36.2,473.5z"/>
</g>
</svg>
