<?xml version="1.0" encoding="utf-8"?>
<!-- Generator: Adobe Illustrator 19.0.0, SVG Export Plug-In . SVG Version: 6.00 Build 0)  -->
<svg version="1.1" xmlns="http://www.w3.org/2000/svg" xmlns:xlink="http://www.w3.org/1999/xlink" x="0px" y="0px"
	 viewBox="0 0 487 1000" style="enable-background:new 0 0 487 1000;" xml:space="preserve">
<g id="Guide">
</g>
<g id="Layer_4">
</g>
<g id="Layer_3">
	<path id="XMLID_18_" d="M262.8,699.9c-1.2,0-2.5,0-3.7-0.1c-14.5-0.9-27.1-6.9-35.3-16.9c-16.6-20.2-11.5-55.7-4.5-73.4
		c15.1-37.7,47.3-49.7,66.5-56.8c5-1.8,10.3-3.2,16-3.9l-3.9-72.2l0-0.4c-0.6-48.8,5.3-89.8,36.2-131c1.4-1.9,2.9-3.8,4.5-5.7
		c-20.1,4.2-35.9,12.3-53.5,26c-4.8,3.8-10,9.3-14.9,16.1c-14.4,19.8-22.1,43.6-22.4,68.9l-0.3,27.8l-34.8,2.3
		c-4.2-29.2-9.4-56.6-27.9-70.9c-6.3-4.9-14.6-8.5-25.4-11c-31.3-7.3-65.5-0.5-89.1,17.9c-7.9,6.2-14.7,13.7-20,22
		c13.2-2.8,26.8-1.9,38.9,3.2c17,7.1,30.1,23.1,34.8,42.6s0.5,39.7-11.3,53.9s-30.9,21.9-51,20.7c-20.1-1.2-38.1-11.2-48.1-26.7
		c-5.5-8.4-9.1-18.3-11-30.2c-6.7-41.7,11.5-86.1,46.3-113.1c32.2-25,76.5-34.1,118.6-24.3c15.8,3.7,28.5,9.4,38.9,17.4
		c6.3,4.9,11.5,10.4,16,16.4c4.8-13.3,11.4-25.8,19.8-37.3c6.9-9.5,14.2-17.2,21.6-23.1c35.2-27.5,66.8-37.3,120.8-37.3h44.1
		L380.5,346c-7,6.6-13.1,13.4-18.3,20.3c-25,33.3-29.7,66.4-29.2,109.1l4.1,75c1.3,0.3,2.6,0.6,3.9,0.9
		c20.7,5.2,37.5,15.8,47.3,29.6c10.2,14.5,15.1,35.3,13.3,57.1c-1.9,23-10.9,44.8-25.4,61.5l-26.4-22.9
		c21.6-24.9,20.4-60.7,9.9-75.4c-4.2-5.9-11.9-10.7-20.9-13.9c0.1,13.5-1.1,26.6-3.8,39.3c-5.1,24-14.1,41.4-29,56.3
		c-0.6,0.6-1.2,1.2-1.9,1.8C294.2,694.1,278.3,699.9,262.8,699.9z M303.8,583.9c-2,0.4-3.9,0.9-5.7,1.6c-20.2,7.5-37.6,15.5-46.2,37
		c-5,12.6-5.5,32.5-1,38.1c2.7,3.3,7.6,4,10.3,4.2c7.6,0.5,15.5-2.4,18.7-5.5c0.5-0.4,0.9-0.9,1.4-1.3c10-10,15.8-21.6,19.5-38.8
		C303.2,608,304.2,596.1,303.8,583.9z M36.2,483.8c-0.1,4.2,0.2,8.4,0.9,12.6c1.1,6.9,3.1,12.5,5.8,16.7c4,6.2,11.8,10.3,20.9,10.8
		c9,0.5,17.3-2.5,22-8.2c4.8-5.7,6.3-14.3,4.2-23.1s-7.5-15.8-14.3-18.6C62.7,468.5,46.9,474.5,36.2,483.8z"/>
</g>
</svg>
