<?xml version="1.0" encoding="utf-8"?>
<!-- Generator: Adobe Illustrator 19.0.0, SVG Export Plug-In . SVG Version: 6.00 Build 0)  -->
<svg version="1.1" xmlns="http://www.w3.org/2000/svg" xmlns:xlink="http://www.w3.org/1999/xlink" x="0px" y="0px"
	 viewBox="0 0 425.1 1000" style="enable-background:new 0 0 425.1 1000;" xml:space="preserve">
<g id="Guide">
</g>
<g id="Layer_4">
</g>
<g id="Layer_3">
	<path id="XMLID_18_" d="M83,699.5c-6.6,0-13-1.1-19-3.3c-25.1-9.2-40.1-37.8-33.5-63.7c3.3-13.1,11.7-25.2,24.7-36
		c11.3-9.3,23.6-15.9,37.2-22.9c5.9-3.1,11.9-6.1,17.9-9.1c10.9-5.5,21.8-11.1,32.7-16.8c0-0.1-0.1-0.2-0.1-0.3
		c-2.7-8.7-6.5-17.2-10.9-25.9c-21.1,7.2-42.9,9.5-60.3,11.3c-16.3,1.7-36.5,3.9-56.4-0.5l-13.7-3l0-229.1h35l0,199.6
		c10.5,0.4,21.4-0.7,31.4-1.8c17.3-1.8,33.4-3.9,47.8-8.1c-0.9-2-1.9-4-2.7-6c-14.8-33.6-20.4-70.6-16.3-107.1
		c2-18,6.1-31.8,13-43.6c9.5-16.4,24.4-27.9,40.8-31.6c34.4-7.6,65.2,19.4,74,48.8c8.2,27.4,6.6,54.6-5,83.2
		c-12.6,30.8-31.4,55.1-56.2,72.2c4,7.9,7.8,16.1,10.9,24.7c37.2-21.3,72-45.7,98.8-77.5c22.5-26.8,39-59,47.7-92.9
		c3.8-14.9,7.1-44.5,5.5-57.9l34.8-4.2c2.4,20.1-2.2,54.6-6.4,70.7c-10,39-29,75.9-54.8,106.7c-32.7,38.9-74.4,66.8-118.2,91
		c1,15.6-0.8,31.5-5.4,47.2c-7.5,25.6-21.8,47.9-41.2,64.5C118.6,692.2,100.2,699.5,83,699.5z M146.3,585.3
		c-6.7,3.5-13.4,6.9-20.1,10.3c-5.9,3-11.9,6-17.8,9.1c-12.3,6.3-22.4,11.7-31,18.8c-7.1,5.9-11.6,12-13.1,17.6
		c-2.1,8.4,3.5,19.2,11.7,22.2c11.5,4.2,26.3-3.3,36.3-11.8C131.6,635.1,143.7,610.6,146.3,585.3z M162,335.4c-1.3,0-2.6,0.1-4,0.4
		c-6.8,1.5-13.6,7.1-18.1,14.9c-4.3,7.5-7,17-8.5,30.1c-3.4,30.3,1.3,61.1,13.6,89c0.7,1.5,1.4,3,2.1,4.5
		c17.2-13.1,30.7-31.2,39.9-53.9c8.6-21.1,9.9-40.2,3.9-59.9C187.1,347.7,174.5,335.4,162,335.4z"/>
</g>
</svg>
