<?xml version="1.0" encoding="utf-8"?>
<!-- Generator: Adobe Illustrator 19.0.0, SVG Export Plug-In . SVG Version: 6.00 Build 0)  -->
<svg version="1.1" xmlns="http://www.w3.org/2000/svg" xmlns:xlink="http://www.w3.org/1999/xlink" x="0px" y="0px"
	 viewBox="0 0 367 1000" style="enable-background:new 0 0 367 1000;" xml:space="preserve">
<g id="Guide">
</g>
<g id="Layer_4">
</g>
<g id="Layer_3">
	<path id="XMLID_31_" d="M197.4,781.8l-26.1-23.3c22.6-25.4,48.4-63.2,43.1-99.6c-3.6-24.3-13.7-41.6-30.1-51.4
		c-1.2-0.7-2.3-1.3-3.5-1.9c-1.8,9-4.3,17.5-7.6,25.6c-14.1,35.1-44.9,69.2-83,69.2c-1.6,0-3.2-0.1-4.8-0.2
		c-16.7-1.3-25.9-9.1-30.6-15.4c-9.9-13.2-7.8-29.4-7.1-33.4c0.8-5.5,5.3-28.4,24.1-50.1c13.4-15.4,37.4-33.6,77.3-36.4
		c-0.2-10-1.1-20.7-2.8-32.2c-0.3-2.1-0.6-4.3-0.9-6.4c-11.5,0.3-23-0.8-34.3-3.4c-41.6-9.4-75.9-34.4-91.8-67
		C-0.1,416.5,0.7,365.8,1.5,316.7l35,0.6c-0.7,44.9-1.5,91.3,14.2,123.4c11.3,23.1,36.8,41.1,68.1,48.2c7.3,1.6,14.4,2.4,21.3,2.5
		c-2.5-16.7-4.9-33.1-6.9-50.8c-0.5-3.4-3-24.2,1.9-49.1c7.1-36.5,26.6-64.6,56.3-81.3l0.6-0.4c26.9-14.8,58.7-13.6,82.9,3.1
		c24.4,16.9,36.3,46,31.6,77.9c-4.1,28.4-17.5,54.2-39.7,76.6c-27,27.2-56.6,45.4-86.8,53.7c0.3,2.2,0.6,4.4,1,6.6
		c2.2,14.8,3.2,28.6,3.2,41.5c5,1.7,10.5,4,16,7.2c18.5,10.5,42,32.4,48.7,77.4C254.8,693.8,237.5,736.8,197.4,781.8z M82.1,657.9
		c-0.3,2-0.1,5,0.7,6c0.3,0.4,1.8,1.2,5.2,1.5c21.4,1.6,42.7-22.5,52.7-47.2c2.2-5.6,4-11.5,5.4-17.8c-56.2,7.1-63.7,55.8-63.8,56.4
		L82.1,657.9z M231.5,334.6c-7.6,0-15.4,2-22.6,6l-0.4,0.2c-50.3,28.1-40.8,94.3-40.6,95l0.1,0.7c1.9,17.2,4.2,33.2,6.7,49.7
		c29.5-9.3,53.1-29.1,67.3-43.4c16.8-17,26.9-36.1,29.9-57c2.7-18.7-3.5-34.7-16.9-44.1C248.1,337,239.9,334.6,231.5,334.6z"/>
</g>
</svg>
