<?xml version="1.0" encoding="utf-8"?>
<!-- Generator: Adobe Illustrator 19.0.0, SVG Export Plug-In . SVG Version: 6.00 Build 0)  -->
<svg version="1.1" xmlns="http://www.w3.org/2000/svg" xmlns:xlink="http://www.w3.org/1999/xlink" x="0px" y="0px"
	 viewBox="0 0 404.9 1000" style="enable-background:new 0 0 404.9 1000;" xml:space="preserve">
<g id="Guide">
</g>
<g id="Layer_4">
</g>
<g id="Layer_3">
	<g id="XMLID_6_">
		<path id="XMLID_8_" d="M156,543.2c-34.4,0-73.9-16.2-83.5-53c-7.4-28.3,6.4-52.6,18.6-74.1c8.5-14.9,16.5-29.1,17-42.7
			c0.4-9.8-4.6-20.2-13.3-27.8c-8.7-7.6-19.7-11.2-29.3-9.5c-9.7,1.7-18.8,8.7-24.4,18.9c-5.6,10.1-6.7,21.6-3,30.7L5.7,398.8
			c-7.8-19.1-6-41.2,4.8-60.8c10.8-19.6,28.7-32.8,48.9-36.4c20.3-3.6,41.6,2.9,58.4,17.6c16.8,14.7,26,35,25.2,55.5
			c-0.9,22.1-11.9,41.5-21.6,58.6c-10.2,18-19,33.5-15.2,48c4.9,18.7,30.8,27.8,52.7,26.8c40.6-1.7,80.2-27.1,98.6-63.3l31.2,15.9
			c-24.4,47.8-74.7,80.1-128.3,82.4C159,543.2,157.5,543.2,156,543.2z"/>
		<path id="XMLID_20_" d="M311.6,707.2C256.7,588,250,314.4,249.8,302.9l35-0.8c0.1,2.8,6.7,277.8,58.6,390.4L311.6,707.2z"/>
	</g>
</g>
</svg>
