<?xml version="1.0" encoding="utf-8"?>
<!-- Generator: Adobe Illustrator 19.0.0, SVG Export Plug-In . SVG Version: 6.00 Build 0)  -->
<svg version="1.1" xmlns="http://www.w3.org/2000/svg" xmlns:xlink="http://www.w3.org/1999/xlink" x="0px" y="0px"
	 viewBox="0 0 779 1000" style="enable-background:new 0 0 779 1000;" xml:space="preserve">
<g id="Guide">
</g>
<g id="Layer_4">
</g>
<g id="Layer_3">
	<path id="XMLID_4_" d="M228,700.4c-26.2,0-51.1-6.9-71.9-20.3c-26.7-17.1-46.6-46-54.5-79.3s-3.3-68,12.7-95.4
		c8.3-14.2,18.9-26.1,29.1-37.6c5.1-5.7,9.9-11.2,14.4-16.8c9-11.3,19.7-29.1,19.7-50.3c0-26.7-9.6-45-29.4-56
		c-15.1-8.4-30.3-9.2-30.5-9.2l-0.8,0c-21.3-1.8-41.4,3.2-56.4,13.8c-15.5,11-25.4,29.1-25.2,46.1c0.2,17.1,11.5,33.8,26.2,38.9
		l-11.3,33.1c-29-9.9-49.6-39.4-49.9-71.6c-0.3-28.6,15-57.3,40-75c21.7-15.4,49.8-22.6,79.2-20.2c3.9,0.2,24.6,1.8,45.8,13.6
		c21.6,12,47.3,36.8,47.4,86.6c0,24.8-9.4,49.8-27.4,72.2c-5.1,6.4-10.5,12.4-15.6,18.2c-9.5,10.7-18.5,20.8-25.1,32
		c-24.1,41-9.5,101.8,30.5,127.5c40.6,26.1,102.6,16.6,141-21.7c35-34.8,52.5-90.9,46.8-150l34.8-3.6l1.8,15.8
		c3.2,28.9,10.3,56.7,21,82.7c10.3,25,20.8,40.8,38.6,58.1l0.5,0.5c26.4,25.5,65.1,35.6,101,26.4c52-13.3,115.3-54.4,122.3-174.8
		c2.8-49-12-119.6-34.5-164.2l31.3-15.7c25.3,50.3,41.3,126.8,38.2,182c-8.6,149-96.8,193.5-148.5,206.7c-23.4,6-48.2,5.9-71.5-0.2
		c-23.5-6.1-45.1-18.2-62.4-35l-0.6-0.6c-21.3-20.8-34.4-40.4-46.5-69.9c-0.8-2-1.6-4-2.4-6c-10,28.4-25,52.8-44.9,72.6
		c-23.4,23.3-54.7,39.1-88,44.5C244.5,699.7,236.2,700.4,228,700.4z"/>
</g>
</svg>
