<?xml version="1.0" encoding="utf-8"?>
<!-- Generator: Adobe Illustrator 19.0.0, SVG Export Plug-In . SVG Version: 6.00 Build 0)  -->
<svg version="1.1" xmlns="http://www.w3.org/2000/svg" xmlns:xlink="http://www.w3.org/1999/xlink" x="0px" y="0px"
	 viewBox="0 0 947 1000" style="enable-background:new 0 0 947 1000;" xml:space="preserve">
<g id="Guide">
</g>
<g id="Layer_3">
	<path id="XMLID_18_" d="M143.3,699.1c-41.5,0-69.3-18.2-71.8-19.9c-52-35-66.8-78.5-70.1-108.9c-3.5-32,5-56.4,5.9-58.8
		c13-36,40.7-59,80.1-66.4l6.5,34.4c-27.3,5.2-44.9,19.6-53.7,43.9l-0.1,0.2c-1.1,2.9-25.9,74.9,51,126.6l0.1,0.1
		c2.4,1.6,44,28.2,99.6,3.3c36.6-16.4,64.1-48.7,75.3-88.6c9.4-33.4,13.3-72.6,11.6-116.6c-0.1-2.4-0.7-19.3,4.2-41.1
		c6.9-30,22.3-55.9,44.7-74.9c20.7-17.6,46.3-28.7,74-31.9c27.7-3.2,55.3,1.7,79.6,14.1c26.2,13.5,47.3,35.2,60.9,62.9
		c0.4,0.9,0.9,1.8,1.3,2.7c18.5,39.5,19.2,83.1,1.9,116.6c-8,15.5-19.1,29.2-29.8,42.5c-7.9,9.8-15.3,19-21.2,28.5l-0.7,1.1
		l-0.6,0.7c-0.8,1-11.5,15.4-8.8,31.3c1.9,11.3,10.4,21.8,25.3,31.3c77.3,49.1,161.6,41.6,250.6-22.3c0.1-0.1,18.3-13.5,38.5-38.6
		c18.4-22.9,42.3-60.5,51.8-110.1c12.6-65.7-11.4-112.7-51.3-163l27.4-21.8c39.7,50.1,74.3,107.9,58.2,191.3
		c-21,109.4-100.8,168-104.2,170.5c-61.7,44.2-123.1,64.5-182.5,60.3c-37.4-2.7-72.5-14.7-107.4-36.9
		c-23.8-15.1-37.6-33.8-41.1-55.5c-4.7-29.1,11.3-52.2,15.5-57.7c6.9-11,15.2-21.2,23.2-31.1c10-12.4,19.5-24.2,25.9-36.6
		c12.3-23.9,11.4-55.9-2.5-85.7c-0.3-0.7-0.7-1.5-1-2.2c-23.9-48.7-69.9-61.8-105-57.7c-34.9,4.1-76.5,27.2-88.6,79.9
		c-4.1,17.8-3.4,31.4-3.4,31.5l0,0.3c1.9,47.7-2.5,90.6-12.8,127.5c-14,50-48.6,90.5-94.7,111.1
		C182.5,695.6,161.6,699.1,143.3,699.1z"/>
</g>
</svg>
