<?xml version="1.0" encoding="utf-8"?>
<!-- Generator: Adobe Illustrator 19.0.0, SVG Export Plug-In . SVG Version: 6.00 Build 0)  -->
<svg version="1.1" id="Layer_1" xmlns="http://www.w3.org/2000/svg" xmlns:xlink="http://www.w3.org/1999/xlink" x="0px" y="0px"
	 viewBox="84 -104 779 1000" style="enable-background:new 84 -104 779 1000;" xml:space="preserve">
<style type="text/css">
	.st0{fill:none;stroke:#000000;stroke-width:35;stroke-miterlimit:10;}
</style>
<g id="Guide">
</g>
<g id="Layer_4">
</g>
<g id="Layer_3">
	<path d="M624.7,596.8c-37.2,0-74-14.2-103.1-41.1c-0.8-0.7-1.5-1.4-2.2-2.1l-0.7-0.7c-21-20.4-34.5-40.7-46.5-69.8
		c-0.8-2-1.6-4-2.4-6.1c-10,28.5-25,52.9-44.9,72.7c-23.4,23.3-54.6,39.1-88,44.5c-35.1,5.7-69.4-0.7-96.6-18.2
		c-26.7-17.1-46.6-46-54.6-79.2c-8-33.2-3.3-68,12.7-95.4c8.4-14.2,19-26.1,29.2-37.6c5.1-5.8,9.9-11.2,14.5-16.8
		c9-11.2,19.7-29,19.7-50.3c0-26.6-9.6-45-29.4-56c-15.1-8.4-30.3-9.2-30.5-9.2l-0.8,0c-21.3-1.8-41.3,3.1-56.4,13.8
		c-15.5,11.1-25.5,29.2-25.2,46.1c0.2,17.1,11.5,33.8,26.2,38.9l-11.3,33.1c-29-9.9-49.5-39.3-50-71.5c-0.4-28.5,15-57.3,40-75.1
		c21.7-15.4,49.8-22.6,79.3-20.2c4,0.2,24.6,1.8,45.7,13.6c21.6,12,47.3,36.8,47.3,86.6c0,24.8-9.5,49.8-27.3,72.1
		c-5.1,6.4-10.5,12.4-15.6,18.2c-9.5,10.7-18.5,20.8-25.2,32c-24.1,41-9.5,101.8,30.6,127.4c40.7,26.1,102.6,16.6,141-21.7
		c35-34.9,52.5-90.9,46.8-150l34.8-3.7l1.8,15.8c3.2,28.8,10.2,56.6,21,82.7c10.3,25.1,20.8,40.8,38.6,58.1l0.7,0.7
		c0.5,0.5,1,1,1.6,1.5c32.9,30.4,78.3,39.8,118.5,24.6c28.4-10.7,65.9-36.6,82.7-98.9l1.2-4.4c10.8-39.9,21-77.5,5.1-169.3
		c-11.2-64.4-43.6-109.5-61-133.7c-1.1-1.6-2.2-3.1-3.2-4.5c-7.1-10.1-15.7-18.2-25.4-24.2c-9.8-6.1-20-9.6-30.9-10.7
		c-15.5-1.5-30.5,1.1-43.4,7.7c-33.4,16.9-41.4,54.3-41.8,55.9c-3.6,17.6-2.7,45,22.4,75.3c26.9,32.6,77.5,24.9,85,20
		c0,0-0.3,0.2-0.7,0.6l24.4,25.1c-12,11.7-38.1,14.6-56.9,13.6c-32.6-1.8-60.6-14.9-78.8-37c-33.8-41-34.8-79.5-29.6-104.7
		c1.2-5.7,12.7-56,60.2-80.1c18.9-9.6,40.6-13.5,62.7-11.3c16.2,1.6,31.6,6.9,45.9,15.8c13.7,8.5,25.6,19.8,35.4,33.7
		c1,1.3,2,2.8,3.1,4.3c17.7,24.6,54.5,75.9,67,148.1c17.3,99.4,5.6,142.7-5.8,184.5l-1.2,4.4c-16.1,59.7-53.1,103.2-104.1,122.5
		C659.4,593.7,642,596.8,624.7,596.8z"/>
	<path class="st0" d="M774.5,291.7"/>
</g>
</svg>
