<?xml version="1.0" encoding="utf-8"?>
<!-- Generator: Adobe Illustrator 19.0.0, SVG Export Plug-In . SVG Version: 6.00 Build 0)  -->
<svg version="1.1" xmlns="http://www.w3.org/2000/svg" xmlns:xlink="http://www.w3.org/1999/xlink" x="0px" y="0px"
	 viewBox="0 0 511 1000" style="enable-background:new 0 0 511 1000;" xml:space="preserve">
<g id="Guide">
</g>
<g id="Layer_4">
</g>
<g id="Layer_3">
</g>
<g id="Layer_5">
	<path id="XMLID_31_" d="M237.4,700.3c-25.7,0-52-3.7-77.9-11.1c-65-18.8-118.6-59-147-110.4l-0.3-0.6c-0.9-1.7-8.6-17.4-11.1-38.4
		c-3.6-30.1,5-56,25-75.1c3.3-3.2,6.3-5.9,9.2-8.4c-7.4-8-13.4-19.1-16.8-33.7c-4.3-18.9-2.8-38,4.3-55.2
		c10.3-24.7,30.2-45.2,54.7-56.3c24.2-10.9,52.5-12.4,77.7-4c15.8,5.2,29.9,14.5,40.8,26.7c14.2,15.9,21.3,34.4,24.6,52
		c19.1-19.3,42.8-33.1,68.5-39c22.1-5.1,44.6-4,66.8,3.3c46.5,15.2,81.1,55.2,90.2,104.3c3.8,20.5,5.1,43.1,3.9,67.1
		c-1.8,35.5-12.8,67.3-32.8,94.5c-17.7,24.1-42.1,44.2-72.5,59.7C312.9,692,275.8,700.3,237.4,700.3z M43.3,562.2
		c24,43.2,69.9,77.1,125.9,93.3c56.1,16.2,114.3,12.2,159.7-10.9c37.4-19.1,82.8-56.2,86.2-124.7l0,0c1.1-21.3-0.1-41.2-3.4-59
		c-6.8-36.6-32.3-66.2-66.7-77.4c-16.1-5.2-32.2-6.1-48.1-2.4c-34.6,7.9-65.7,36.7-79.3,73.2l-33.3-10.8
		c0.1-0.5,14.2-54.1-14.5-86.4c-6.8-7.7-15.7-13.5-25.7-16.8c-16.9-5.6-36-4.6-52.2,2.7c-16.4,7.4-29.8,21.2-36.8,37.8
		c-4.4,10.5-5.2,22.2-2.5,33.9c5.8,25.1,19.9,23.5,21.5,23.2l7.3,34.2c-16.6,4.3-19.9,7-31.2,17.8c-11.6,11.1-16.5,26.1-14.5,44.7
		C37.3,549,42.5,560.5,43.3,562.2z"/>
</g>
</svg>
