<?xml version="1.0" encoding="utf-8"?>
<!-- Generator: Adobe Illustrator 19.0.0, SVG Export Plug-In . SVG Version: 6.00 Build 0)  -->
<svg version="1.1" xmlns="http://www.w3.org/2000/svg" xmlns:xlink="http://www.w3.org/1999/xlink" x="0px" y="0px"
	 viewBox="0 0 707 1000" style="enable-background:new 0 0 707 1000;" xml:space="preserve">
<g id="Guide">
</g>
<g id="Layer_4">
</g>
<g id="Layer_3">
</g>
<g id="Layer_5">
	<g id="XMLID_3_">
		<path id="XMLID_19_" d="M317.9,699.6c-20.5,0-41.5-0.5-62.6-3.6c-17.5-2.6-36.1-7.1-56.7-13.7c-56.9-18.4-102.9-45-136.7-79.1
			c-42-42.4-64.8-97-62.7-150c1.2-30.8,9.2-74.8,40-109.4c13-14.6,28.5-25.6,44.7-31.8c19.3-7.3,39.3-7.7,57.8-0.9
			c23.2,8.4,43.5,27,54.4,48.6c7.6-12,16.7-23.1,27.7-31.8c7.4-5.9,16.6-13.2,28.2-17.9c20.8-8.4,42.2-11.3,61.8-8.4
			c25.7,3.8,48,11.6,73.6,37.5c5.9,5.9,10.9,12.6,15.3,19.6c5.1-7.7,11.2-14.6,18.3-20.7c30.7-26.6,74-38.4,118.7-32.4
			c17.4,2.3,32.1,6.9,45.1,13.9c31.7,17.2,54.1,51.2,60,91c4.6,31-0.4,65.2-14.9,101.7c-19,47.9-51,90.7-92.4,123.8
			c-42.2,33.6-91.2,54.6-141.9,60.9c-21.1,2.6-42.1,2.7-62.3,2.9C328.3,699.6,323.1,699.6,317.9,699.6z M114.6,351.4
			c-19.8,0-36.3,16.5-41.5,22.4c-17.1,19.2-27.3,48.1-28.6,81.2c-1.6,40.5,16.5,82.9,49.7,116.4c28.6,28.9,68.5,51.8,118.5,67.9
			c18.2,5.9,34.4,9.8,49.4,12c23,3.4,47.5,3.2,71.2,3.1c19.8-0.1,38.6-0.2,57-2.5c85.4-10.6,164.9-73.5,197.9-156.5
			c11.5-29,15.6-55.4,12.2-78.4c-3.8-25.5-17.9-47.7-36.8-57.9c-7.9-4.3-17.8-7.3-29.5-8.8c-31.4-4.2-62.5,4-83.2,21.8
			c-17.4,15.1-24.8,39.8-22.4,75.4c0.1,1,0.2,2.1,0.2,3.1l-45,3.3c-0.1-1-0.2-2-0.2-3c-2.8-36-12.9-65.1-27.8-80.1
			c-17.1-17.3-29.6-21.8-48.1-24.6c-11.7-1.7-24.9,0.2-38.2,5.6c-5.5,2.2-11.4,6.9-17.1,11.4h0c-27.7,22.1-41.6,75.8-44.6,94.7
			l-44.9-3.1c-0.1-5.7-0.1-11.3-0.1-16.6c-0.1-16.9-0.1-32.8-3.1-48.7c-2.8-14.5-17.2-30.2-32.8-35.9
			C122.4,352.1,118.4,351.4,114.6,351.4z"/>
	</g>
</g>
</svg>
