<?xml version="1.0" encoding="utf-8"?>
<!-- Generator: Adobe Illustrator 19.0.0, SVG Export Plug-In . SVG Version: 6.00 Build 0)  -->
<svg version="1.1" xmlns="http://www.w3.org/2000/svg" xmlns:xlink="http://www.w3.org/1999/xlink" x="0px" y="0px"
	 viewBox="0 0 805 1000" style="enable-background:new 0 0 805 1000;" xml:space="preserve">
<g id="Guide">
</g>
<g id="Layer_4">
</g>
<g id="Layer_3">
</g>
<g id="Layer_5">
	<g id="XMLID_3_">
		<path id="XMLID_6_" d="M287.7,703l-30.9-37.9c54.5-44.5,94-106.7,111.1-175c7.5-29.8,8.3-52.6,2.5-71.8
			c-9.1-30.3-38.6-55.6-73.6-63.2c-33.1-7.2-70.7-0.2-105.9,19.6c-29.6,16.7-58.1,42.5-87.2,79c-11.2,14-20.4,27.1-28,39.7
			c11.6-0.3,23.7,1,35.5,4c36.4,9.1,64.9,32.4,78,63.9c11.3,27,12.9,52.1,4.8,74.7c-6.4,17.7-18.4,33-35.8,45.5
			c-22.6,16.2-51.1,22.1-78.2,16.1c-26.5-5.9-49.3-22.8-62.4-46.4c-0.6-1-1.1-2-1.6-3c-18.1-35-21-80-7.9-123.4
			c9.9-32.6,28.1-64.8,57.3-101.4c33.1-41.5,66.3-71.3,101.4-91.1c45.6-25.7,95.4-34.5,140.2-24.8c52.6,11.4,95.8,49.4,110.1,96.9
			c8.4,28,7.8,59-1.9,97.7C395.6,580.4,350.3,651.8,287.7,703z M52.7,547.3c-6.8,28.5-4.5,56.7,6.8,78.4c0.3,0.6,0.6,1.1,0.9,1.7
			c6.5,11.6,17.2,19.6,30.4,22.5c13.5,3,27.7,0.1,39-8c21.4-15.4,25.8-34.4,14.4-61.7c-9.8-23.4-32.3-32.2-44.8-35.3
			C80.6,540.2,63.2,542.3,52.7,547.3z"/>
		<path id="XMLID_7_" d="M389.4,990c-39.5,0-77.8-6.5-111.6-19.1c-46.5-17.2-83.4-45.8-106.8-82.6l41.3-26.2
			c40.6,63.9,127.7,82.4,195.7,78.4c122.7-7.2,232.8-77.9,273.8-175.8c17.4-41.6,19-82.4,4.4-111.9c-0.6-1.2-1.3-2.4-1.9-3.6
			c-9.2-16-24.4-26.8-42.7-30.6c-18.7-3.9-38.2,0.5-53.5,11.8l-25.7,19.1l-31-37.7c0.1-0.1,13.8-12.9,24.1-32.4
			c12.4-23.5,14.4-46.1,5.9-67c-7.4-18.1-19.3-31.5-35.5-39.8c-11.3-5.8-20.5-6.9-20.6-6.9l-1.6-0.1l-1.6-0.4
			c-6.3-1.4-24.5-1.3-46.2,5.1c-19.7,5.8-34.7,14.8-40.2,24.1l-42.1-24.9c15.3-25.9,45.6-39.3,68.4-46.1c25.3-7.5,51.7-9.8,69.5-6.2
			c11.4,1.5,68.9,12.4,95.1,76.7c9.8,24.2,11.4,49.8,4.9,75.5c13.1-1.9,26.6-1.5,39.9,1.2c31.7,6.5,59.1,26.3,75.2,54.1
			c1.2,2.1,2.4,4.2,3.4,6.4c11.4,23,16.4,49.2,14.8,77.9c-1.3,24.1-7.5,49.9-17.9,74.7c-24.7,58.9-69.2,109.6-128.8,146.6
			c-55,34.2-121.5,55.2-187.2,59.1C403.7,989.8,396.5,990,389.4,990z"/>
	</g>
</g>
</svg>
