<?xml version="1.0" encoding="utf-8"?>
<!-- Generator: Adobe Illustrator 19.0.0, SVG Export Plug-In . SVG Version: 6.00 Build 0)  -->
<svg version="1.1" xmlns="http://www.w3.org/2000/svg" xmlns:xlink="http://www.w3.org/1999/xlink" x="0px" y="0px"
	 viewBox="0 0 545.1 1000" style="enable-background:new 0 0 545.1 1000;" xml:space="preserve">
<g id="Guide">
</g>
<g id="Layer_5">
	<path id="XMLID_4_" d="M317.8,699.5c-16.3,0-31.2-2.4-42.3-4.6c-41.4-8.1-81.1-22.3-118.1-42.4c-37.2-20.2-70.8-45.7-99.9-76.1l0,0
		c-23.7-24.7-40.3-53.5-49.5-85.7c-12.9-45.5-3.9-95.1,24-132.8c3.9-5.3,7.8-9.8,11.7-13.5c33.5-32.2,72.9-46,113.9-40
		c25.1,3.7,50.4,21.8,71.1,51.1c4.1,5.9,8,11.9,11.3,18c10.2-16.3,24.4-31.9,42.5-46.3l0.6-0.5c33.4-26.3,79.5-30.5,117.4-10.9
		c26.1,13.5,46.8,32.7,61.5,56.9c19.6,32.5,27.5,72.9,23.3,120.2c-2.4,27.5-5.1,52.3-13.6,76.8c-19.2,55.3-64.2,118-133.3,128.2
		C331.5,699.1,324.5,699.5,317.8,699.5z M82.8,552.2c53.7,55.9,122.6,93.3,199.4,108.3c20.8,4,37,4.9,51.2,2.9
		c53.6-7.9,89.5-59.4,105.3-105c7.2-20.8,9.6-43.3,11.8-68.4c7.6-86-31.7-125.2-66-142.9c-25.8-13.4-57.1-10.5-79.7,7.3l-0.4,0.3
		c-19.9,15.8-44.2,41.2-47.3,72.7l-34.9-1.3c-0.2-9.7-8-30.6-22-50.3c-14.9-21-32.3-34.4-47.6-36.7c-37.8-5.6-66.8,13.6-84.6,30.6
		c-2.4,2.3-5.1,5.4-7.8,9.1c-21.5,29-28.4,67.3-18.5,102.4C49.3,507.8,63.1,531.7,82.8,552.2L82.8,552.2z"/>
</g>
</svg>
