<?xml version="1.0" encoding="utf-8"?>
<!-- Generator: Adobe Illustrator 19.0.0, SVG Export Plug-In . SVG Version: 6.00 Build 0)  -->
<svg version="1.1" xmlns="http://www.w3.org/2000/svg" xmlns:xlink="http://www.w3.org/1999/xlink" x="0px" y="0px"
	 viewBox="0 0 659.1 1000" style="enable-background:new 0 0 659.1 1000;" xml:space="preserve">
<g id="Guide">
</g>
<g id="Layer_4">
</g>
<g id="Layer_3">
</g>
<g id="Layer_5">
	<g id="XMLID_3_">
		<path id="XMLID_7_" d="M435.8,510.5l-29.5-18.9c1-1.5,24.2-37.6,57.5-77.7c45.8-55.1,87-89.4,122.4-101.8l11.6,33
			C538.6,365.9,460.8,471.5,435.8,510.5z"/>
		<path id="XMLID_20_" d="M230.4,700.6c-33.1,0-67.4-6.8-100.3-20.1c-44.8-18.1-88.3-48.4-129.2-90l25.7-25.3
			c37.5,38,76.9,65.6,117.1,81.8c46,18.6,94.5,22.5,136.5,11c40-11,76-41.3,101.4-85.3c35.3-61.3,16.5-150.4,16.3-151.3l0-0.2
			c-5.8-27.9-21.2-64.9-45.7-77.2c-18.4-9.3-41.3-9.8-61.3-1.5c-2.4,1-4.8,2.2-7.2,3.4C263,357.3,251,387.3,246.9,410l-1.7,19.1
			c-0.2,2.6-0.4,5.2-0.7,7.8l-35.9-3.5l0.6-7c0.8-13.1,0.1-26.3-2.3-40.3c-2.1-12.1-10.6-26.8-21.8-37.4c-8-7.6-20.5-11.9-34.6-11.7
			c-22.7,0.2-45.3,11.6-58.9,29.8c-13.6,18.2-18.2,43.1-12,64.9c3,10.4,8.2,20.5,13.8,31.1l6.6,12.7l-31.9,16.7l-6.6-12.7
			c-6.2-11.8-12.6-24-16.6-38c-9.2-32.4-2.4-69.3,17.7-96.3c20.2-27,53.7-44,87.4-44.3c23.7-0.2,44.9,7.5,59.8,21.6
			c8.4,8,15.7,17.3,21.2,27.1c8.2-13.7,19.6-26.7,35.2-35.2c3.4-1.9,7-3.6,10.5-5c29.5-12.3,63.6-11.3,91.3,2.6
			c35.9,18.1,57,64.5,64.8,102.1c1.2,5.5,21.5,104.1-20.3,176.8c-30.1,52.3-73.8,88.5-123,102.1
			C270.8,698.1,250.8,700.6,230.4,700.6z"/>
	</g>
</g>
</svg>
