<?xml version="1.0" encoding="utf-8"?>
<!-- Generator: Adobe Illustrator 19.0.0, SVG Export Plug-In . SVG Version: 6.00 Build 0)  -->
<svg version="1.1" xmlns="http://www.w3.org/2000/svg" xmlns:xlink="http://www.w3.org/1999/xlink" x="0px" y="0px"
	 viewBox="0 0 790.3 1000" style="enable-background:new 0 0 790.3 1000;" xml:space="preserve">
<g id="Guide">
</g>
<g id="Layer_4">
</g>
<g id="Layer_3">
	<path id="XMLID_18_" d="M513.3,698.2l-1,0c-14.3-0.5-27.4-8-35-20.1c-7.6-12.1-8.7-27.1-2.9-40.2c1.9-4.2,3.7-8.9,5.7-14.4
		c15-42.4,22.1-88.5,20.5-133.4c-0.7-20.6-3.2-38-7.5-53.3c-10.4-36.7-34.1-67.8-65-85.4c-29-16.5-67.2-18.9-104.8-6.5
		c-39.7,13.1-72.2,39.7-96.3,79c-18.5,30.1-25,56.8-25,57.1l-0.2,0.7l-0.2,0.7c-3,9.1-5.7,19-8.6,29.4
		c-7.9,28.7-16.8,61.2-34.4,85.6c-18.9,26.1-53.8,33-80,28.1c-19.7-3.6-37.2-17.7-51.8-41.8c-13.9-22.9-23.5-49-27.9-75.4l34.5-5.7
		c3.7,22.1,11.7,43.9,23.3,63.1c9.2,15.2,18.7,23.8,28.2,25.5c15.4,2.8,35.9-1.1,45.3-14.2c13.9-19.3,21.6-47.3,29.1-74.4
		c2.8-10.2,5.7-20.7,8.8-30.4c1.3-5.2,9-33.4,28.4-65.5c28.3-46.5,68.3-79.4,115.9-95c47-15.5,95.5-12.1,133.1,9.3
		c38.8,22.1,68.4,60.8,81.3,106.2c5.1,18,8,38.1,8.9,61.6c1.8,50-5.8,99.2-22.5,146.3c-2.3,6.4-4.4,11.9-6.7,16.9
		c-1.5,3.3-0.3,6,0.5,7.4c0.8,1.2,2.5,3.3,5.7,3.7c90.1-8.3,166.3-58.5,195.1-77.5c2.2-1.4,4.1-2.7,5.7-3.7l19,29.4
		c-1.5,1-3.3,2.1-5.4,3.5c-28,18.4-113.1,74.5-212.6,83.2L513.3,698.2z"/>
</g>
</svg>
