<?xml version="1.0" encoding="utf-8"?>
<!-- Generator: Adobe Illustrator 19.0.0, SVG Export Plug-In . SVG Version: 6.00 Build 0)  -->
<svg version="1.1" xmlns="http://www.w3.org/2000/svg" xmlns:xlink="http://www.w3.org/1999/xlink" x="0px" y="0px"
	 viewBox="0 0 804 1000" style="enable-background:new 0 0 804 1000;" xml:space="preserve">
<g id="Guide">
</g>
<g id="Layer_4">
</g>
<g id="Layer_3">
</g>
<g id="Layer_5">
	<g id="XMLID_3_">
		<path id="XMLID_7_" d="M243,699.5c-59.5,0-104.3-17.6-132.6-33.6c-33.8-19-52-39.6-54.3-42.3c-20.7-23.4-39.4-48.7-55.7-75.3
			L30.2,530C45.5,555,63,578.7,82.4,600.6l0.3,0.4c0.1,0.1,15.8,18.5,46.2,35.2c40.4,22.3,86.5,31.5,136.8,27.3l0.5,0
			c0.3,0,35-2.3,73.4-19.4c49.8-22.2,82.5-58,97-106.4c11.7-39,7.1-86.7-12.6-131c-15.5-34.8-40.1-57.3-73.1-66.8
			c-51-14.7-107.1,6.9-136.5,52.5c-10.8,16.8-16.7,34.4-17.5,52.4l-34.9,0.8c-4.3-46.7-45.9-66.9-95.8-86.7l12.9-32.5
			c25.1,10,51.4,21.1,73.1,38c9.5,7.4,17.6,15.5,24.1,24.3c2.5-5.1,5.4-10.2,8.6-15.1c18.5-28.7,45-50.4,76.7-62.7
			c32-12.4,66.2-14,98.9-4.5c42.8,12.3,75.7,42.2,95.4,86.2c23.1,51.8,28.3,108.4,14.1,155.3c-17.5,58.2-58.1,102.7-117.5,128.8
			c-42.6,18.8-80.4,21.6-84.2,21.9C259.7,699.1,251.2,699.5,243,699.5z"/>
		<path id="XMLID_33_" d="M579.2,699.4c-1.4,0-2.7,0-4.1-0.1c-33.8-0.8-66.5-12.2-94.5-32.7l-62-45.5l20.7-28.2l62,45.5
			c22.2,16.3,48,25.3,74.6,25.9c20.3,0.5,38.1-3.8,53-12.7c17.7-10.6,33.4-26.3,45.7-45.6c51.2-80.7,44.5-193-16-267l27.1-22.1
			c69.7,85.3,77.4,214.8,18.4,307.9c-15.1,23.8-34.9,43.5-57.2,56.9C627.3,693.4,604.5,699.4,579.2,699.4z"/>
	</g>
</g>
</svg>
