<?xml version="1.0" encoding="utf-8"?>
<!-- Generator: Adobe Illustrator 19.0.0, SVG Export Plug-In . SVG Version: 6.00 Build 0)  -->
<svg version="1.1" xmlns="http://www.w3.org/2000/svg" xmlns:xlink="http://www.w3.org/1999/xlink" x="0px" y="0px"
	 viewBox="0 0 675.6 1000" style="enable-background:new 0 0 675.6 1000;" xml:space="preserve">
<style type="text/css">
	.st0{fill:none;stroke:#000000;stroke-width:35;stroke-miterlimit:10;}
</style>
<g id="Guide">
</g>
<g id="Layer_4">
</g>
<g id="Layer_3">
</g>
<g id="Layer_5">
	<path id="XMLID_7_" class="st0" d="M18.7,422.9"/>
	<path id="XMLID_19_" d="M302.5,691.7c-35.6,0-69.9-6.1-97.3-29.3c-36-30.5-46.5-86.8-23.8-128.2c13.1-23.9,33.7-39.9,53.7-55.3
		c15.8-12.2,30.7-23.7,40.8-38.3c14.4-20.7,17.7-47.9,8.5-69.4c-9.3-21.8-32.2-37-54.5-36.1c-1.9,0.1-3.8,0.3-5.8,0.6
		c-25.9,3.9-45.8,24.5-50,50c0.5,8.6,0.3,17.3,0.2,25.9c-0.1,5.2-0.2,10.6-0.1,16l-35,0.7l-0.9-29.6c-0.1-4.9,0.1-9.7,0.6-14.4
		c-0.9-12.2-3.5-22.6-10.3-31.2c-17-21.5-42.9-18-45-17.7l-0.2,0l0.1,0c-22.7,3.9-35.3,23-35.4,23.2c-5.5,8.8-11.9,20.1-12.4,31.3
		l0.5,37.7l-35,0.4l-0.5-38.5l0-0.4c0.6-19.7,9.8-36.6,17.7-49.2c0.8-1.3,20.8-32.4,59.1-39c3.6-0.6,48.4-7.4,78.4,30.4
		c1.1,1.4,2.2,2.9,3.2,4.3c14.4-18.1,35.4-30.9,59.6-34.5c3.3-0.5,6.5-0.8,9.6-0.9c36.8-1.5,73,22.1,88.1,57.4
		c13.8,32.3,9.1,72.8-12,103.1c-13.2,19-30.9,32.7-48.1,46c-17.9,13.9-34.8,27-44.4,44.5c-14.7,26.9-7.6,64.9,15.8,84.7
		c28.7,24.3,73.4,22.6,116.8,18.7c1.5-0.2,36.2-4,77.9-19.9c38.3-14.6,90.6-42.8,122.7-94.2c33.9-54.3,43.7-119.7,29.8-200
		c-10.5-60.8-36.4-104.3-56.2-130.1c-20.6-26.8-52.4-41.3-84.9-39c-4.1,0.3-8.2,0.9-12.1,1.7c-26.1,5.3-48.8,22.4-59.4,44.6
		l-31.6-15.1c15.2-31.8,47.4-56.3,84-63.7c5.4-1.1,11-1.9,16.6-2.3c44.4-3.2,87.5,16.4,115.2,52.5c22.2,28.9,51.2,77.6,62.9,145.4
		c7.1,41.3,8.4,80,3.9,115.3c-5.2,40-18.1,76.8-38.4,109.3c-29.6,47.4-78.3,85-140.8,108.7c-46.7,17.7-84.5,21.5-86.1,21.7l-0.2,0
		C332.8,690.6,317.5,691.7,302.5,691.7z"/>
</g>
</svg>
