<?xml version="1.0" encoding="utf-8"?>
<!-- Generator: Adobe Illustrator 19.0.0, SVG Export Plug-In . SVG Version: 6.00 Build 0)  -->
<svg version="1.1" xmlns="http://www.w3.org/2000/svg" xmlns:xlink="http://www.w3.org/1999/xlink" x="0px" y="0px"
	 viewBox="0 0 463 1000" style="enable-background:new 0 0 463 1000;" xml:space="preserve">
<g id="Guide">
</g>
<g id="Layer_5">
	<path id="XMLID_5_" d="M333.9,758.8c-21.8-30.1-43.6-59.4-68.1-85.1c-26.7,12.4-57.4,20.8-91.4,25c-25.6,3.1-63.1,5.1-93.9-14.5
		c-17.7-11.2-30.7-30.3-34.9-50.9c-3.4-17.2-0.2-33.9,9-47.1c16.6-23.6,49.6-33.2,88.3-25.7c44.6,8.6,87.9,32,128.5,69.3
		c0.2,0.2,0.4,0.3,0.6,0.5c35.3-21.9,64.1-55.2,80.3-93.3c18.3-43,21-93.4,7.5-138.1c-6-19.7-13.8-34.3-24.1-44.6
		c-16.2-16.2-42-23.1-64.2-17.1c-0.6,0.2-1.3,0.4-1.9,0.5c-24.6,7.3-42.6,29.8-44.6,56.1l-0.9,11.7l-35.2-1
		c-0.4-18.3-4.6-30.7-14.8-44.1c-6.8-9-18.2-16.1-31.9-19.9c-30.5-8.5-63.6,0.9-86.6,24.5C35.8,385.3,31,413.2,41,450.1l-34.1,9.2
		c-6-22.4-7.7-43.2-4.9-61.8c3.3-22,12.8-41.2,28.2-57.1c31.9-32.9,78.4-45.9,121.4-33.9c15,4.2,35.9,13.2,50.5,32.6
		c1.3,1.7,2.5,3.4,3.6,5.1c1.7-2.5,3.4-5,5.3-7.4c12.5-15.8,29.3-27.1,48.4-32.8c0.9-0.3,1.8-0.5,2.8-0.8c34.5-9.3,73.1,1,98.3,26.2
		c14.5,14.5,25.3,33.9,33,59.3c8,26.3,11.2,53.9,9.7,81.8c-1.5,28-7.7,55-18.5,80.3c-10.8,25.3-25.9,48.5-45,69.1
		c-12.8,13.8-27,25.8-42.3,36.1c23.4,25.5,44.2,53.5,65,82.2L333.9,758.8z M117.9,593.3c-14,0-27.5,3.5-34.3,13.2
		c-4.7,6.7-4.4,14.5-3.3,19.9c2.2,11,9.7,22,19.1,28c16.2,10.3,38.6,13.2,70.7,9.3c24.9-3.1,47.6-8.6,67.8-16.4
		c-32.6-27.6-67.5-45.5-101.7-52.1C130.4,594,124.1,593.3,117.9,593.3z"/>
</g>
</svg>
