<?xml version="1.0" encoding="utf-8"?>
<!-- Generator: Adobe Illustrator 19.0.0, SVG Export Plug-In . SVG Version: 6.00 Build 0)  -->
<svg version="1.1" id="Layer_1" xmlns="http://www.w3.org/2000/svg" xmlns:xlink="http://www.w3.org/1999/xlink" x="0px" y="0px"
	 viewBox="-74 -104 463 1000" style="enable-background:new -74 -104 463 1000;" xml:space="preserve">
<style type="text/css">
	.st0{fill:none;stroke:#000000;stroke-width:35.299;stroke-miterlimit:10;}
</style>
<g id="Guide">
</g>
<g id="Layer_5">
	<path id="XMLID_2_" class="st0" d="M-56,339c7.1-51.1,5.4-63,24.6-88.8c5.7-7.7,12.5-14.7,20.3-20.3c23.8-17,50.8-19.2,81.9-10.5
		c16,4.5,31.2,13,41.2,26.2c11.7,15.4,17.8,31.3,18.4,54.4l0.9-11.7c2.6-33.3,25.2-62.1,57.2-71.6c0.8-0.2,1.6-0.5,2.3-0.7
		c28.3-7.6,60.5,0.9,81.2,21.7c14.1,14.1,22.8,32.8,28.6,51.9c14.8,49,11.9,103.1-8.2,150.1S235.5,526.5,190,549.9
		c-29.2,14.9-61.4,23.2-93.9,27.2c-28.1,3.4-62.7,8.5-82.3-11.9c-15.2-15.8,0.2-35,0.2-35c14.8-21.1,45.2-23.4,70.5-18.5
		c45.2,8.8,86,33.8,119.9,65S266,645.1,293,682.4"/>
</g>
</svg>
