<?xml version="1.0" encoding="utf-8"?>
<!-- Generator: Adobe Illustrator 19.0.0, SVG Export Plug-In . SVG Version: 6.00 Build 0)  -->
<svg version="1.1" xmlns="http://www.w3.org/2000/svg" xmlns:xlink="http://www.w3.org/1999/xlink" x="0px" y="0px"
	 viewBox="0 0 459 1000" style="enable-background:new 0 0 459 1000;" xml:space="preserve">
<g id="Guide">
</g>
<g id="Layer_4">
</g>
<g id="Layer_3">
	<path id="XMLID_18_" d="M175.6,740.4l-12-32.9l6,16.4l-6-16.4c0.5-0.2,53.8-20.1,104.9-64c66.9-57.5,98.7-127.2,94.7-207.2
		c-1.1-21.8-5.6-49.6-19.3-72.9c-9.9,22-27.1,53.1-54.6,82.6c-10.7,11.4-23.4,24.4-39.4,33.4c-19.6,11-41.1,13.7-59.2,7.2
		c-12.1-4.3-21.3-12.1-29.5-18.9c-4.1-3.5-8-6.7-11.9-9.3c-15.2-9.9-36.5-12.3-58.5-6.5c-14.8,3.9-27.8,11.3-37.6,21.2
		c6.8-0.4,13.7,0.6,20.3,3c16.7,6.2,28.5,18.8,32.3,34.6c3.9,16.1-0.9,34-12.6,46.7c-8.3,9.1-19.4,14.4-31.9,15.4
		c-20.8,1.6-41-9.5-51.5-28.3c-1.1-2-2.2-4.1-3.1-6.2c-1.3-2.6-2.3-5.3-2.9-8.1c-5.4-18.6-3.1-39.7,6.7-57.9
		c14.1-26.2,40.1-46,71.2-54.2c31.5-8.3,63.1-4.3,86.6,11.1c5.6,3.7,10.5,7.8,15.2,11.7c6.5,5.4,12.6,10.6,18.7,12.8
		c8.4,3,19.7,1.2,30.2-4.8c11.7-6.6,21.8-16.9,31.1-26.8c43.1-46.1,57.6-97.3,57.8-97.8l7.6-27.5l21.1,19.2
		c28.9,26.4,45.5,67.4,48,118.6c2.5,50.5-7.8,98.1-30.6,141.6c-18.1,34.5-44.1,66.4-77.2,94.6C234.5,718.5,178,739.6,175.6,740.4z
		 M38.1,522.3c0.6,1.8,1.4,3.5,2.3,5.2c3.9,6.9,11,11,18.3,10.5c3.7-0.3,6.4-1.5,8.7-4.1c3.8-4.1,5.5-9.9,4.3-14.8
		c-1.1-4.5-4.6-7.9-10.4-10c-7.4-2.7-13.5,0.9-16.5,3.3C40.1,516.1,38.3,520.5,38.1,522.3z"/>
</g>
</svg>
