<?xml version="1.0" encoding="utf-8"?>
<!-- Generator: Adobe Illustrator 19.0.0, SVG Export Plug-In . SVG Version: 6.00 Build 0)  -->
<svg version="1.1" id="Layer_1" xmlns="http://www.w3.org/2000/svg" xmlns:xlink="http://www.w3.org/1999/xlink" x="0px" y="0px"
	 viewBox="0 0 1000 1000" style="enable-background:new 0 0 1000 1000;" xml:space="preserve">
<style type="text/css">
	.st0{display:none;}
	.st1{fill:none;stroke:#000000;stroke-width:35;stroke-miterlimit:10;}
</style>
<g id="Guide">
</g>
<g id="Layer_3" class="st0">
</g>
<g id="Layer_4">
	<path id="XMLID_5_" class="st1" d="M639.3,702l-76-230.1c6.8,22.6,11.2,44.7,8.7,68.1c-2.7,25.3-16.2,42.1-33.3,60.7
		c-10.9,11.8-30.4,19.8-52,24.7c-17.2,3.9-38.7,0.7-56.8-9.3c-12.4-6.8-23.7-15.4-31.8-26.9c-10.3-14.6-11.1-27.2-6.7-44.5
		c4.7-18.7,21.3-30.4,37.3-38.4c24.6-12.4,47.9-28.2,65.1-49.6c10.4-12.9,18.7-28.2,20.3-44.8s-4.6-34.4-18.1-44.1
		s-34.6-8.7-45.1,4.2l-17.5,25c17.2-19.5,17.7-47.7-2.2-66.2c-4-3.8-5.8-6-13.5-8.5c-9.1-2.9-23.4-0.3-31.8,4.2
		c-10.8,5.8-17.8,15.4-22.3,26.9c-1.8,4.7-2.2,9.9-2.3,14.9c-0.1,10.5,1.3,23.4,6,32.7c8.8,17.2,18.1,23.8,32.8,31.2"/>
</g>
</svg>
