<?xml version="1.0" encoding="utf-8"?>
<!-- Generator: Adobe Illustrator 19.0.0, SVG Export Plug-In . SVG Version: 6.00 Build 0)  -->
<svg version="1.1" xmlns="http://www.w3.org/2000/svg" xmlns:xlink="http://www.w3.org/1999/xlink" x="0px" y="0px"
	 viewBox="0 0 1000 1000" style="enable-background:new 0 0 1000 1000;" xml:space="preserve">
<style type="text/css">
	.st0{display:none;}
	.st1{fill:none;stroke:#000000;stroke-width:39.8345;stroke-miterlimit:10;}
</style>
<g id="Guide">
</g>
<g id="Layer_3" class="st0">
	
		<image style="display:inline;overflow:visible;" width="608" height="389" id="XMLID_4_" xlink:href="../അ.JPG"  transform="matrix(1.7044 0 0 1.7044 -898.6161 179.6667)">
	</image>
</g>
<g id="Layer_4">
</g>
<g id="Layer_5">
	<path id="XMLID_7_" class="st1" d="M725.8,415c-15.3,38.3-45.2,69.2-80,91.3c-52.5,33.2-129.1,19.7-129.1,19.7
		c13.8,37.7,5.5,105-20.3,130.7c-55.8,55.5-132.9,10.8-141.5-33.7c-5.8-30.1-1-60.9,24.8-99.9c23.3-35.2,68.3-68.6,79.3-101.3
		c7.2-21.5,1.5-75.4-44.1-96.8c-38.6-18.1-81.1,3.7-97.4,29.4c-5.1,8-7.1,15.5-8.4,20.6c-0.5,2.1-12.5,52.1,16.3,71.8
		c11.8,8.1,30.3,11,44.2,3c10.6-6,15.6-16.6,16.2-18c3.4-7.4,3.6-13.8,3.6-15.7c0.1-12-5.7-24.8-15.4-31.8
		c-19.3-14-53.1-4.5-62.4,17c-5,11.5-1.6,23.2,0.2,28.3"/>
</g>
</svg>
