<?xml version="1.0" encoding="utf-8"?>
<!-- Generator: Adobe Illustrator 19.0.0, SVG Export Plug-In . SVG Version: 6.00 Build 0)  -->
<svg version="1.1" xmlns="http://www.w3.org/2000/svg" xmlns:xlink="http://www.w3.org/1999/xlink" x="0px" y="0px"
	 viewBox="0 0 1000 1000" style="enable-background:new 0 0 1000 1000;" xml:space="preserve">
<style type="text/css">
	.st0{display:none;}
	.st1{fill:none;stroke:#000000;stroke-width:35;stroke-miterlimit:10;}
</style>
<g id="Guide">
</g>
<g id="Layer_3" class="st0">
	
		<image style="display:inline;overflow:visible;" width="608" height="389" id="XMLID_4_" xlink:href="../അ.JPG"  transform="matrix(1.7044 0 0 1.7044 -898.6161 179.6667)">
	</image>
</g>
<g id="Layer_4">
	<path id="XMLID_5_" class="st1" d="M376.3,441c40.7-38.7,69.8-59.1,123.7-107.3C515.1,476.1,520,569,529,697"/>
	<g id="XMLID_6_">
		<g id="XMLID_24_">
			<path id="XMLID_28_" d="M529,699.5c3.2,0,3.2-5,0-5C525.8,694.5,525.8,699.5,529,699.5L529,699.5z"/>
		</g>
	</g>
	<g id="XMLID_7_">
		<g id="XMLID_20_">
			<path id="XMLID_29_" d="M415,546.5c9.2,0,17.9-8,17.5-17.5c-0.4-9.5-7.7-17.5-17.5-17.5c-9.2,0-17.9,8-17.5,17.5
				C397.9,538.5,405.2,546.5,415,546.5L415,546.5z"/>
		</g>
	</g>
	<g id="XMLID_8_">
		<g id="XMLID_32_">
			<path id="XMLID_36_" d="M611,546.5c9.2,0,17.9-8,17.5-17.5c-0.4-9.5-7.7-17.5-17.5-17.5c-9.2,0-17.9,8-17.5,17.5
				C593.9,538.5,601.2,546.5,611,546.5L611,546.5z"/>
		</g>
	</g>
</g>
<g id="Layer_5">
</g>
</svg>
