<?xml version="1.0" encoding="utf-8"?>
<!-- Generator: Adobe Illustrator 19.0.0, SVG Export Plug-In . SVG Version: 6.00 Build 0)  -->
<svg version="1.1" id="Layer_1" xmlns="http://www.w3.org/2000/svg" xmlns:xlink="http://www.w3.org/1999/xlink" x="0px" y="0px"
	 viewBox="194 -104 745.8 1000" style="enable-background:new 194 -104 745.8 1000;" xml:space="preserve">
<style type="text/css">
	.st0{fill:none;stroke:#000000;stroke-width:39.5786;stroke-miterlimit:10;}
</style>
<g id="Guide">
</g>
<g id="Layer_4">
	<path d="M618.7,595.2c-46,0-92.5-8.4-135.3-24.4c-72.2-27.1-122.9-72-139.1-123.3c-15.7-49.7-15.1-83.8-14.7-104.2
		c0.1-4,0.1-7.5,0.1-10c-0.2-6.9-0.2-13.7-0.2-20.3c0.1-25.7,0.2-48-12.5-61.4c-6.8-7.2-16.1-10.8-22.8-12.5
		c-15.8-4.2-31.2-1.9-41.3,6.1c-6.4,5.1-11.2,12.7-13.2,21c-2.7,11.1,2.1,23.5,6.6,24.7l-11.2,42.4c-32.1-8.5-45.5-46.9-38-77.5
		c4.3-17.8,14.5-33.8,28.6-44.9c20.8-16.5,50.6-21.8,79.6-14.1c17.5,4.5,32.6,13.2,43.6,24.9c24.6,26.1,24.5,60.9,24.4,91.5
		c0,6.5,0,12.7,0.2,18.7c0.1,3.7,0,7.7,0,12.4c-0.4,18.9-0.9,47.3,12.6,90.1c12,37.8,54.2,73.5,112.8,95.5
		c88.7,33.3,190.9,27.6,260.5-14.6c23-13.9,61.6-37.3,73.5-92.4c9.4-43-4.2-68.1-13.2-79.3c-10.1-12.5-20.9-16.6-24.6-16.6v-43.8
		c19.9,0,42.4,12.6,58.7,32.9c13.9,17.2,35.2,55.3,21.9,116.1c-16,73.5-68.4,105.3-93.7,120.6c-42.3,25.6-94,40.3-149.5,42.3
		C627.9,595.1,623.3,595.2,618.7,595.2z"/>
	<path id="XMLID_6_" class="st0" d="M385,432.7"/>
	<path id="XMLID_10_" class="st0" d="M385,432.7"/>
	<g id="XMLID_5_">
		<g id="XMLID_20_">
			<path id="XMLID_24_" d="M282.4,290.5c7.8,0,15.4-6.9,15-15s-6.6-15-15-15c-7.8,0-15.4,6.9-15,15S274,290.5,282.4,290.5
				L282.4,290.5z"/>
		</g>
	</g>
</g>
</svg>
