<?xml version="1.0" encoding="utf-8"?>
<!-- Generator: Adobe Illustrator 19.0.0, SVG Export Plug-In . SVG Version: 6.00 Build 0)  -->
<svg version="1.1" xmlns="http://www.w3.org/2000/svg" xmlns:xlink="http://www.w3.org/1999/xlink" x="0px" y="0px"
	 viewBox="0 0 1000 1000" style="enable-background:new 0 0 1000 1000;" xml:space="preserve">
<style type="text/css">
	.st0{fill:none;stroke:#000000;stroke-width:39.5786;stroke-miterlimit:10;}
	.st1{fill:none;stroke:#000000;stroke-width:35.9893;stroke-miterlimit:10;}
</style>
<g id="Guide">
</g>
<g id="Layer_4">
	<path id="XMLID_6_" class="st0" d="M500,536.7"/>
	<path id="XMLID_10_" class="st0" d="M500,536.7"/>
	<path id="XMLID_3_" class="st1" d="M350.8,604.8c-0.5-30.1,40.2-55.8,76-31.1c28.4,19.6,26.5,53.3,14,76.6
		c-26.8,50-118.3,46.4-144.2-50.4c-12.2-45.5-12-78.8-4.1-112.1c5-21,12.4-39.6,21-55.7c32.1-60.9,90-101.3,155.3-111.1
		c41.2-6.2,92.8-3.2,144.1,26.8c25.5,14.9,74.6,56.5,94.8,140.6c8,33.2,8.1,66.6-4.1,112.1c-26,96.7-117.4,100.3-144.2,50.4
		c-12.5-23.3-14.4-57,14-76.6c35.8-24.6,76.5,1,76,31.1"/>
</g>
</svg>
