<?xml version="1.0" encoding="utf-8"?>
<!-- Generator: Adobe Illustrator 19.0.0, SVG Export Plug-In . SVG Version: 6.00 Build 0)  -->
<svg version="1.1" id="Layer_1" xmlns="http://www.w3.org/2000/svg" xmlns:xlink="http://www.w3.org/1999/xlink" x="0px" y="0px"
	 viewBox="194 -104 513 1000" style="enable-background:new 194 -104 513 1000;" xml:space="preserve">
<style type="text/css">
	.st0{fill:none;stroke:#000000;stroke-width:39.5786;stroke-miterlimit:10;}
</style>
<g id="Guide">
</g>
<g id="Layer_4">
	<path id="XMLID_6_" class="st0" d="M429.1,432.7"/>
	<path id="XMLID_10_" class="st0" d="M429.1,432.7"/>
	<path d="M312.2,596c-3.8,0-7.6-0.2-11.5-0.7c-21.3-2.5-41.3-11.7-57.9-26.6c-18.4-16.6-31.6-39-39.1-66.7
		c-1.2-4.4-2.6-9.6-3.7-14.7c-10-44.2-0.5-88.5,27.5-128c12.3-17.4,26-29.4,40.6-42c5.6-4.8,11.3-9.9,17.1-15.3
		c37.2-35.1,123.8-95.2,127.5-97.8l10.8-7.5l134.3,104.4l0.6,0.6c5.7,5.4,11.5,10.4,17,15.2c14.6,12.7,28.3,24.7,40.6,42
		c28,39.5,37.5,83.8,27.5,128.1c-1,4.4-2.2,9.4-3.7,14.7c-7.5,27.6-20.6,50-39,66.6c-16.6,14.9-36.6,24.1-57.9,26.6
		c-36,4.2-69.4-11.5-85-40.1c-16.4-30.1-17.2-73.9,19.6-99c22.5-15.3,49.5-17.1,72.3-4.8c19.9,10.7,32,30.1,31.7,50.6l-35.8-0.6
		c0.1-6.9-5-14.2-12.9-18.5c-5.2-2.8-18.9-8.1-35.2,2.9c-26.1,17.7-10.2,48.8-8.3,52.3c8.6,15.7,27.9,24.2,49.4,21.7
		c31.2-3.7,56.1-28.8,66.6-67.1c1.3-4.8,2.4-9.2,3.3-13.1c7.8-34.7,0.5-68.1-21.7-99.6c-9.8-13.8-21.5-24-34.9-35.8
		c-5.6-4.9-11.4-10-17.4-15.6l-112.2-87.2c-24.5,17.3-84.7,60.6-112.6,86.9c-6.3,5.9-12.3,11.1-18.1,16.2
		c-13.4,11.7-25.1,21.8-34.9,35.7c-22.3,31.5-29.6,65-21.8,99.5c1,4.5,2.2,9.2,3.3,13.2c10.4,38.4,35.4,63.5,66.6,67.1
		c21.4,2.5,40.8-6,49.3-21.7c1.9-3.5,17.8-34.5-8.3-52.3c-16.2-11-29.9-5.7-35.1-3c-8,4.3-13.1,11.6-13,18.6l-35.8,0.6
		c-0.3-20.5,11.8-39.9,31.8-50.6c22.7-12.3,49.7-10.4,72.2,4.9c36.9,25.1,36,68.9,19.6,98.9C371.7,580.8,343.7,596,312.2,596z"/>
</g>
</svg>
