<?xml version="1.0" encoding="utf-8"?>
<!-- Generator: Adobe Illustrator 19.0.0, SVG Export Plug-In . SVG Version: 6.00 Build 0)  -->
<svg version="1.1" id="Layer_1" xmlns="http://www.w3.org/2000/svg" xmlns:xlink="http://www.w3.org/1999/xlink" x="0px" y="0px"
	 viewBox="194 -104 872 1000" style="enable-background:new 194 -104 872 1000;" xml:space="preserve">
<style type="text/css">
	.st0{fill:none;stroke:#000000;stroke-width:38.0468;stroke-miterlimit:10;}
</style>
<g id="Guide">
</g>
<g id="Layer_4">
	<path id="XMLID_4_" class="st0" d="M219.6,419.5c0.1-2.4,1.8-33,28.4-49.3c20.9-12.7,45.8-9.8,61.5-0.2c8.1,5,13.1,11.3,14.4,13
		c9.5,12.5,10.6,25.7,10.8,29.6c1,15.8-4.7,35.6-19.8,47.3c-23,17.9-57.6,9.1-76.7-7.2c-22.4-19.1-23.5-48.5-24.1-66
		c-2.2-63.7,41.1-109,49.2-117.4c35.2-36.8,81.9-52.1,106.1-54.4C512,201.7,607.3,362.3,559,394.1c-28,18.4-105-26.4-136.3,6.9
		c-22.7,24.1,10.5,91.3,36.7,120.7c5.4,6,25.6,27.8,60.1,41.7c6.6,2.7,39.6,15.5,83.2,11c10.8-1.1,21-3.2,30.6-5.9
		c65.4-18.7,113.5-74.3,124.8-141.4c6.4-39,4.9-93.1-54.1-156.1c0,0,191,156,285-38"/>
</g>
</svg>
