<?xml version="1.0" encoding="utf-8"?>
<!-- Generator: Adobe Illustrator 19.0.0, SVG Export Plug-In . SVG Version: 6.00 Build 0)  -->
<svg version="1.1" id="Layer_1" xmlns="http://www.w3.org/2000/svg" xmlns:xlink="http://www.w3.org/1999/xlink" x="0px" y="0px"
	 viewBox="194 -104 409 1000" style="enable-background:new 194 -104 409 1000;" xml:space="preserve">
<g id="Guide">
</g>
<g id="Layer_4">
</g>
<g id="Layer_3">
	<path d="M470.4,667.2l-95.9-425.6c-19.6,16.9-50.7,32.2-94.2,46.4c-41.4,13.5-78.2,20.7-79.8,21l-6.6-34l3.3,17l-3.3-17
		c0.4-0.1,36.6-7.1,75.9-20c65.7-21.5,85.7-40.8,91.8-50.5c4.9-7.8,14-11.8,23.1-10.3c9.1,1.6,16.3,8.4,18.4,17.4l100.9,448
		L470.4,667.2z"/>
</g>
<path d="M302.9,452.3l-17.1-30.1c15-8.5,205.7-88.2,243.8-104.1l13.3,32C455.9,386.3,313.7,446.2,302.9,452.3z"/>
</svg>
