<?xml version="1.0" encoding="utf-8"?>
<!-- Generator: Adobe Illustrator 19.0.0, SVG Export Plug-In . SVG Version: 6.00 Build 0)  -->
<svg version="1.1" id="Layer_1" xmlns="http://www.w3.org/2000/svg" xmlns:xlink="http://www.w3.org/1999/xlink" x="0px" y="0px"
	 viewBox="194 -104 634.6 1000" style="enable-background:new 194 -104 634.6 1000;" xml:space="preserve">
<g id="Guide">
</g>
<g id="Layer_4">
</g>
<g id="Layer_3">
	<path d="M632.3,594.5c-3.1,0-6.3-0.1-9.5-0.2c-40.4-2-84.1-46.5-94.8-83.3l-51.6-179.7c-0.8-2.9-3-4.2-4.2-4.7
		c-1.3-0.5-3.8-1.2-6.5,0.3c-9.1,4.8-17.9,9.7-26.4,14.7l30.7,146.4c3.3,15.8,1.3,33.6-5.8,50.1c-7.3,17-19.5,31-34.4,39.6
		c-3,2.4-7.2,4.5-13.4,6.7c-4.9,1.8-13,4.4-23.8,6.5c-23.9,4.7-69.3,8.6-105.6-18.5c-31.8-23.7-43-55-46.8-77.1
		c-3.9-23.2,2.6-42.5,19.8-58.9l0.5-0.5c1.8-1.6,4.7-4.3,8.4-7.8c19.8-18.6,66.2-62.2,131.1-103.6l-15.3-73.1L213.3,364.9L194,335.7
		l214.4-141.8l23.4,111.6c5.7-3.3,11.6-6.5,17.6-9.6c11.4-6,24.8-6.6,36.7-1.5c11.8,5.1,20.6,15,24,27.3l51.6,179.6
		c7,24.3,38.7,56.9,62.9,58.1c36.2,1.8,65.2-9,83.8-31.1c25.6-30.4,32-80.9,18.2-142.3l34.1-7.7c16.2,72.3,7.2,133.6-25.6,172.5
		C710.9,579.5,675.5,594.5,632.3,594.5z M284,462c-9.9,9.5-10.8,17.6-9.2,27.5c3.9,22.9,15.1,41.4,33.2,54.9
		c19.2,14.3,43.5,15.8,60.5,14.6c17.8-1.3,32.3-5.8,38.1-8.3l0.2-0.4l4.2-2.3c19.2-10.3,28.3-35.7,24.7-52.9l-28.1-133.8
		c-55.7,36.9-95.2,74-114.8,92.4C289.1,457.3,286.2,460,284,462z"/>
</g>
</svg>
