<?xml version="1.0" encoding="utf-8"?>
<!-- Generator: Adobe Illustrator 19.0.0, SVG Export Plug-In . SVG Version: 6.00 Build 0)  -->
<svg version="1.1" id="Layer_1" xmlns="http://www.w3.org/2000/svg" xmlns:xlink="http://www.w3.org/1999/xlink" x="0px" y="0px"
	 viewBox="194 -104 633.8 1000" style="enable-background:new 194 -104 633.8 1000;" xml:space="preserve">
<g id="Guide">
</g>
<g id="Layer_4">
</g>
<g id="Layer_3">
	<path d="M616.1,595.1c-16.6,0-34-7.3-50-21.3c-16.4-14.3-29.4-34-34.8-52.8l-54.5-189.8c-0.8-2.9-3-4.2-4.2-4.7
		c-1.3-0.5-3.8-1.2-6.5,0.3c-9.1,4.8-17.9,9.7-26.4,14.7l30.7,146.4c3.3,15.8,1.3,33.6-5.8,50.1c-7.3,17-19.5,31-34.4,39.6
		c-3,2.4-7.2,4.5-13.4,6.7c-4.9,1.8-13,4.4-23.8,6.5c-23.9,4.7-69.3,8.6-105.6-18.5c-31.8-23.7-43-55-46.8-77.1
		c-3.9-23.2,2.6-42.5,19.8-58.9l0.5-0.5c1.8-1.6,4.7-4.3,8.4-7.8c19.8-18.6,66.2-62.2,131.1-103.6L385,251.5L213.6,364.9l-19.3-29.2
		l214.4-141.8l23.4,111.6c5.7-3.3,11.6-6.5,17.6-9.6c11.4-6,24.8-6.6,36.7-1.5c11.8,5.1,20.6,15,24,27.3l54.5,189.7
		c7,24.3,35.6,52.6,55.4,48.3c66.4-14.3,116.7-101.2,112.2-193.5c-2.5-50.7-36.2-111.7-73.5-133.3c-12.7-7.3-24-8.9-33.8-4.7
		c-2.4,2.7-4.6,9.9-4,22.8c0.6,14.3,4.2,29.8,6.6,40.1c1.1,4.9,1.9,8.4,2.3,11.2l-34.7,4.5c-0.1-1.1-1-4.9-1.7-7.9
		c-6.3-27.2-17.9-78,11.6-99.7l1.1-0.8l1.3-0.6c21-10.8,44.9-9.2,68.9,4.7c23,13.3,45.1,37.4,62.2,67.9c17.1,30.4,27.3,63.8,28.8,94
		c2.6,52.6-10.1,105.2-35.8,147.9c-26.3,43.8-63.2,72.7-104,81.5C623.9,594.7,620,595.1,616.1,595.1z M284.3,462
		c-9.9,9.5-10.8,17.6-9.2,27.5c3.9,22.9,15.1,41.4,33.2,54.9c19.2,14.3,43.5,15.8,60.5,14.6c17.8-1.3,32.3-5.8,38.1-8.3l0.2-0.4
		l4.2-2.3c19.2-10.3,28.3-35.7,24.7-52.9l-28.1-133.8c-55.7,36.9-95.2,74-114.8,92.4C289.4,457.3,286.5,460,284.3,462z"/>
</g>
</svg>
