<?xml version="1.0" encoding="utf-8"?>
<!-- Generator: Adobe Illustrator 19.0.0, SVG Export Plug-In . SVG Version: 6.00 Build 0)  -->
<svg version="1.1" id="Layer_1" xmlns="http://www.w3.org/2000/svg" xmlns:xlink="http://www.w3.org/1999/xlink" x="0px" y="0px"
	 viewBox="194 -104 625.7 1000" style="enable-background:new 194 -104 625.7 1000;" xml:space="preserve">
<g id="Guide">
</g>
<g id="Layer_4">
</g>
<g id="Layer_3">
	<path d="M470.4,667.1l-95.9-425.6c-19.6,16.9-50.7,32.2-94.2,46.4c-41.4,13.5-78.2,20.7-79.8,21l-6.6-34l3.3,17l-3.3-17
		c0.4-0.1,36.6-7.1,75.9-20c65.7-21.5,85.7-40.8,91.8-50.5c4.9-7.8,14-11.8,23.1-10.3c9.1,1.6,16.3,8.4,18.4,17.4l100.9,448
		L470.4,667.1z"/>
</g>
<path d="M637.4,622.2c-20.1,0-36.4-5-45.7-8.7l-0.1,0c-9.3-3.8-28.7-11.6-43.4-31.4c-11.6-15.6-14.8-31.4-15.9-36.7
	c-3.8-17.9-1.6-32.4-0.7-38.6c3.6-23.8,8.1-41.4,11.8-55.5c4.8-18.8,8.3-32.5,7.5-51.1l0-1.1c-1.1-18.7-11-36-26.5-46.4l-0.1-0.1
	c-3-2.1-6.7-4.3-11.6-7.1c-14.7-8.3-45.6-14.2-84.6-3.7c-33,8.8-83.2,32.7-135.3,96.3l-27.1-22.2c58-70.8,115.4-97.8,153.3-107.9
	c22-5.9,43.6-8,64.1-6.2c18.1,1.6,34.3,6.2,46.8,13.3l0.1,0.1c5.7,3.3,10.1,6,13.9,8.6c24.7,16.6,40.4,44.2,42,74l0,1.3
	c1,23.7-3.4,41-8.6,61c-3.6,14-7.7,30-11,52c-0.8,5-2.2,14.5,0.3,26.3l0,0.2c0.7,3.7,2.7,13.4,9.7,22.8
	c8.8,11.9,20.6,16.6,28.4,19.8c9,3.6,27.4,8.9,49.2,4.6c35.5-7.1,65.6-35.8,70.2-66.8c1.5-10.1,0-18.1-1.1-23.4
	c-6.7-35.1-31.8-57.9-46.2-68.4l20.6-28.3c18.6,13.5,51.1,43.3,60,90.1c1.3,6.6,3.7,19.1,1.3,35.2c-6.7,45.5-47.9,85.9-98,96
	C652.6,621.6,644.7,622.2,637.4,622.2z"/>
</svg>
