<?xml version="1.0" encoding="utf-8"?>
<!-- Generator: Adobe Illustrator 19.0.0, SVG Export Plug-In . SVG Version: 6.00 Build 0)  -->
<svg version="1.1" id="Layer_1" xmlns="http://www.w3.org/2000/svg" xmlns:xlink="http://www.w3.org/1999/xlink" x="0px" y="0px"
	 viewBox="77 -104 768 1000" style="enable-background:new 77 -104 768 1000;" xml:space="preserve">
<style type="text/css">
	.st0{fill:none;stroke:#010101;stroke-width:35;stroke-miterlimit:10;}
	.st1{fill:#010101;}
</style>
<g id="Guide">
</g>
<g id="Layer_4">
	<g id="Layer_4_1_">
		<path id="XMLID_6_" class="st0" d="M308.1,432.2"/>
		<path id="XMLID_10_" class="st0" d="M308.1,432.2"/>
		<path class="st1" d="M440.7,595.2c-2.6,0-5.1-0.1-7.7-0.4c-41.2-3.9-76-37.2-86.6-82.9l-0.2-0.7l-2.3-16
			c-6-78.5,31.7-159.4,98.3-211.2l0.6-0.4l0.6-0.4c-13.3-13.6-25.1-21.4-31.2-24.9c-40.2-23.5-84.9-31.8-132.7-24.6
			c-60.3,9-113.5,47.2-142.4,102c-8.6,16.1-15.1,33.4-19.5,51.6c-7.8,33-6.6,63.9,4,103.5c10.6,39.6,34.9,65.3,65,68.8
			c20,2.3,38.4-6.4,46.8-22.1c1.9-3.6,18-35.6-8.5-53.9c-16.1-11.1-29.9-5.9-35.1-3.1c-8.3,4.5-13.6,12.1-13.5,19.5l-35,0.6
			c-0.3-20.7,11.9-40.2,32-51c22.6-12.1,49.3-10.1,71.5,5.2c17.3,11.9,27.6,29,29.8,49.4c1.8,16.4-1.9,34.1-10.3,49.9
			c-13.7,25.6-41,41-71.3,41c-3.5,0-6.9-0.2-10.5-0.6c-20.8-2.4-40.4-11.8-56.6-27c-17.8-16.7-30.7-39.4-38.2-67.5
			c-12.2-45.6-13.5-81.6-4.2-120.7c5-21.1,12.6-41.2,22.6-59.9c16.9-32,41.3-60,70.5-80.7c28.9-20.5,62.7-34.2,97.6-39.4
			c55.1-8.3,108.9,1.7,155.5,29c8.2,4.8,25,15.9,43.2,35.7l39.5-25.9l12.3-6.5c21.3-11.2,47.3-9.1,66.2,5.5l0.5,0.4
			c0.1,0.1,0.3,0.2,0.4,0.3c0.5,0.4,1,0.8,1.5,1.2l0.2,0.1c10.9,9.4,18,22,20.4,35.8c41.5-28.5,114.4-73.7,167.1-79.2l3.6,34.8
			c-55,5.7-149.7,70.7-181.5,95.3l-38.6,29.8l14.6-63.7c2.2-9.6-1-19.8-8.2-26c-0.1-0.1-0.2-0.2-0.4-0.3c-0.4-0.3-0.8-0.6-1.1-0.9
			c-8.1-6.1-19.2-7-28.4-2.1l-10.9,5.7l-35.5,23.3c15.1,22.4,29.2,51.4,38.1,88.3c7.1,29.6,12.5,67.1-1.9,120.7
			c-3.1,11.2-8.7,28.8-14.5,41.9c-8.1,18.2-20.3,32.6-35.4,41.7C468.8,591.4,455,595.2,440.7,595.2z M380.6,504.7
			c8.5,35.4,34,53.3,55.7,55.3c20.7,2,38.2-9.7,48.1-31.9c4.7-10.5,9.8-26,12.7-36.7c12.3-45.9,8.1-76.8,1.7-103.4
			c-7.8-32.7-20.2-58-33.2-77.4l-2.5,1.6c-57,44.5-89.3,113.3-84.4,179.8L380.6,504.7z"/>
	</g>
</g>
</svg>
