<?xml version="1.0" encoding="utf-8"?>
<!-- Generator: Adobe Illustrator 19.0.0, SVG Export Plug-In . SVG Version: 6.00 Build 0)  -->
<svg version="1.1" xmlns="http://www.w3.org/2000/svg" xmlns:xlink="http://www.w3.org/1999/xlink" x="0px" y="0px"
	 viewBox="0 0 1000 1000" style="enable-background:new 0 0 1000 1000;" xml:space="preserve">
<style type="text/css">
	.st0{display:none;}
	.st1{fill:none;stroke:#000000;stroke-width:35;stroke-miterlimit:10;}
</style>
<g id="Guide">
</g>
<g id="Layer_4" class="st0">
	
		<image style="display:inline;overflow:visible;" width="265" height="200" id="XMLID_3_" xlink:href="C:\Users\Indrajith\Desktop\123154564.JPG"  transform="matrix(3.0674 0 0 3.0674 -131.2907 169.635)">
	</image>
</g>
<g id="Layer_3">
	<path id="XMLID_6_" class="st1" d="M575.1,700.6L572,322c-2.7,0.8-10.3,3.6-17.9,6.4c-13.6,5.1-25.5,13.9-34.2,25.5
		c-4.4,5.9-9.1,12.8-13.1,20.2c-11.5,21.3-11.5,45.2-14.3,72.6v-15.6c0-7.9-1.1-15.8-3.2-23.4c-4.1-14.9-8.6-29.8-15.4-43.6
		c-15.3-31-29.7-43-49.3-44.7c-22.2-2-46.7,13.1-59.7,31.1c-23.5,32.5-7.7,91.3,29.1,98.2c20.6,3.9,40.1-3.4,45.7-19.9
		c3.1-9.1,0.8-21.7-7.9-29.5c-8.5-7.6-21.1-9-30.2-4.4c-3.1,1.5-5.3,3.5-6.7,5.1"/>
	<path id="XMLID_5_" class="st1" d="M492.6,450.1"/>
	<line id="XMLID_8_" class="st1" x1="479.1" y1="528.1" x2="630" y2="430.6"/>
</g>
</svg>
