<?xml version="1.0" encoding="utf-8"?>
<!-- Generator: Adobe Illustrator 19.0.0, SVG Export Plug-In . SVG Version: 6.00 Build 0)  -->
<svg version="1.1" id="Layer_1" xmlns="http://www.w3.org/2000/svg" xmlns:xlink="http://www.w3.org/1999/xlink" x="0px" y="0px"
	 viewBox="-78 -104 467.6 1000" style="enable-background:new -78 -104 467.6 1000;" xml:space="preserve">
<g id="Guide">
</g>
<g id="Layer_4">
</g>
<g id="Layer_3">
	<path d="M116.2,596.6c-4,0-8-0.1-12-0.4l-8.6-0.5c-59-3.4-110.7-40.7-131.8-95c-6.1-15.8-9.1-30.9-8.7-45.1
		c0.9-37.1,17.7-59.2,44.6-82.8c35.6-31.2,77.5-58.2,126.2-81.1l-8-38.1L-59.3,370.9l-19.3-29.2L141.6,196l17.1,81.4
		c47.9-19.6,101.8-35.7,162.2-48.7l7.4,34.2C267.3,276,213.4,292.4,166,312.3l39,186c4.1,19.7,6.3,48.9-21.6,75.9
		c-6.3,6.1-13.5,11-21.4,14.6c-11,5-18,6.3-28.8,7.2C127.6,596.4,121.9,596.6,116.2,596.6z M133.4,327
		c-42.6,20.7-79.2,44.7-110.5,72.1c-24.5,21.5-32.1,34.9-32.7,57.4c-0.2,9.5,1.9,20.1,6.3,31.6c16.1,41.6,55.9,70.1,101.3,72.8
		l8.6,0.5c7.9,0.5,16,0.4,24-0.3c8.3-0.7,11.1-1.4,17.3-4.2c4.2-1.9,7.9-4.5,11.4-7.8l0.1-0.1c14.4-13.9,15.2-27,11.7-43.6
		L133.4,327z"/>
</g>
</svg>
