<?xml version="1.0" encoding="utf-8"?>
<!-- Generator: Adobe Illustrator 19.0.0, SVG Export Plug-In . SVG Version: 6.00 Build 0)  -->
<svg version="1.1" id="Layer_1" xmlns="http://www.w3.org/2000/svg" xmlns:xlink="http://www.w3.org/1999/xlink" x="0px" y="0px"
	 viewBox="-54 -104 676 1000" style="enable-background:new -54 -104 676 1000;" xml:space="preserve">
<g id="Guide">
</g>
<g id="Layer_4">
</g>
<g id="Layer_3">
	<path d="M190,596.7c-22.7,0-44.4-7.2-62-21.2c-27.3-21.6-40.6-56.7-35.8-93.7c1.7-12.6,8.9-34.3,16.5-45.5
		c17-25.2,61.6-50.2,112-73.7l-13.6-65.6c-22.5,56.1-61.9,76.4-64.3,77.6l-1.1,0.5c-41.4,17.2-83.6,14.7-118.8-7.1
		c-43.4-26.8-71.9-79.2-76.2-140.2l34.9-2.5c3.5,49,26.3,92.3,59.7,112.9c25.5,15.8,55.3,17.4,86.2,4.8c2.7-1.5,17.2-10.3,31.2-29.9
		c20.7-29.1,30.3-67,28.6-112.6l34.6-4.2l31.5,151.4c13.4-5.9,26.9-11.7,40-17.4c31.6-13.6,61.4-26.5,78.1-36.1l28.5-16.3
		l-9.3,129.6c59.8-30.3,151.8-76.4,161.5-79.2l9.8,33.6c0.1,0,0.3-0.1,0.5-0.1c-10.6,3.8-118.1,57.8-183.4,90.9l-27.6,14l9.2-127.7
		c-15.4,7.1-33.5,15-53.2,23.5c-15,6.5-30.8,13.3-46.6,20.4l22.8,109.8c3.3,15.6,1.2,33.9-5.8,50.2c-7.3,17-19.4,31.1-34.3,39.7
		c-3,2.4-7.1,4.5-13.1,6.7C217,594.2,203.3,596.7,190,596.7z M228,397.7c-9,4.3-17.7,8.6-26,12.9c-43.1,22.5-58.8,37-64.3,45.2
		c-3.8,5.6-9.6,22.2-10.8,30.5c-3.3,25.1,5,47.6,22.8,61.7c18.5,14.7,43.4,17.7,68.4,8.3c0.7-0.3,1.3-0.5,1.8-0.7l0.2-0.4l4.5-2.4
		c19.2-10.3,28.2-35.8,24.6-53.2L228,397.7z"/>
</g>
</svg>
