<?xml version="1.0" encoding="utf-8"?>
<!-- Generator: Adobe Illustrator 19.0.0, SVG Export Plug-In . SVG Version: 6.00 Build 0)  -->
<svg version="1.1" id="Layer_1" xmlns="http://www.w3.org/2000/svg" xmlns:xlink="http://www.w3.org/1999/xlink" x="0px" y="0px"
	 viewBox="194 -104 793 1000" style="enable-background:new 194 -104 793 1000;" xml:space="preserve">
<g id="Guide">
</g>
<g id="Layer_4">
</g>
<g id="Layer_3">
	<path d="M677.9,595.6c-25.1,0-49-7.9-68.5-23.3c-30.1-23.9-44.8-62.6-39.4-103.5c1.8-13.4,9.5-36.8,17.4-49.1
		c16.3-33,69.9-74.1,120.2-107.3c-0.6-1.2-1.3-2.3-1.9-3.5c-22.7-40.7-46.7-63.3-47-63.5l-0.5-0.5c-7.4-7.5-18.5-11.6-29.6-11.2
		c-11.4,0.5-21.7,5.7-29.2,14.6c-29.2,34.9-41.6,73.4-55.9,118.1c-13.9,43.5-29.7,92.9-64.8,143.9c-56.9,82.9-122.3,87.9-156.2,83.5
		c-27.1-3.5-53.1-14.9-75.3-33.1c-21-17.3-37.4-39.9-46-63.9c-14.5-40.5-6.6-81.1,21.9-111.4l25.5,23.9
		c-26.2,27.9-20.3,59.4-14.5,75.7c13.8,38.3,51.9,68.8,92.8,74.1c44.9,5.8,88.5-18.6,122.9-68.6c32.1-46.8,46.4-91.5,60.3-134.8
		c14.8-46.2,28.7-89.8,62.4-129.9c13.8-16.5,33.2-26.1,54.5-27c21-0.9,41.3,6.8,55.7,21.2c3.2,3,28.5,27.5,52.7,70.6
		c0.5,1,1.1,1.9,1.6,2.9c62.5-38.9,134.7-76.6,176.7-92.4l12.3,32.8c-40.1,15-110.1,51.6-173.5,91.3c17.4,40.6,32,95.1,28.7,160.4
		c-0.9,17.6-3.6,70.7-44.5,94.5c-3.2,2.6-7.7,4.9-14.2,7.3C707.8,592.9,692.7,595.6,677.9,595.6z M722.9,344.3
		c-51.3,34.2-93.5,68.4-104.3,91.4L618,437l-0.8,1.1c-4.5,6.6-11.1,25.4-12.4,35.3c-3.8,29,5.8,55,26.5,71.4
		c21.4,17,50.2,20.5,79.1,9.7c1.2-0.4,2.1-0.8,2.8-1.1l0.3-0.5l4.5-2.4c17.5-9.4,26.5-30.6,28.4-66.7
		C748.9,435,741,388.3,722.9,344.3z"/>
</g>
</svg>
