<?xml version="1.0" encoding="utf-8"?>
<!-- Generator: Adobe Illustrator 19.0.0, SVG Export Plug-In . SVG Version: 6.00 Build 0)  -->
<svg version="1.1" id="Layer_1" xmlns="http://www.w3.org/2000/svg" xmlns:xlink="http://www.w3.org/1999/xlink" x="0px" y="0px"
	 viewBox="194 -104 503 1000" style="enable-background:new 194 -104 503 1000;" xml:space="preserve">
<g id="Guide">
</g>
<g id="Layer_4">
</g>
<g id="Layer_3">
	<path d="M437.2,596.1c-22.7,0-44.3-7.2-61.9-21.1c-27.3-21.6-40.7-56.7-35.9-93.8c1.7-12.5,9.1-34.6,16.5-45.6
		c17-25.2,61.6-50.2,112-73.7l-13.6-65.5c-22.5,56.1-62,76.4-64.3,77.6l-1.1,0.5c-41.4,17.2-83.6,14.7-118.8-7.1
		c-43.4-26.8-71.8-79.2-76.2-140.2l34.9-2.5c3.5,49,26.3,92.3,59.6,112.8c25.5,15.8,55.3,17.4,86.2,4.9c2.7-1.5,17.2-10.3,31.2-29.9
		c20.7-29.1,30.3-67,28.7-112.6l34.6-4.2l31.5,151.3c13.4-5.9,26.8-11.7,39.9-17.4c31.6-13.7,61.5-26.6,78.2-36.1l17.4,30.4
		c-18.4,10.5-47.7,23.2-81.7,37.9c-14.9,6.4-30.7,13.3-46.5,20.3l22.8,109.7c3.3,15.9,1.2,33.7-5.8,50.2
		c-7.3,17.1-19.4,31.1-34.4,39.8c-3,2.4-7.1,4.5-12.9,6.6C464.2,593.6,450.5,596.1,437.2,596.1z M475.3,397.2
		c-9,4.3-17.7,8.6-26.1,12.9c-43.1,22.4-58.8,36.9-64.3,45.1c-3.8,5.7-9.7,22.2-10.8,30.5c-3.3,25.1,5.1,47.6,22.9,61.7
		c18.5,14.6,43.4,17.6,68.3,8.2c0.7-0.3,1.3-0.5,1.8-0.7l0.2-0.4l4.5-2.4c19.2-10.4,28.2-35.9,24.6-53.3L475.3,397.2z"/>
</g>
</svg>
