<?xml version="1.0" encoding="utf-8"?>
<!-- Generator: Adobe Illustrator 19.0.0, SVG Export Plug-In . SVG Version: 6.00 Build 0)  -->
<svg version="1.1" id="Layer_1" xmlns="http://www.w3.org/2000/svg" xmlns:xlink="http://www.w3.org/1999/xlink" x="0px" y="0px"
	 viewBox="194 -104 666 1000" style="enable-background:new 194 -104 666 1000;" xml:space="preserve">
<style type="text/css">
	.st0{fill:none;stroke:#000000;stroke-width:39.5786;stroke-miterlimit:10;}
</style>
<g id="Guide">
</g>
<g id="Layer_4_1_">
	<path id="XMLID_4_" class="st0" d="M436.3,433.1"/>
	<path id="XMLID_2_" class="st0" d="M436.3,433.1"/>
	<path d="M628.3,871.4c-5.8,0-11.6-0.3-17.3-1c-35-4.2-65.6-21.2-88.4-49.1l27.7-22.6c38.4,47,95.3,42.8,135.8,23.2
		c24.5-11.8,41.9-33.8,47.8-60.3c2.9-12.8,2.8-25.9-0.1-38.2c-14.8,11.6-31.5,21.1-49.6,27.8c-23.5,8.8-47.4,12.5-71.1,10.8
		c-25.8-1.8-50-9.8-71.8-23.8c-13.8-8.9-22.1-24.1-22.9-41.6c-0.9-20.5,8.4-40.8,24.2-53.1c21.4-16.6,55.5-37.9,103.8-30.4
		c38.9,6,72.6,23.7,95.5,50.1c7-10.3,12.4-21.4,15.9-33c10.3-60.1,14.3-115-37.5-176.9c-38.1-35.2-80.2-47.6-125.2-36.9
		c-38.2,9.1-68.2,32.6-80,45.1l-26.1-24.5c18-19.1,54.3-45.1,97.8-55.4c39.7-9.4,99.4-9.1,158.7,46.3l0.8,0.7l0.7,0.8
		c28.2,33.4,44.7,67.9,50.5,105.5c5.4,35.2,1,70-4.5,102.4l-0.2,1l-0.3,0.9c-5.8,20.3-16.3,39.5-30.2,56.4
		c9.7,23,12.1,48.6,6.5,73.7c-8.3,37.2-32.8,68-67.2,84.6C678.3,865.5,652.8,871.4,628.3,871.4z M627,647.4
		c-26.6,0-46.2,12.1-62.2,24.5c-6.6,5.1-10.8,14.4-10.4,23.2c0.2,4.2,1.5,9.8,6.5,13.1c32.5,20.9,71.9,24.3,110.9,9.6
		c17.2-6.5,33-16,46.3-27.5c-0.3-0.3-0.5-0.7-0.8-1c-17.3-21.4-44.3-35.9-76-40.8C636.3,647.8,631.5,647.4,627,647.4z"/>
</g>
<g id="Layer_4">
	<path id="XMLID_6_" class="st0" d="M426.4,433.4"/>
	<path id="XMLID_10_" class="st0" d="M426.4,433.4"/>
	<path d="M541.6,597.3c-30.4,0-57.8-15.5-71.6-41.2c-16.1-30-20.1-53.3,2.6-97.2c5-9.8,16.8-22.6,23.6-28.7l23.9,26.9
		c-5.5,4.9-13.5,14.3-15.6,18.3c-18.2,35.1-12.4,45.8-2.8,63.7c8.3,15.5,26.5,24.1,46.3,21.8c29.9-3.5,54.1-29,64.7-68.4
		c10.7-39.7,11.8-70.6,4-103.2c-20.4-85.1-71.3-120.5-86.4-129.3c-40.1-23.5-84.6-31.7-132.3-24.5c-60.1,9-113.3,47-142.1,101.7
		c-8.6,16.1-15.1,33.4-19.4,51.5c-7.8,32.9-6.6,63.8,4,103.3c10.5,39.4,34.7,65,64.6,68.4c19.8,2.3,38-6.3,46.3-21.9
		c1.9-3.6,17.8-35.2-8.4-53.3c-15.9-11-29.5-5.8-34.6-3.1c-8.2,4.4-13.3,11.9-13.2,19.1l-36,0.6c-0.3-20.9,12-40.6,32.2-51.4
		c22.7-12.2,49.6-10.2,72,5.2c17.4,12,27.7,29.2,30,49.8c1.8,16.5-1.9,34.3-10.4,50.2c-15.4,28.7-47.6,44.6-82.2,40.6
		c-20.9-2.4-40.6-11.8-56.9-27.1c-17.9-16.8-30.8-39.6-38.3-67.7c-12.2-45.6-13.5-81.8-4.2-120.9c5-21.1,12.6-41.3,22.6-60
		c16.9-32.1,41.4-60.1,70.6-80.9c29-20.6,62.8-34.3,97.9-39.5c55.2-8.3,109.1,1.7,155.9,29.1c18.2,10.6,79.5,53,103.2,151.9
		c9.2,38.3,7.9,75.6-4.2,121c-7.6,28.1-20.5,50.9-38.4,67.7c-16.3,15.3-36,24.7-56.9,27.1C548.6,597.1,545,597.3,541.6,597.3z"/>
</g>
</svg>
