<?xml version="1.0" encoding="utf-8"?>
<!-- Generator: Adobe Illustrator 19.0.0, SVG Export Plug-In . SVG Version: 6.00 Build 0)  -->
<svg version="1.1" id="Layer_1" xmlns="http://www.w3.org/2000/svg" xmlns:xlink="http://www.w3.org/1999/xlink" x="0px" y="0px"
	 viewBox="-50 -104 510 1000" style="enable-background:new -50 -104 510 1000;" xml:space="preserve">
<style type="text/css">
	.st0{fill:none;stroke:#000000;stroke-width:35;stroke-miterlimit:10;}
</style>
<g id="Guide">
</g>
<g id="Layer_4">
	<path id="XMLID_6_" class="st0" d="M177.1,363.1"/>
	<path id="XMLID_10_" class="st0" d="M177.1,363.1"/>
	<path class="st0" d="M-32.8,196.7"/>
	<path d="M173.4,597.5c-41.8,0-82-10.7-118-31.6c-11-6.3-32.7-21.1-54.3-48.2c-31.4-39.4-49.1-89.6-49.6-141.2l0-0.1l0.7-179.6
		l35,0.1l-0.7,179.4c0.5,43.8,15.4,86.3,42,119.6c18,22.7,35.6,34.6,44.5,39.8c40.3,23.4,85,31.6,132.7,24.4
		c60.3-9,113.5-46.8,142.4-101.1c0.2-0.4,0.4-0.8,0.6-1.1c12-22.9,18.4-48.8,18.4-75.1V196.7h35v186.1c0,32.1-7.9,63.9-22.7,91.9
		c-0.2,0.4-0.4,0.8-0.6,1.1c-16.9,31.7-41.2,59.3-70.3,79.8c-28.9,20.4-62.7,33.9-97.6,39.1C198.3,596.6,185.8,597.5,173.4,597.5z"
		/>
</g>
</svg>
