<?xml version="1.0" encoding="utf-8"?>
<!-- Generator: Adobe Illustrator 19.0.0, SVG Export Plug-In . SVG Version: 6.00 Build 0)  -->
<svg version="1.1" id="Layer_1" xmlns="http://www.w3.org/2000/svg" xmlns:xlink="http://www.w3.org/1999/xlink" x="0px" y="0px"
	 viewBox="125 -104 1091.8 1000" style="enable-background:new 125 -104 1091.8 1000;" xml:space="preserve">
<style type="text/css">
	.st0{fill:none;stroke:#000000;stroke-width:35;stroke-miterlimit:10;}
</style>
<g id="Guide">
</g>
<g>
	<g id="Layer_4_1_">
		<path d="M652,596.2c-10.4,0-20.9-1-31.5-2.9c-29.1-5.4-57.1-19.2-81-40.1c-23.7-20.7-43.4-48.5-57.1-80.3c-0.2-0.4-0.3-0.7-0.4-1
			c-0.2-0.4-0.3-0.8-0.5-1.1c-0.2,0.4-0.3,0.8-0.5,1.1c-0.1,0.3-0.2,0.6-0.4,1c-13.6,31.8-33.4,59.6-57.1,80.3
			c-23.9,20.9-51.9,34.8-81.1,40.1c-32.1,6-80.6,5.7-129.7-29.6c-9-6.5-26.8-21.5-44.4-48.8c-18.3-28.6-31.5-62.8-39.1-101.7
			l-0.2-0.8l-0.1-0.8c-3.8-38.4-4.2-64.2,3.4-115.6l0.2-1l20.6-98.4l34.3,7.2l-20.5,97.9c-7,47.3-6.7,70.2-3.2,105.7
			c16.7,84.4,57.3,119.3,69.4,127.9c31.3,22.6,66,30.5,102.9,23.6c47.3-8.7,89.2-46,112.3-99.7c0.1-0.3,0.2-0.6,0.4-1
			c9.9-23.2,15.2-49.7,15.2-76.7V195.3h35v186.1c0,27,5.3,53.5,15.2,76.7c0.2,0.4,0.3,0.7,0.4,1c23.1,53.7,65,91,112.3,99.7
			c37,6.9,71.6-1.1,102.9-23.6c9.7-7,43-34.8,62.3-99.3c5.4-18,8.3-36.5,8.6-55c0-2.1,0.1-4.2,0.1-6.3c0.4-21.6,0.9-42-4.8-72.9
			c-4.7-25.6-17.7-69.6-17.9-70l-10.4-35.1l33.9,14c0.3,0.1,32.9,13.1,91.3,17.5c54,4,141.5,1.2,252.5-35l10.8,33.3
			c-117.3,38.3-210.5,40.9-267.9,36.5c-28.5-2.2-51.4-6.4-68-10.3c3.7,14,7.8,30.2,10.1,42.9c6.4,34.4,5.9,57.6,5.4,80
			c0,2.1-0.1,4.1-0.1,6.2c-0.4,21.7-3.8,43.4-10.1,64.4c-21.9,73.1-60,106.7-75.4,117.7C720.4,585.2,686.9,596.2,652,596.2z"/>
		<path class="st0" d="M478,200.1"/>
	</g>
</g>
</svg>
