<?xml version="1.0" encoding="utf-8"?>
<!-- Generator: Adobe Illustrator 19.0.0, SVG Export Plug-In . SVG Version: 6.00 Build 0)  -->
<svg version="1.1" id="Layer_1" xmlns="http://www.w3.org/2000/svg" xmlns:xlink="http://www.w3.org/1999/xlink" x="0px" y="0px"
	 viewBox="125 -104 767.3 1000" style="enable-background:new 125 -104 767.3 1000;" xml:space="preserve">
<style type="text/css">
	.st0{fill:none;stroke:#000000;stroke-width:35;stroke-miterlimit:10;}
</style>
<g id="Guide">
</g>
<g>
	<g id="Layer_4_1_">
		<path d="M300.7,596.8c-30,0-64.6-7-97-30.3c-23.6-17-78.5-66.2-78.5-156.7h35c0,74.3,44.7,114.5,64,128.3
			c37.3,26.8,79.4,26.1,108.1,20.7c47.3-8.7,89.2-46,112.3-99.7c0.1-0.3,0.2-0.6,0.4-1c9.9-23.2,15.2-49.7,15.2-76.7l0-0.1
			l1.3-185.4l35,0.2l-1.3,185.4c0,27,5.3,53.5,15.2,76.6c0.2,0.4,0.3,0.7,0.4,1c23.1,53.7,65,91,112.3,99.7
			c37,6.9,71.6-1.1,102.9-23.6c12.1-8.7,52.7-43.5,69.4-127.9c3.5-35.5,3.7-58.4-3.2-105.7l-20.5-97.9l34.3-7.2l20.7,98.9l0.1,0.5
			c7.6,51.4,7.2,77.2,3.4,115.6l-0.1,0.8l-0.2,0.8c-7.6,38.9-20.7,73.1-39.1,101.7c-17.5,27.3-35.3,42.3-44.4,48.8
			c-38.8,27.9-83.7,38.2-129.7,29.6c-29.1-5.4-57.1-19.2-81-40.1c-23.7-20.7-43.4-48.5-57.1-80.3c-0.2-0.4-0.3-0.7-0.4-1
			c-0.2-0.4-0.3-0.8-0.5-1.1c-0.2,0.4-0.3,0.8-0.5,1.1c-0.1,0.3-0.2,0.6-0.4,1c-13.6,31.8-33.4,59.6-57.1,80.3
			c-23.9,20.9-51.9,34.8-81.1,40.1C327.5,595.3,314.6,596.8,300.7,596.8z"/>
		<path class="st0" d="M474.1,200.1"/>
	</g>
</g>
</svg>
