<?xml version="1.0" encoding="utf-8"?>
<!-- Generator: Adobe Illustrator 19.0.0, SVG Export Plug-In . SVG Version: 6.00 Build 0)  -->
<svg version="1.1" id="Layer_1" xmlns="http://www.w3.org/2000/svg" xmlns:xlink="http://www.w3.org/1999/xlink" x="0px" y="0px"
	 viewBox="-44 -104 772.8 1000" style="enable-background:new -44 -104 772.8 1000;" xml:space="preserve">
<style type="text/css">
	.st0{fill:none;stroke:#000000;stroke-width:35;stroke-miterlimit:10;}
</style>
<g id="Guide">
</g>
<g>
	<g id="Layer_4_1_">
		<path d="M142.6,596.8c-34.8,0-68.3-11-98.2-32.6c-9-6.5-26.8-21.5-44.3-48.8c-18.4-28.6-31.5-62.8-39.1-101.7l-0.2-0.8l-0.1-0.8
			c-3.8-38.3-4.2-64.1,3.4-115.6l0.2-1l20.6-98.4l34.3,7.2l-20.5,97.9c-7,47.4-6.7,70.3-3.2,105.7c16.7,84.4,57.3,119.3,69.4,127.9
			c31.3,22.5,65.9,30.5,102.8,23.6c47.3-8.7,89.3-46.1,112.4-100l0.2-0.5c10-23.2,15.3-49.8,15.3-76.8V196h35v186.1
			c0,27.1,5.3,53.6,15.3,76.9l0.2,0.5c23.1,54,65.1,91.3,112.4,100c37,6.9,71.6-1,102.9-23.6c12.1-8.7,52.7-43.5,69.4-127.9
			c3.5-35.4,3.7-58.2-3.2-105.7L607,204.3l34.3-7.2L662,296l0.1,0.5c7.6,51.5,7.2,77.3,3.4,115.6l-0.1,0.8l-0.2,0.8
			c-7.6,38.9-20.7,73.1-39.1,101.7c-17.5,27.3-35.3,42.3-44.4,48.8c-38.8,27.9-83.7,38.2-129.7,29.6c-29.1-5.4-57.1-19.2-81-40.1
			c-23.8-20.8-43.5-48.6-57.2-80.5l-0.2-0.5c-0.2-0.5-0.4-1-0.6-1.5c-0.2,0.5-0.4,1-0.7,1.6l-0.2,0.5
			c-13.6,31.8-33.4,59.7-57.1,80.4c-23.9,20.9-51.9,34.8-81,40.1C163.4,595.8,153,596.8,142.6,596.8z"/>
		<path class="st0" d="M309.5,200.7"/>
	</g>
</g>
</svg>
