<?xml version="1.0" encoding="utf-8"?>
<!-- Generator: Adobe Illustrator 19.0.0, SVG Export Plug-In . SVG Version: 6.00 Build 0)  -->
<svg version="1.1" id="Layer_1" xmlns="http://www.w3.org/2000/svg" xmlns:xlink="http://www.w3.org/1999/xlink" x="0px" y="0px"
	 viewBox="-94.3 -154 748.3 1100" style="enable-background:new -94.3 -154 748.3 1100;" xml:space="preserve">
<style type="text/css">
	.st0{fill:none;stroke:#000000;stroke-width:39.5786;stroke-miterlimit:10;}
	.st1{fill:none;stroke:#010101;stroke-width:35;stroke-miterlimit:10;}
	.st2{fill:#010101;}
</style>
<g id="Guide">
</g>
<g id="Layer_4">
	<path id="XMLID_6_" class="st0" d="M514,381.7"/>
	<path id="XMLID_10_" class="st0" d="M514,381.7"/>
	<g id="Layer_4_1_">
		<path id="XMLID_4_" class="st1" d="M246.8,381.9"/>
		<path id="XMLID_3_" class="st1" d="M246.8,381.9"/>
		<path class="st2" d="M291.2,946c-16.3,0-32.7-1.2-49.1-3.6c-63.6-9.3-121.2-36-154.1-71.7c-70.3-76-72.9-111-71.6-171.2l35,0.7
			c-1.1,51.6-1.6,77.5,62.4,146.8c27.2,29.5,78.4,52.8,133.4,60.8c65.4,9.5,131.4-2.6,186-34.1c30.4-17.6,61-49.2,86.2-89
			c22.5-35.6,37.5-73.9,39.1-99.9c2-30.9,6.6-103.1-51.3-136.7c-12.5-7.2-61-8.8-98.7-6.2l-34.6,2.4l18.7-29.3
			c9.1-14.3,34.3-55.7,41.7-75.4c14.1-38,11.6-68.2,3.5-101.9c-15.8-65.9-93.5-135.2-116.3-154.4c-20.6,7.8-84,37.6-146.1,81.2
			c-7.7,5.4-15.1,10.8-22.1,16.2c20.8,48.8,33,89.9,37,124.3c5.6,48.1-5.6,73.6-18.7,93.9c-18.7,29.1-51.7,42.6-84.1,34.2
			c-19-4.9-35.6-16.7-48-34.1c-13.2-18.6-20.8-42.2-22.7-70.2c-2.2-34,11.9-69.9,41.8-106.7c13.9-17.1,31.2-34.4,51.7-51.7
			c-12.4-27-27.2-56.2-44.4-87.6c-0.2-0.3-0.7-1.2-2.1-1.3c-1.4-0.1-2,0.8-2.2,1.1L-65.4,368.1l-28.9-19.7L32.3,162.8
			c7.4-10.9,19.7-16.9,32.8-16.3c13.1,0.6,24.7,7.9,31.1,19.4c16.1,29.3,30.1,56.6,42,82c5.5-4.1,11.2-8.2,17.1-12.4
			c72.8-51,148.3-85.1,164.6-88.5c7.7-1.6,13.2,0.6,16.9,3.8c9,7.1,113.8,91.6,134.7,178.6c8.3,34.5,13.5,73.2-4.7,122.3
			c-5.4,14.6-17.5,36.5-27.8,53.9c4.2,0,8.7,0,13.3,0c35.4,0.5,59.1,4.4,72.2,12c76.7,44.5,70.9,135.2,68.7,169.3
			c-2.1,32-18.7,75.5-44.5,116.4c-28.1,44.6-63,80.3-98.3,100.7c-32.4,18.7-67.9,31.4-105.4,37.6C327.3,944.6,309.3,946,291.2,946z
			 M124.6,304c-15.4,13.6-28.6,27.1-39.3,40.4c-24.1,29.7-35.5,57.3-33.9,82.2c1.4,21.1,7,39.2,16.3,52.2
			c7.5,10.6,17.3,17.7,28.2,20.5c17.8,4.6,35.4-2.8,45.9-19.2c6.9-10.7,18.4-28.6,13.4-71C151.8,380.5,141.6,345.4,124.6,304z"/>
	</g>
</g>
</svg>
