<?xml version="1.0" encoding="utf-8"?>
<!-- Generator: Adobe Illustrator 19.0.0, SVG Export Plug-In . SVG Version: 6.00 Build 0)  -->
<svg version="1.1" id="Layer_1" xmlns="http://www.w3.org/2000/svg" xmlns:xlink="http://www.w3.org/1999/xlink" x="0px" y="0px"
	 viewBox="14 -154 640 1100" style="enable-background:new 14 -154 640 1100;" xml:space="preserve">
<style type="text/css">
	.st0{fill:none;stroke:#010101;stroke-width:35;stroke-miterlimit:10;}
	.st1{fill:#010101;}
</style>
<g id="Guide">
</g>
<g id="Layer_4">
	<path id="XMLID_6_" class="st0" d="M514,381.7"/>
	<path id="XMLID_10_" class="st0" d="M514,381.7"/>
	<g id="Layer_4_1_">
		<path id="XMLID_4_" class="st0" d="M246.8,381.9"/>
		<path id="XMLID_3_" class="st0" d="M246.8,381.9"/>
		<path class="st1" d="M291.2,946c-16.3,0-32.7-1.2-49.1-3.6c-63.6-9.3-121.2-36-154.1-71.7c-70.3-76-72.9-111-71.6-171.2l35,0.7
			c-1.1,51.6-1.6,77.5,62.4,146.8c27.2,29.5,78.4,52.8,133.4,60.8c65.4,9.5,131.4-2.6,186-34.1c30.4-17.6,61-49.2,86.2-89
			c22.5-35.6,37.5-73.9,39.1-99.9c2-30.9,6.6-103.1-51.3-136.7c-12.5-7.2-61-8.8-98.7-6.2l-34.6,2.4l18.7-29.3
			c9.1-14.3,34.3-55.7,41.7-75.4c14.1-38,11.6-68.2,3.5-101.9C417,252.5,366,217,350.9,208.1c-40.2-23.5-84.9-31.8-132.7-24.6
			c-60.3,9-113.5,47.2-142.4,102c-8.6,16.1-15.1,33.4-19.5,51.6c-7.8,33-6.6,63.9,4,103.5c10.6,39.6,34.9,65.3,65,68.8
			c20,2.3,38.4-6.4,46.8-22.1c1.9-3.6,18-35.6-8.5-53.9c-16.1-11.1-29.9-5.9-35.1-3.1c-8.3,4.5-13.6,12.1-13.5,19.5l-35,0.6
			c-0.3-20.7,11.9-40.2,32-51c22.6-12.1,49.3-10.2,71.5,5.2c17.3,11.9,27.6,29,29.8,49.4c1.8,16.4-1.9,34.1-10.3,49.9
			c-13.7,25.6-41,41-71.3,41c-3.5,0-6.9-0.2-10.5-0.6c-20.8-2.4-40.4-11.8-56.6-27c-17.8-16.7-30.7-39.4-38.2-67.5
			C14.3,404.1,13,368,22.3,329c5-21.1,12.6-41.2,22.6-59.9c16.9-32,41.3-60,70.5-80.7c28.9-20.5,62.7-34.2,97.6-39.4
			c55.1-8.3,108.9,1.7,155.5,29c18.2,10.6,79.3,52.9,103,151.6c8.3,34.5,13.5,73.2-4.7,122.3c-5.4,14.6-17.5,36.5-27.8,53.9
			c4.2,0,8.7,0,13.3,0c35.4,0.5,59.1,4.4,72.2,12c76.7,44.5,70.9,135.2,68.7,169.3c-2.1,32-18.7,75.5-44.5,116.4
			c-28.1,44.6-63,80.3-98.3,100.7c-32.4,18.7-67.9,31.4-105.4,37.6C327.3,944.6,309.3,946,291.2,946z"/>
	</g>
</g>
<path class="st1" d="M417.7,542.1c-6.9,0-11-0.2-11.7-0.3l2.1-34.9l-1.1,17.5l1-17.5c0.8,0,82.4,4.3,168.2-33.4
	c113.5-50,180.9-146.8,200.3-287.9l34.7,4.8c-11.6,84.6-40.1,155.8-84.8,211.7c-35.9,45-82.1,80-137.4,104
	C514.7,538.6,444.8,542.1,417.7,542.1z"/>
</svg>
