<?xml version="1.0" encoding="utf-8"?>
<!-- Generator: Adobe Illustrator 19.0.0, SVG Export Plug-In . SVG Version: 6.00 Build 0)  -->
<svg version="1.1" xmlns="http://www.w3.org/2000/svg" xmlns:xlink="http://www.w3.org/1999/xlink" x="0px" y="0px"
	 viewBox="0 0 959 1000" style="enable-background:new 0 0 959 1000;" xml:space="preserve">
<g id="Guide">
	<path id="XMLID_18_" d="M718.3,816.3c-36.8,0-72.6-13.6-97.4-38.4c-36.4-36.4-45.3-95.8-20.7-138.1l30.2,17.6
		c-16.6,28.5-10,70.6,15.2,95.7c24.6,24.6,64.3,34.2,101.2,24.5c34.5-9,66.2-34.1,87.2-68.7c18.8-31.1,29.3-69.1,31.3-113
		c2.1-45.4-6.3-82.2-24.9-109.5c-21.1-31-38.3-45.8-84.4-51.8c-3.4-0.4-13.9,0.1-24.5,1c-3.7,0.5-7.6,0.9-11.6,1.1L717,402
		c2.2-0.2,6.1-0.7,10.7-1.1c30.7-4.5,41.5-21.5,47.6-45.2c8-31.2,5.9-56.4-6.3-74.9c-17.1-26.1-50.6-34.9-69-37.8
		c-25.5-4-55,0.7-85.2,13.8c-23.2,10-46,25.9-67.7,47.1c-17.5,17.2-34.7,39.4-47.6,64.4c15.5,3.3,31.3,10.2,46.8,20.8
		c36,24.4,58.4,60.2,59.8,95.8c0.9,23-8.5,46.9-25,63.8c-14.4,14.8-32.8,22.7-51.7,22.4c-21.6-0.4-43.5-11.6-58.8-29.9
		c-12.1-14.5-20.4-33.4-24.7-56c-4.3-22.5-4.1-46.3,0.4-70.2c-9.9,7.7-20.2,18.5-30,31.6c-3.4,4.6-11.3,20.4-12.8,70.1
		c0.3,9.3,0.4,18.7,0.6,28.2c0.2,12.9,0.4,26.3,1,39.8l-34.9,2.2c-0.1-1.2-2.5-30.5-1.9-64.3c0-2,0.1-3.9,0.1-5.9
		c-1.5-43.6-6.5-82-32-114.9c-36.2-46.8-118-80.4-182-56.1c-36.4,13.9-75.5,51.2-91,86.9c-17.6,40.4-26,79.6-25.1,115.3
		c9.5-13.8,22.8-24.7,39.1-32c43.8-19.5,95.9-7.6,118.7,27.1c13.5,20.6,19.8,45.2,17.6,69.2c-2.2,25.2-13.6,47.9-32.1,64.1
		c-37,32.5-91.5,29.1-135.7-8.3l-0.7-0.6l-0.6-0.6c-0.9-0.9-22.1-23.3-33.8-65.5C4.3,577.1,1.9,551,4,523.7
		c2.5-33.5,11.7-68.8,27.4-105C50.5,374.6,97.1,330.1,142,313c36.6-13.9,80.3-13.9,123,0c39.9,13.1,76.1,37.6,99.1,67.3
		c11.1,14.3,19,29.1,24.7,44.4c14-18.5,40.3-47.8,71.7-56.2c13.8-32.4,35.2-63.4,62.1-89.7c24.8-24.3,51.1-42.5,78.3-54.3
		c36.3-15.7,72.5-21.3,104.6-16.2c24.1,3.8,68.3,15.8,92.8,53.2c17.8,27.1,21.5,61.8,10.9,102.8c-4.3,16.9-10.8,30.5-19.6,41.2
		c38.6,10.4,59,30.6,79.8,61.2c22.9,33.7,33.3,77.7,30.9,130.8c-2.3,49.8-14.5,93.4-36.3,129.5c-25.6,42.3-65,73.1-108.2,84.4
		C743.4,814.8,730.8,816.3,718.3,816.3z M69.7,642.1c30.6,25.5,65.5,28.6,89.1,8c23.8-20.9,27.4-58.6,8.2-87.7
		c-13.2-20.1-47.6-26.7-75.2-14.4c-29.5,13.2-41,42.5-31.6,80.6C64.6,636,68.4,640.6,69.7,642.1z M485.8,401.5
		c-7.7,24.6-10.5,50.8-5.5,77.2c3.2,16.7,9,30.2,17.2,40.2c8.8,10.6,21,17.1,32.5,17.3c9.2,0.2,18.5-4.1,26.1-11.9
		c9.8-10.1,15.6-24.6,15.1-38c-1-24.5-17.6-50-44.4-68.2C516.4,411,501.6,403.1,485.8,401.5z"/>
</g>
<g id="Layer_4">
</g>
</svg>
