<?xml version="1.0" encoding="utf-8"?>
<!-- Generator: Adobe Illustrator 19.0.0, SVG Export Plug-In . SVG Version: 6.00 Build 0)  -->
<svg version="1.1" xmlns="http://www.w3.org/2000/svg" xmlns:xlink="http://www.w3.org/1999/xlink" x="0px" y="0px"
	 viewBox="0 0 492 1000" style="enable-background:new 0 0 492 1000;" xml:space="preserve">
<g id="Guide">
</g>
<g id="Layer_4">
	<path id="XMLID_18_" d="M253.6,701H61.8c-24.3,0-46.4-15.2-55-37.9c-2.7-7.2-5.8-17.9-5-28c1.1-13.4,8.6-26,20.8-34.4
		c12.3-8.5,27.9-11.5,43-8.4l86.4,18c34.3,7.3,52,4.5,67.7-10.9c18.3-17.9,21.6-25.6,21.9-51.1c0.1-10.9-1.2-19.6-4.2-26.7
		c-5.5-13.4-18.7-23.6-33-25.6l-70,1.3l37.2-31.7c26.1-22.3,37.4-46.1,35.6-75.1c-0.9-15.1-6.4-29.1-15.4-39.3
		c-9.2-10.4-22.2-16.7-34.9-16.9c-6-0.1-12.2,1.1-18.5,3.6c-13.6,5.3-25.2,16-31.9,29c1.8-0.5,3.5-1,5-1.3
		c20.4-3.8,40.1,3.2,52.9,18.7c12.7,15.5,15.8,36.8,8.2,55.6c-6.7,16.5-22.1,28-41.1,30.6c-20.6,2.8-41.4-5-53-19.9
		c-18.9-24.4-17.1-60.1-9-85.4c8.6-27.2,29.7-49.6,56.3-59.9c10.5-4.1,21.1-6.1,31.6-5.9c22.4,0.3,45.1,11,60.7,28.8
		c14.1,16,22.6,37.4,24,60.3c1.7,28-5.3,52.9-21.4,75.5c21.8,6.7,40.3,23.1,49.1,44.3c4.8,11.5,7,24.8,6.8,40.5
		c-0.4,34.5-7.7,51.4-32.4,75.6c-19.2,18.8-40.4,24.8-61.9,24.8c-12.5,0-25.1-2-37.5-4.7l-86.3-18c-5.7-1.2-11.5-0.1-15.9,2.9
		c-2,1.4-5.5,4.4-5.8,8.3c-0.1,1.6,0.3,6.2,2.9,12.8C43,659.8,52,666,61.8,666h191.8c29.6,0,58.4-10.2,80.9-28.7
		c5.6-4.6,11.4-9.7,17.7-15.8c17.5-16.7,30.3-41.6,37.9-74c12.3-52.4,8.4-100.6-11.6-143.3c-15-32-34-48.9-34.2-49.1l22.9-26.4
		c1,0.8,23.9,20.9,42.1,58.9c16.6,34.7,32.6,91.9,14.8,167.9c-9.2,39.1-25.3,69.9-47.8,91.3c-7,6.6-13.4,12.4-19.7,17.5
		C327.9,688,291.3,701,253.6,701z M102.2,422.3c1.1,2.6,2.4,4.9,4,7c3.9,5,12.5,7.8,20.6,6.7c3.8-0.5,10.7-2.4,13.4-9.1
		c2.8-7,1.8-14.6-2.8-20.2c-4.6-5.6-11.6-8-19.3-6.5c-3.8,0.7-10.6,4.2-14.1,9.7C101.7,413.4,101.2,417.4,102.2,422.3z"/>
</g>
<g id="Layer_3">
</g>
</svg>
