<?xml version="1.0" encoding="utf-8"?>
<!-- Generator: Adobe Illustrator 19.0.0, SVG Export Plug-In . SVG Version: 6.00 Build 0)  -->
<svg version="1.1" xmlns="http://www.w3.org/2000/svg" xmlns:xlink="http://www.w3.org/1999/xlink" x="0px" y="0px"
	 viewBox="0 0 316 1000" style="enable-background:new 0 0 316 1000;" xml:space="preserve">
<g id="Guide">
</g>
<g id="Layer_4">
</g>
<g id="Layer_3">
	<path id="XMLID_18_" d="M129.9,699.5c-20.1,0-38-3.4-51.2-10c-31.5-15.7-52.8-36.3-63.2-61.2C4.5,601.8,1.7,570.7,0,543.6l34.9-2.2
		c1.6,24.3,4,52,12.9,73.5c7,16.9,22.7,31.5,46.4,43.3c25.7,12.7,87,5,105.8-13.4c22.2-21.7,24.2-40.8,24.4-65.5
		c0.2-21.7-13.4-57.1-26.5-69c-6-5.4-19-12.8-37.3-17c-6.1-1.4-26.7-0.9-42.4,0.3L114,459c1.7-0.3,3.4-0.6,5.1-0.9
		c20.8-3.5,37.2-6.3,52.1-17.6c17.4-13.1,28.8-31.1,31.4-49.5c2.7-19.1-4.9-38.6-19-48.5c-15.9-11.2-37.5-9.6-49-7.7
		c-26.5,4.5-51.9,18.6-69.7,38.7c-17.8,20.1-28.8,47-30.1,73.8l-35-1.7c1.7-35.2,15.5-69,38.8-95.4c23.3-26.3,55.3-44.1,90-50
		c28.9-4.9,55.6-0.1,75,13.5c24.9,17.5,38,49.7,33.5,82c-3.8,27-19.6,52.9-43.5,71.4c11,4.7,20.6,10.5,27.8,17
		c20.6,18.7,38.4,63.2,38,95.4c-0.3,28.6-3.3,59.2-35,90.1c-14.3,14-39.9,24.2-70.2,28.1C146,699,137.8,699.5,129.9,699.5z"/>
</g>
</svg>
