<?xml version="1.0" encoding="utf-8"?>
<!-- Generator: Adobe Illustrator 19.0.0, SVG Export Plug-In . SVG Version: 6.00 Build 0)  -->
<svg version="1.1" xmlns="http://www.w3.org/2000/svg" xmlns:xlink="http://www.w3.org/1999/xlink" x="0px" y="0px"
	 viewBox="-75 -104 626.1 1000" style="enable-background:new -75 -104 626.1 1000;" xml:space="preserve">
<g id="Layer_2">
</g>
<g id="Layer_1">
	<g id="Guide">
	</g>
	<g id="Layer_3">
		<path d="M141,595.1c-3,0-6-0.1-9-0.2c-54.6-2.5-95.8-21-122.5-54.9c-23.3-29.5-29.7-63.5-31-86.8c-2-36.3,31.5-70.7,63.5-90.8
			l0.1-0.1c1.6-1,3.2-2.6,5.2-4.4c2.1-2,4.5-4.3,7.5-6.3c16.7-11.8,17.9-24.9,13.9-32.6c-4.2-8.1-16.7-14.8-37.9-7.1
			c-9.7,3.5-17.6,8.8-22.4,12c-1.6,1.1-2.9,1.9-4.1,2.7l-20-28.6c3.9-3.2,7-5.7,9.5-7.8c8.9-7.3,9.6-7.8,15-13.6l0.3-0.3
			c3.3-3.4,5.7-6.4,7.3-9.3c5.5-9.9,3.3-24.3-5.1-31.9c-8.2-7.6-23-8.6-32.2-2.3c-4.5,3.1-8.7,8.2-12.5,15.1
			c-2.9,5.5-4.4,10-4.6,13.9c-0.1,3.2,1,5.7,2.1,6.7l-23.1,26.3c-9.3-8.1-14.5-21-13.9-34.3c0.4-9.3,3.2-18.9,8.8-29.2l0.1-0.1
			c6.5-11.8,14.4-21,23.4-27.2c22.8-15.6,55.3-13.4,75.6,5.3c17.4,16,23.7,42,16.5,64.3c23.1,1.1,40.1,13.6,48.3,29.3
			c6.4,12.3,7.7,26.8,3.4,40.6c-4.3,14.1-14.1,26.9-28.1,36.8c-0.9,0.6-2.2,1.9-3.6,3.2c-2.7,2.6-6.2,5.8-10.8,8.7
			c-24.2,15.2-48.1,40.4-47.1,59.2c2.1,38.6,20.6,104.1,120.2,108.7c60.9,2.9,107.5-30.4,138.6-98.9c22.2-48.4,24-97.9,5.4-147.1
			c-12.7-33.5-31.1-55.8-35-60.3c-0.6-0.6-1.1-1.2-1.6-1.8l26.5-22.9c0.1,0.1,0.4,0.4,0.8,0.9c3.4,3.1,22.3,14.1,56.8,14.7
			c31,0.6,82.3-7.4,150.4-48.4l18.1,30c-77.1,46.5-136.5,54.7-172.7,53.4c-7.5-0.3-14.5-1-21.1-2c3.5,6.9,6.9,14.5,10.1,22.7
			c15.6,40.4,27.2,103.6-5.7,175.5c-20.3,44.8-47.3,77.5-80,97.2C199.4,587.6,171.5,595.1,141,595.1z"/>
	</g>
</g>
</svg>
