<?xml version="1.0" encoding="utf-8"?>
<!-- Generator: Adobe Illustrator 19.0.0, SVG Export Plug-In . SVG Version: 6.00 Build 0)  -->
<svg version="1.1" id="Layer_1" xmlns="http://www.w3.org/2000/svg" xmlns:xlink="http://www.w3.org/1999/xlink" x="0px" y="0px"
	 viewBox="119 -104 850 1000" style="enable-background:new 119 -104 850 1000;" xml:space="preserve">
<style type="text/css">
	.st0{fill:none;stroke:#000000;stroke-width:35;stroke-miterlimit:10;}
</style>
<g id="Guide">
</g>
<g id="Layer_4">
	<path d="M299.8,595.6c-32.9,0-55.9-6.1-60.1-7.4c-66.5-15.8-117.7-79.2-119-147.7l35-0.7c1,52.2,41.7,102.5,92.5,114.4l1.1,0.3
		c0.5,0.2,58.2,16.9,124.7-6.5c28.1-9.8,48.6-26.4,56.1-45.4c10.1-25.3,7.5-46.5-7.9-64.6c-11.8-14-26.8-20.7-26.9-20.8l-1.1-0.5
		c-18.1-9.4-59.3-11.2-72.3-11l-55.1,0.6l44.7-32.3c30.6-22.1,45.6-51.1,41.2-79.6c-4.8-30.8-30.4-57.2-61-62.9
		c-30.6-5.7-64,9.8-79.5,36.7c-12.5,21.8-14.1,49.1-13.9,75.4l-35,0.2c-0.2-29.7,1.8-63.9,18.5-93c11-19.2,28.7-35.1,49.8-44.9
		c21.1-9.7,44.7-12.9,66.5-8.8c21.8,4,42.7,15.5,58.8,32.1c16.2,16.7,26.9,37.9,30.4,59.8c4.6,29.6-4.1,58.9-24.2,84.1
		c16.2,2,33.9,5.7,46.9,12.3c4.2,1.9,23.2,11.2,39.1,30c16.6,19.6,32.4,52.9,13.7,100.1c-15.4,39-54.9,57.8-77.1,65.6
		C353.9,592.2,324.1,595.6,299.8,595.6z"/>
	<path d="M724,561.7c-23.5,0-47.3-3.6-69.9-11l-1.2-0.4l-1.1-0.6c-1.7-0.9-3.7-1.8-5.8-2.8c-23-11-65.8-31.6-95-78.8
		c-17.9-29-26.2-55.9-33.6-79.7c-1.7-5.6-3.4-10.8-5.1-15.9l-0.3-0.9l-5.4-19.7l-142.6,4.3l-1-35l170.2-5.1l12.5,45.8
		c1.8,5.3,3.4,10.6,5.1,16.1c7.1,22.9,14.5,46.5,30,71.7c23.7,38.5,59.1,55.5,80.3,65.6c1.8,0.9,3.5,1.7,5,2.4
		c47.7,15.2,101.3,10.9,140-11.4c32.7-18.8,53.6-48.7,62.2-89c11.8-55.2,8.2-102-10.6-135.2c-13.8-24.5-30.7-33.2-31.5-33.5l0.2,0.1
		l15-31.6c2.6,1.2,26.2,13.1,45.3,45.2c11,18.5,18.2,40.2,21.5,64.3c4,29.2,2.1,62.2-5.6,98.1c-10.6,49.7-37.9,88.4-79,112
		C795,553.3,759.9,561.7,724,561.7z"/>
	<path id="XMLID_34_" class="st0" d="M720,345"/>
</g>
</svg>
