<?xml version="1.0" encoding="utf-8"?>
<!-- Generator: Adobe Illustrator 19.0.0, SVG Export Plug-In . SVG Version: 6.00 Build 0)  -->
<svg version="1.1" xmlns="http://www.w3.org/2000/svg" xmlns:xlink="http://www.w3.org/1999/xlink" x="0px" y="0px"
	 viewBox="0 0 597 1000" style="enable-background:new 0 0 597 1000;" xml:space="preserve">
<style type="text/css">
	.st0{fill:#010101;}
</style>
<g id="Guide">
</g>
<g id="Layer_3">
	<path id="XMLID_31_" class="st0" d="M408.4,700.1c-8.9,0-17.5-0.5-25.5-1.2c-13.1-1.1-28.6-2.8-44.1-7.6l-0.1,0
		c-31.9-10.1-60.5-33-80.4-64.4c-16.6-26.5-26.9-58.3-30.9-94.7l38.6-4.2c3.3,30.5,11.8,56.8,25.2,78.2
		c14.9,23.6,35.9,40.7,59.1,48.1c11.9,3.7,24.7,5.1,35.7,6c23.2,1.9,52.6,2.4,74.6-10.3c29.5-17.2,40.1-54.9,37.4-84.7
		c-1.2-13.3-4.5-23.4-10.2-30.9c-9.3-12.1-37.1-17.5-53.3-18.8c-2.2,0-4.5-0.2-6.7-0.4l2.5-38.7c0.9,0,2.8,0.1,5.4,0.3
		c21.2-0.2,42.7-19,47.1-42.2c4.7-24.3-7.1-52.7-29.3-70.6c-20.3-16.4-49.3-25.4-81.5-25.4c-0.3,0-0.7,0-1,0
		c-18.4,0.1-34.6,3-47.9,8.6c-35.3,14.9-59.6,51.1-83,86l-2.3,3.5c-6,9-12.4,20.2-19.2,32.1c-22.1,39-47.1,83.2-85.8,97.4
		c-28.5,10.5-59.4,8.6-84.6-5.3c-22.4-12.4-38.2-33-43.3-56.7C-1,477.1,1.4,401.5,1.7,392.9l38.8,1.3c-1.1,31.6-1.4,84.8,2.3,101.8
		c2.7,12.7,11.5,23.9,24.1,30.9c15.4,8.5,34.5,9.5,52.5,2.9c25.3-9.3,47.6-48.6,65.4-80.1c7.1-12.5,13.8-24.4,20.7-34.6l2.3-3.5
		c25.4-37.9,54.1-80.8,100.2-100.2c18.1-7.6,39.2-11.5,62.7-11.6c41.5-0.2,79.6,11.8,107.1,34c33.6,27.1,50.5,69.6,43.1,108.2
		c-3.5,18.2-13.3,35.8-27.3,49.1c9.6,4.8,18.4,11.1,24.9,19.5c10.4,13.4,16.3,30.2,18.2,51.1c2,23.2-1.8,47.5-10.8,68.3
		c-10,23.2-25.8,41.7-45.8,53.3C457.5,696.7,431.8,700.1,408.4,700.1z"/>
</g>
</svg>
