<?xml version="1.0" encoding="utf-8"?>
<!-- Generator: Adobe Illustrator 19.0.0, SVG Export Plug-In . SVG Version: 6.00 Build 0)  -->
<svg version="1.1" xmlns="http://www.w3.org/2000/svg" xmlns:xlink="http://www.w3.org/1999/xlink" x="0px" y="0px"
	 viewBox="0 0 364 1000" style="enable-background:new 0 0 364 1000;" xml:space="preserve">
<style type="text/css">
	.st0{fill:none;stroke:#FFFFFF;stroke-width:35;stroke-miterlimit:10;}
</style>
<g id="Guide">
</g>
<g id="Layer_4">
	<path id="XMLID_6_" class="st0" d="M297.9,445.7"/>
	<path id="XMLID_19_" d="M108.4,700.1c-28.4,0-54.7-10.6-72.2-29.2c-34.4-36.6-28-93-10.5-133.5c20.7-48.1,54.6-87.1,87.4-124.8
		l0.1-0.1l13.2-15c-2.7-0.4-5.4-0.9-8.1-1.5c-28.3-7.1-41.3-23.5-47.2-36c-0.1-0.3-0.2-0.5-0.4-0.8c-10.2,13.4-21,27.3-31.6,41
		c-3.7,4.8-7.4,9.5-10.9,14.1L0.5,392.8c3.6-4.6,7.2-9.3,11-14.1c21.5-27.6,43.6-56.2,60.2-79.7l30.1,17.6c-1.4,2.9-4.5,17,1,28.5
		c4,8.4,11.8,13.9,24,16.9c17.9,4.5,35.7-5.4,41.2-11.7l0,0l26.3,23.1c0,0,0,0,0,0l-54.8,62.2c-31,35.7-63,72.6-81.6,115.6
		c-12.5,29-19,71.4,3.8,95.7c10.8,11.4,28.2,18.2,46.8,18.2c0.2,0,0.4,0,0.5,0c17-0.1,35.6-5.5,55.3-15.9
		c72.7-38.6,116.2-128.6,101.4-209.5l34.4-6.3c8.6,46.6,1.3,97.2-20.6,142.3c-21.8,45.1-56.9,82.2-98.8,104.5
		c-24.7,13.1-48.8,19.8-71.5,20C108.9,700.1,108.7,700.1,108.4,700.1z"/>
</g>
</svg>
