<?xml version="1.0" encoding="utf-8"?>
<!-- Generator: Adobe Illustrator 19.0.0, SVG Export Plug-In . SVG Version: 6.00 Build 0)  -->
<svg version="1.1" xmlns="http://www.w3.org/2000/svg" xmlns:xlink="http://www.w3.org/1999/xlink" x="0px" y="0px"
	 viewBox="0 0 656.1 1000" style="enable-background:new 0 0 656.1 1000;" xml:space="preserve">
<g id="Guide">
</g>
<g id="Layer_4">
	<path id="XMLID_6_" d="M190,700c-11.9,0-23.7-1.1-35.1-3.4c-36.5-7.4-71.5-27-98.6-55.2c-27.1-28.2-45.3-64-51.2-100.8
		c-8.9-55.4,8.1-115.3,45.5-160c35.4-42.4,88.5-71.1,145.8-78.8c30.8-4.1,57.2-1,78.5,9.3c27.4,13.2,46,40.6,47.5,69.7v0
		c1,19.9-7.3,41.8-24.7,65.4c2.1,0.1,4.1,0.3,6.2,0.5c17.5,2.2,33.7,10.8,46.8,24.7c12,12.7,20.4,29.1,23.6,46.2
		c5.6,29.4-1.8,62.5-20.9,93.2c-19.7,31.6-50.3,57.5-86.2,73.1C242.5,694.5,216,700,190,700z M221.5,335.6c-6.4,0-13.3,0.5-20.5,1.4
		c-48.5,6.5-93.4,30.6-123.1,66.3c-30.9,37-44.9,86.2-37.7,131.6c9.8,61.2,61,114.5,121.7,126.7c60.7,12.2,128.6-17,161.3-69.7
		c14.4-23.1,20.1-47.1,16.2-67.7c-4.2-21.7-21.4-39.9-40-42.3c-19.2-2.5-39.6,9.5-60.6,23.1l-20.4-29.1c0.2-0.1,18.7-14.3,36.6-33.9
		c21.3-23.3,32.5-44.5,31.8-59.6v0c-0.8-16-11.8-31.9-27.4-39.4C248.9,338.1,236.2,335.6,221.5,335.6z"/>
	<path id="XMLID_19_" d="M261.9,490.8l-8.2-34.6c0.7-0.2,70-16.7,143.3-43.8c92.3-34.1,151.4-70.4,166.2-102.1l32.2,15.1
		c-11.2,24.1-35.8,46.9-75,69.9c-29.3,17.1-66.8,34.2-111.4,50.6C333.8,473.6,264.8,490.1,261.9,490.8z"/>
</g>
</svg>
