<?xml version="1.0" encoding="utf-8"?>
<!-- Generator: Adobe Illustrator 19.0.0, SVG Export Plug-In . SVG Version: 6.00 Build 0)  -->
<svg version="1.1" xmlns="http://www.w3.org/2000/svg" xmlns:xlink="http://www.w3.org/1999/xlink" x="0px" y="0px"
	 viewBox="0 0 543 1000" style="enable-background:new 0 0 543 1000;" xml:space="preserve">
<g id="Guide">
</g>
<g id="Layer_3">
	<path id="XMLID_6_" d="M144.9,700.7c-16.2,0-32.5-2.1-48.1-6.5c-21.6-6-51.8-19-73.3-46.5c-20.2-25.9-27.1-59.9-18-88.6
		c3.9-12.2,10.1-21.8,18.5-28.6c11.8-9.6,27.3-13.1,44.6-10.1c15.4,2.7,29.3,9.9,38.2,15.5c16.2,10.2,31.1,22,45.4,33.4
		c14.1,11.2,27.3,21.7,41.7,30.8c12.9,8.1,34.2,19.3,57.3,21.7c21.6-22.3,36.2-51.4,40.5-82.1c1.6-11.5,2.8-32-7.8-40.8
		c-19.8-16.4-56.7,4.4-58.6,5.5c-0.1,0-0.2,0.1-0.2,0.1l-18-29.6c0.1-0.1,0.2-0.1,0.5-0.3c23.3-14.1,40.3-35.2,46.5-57.9
		c6.5-24,0.2-50.5-15.7-66.1c-14.8-14.5-38.9-19.8-58.5-12.9c-19.6,6.9-35,26.1-37.4,46.7c-2.1,17.7,4,36.6,9.9,54.9l-32.9,10.6
		c-6.7-20.8-14.3-44.4-11.3-69.6c4-33.7,28.2-64,60.3-75.3c32-11.3,69.9-2.9,94.2,20.8c25,24.5,34.8,63.7,24.9,100
		c-3.1,11.3-8,22.3-14.5,32.5c11.3,1.3,22.8,5.3,33.1,13.9c17.7,14.7,24.6,39.7,20,72.3c-3.6,25.7-13.1,50.4-27,72.2
		c9.7-1.7,24.6-5.7,41.4-15.1c38.9-21.7,70.6-62.5,91.7-118.1c17.3-45.5,17.9-89.6,16.1-130.3l34.6-1.6c2,44.5,1.2,92.8-18.3,144.2
		c-13.5,35.6-30.9,65.9-51.8,90.2c-17,19.8-36.4,35.6-57.6,47.1c-30.3,16.4-56,19-64.8,19.4c-8.2,2.5-16.8,3.8-25.6,4.2
		c-6.1,5.3-12.5,10.2-19.3,14.6C215.6,690.5,180.2,700.7,144.9,700.7z M56.8,553.9c-4.3,0-8.1,1-11.1,3.4c-3,2.4-5.5,6.6-7.3,12.2
		c-5.7,18-1,39.7,12.3,56.8c12.2,15.7,31.9,27.9,55.3,34.5c36.2,10.1,76.1,5.5,109.2-12.1c-13.2-4.6-26.6-11.1-39.9-19.5
		c-15.9-10.1-30.6-21.7-44.8-33c-14.2-11.3-27.7-22-42.3-31.2C78.8,559.2,66.6,553.9,56.8,553.9z"/>
</g>
</svg>
