<?xml version="1.0" encoding="utf-8"?>
<!-- Generator: Adobe Illustrator 19.0.0, SVG Export Plug-In . SVG Version: 6.00 Build 0)  -->
<svg version="1.1" xmlns="http://www.w3.org/2000/svg" xmlns:xlink="http://www.w3.org/1999/xlink" x="0px" y="0px"
	 viewBox="0 0 785 1000" style="enable-background:new 0 0 785 1000;" xml:space="preserve">
<style type="text/css">
	.st0{fill:#020202;}
</style>
<g id="Guide">
</g>
<g id="Layer_3">
	<g id="Layer_3_1_">
		<path id="XMLID_31_" class="st0" d="M407.8,700.1c-8.9,0-17.5-0.5-25.5-1.2c-13.1-1.1-28.6-2.8-44.1-7.6l-0.1,0
			c-31.9-10.1-60.5-33-80.4-64.4c-16.6-26.5-26.9-58.3-30.9-94.7l38.6-4.2c3.3,30.5,11.8,56.8,25.2,78.2
			c14.9,23.6,36,40.7,59.2,48.1c11.9,3.7,24.7,5.1,35.7,6c23.2,1.9,52.6,2.4,74.6-10.3c29.5-17.2,40.1-54.9,37.4-84.7
			c-1.2-13.3-4.5-23.4-10.2-30.9c-9.3-12-37.3-17.5-53.6-18.8c-2.1,0-4.3-0.2-6.4-0.4l2.5-38.7c0.9,0,2.8,0.1,5.4,0.3
			c21.2-0.2,42.7-19,47.1-42.2c4.7-24.3-7.1-52.7-29.3-70.6c-20.6-16.6-49.9-25.6-82.5-25.4c-18.4,0.1-34.6,3-47.9,8.6
			c-35.3,14.9-59.6,51.1-83,86l-2.3,3.5c-6,9-12.4,20.2-19.1,32.1c-22.1,39-47.1,83.1-85.7,97.4c-28.6,10.5-59.4,8.6-84.7-5.3
			c-22.4-12.3-38.2-33-43.3-56.7C-1.5,477,0.9,401.4,1.2,392.9l38.8,1.3c-0.8,21.8-1.8,82.7,2.3,101.9c2.7,12.7,11.5,23.9,24.1,30.8
			c15.4,8.5,34.5,9.5,52.5,2.9c25.3-9.3,47.5-48.6,65.4-80.1c7.1-12.5,13.8-24.4,20.7-34.6l2.3-3.5c25.4-37.9,54.1-80.8,100.2-100.2
			c18.1-7.6,39.2-11.5,62.7-11.6c41.5-0.2,79.6,11.8,107.1,34c33.6,27.1,50.5,69.6,43.1,108.2c-3.5,18.2-13.3,35.8-27.3,49.1
			c9.6,4.8,18.4,11.1,24.9,19.5c10.4,13.5,16.3,30.2,18.2,51.1c2,23.2-1.8,47.5-10.8,68.3c-10,23.2-25.8,41.7-45.8,53.3
			C456.9,696.7,431.2,700.1,407.8,700.1z"/>
	</g>
	<path id="XMLID_45_" class="st0" d="M487,529.9c-1.8,0-3.6-0.1-5.4-0.2L484,491c24.8,1.6,68.2-15.8,122.2-49
		c44.1-27.1,83.6-57.9,91.4-66.1l28,26.9c-10.9,11.3-52.4,43.6-99.1,72.2C567.2,511.5,520.3,529.9,487,529.9z"/>
	<image style="overflow:visible;" width="1841" height="456" xlink:href="E5DC5A17.jpg"  transform="matrix(1 0 0 1 -7886 -7796)">
	</image>
</g>
</svg>
