<?xml version="1.0" encoding="utf-8"?>
<!-- Generator: Adobe Illustrator 19.0.0, SVG Export Plug-In . SVG Version: 6.00 Build 0)  -->
<svg version="1.1" xmlns="http://www.w3.org/2000/svg" xmlns:xlink="http://www.w3.org/1999/xlink" x="0px" y="0px"
	 viewBox="0 0 406 1000" style="enable-background:new 0 0 406 1000;" xml:space="preserve">
<g id="Guide">
</g>
<g id="Layer_2">
	<path id="XMLID_31_" d="M140.2,700.2c-17.6,0-35.9-1.6-54.7-4.9c-18.1-3.1-38.9-8-56.3-20.8c-20.6-15-32-39.1-29.2-61.3
		c3.4-26.3,22.9-44.9,38.7-55.8c31.3-21.6,81.4-48.6,129.8-74.6c30.2-16.3,58.8-31.6,79-43.8c11.2-6.7,24.2-21.5,27.2-36.6
		c1.7-8.7,0-16.5-5.3-23.6c-44.6-60.1-111.3-45-147-30.7c-24.9,10-49.1,25.5-66.4,42.6c-18.3,18.1-22.3,30.9-21.7,35.6l-34.7,4.3
		c-5.2-41.8,53-92.3,109.8-115c33.6-13.5,67.3-18.1,97.4-13.5c36.9,5.6,67.4,24.4,90.8,55.8c11.2,15.1,15.2,32.8,11.5,51.3
		c-5.6,28.2-26.9,49.9-43.5,59.8c-20.9,12.6-49.8,28.1-80.4,44.6c-45.4,24.4-96.8,52.1-126.5,72.6c-8.2,5.6-22.1,17.2-23.9,31.5
		c-1.2,9.6,4.8,21.1,15.1,28.6c11.6,8.5,27.6,12.1,41.7,14.5c70.8,12.2,129.2-0.9,173.7-38.9c33.5-28.7,46.5-61.7,46.6-62.1
		l32.7,12.4c-0.6,1.6-15.6,40.5-55.1,75.1c-23.3,20.3-50.3,35-80.3,43.6C187.5,697.1,164.5,700.2,140.2,700.2z"/>
</g>
</svg>
