<?xml version="1.0" encoding="utf-8"?>
<!-- Generator: Adobe Illustrator 19.0.0, SVG Export Plug-In . SVG Version: 6.00 Build 0)  -->
<svg version="1.1" xmlns="http://www.w3.org/2000/svg" xmlns:xlink="http://www.w3.org/1999/xlink" x="0px" y="0px"
	 viewBox="0 0 512.1 1000" style="enable-background:new 0 0 512.1 1000;" xml:space="preserve">
<g id="Guide">
</g>
<g id="Layer_4">
	<path id="XMLID_18_" d="M421.8,846.7c-26-54-42.4-178.1-51.4-269.3c-0.2,0.5-0.5,1.1-0.7,1.6c-12.1,25.8-28.1,48.5-47.6,67.3
		c-32.6,31.6-64.2,42-67.2,42.9c-59.3,18.8-121,17.8-173.7-2.7c-64.5-25.1-69.2-66-66.2-88.1c2.6-19.1,12.3-36.6,27.4-49.2
		c32-26.8,85.2-56.6,128-80.6c24.2-13.6,47.1-26.4,53.6-31.9l0.6-0.5c16.1-12.6,22.7-33.7,16.6-52.6c-6.5-19.9-23.3-34.2-50-42.5
		c-22.7-7.1-44-6.9-44.2-6.9c-39.9,0.8-77.2,19.4-97.4,48.6c-6.2,8.9-13.2,22.3-11.5,35.3c1.1,8.8,4.6,24.1,14.9,27.8l-12,32.9
		c-20.5-7.5-33.8-27.5-37.5-56.2C1,403.6,7,383,20.8,362.9c13.5-19.6,32.7-35.8,55.4-47c21.5-10.5,45.7-16.3,70.1-16.8
		c1.1,0,26.6-0.4,55.1,8.4c37.7,11.7,63,34.2,73,65.2c10.6,32.7-0.6,69.1-28,90.8c-8.8,7.4-27.3,17.9-59,35.6
		C146,522.4,94.4,551.3,64.9,576c-8.4,7.1-13.8,16.7-15.2,27.1c-2.8,21.2,12,38.3,44.2,50.8c44.6,17.4,99.5,18.1,150.4,1.9l0.2-0.1
		c0.2-0.1,26.9-8.6,54.4-35.9c36.9-36.6,58-87.9,62.6-152.5l34.9,0.2c0.2,2.8,17.2,281.5,56.8,363.9L421.8,846.7z"/>
</g>
</svg>
