<?xml version="1.0" encoding="utf-8"?>
<!-- Generator: Adobe Illustrator 19.0.0, SVG Export Plug-In . SVG Version: 6.00 Build 0)  -->
<svg version="1.1" xmlns="http://www.w3.org/2000/svg" xmlns:xlink="http://www.w3.org/1999/xlink" x="0px" y="0px"
	 viewBox="0 0 1000 1000" style="enable-background:new 0 0 1000 1000;" xml:space="preserve">
<g id="Guide">
</g>
<g id="Layer_3">
	<path id="XMLID_5_" d="M130.3,698.3c-17.1,0-33.5-1.7-48.6-5.2c-18.6-4.3-33.4-10.6-45.3-19.5C16,658.4,3.1,634.6,0.3,606.4
		c-2.6-25.6,3.6-52.5,17-73.9c28.3-45.2,79-66.1,116.6-75.7c23.5-6,47.5-9.4,70.6-12.7c19.4-2.8,37.6-5.4,55.8-9.4
		c14.4-3.2,32.1-8.3,40.8-19.6c6.4-8.4,6.1-18.4,4.8-25.3c-2.8-14.5-12.7-28.6-25.3-36.1c-22.6-13.4-50.4-17.6-87.4-13.1
		c-23.5,2.8-45,10.3-57.6,19.9c-10.5,8.1-18,24.4-12.1,35L90,414.6c-16.6-29.6-1.7-66.3,22.2-84.7c24.8-19,58.6-25.5,76.5-27.6
		c46-5.5,81.5,0.3,111.8,18.3c21.9,13,38.6,36.8,43.5,62c4,20.8-0.3,40.7-12.1,56.1c-16.3,21.3-42.4,29.3-63.2,33.9
		c-19.6,4.3-39.5,7.1-58.7,9.9c-23.1,3.3-45,6.4-66.5,11.9c-30.7,7.8-71.9,24.4-93.4,58.7c-16.7,26.7-16.9,70,9.4,89.6
		c7.5,5.6,17.6,9.7,30.9,12.8c64.6,14.9,156.7-11,209.7-58.8c49.9-45.1,98.2-95.6,92.8-174l38.5-4c7.7,54.8,50.4,155.8,108.1,161.7
		l1.5,0.2l1.4,0.4c0.1,0,23.1,5.7,51.3,0.7c36.5-6.5,65-27.4,84.8-61.9c18.8-32.8,25.6-75.2,20.8-129.7
		c-6.7-77.4-36.1-141.9-87.4-191.8c-38.6-37.5-75.9-52.4-76.2-52.5c-54.6-21.1-119.6-11.2-165.5,25.3l-24.1-30.3
		c56.4-44.8,136.3-57,203.5-31.1c1.7,0.7,43.8,17.1,87.9,59.5c25.8,24.8,47.2,53.5,63.5,85.4c20.3,39.6,32.7,84.1,36.8,132.1
		c5.4,62.6-3,112.4-25.8,152.2c-32.5,56.8-79.6,75.5-113.4,81.1c-31.8,5.3-57.9,0.3-64.6-1.2c-54.3-6.4-92.8-58.9-116-111.2
		c-19.4,48.6-56.5,85.7-92.2,117.9c-29.6,26.7-70.3,48.5-114.6,61.1C183.9,694.4,156.3,698.3,130.3,698.3z"/>
</g>
</svg>
