<?xml version="1.0" encoding="utf-8"?>
<!-- Generator: Adobe Illustrator 19.0.0, SVG Export Plug-In . SVG Version: 6.00 Build 0)  -->
<svg version="1.1" xmlns="http://www.w3.org/2000/svg" xmlns:xlink="http://www.w3.org/1999/xlink" x="0px" y="0px"
	 viewBox="0 0 830 1000" style="enable-background:new 0 0 830 1000;" xml:space="preserve">
<g id="Guide">
</g>
<g id="Layer_2">
	<path id="XMLID_18_" d="M574.8,701c-45.1,0-83.9-13.8-115.5-41.2c-36.7-31.8-57.5-76.6-69.1-115.9c-18.1,42.8-47.5,79.7-85.9,106.3
		c-59.6,41.3-138,57.8-215,45.3c-16.9-2.8-38.6-7.6-56.8-20.9c-20.7-15.1-32.2-39.3-29.3-61.6c2.7-21.2,16.7-41.2,39.2-56.2
		c23.5-15.7,58.3-34.9,95.2-55.2c44.1-24.3,89.7-49.4,116.1-68.8c18.5-13.6,26.9-40.2,18.6-59.3c-7.1-16.5-26.4-25.7-37.2-29.7
		c-24.1-9-52-11.5-82.8-7.6c-29.8,3.8-54.8,12.7-74.3,26.6c-21.8,15.5-36.4,37.5-40,60.4l-34.6-5.5c5.1-32.1,24.9-62.5,54.3-83.5
		c24.3-17.3,54.6-28.3,90.2-32.8c36.5-4.6,69.9-1.4,99.4,9.5c19.7,7.3,45.6,21.7,57.2,48.7c7.3,16.9,8,36.8,1.9,56
		c-5.8,18.4-17.2,34.5-32,45.4c-28.3,20.7-74.9,46.4-119.9,71.2C118.2,552.1,84,571,61.7,585.8c-13.8,9.2-22.5,20.7-23.9,31.6
		c-1.3,9.7,4.9,21.3,15.2,28.9c12.2,8.9,28.8,12.5,41.8,14.6C163,672,232,657.6,284.3,621.4c53.4-37,86.6-97.2,90.9-165.2l35,0.6
		c0,1.2,4.8,118.4,72.2,176.6c30,26,68.9,36.5,115.4,31.3c53.9-6,92.9-42.8,116-109.1c18.2-52.3,19.2-103.9,19.2-104.4l0-1.1
		c3.9-52,0.5-92.2-10.8-126.6c-13.8-42-40.8-75.2-74-91.1l15.1-31.6c41.8,20,75.3,60.8,92.1,111.7c12.8,38.7,16.7,83.1,12.5,139.6
		c-0.1,6.4-1.8,58.9-20.9,114c-27.5,79.6-77.8,125.6-145.5,133.2C592.5,700.5,583.5,701,574.8,701z"/>
</g>
</svg>
