<?xml version="1.0" encoding="utf-8"?>
<!-- Generator: Adobe Illustrator 19.0.0, SVG Export Plug-In . SVG Version: 6.00 Build 0)  -->
<svg version="1.1" id="Layer_1" xmlns="http://www.w3.org/2000/svg" xmlns:xlink="http://www.w3.org/1999/xlink" x="0px" y="0px"
	 viewBox="-49 -104 680 1000" style="enable-background:new -49 -104 680 1000;" xml:space="preserve">
<g id="Guide">
</g>
<g id="Layer_4">
	<path d="M387.8,898c-48.7,0-95.4-15.4-125.4-41.9l23.2-26.2c26.7,23.6,73.3,36.3,118.8,32.4c43.2-3.7,79.4-21.2,102-49.2
		c34.4-42.9,39.1-120,10.1-165.1c-1.3-2-12.9-19.6-32.9-35c-24.7-19.1-51.3-26.7-79-22.6c-8.2,1.2-15.7,3.5-22.6,6.7
		c3.7,22.2,7.4,42.7,10.8,59.6c0.3,1.3,0.5,2.7,0.8,4c3.5,16.9,7.8,37.9,5.6,58.2c-3.6,33.8-23.8,49.3-40.2,56.3
		c-21.9,9.4-43.8,6.4-60.2-8c-21.1-18.7-29-53.2-19.5-85.9c4.5-15.6,15.2-45.9,36.3-73.2c8.6-11.2,18-20.7,28.1-28.4
		c-5.7-35.7-11.4-73.9-16.3-107.9c-13.9,32.4-32.8,55.5-50,71.4c-33.3,30.7-66.9,41-71.5,42.3C146.6,604,85,603,32.3,582.5
		c-64.6-25-69.2-65.9-66.2-88.1c2.5-19,12.2-36.5,27.4-49.2c32-26.8,85.2-56.6,127.9-80.5c24.3-13.6,47.2-26.4,53.6-32l0.6-0.5
		c16-12.6,22.7-33.8,16.6-52.6c-16.2-49.5-93.4-49.4-94.1-49.4c-39.9,0.7-77.3,19.4-97.5,48.7c-6.2,8.9-13.1,22.3-11.4,35.2
		c1.4,10.7,5.1,24.3,14.9,27.9L-8,374.7c-14.4-5.3-32.7-19.4-37.5-56.1C-48,299.6-42,279-28.2,259c13.6-19.6,32.7-35.8,55.4-47
		c21.5-10.5,45.8-16.3,70.1-16.8c4,0,103.9-0.6,128.2,73.6c10.6,32.7-0.6,69.1-27.9,90.8c-8.8,7.4-27.3,17.9-59.1,35.7
		C97.1,418.4,45.4,447.3,16.1,472c-8.4,7.1-13.8,16.7-15.2,27.1c-2.9,21.2,12,38.3,44.2,50.8c44.7,17.4,99.5,18.1,150.5,1.9l0.8-0.2
		c0.2-0.1,29.7-8.4,58.5-35.5c38.4-36.1,57.8-87,57.9-151.5l34.9-2.2c0.2,1.5,13.9,106.3,28.6,199.2c7.5-2.7,15.3-4.7,23.3-5.8
		c88.2-12.9,140.7,64.5,146.4,73.4c17.4,27,26.3,64.4,24.4,102.6c-2,39.6-15,76.3-36.6,103.3c-28.6,35.6-73.4,57.7-126.3,62.2
		C400.8,897.7,394.3,898,387.8,898z M350.4,620.5c-22.6,24.6-33.7,57.1-37.6,70.4c-6.3,21.9-0.2,41.8,9.1,50
		c6.2,5.5,13.8,6.1,23.2,2.1c22.9-9.8,22.7-33.1,14.1-75.3c-0.3-1.4-0.6-2.8-0.8-4.1C355.8,650.8,353.1,636.3,350.4,620.5z"/>
</g>
</svg>
