<?xml version="1.0" encoding="utf-8"?>
<!-- Generator: Adobe Illustrator 19.0.0, SVG Export Plug-In . SVG Version: 6.00 Build 0)  -->
<svg version="1.1" xmlns="http://www.w3.org/2000/svg" xmlns:xlink="http://www.w3.org/1999/xlink" x="0px" y="0px"
	 viewBox="0 0 918.6 1000" style="enable-background:new 0 0 918.6 1000;" xml:space="preserve">
<g id="Guide">
</g>
<g id="Layer_3">
	<path id="XMLID_18_" d="M436.1,702.6c-18.6,0-37.7-3.1-56.3-9.3c-2.2-0.7-18.3-6.4-31.9-21.8c-12.8-14.5-25.8-40.4-14.8-81.3
		c1.1-4.9,5.4-18.2,21.6-38.6c22.7-28.3,59-58.1,107.7-88.5c13.5-8.4,28.5-18.9,38-33c15.6-23.1,9.6-59.6-13-78.1
		c-22.3-18.3-59.1-18.9-83.8-1.4c-21.7,15.3-34.7,40.7-47.7,74.2c-6.4,16.6-12.3,33.9-18.4,52.2c-18,53.5-36.7,108.8-72.7,151.6
		c-41.9,49.8-85.3,65.9-114.3,70.6c-36.6,5.9-72.2-2.5-97.8-23.1C9.8,641.6-6.2,589.6,6.3,525.6c8.1-41.3,25.9-77.1,35.9-94.7
		c0.2-0.3,0.3-0.6,0.4-0.8c-0.3,0.5-0.4,0.8-0.5,1l33,14.8c-0.4,0.9-0.7,1.5-1.4,2.7c-8.8,15.7-24.8,47.5-31.9,83.9
		c-9.9,50.6,1.4,89.4,33.5,115.3c36.4,29.3,105.5,24.4,161.8-42.6c31.6-37.5,49.1-89.5,66.1-139.8c6-17.9,12.2-36.3,19-53.7
		c13.2-34.2,29.8-68.8,60.5-90.6c18.2-12.9,41-19.8,64.2-19.5c23.7,0.3,46.3,8.3,63.5,22.4c17.7,14.5,29.6,35.6,33.5,59.4
		c4.1,24.3-0.8,48.1-13.6,67c-13.4,19.8-33.1,33.6-48.8,43.4c-100.2,62.6-113,103.4-113.1,103.7l-0.1,0.8l-0.2,0.8
		c-5.6,20.6-3.3,36.9,6.9,48.4c7.2,8.1,15.9,11.3,16,11.4l0.1,0c32.8,10.8,81.1,13.2,109.4-16c29.7-30.6,32.4-57.5,34.4-98.8l1-20.8
		l20.5,3.9c36.4,7,95.7,1.4,151.1-14.3c60-17,105.2-43.2,120.8-70.1l31.3,18.2c-28.2,48.4-101.2,75.1-142.2,86.7
		c-51.3,14.5-106.6,20.9-147.5,17.7c-3,37.9-11,69.3-43.4,102.7c-17.4,17.9-41.5,29.4-69.6,33.1
		C450.1,702.1,443.1,702.6,436.1,702.6z"/>
</g>
</svg>
