<?xml version="1.0" encoding="utf-8"?>
<!-- Generator: Adobe Illustrator 19.0.0, SVG Export Plug-In . SVG Version: 6.00 Build 0)  -->
<svg version="1.1" xmlns="http://www.w3.org/2000/svg" xmlns:xlink="http://www.w3.org/1999/xlink" x="0px" y="0px"
	 viewBox="0 0 598.8 1000" style="enable-background:new 0 0 598.8 1000;" xml:space="preserve">
<g id="Guide">
</g>
<g id="Layer_3">
	<path id="XMLID_18_" d="M307.3,700.4c-42.1,0-96.1-13.6-125.3-39.9c-34.4-30.9-51.6-77.2-44.9-120.9c3.8-24.5,14.4-46.4,24.8-67.5
		c11.5-23.7,22.5-46,22.1-69.2c-0.3-24.5-12.5-54.3-34.5-61.3c-31-9.9-56.2-9.1-75.1,2.4c-28.5,17.4-35,54.7-35,55.1l-0.2,1
		l-0.3,0.9c-3.2,11.7-1.4,25.7,4.8,36.4c3.2,5.5,8.9,12.6,18.3,15.1l-8.8,33.9c-16.4-4.3-30.5-15.4-39.7-31.4
		C2.8,436.2-0.4,413,5,392.5c1.4-7.9,11.4-53.9,50.8-78.2c28-17.3,63.1-19.3,104.4-6.1c39.7,12.7,58.4,57.8,58.8,94.2
		c0.4,31.5-12.9,58.7-25.7,85c-9.6,19.7-18.7,38.2-21.6,57.5c-4.9,31.6,8.3,66.8,33.7,89.5c24.8,22.3,79.3,33.7,114.6,30.4l0.7-0.1
		l0.7,0c0.3,0,31.2-0.7,67.3-14.3c46.9-17.8,80.3-48.3,99.2-90.7c7.2-16.2,12.6-30,15.1-44.2c12.3-68.9-9.6-146.2-54.6-192.4
		l25.1-24.4c52.5,53.8,78.2,143.4,63.9,222.9c-3.4,18.8-10.4,36.2-17.6,52.3c-22.7,51-64.2,88.9-120,109.7
		c-38.7,14.4-71.6,15.9-77.2,16.1C317.8,700.2,312.7,700.4,307.3,700.4z"/>
</g>
</svg>
