<?xml version="1.0" encoding="utf-8"?>
<!-- Generator: Adobe Illustrator 19.0.0, SVG Export Plug-In . SVG Version: 6.00 Build 0)  -->
<svg version="1.1" id="Layer_1" xmlns="http://www.w3.org/2000/svg" xmlns:xlink="http://www.w3.org/1999/xlink" x="0px" y="0px"
	 viewBox="-6 -104 748.9 1000" style="enable-background:new -6 -104 748.9 1000;" xml:space="preserve">
<g id="Guide">
</g>
<g id="Layer_3">
	<path d="M301.2,596.3c-42.1,0-96-13.6-125.2-39.9c-34.4-30.7-51.6-77-44.9-120.9c3.8-24.6,14.4-46.4,24.8-67.6
		c11.5-23.6,22.4-46,22.1-69.1c-0.3-24.4-12.5-54.3-34.6-61.4c-31-9.9-56.2-9.1-75.1,2.4c-28.5,17.4-34.9,54.7-35,55.1l-0.2,1
		l-0.3,0.9c-3.2,11.8-1.4,25.8,4.8,36.5c3.2,5.5,8.9,12.6,18.2,15l-8.8,33.9c-16.4-4.3-30.5-15.4-39.7-31.3
		C-3.3,332.3-6.4,309-1,288.4c1.4-7.9,11.4-53.9,50.8-78.2c28-17.3,63.1-19.3,104.4-6.1c39.8,12.8,58.4,57.8,58.9,94.2
		c0.4,31.5-12.9,58.6-25.7,84.9c-9.6,19.7-18.7,38.3-21.6,57.6c-4.9,31.8,8.4,66.9,33.7,89.5c24.9,22.4,79.4,33.8,114.7,30.4
		l0.7-0.1l0.7,0c0.3,0,31.2-0.7,67.3-14.3c46.9-17.8,80.3-48.3,99.3-90.7c6.2-13.9,12.4-28.8,15.2-44.1c9.8-55.5-9.4-124.1-52.8-189
		c-0.9-1.3-1.6-2.4-2.3-3.4c-0.6-0.9-1.1-1.6-1.5-2.2l0,0l28.8-19.9c0,0,0,0,0,0c1.1,1.7,2.3,3.3,3.4,5c44,63.9,79,73.7,100.7,70.6
		c18.4-2.6,36.3-17.1,50.4-40.7c25.3-42.5,31.3-103.3,14.7-147.9c-23.9-64.2-94-97.3-152.9-101.7l-0.5,0c-9.2-0.7-33.5-1.9-60.8,2.8
		C402-11,383.7-4.3,369.4,5.2c8.8-0.6,17.5,0.5,25.5,3.3c18,6.5,31.1,16.8,39,30.7c6.2,10.9,9.1,23.6,9.1,39.8
		c0,15.3-6.3,29.4-18.4,40.9c-15.5,14.8-39.6,23.7-61.5,22.6c-17-0.8-32.8-8.6-44.4-21.8c-9.7-10.9-15.9-24.8-17.1-38.1
		c-3.4-36.3,10.3-65.9,15.8-74.3c19.7-29.7,54.6-49.7,101-57.7c31.2-5.4,59-4,69.6-3.2l0.3,0c36.3,2.7,73.4,14.4,104.5,33
		c37.5,22.4,64.7,54,78.6,91.4c20.4,54.7,13.4,126.2-17.4,178c-19.6,32.9-46.4,53.3-75.5,57.4c-19.5,2.8-39.1-1-58.6-11.3
		c0.6,1.7,1.1,3.4,1.7,5.1c13.1,41.3,16.5,80.5,10.1,116.5c-3.4,19.1-10.9,37-17.6,52.2c-22.8,51-64.3,88.9-120.1,109.7
		c-38.7,14.4-71.6,16-77.2,16.1C311.8,596.1,306.6,596.3,301.2,596.3z M336,71.3c0,2.6,0.1,5.3,0.4,8.1c0.8,9.1,10.3,27.3,28.4,28.1
		c12.3,0.6,27-4.7,35.7-13c5-4.7,7.5-10,7.5-15.5c0-18.1-4.1-30-24.9-37.5c-8-2.9-18.8-1.4-28,3.9C349.2,48.7,339.2,56.5,336,71.3z"
		/>
</g>
</svg>
