<?xml version="1.0" encoding="utf-8"?>
<!-- Generator: Adobe Illustrator 19.0.0, SVG Export Plug-In . SVG Version: 6.00 Build 0)  -->
<svg version="1.1" xmlns="http://www.w3.org/2000/svg" xmlns:xlink="http://www.w3.org/1999/xlink" x="0px" y="0px"
	 viewBox="0 0 765 1000" style="enable-background:new 0 0 765 1000;" xml:space="preserve">
<g id="Guide">
</g>
<g id="Layer_4">
</g>
<g id="Layer_3">
	<g id="XMLID_3_">
		<path id="XMLID_5_" d="M473.1,413.1l-13.7-32.2l5.6-2.4c69.5-29.5,174.4-74.1,208.6-143.3l31.4,15.5
			c-17.9,36.2-51.2,68.8-101.7,99.4c-41.6,25.3-87.7,44.8-124.7,60.5L473.1,413.1z"/>
		<path id="XMLID_20_" d="M258.1,701.4c-30.6,0-62.1-2.9-92.1-14.2c-37.5-14.1-72.4-42-100.9-80.7c-23.3-31.6-40.2-63.3-50.3-94.4
			c-8.3-25.4-12-50.3-11.2-74.2C5,396.9,19.4,373.1,21,370.6l0.5-0.8c8.5-11.9,17.1-23.3,28.9-32.3c17.2-13.2,40.3-19,63.4-15.9
			c19.6,2.7,37.6,11.5,50.6,24.8c9.6-20.2,27.9-36.1,49.9-41.7c30-7.7,63.4,4.7,81.1,30.1c3,4.3,5.4,8.7,7.4,13.2
			c11.6-12.5,26-23,41.1-29.7c24.5-10.8,49.2-11.3,71.3-1.5c23.5,10.4,43.3,31.6,55.6,59.7c9.1,20.7,14,44.5,15.4,74.8
			c2.6,54.9-7.5,105.4-29,146.2c-12.2,23-28.8,43.9-48.1,60.3c-20.9,17.7-44,29.9-68.8,36.3c-19.5,5-39.2,6.1-56.2,6.8
			C275.5,701.2,266.8,701.4,258.1,701.4z M50.5,389.5c-1.5,2.6-11.4,21.3-12,52.1c-0.9,44.6,18.1,94.4,54.7,144.2
			c24.5,33.2,53.9,56.9,85.1,68.7c32.8,12.3,69.6,12.7,104.5,11.4c15.2-0.6,32.8-1.6,49-5.7c38.3-9.8,73.6-39.3,94.6-79
			c18.6-35.3,27.3-79.6,25-128.2c-1.2-25.9-5.2-45.7-12.5-62.4c-8.8-20.1-22.2-34.9-37.7-41.7c-16.3-7.2-32.5-3.2-43.1,1.5
			c-20.1,8.9-38.6,27.6-45.8,46.3l-2.6,56.2l-35-1.6l2.6-57.9c-1.1-17.3-4.5-29.6-10.7-38.5c-9.4-13.5-27.8-20.3-43.7-16.2
			c-15.8,4.1-28.6,18.7-30.5,35l-2.7,35.4c0.7,12.6-0.3,26-3.2,39.9L152,444l2.7-35.2c-0.9-11.6-4.2-23.8-11.9-33.9
			c-7.5-9.9-19.8-16.7-33.7-18.6c-13.9-1.9-27.6,1.4-37.4,8.9C63.9,371.2,57.5,379.8,50.5,389.5z"/>
	</g>
</g>
</svg>
