<?xml version="1.0" encoding="utf-8"?>
<!-- Generator: Adobe Illustrator 19.0.0, SVG Export Plug-In . SVG Version: 6.00 Build 0)  -->
<svg version="1.1" xmlns="http://www.w3.org/2000/svg" xmlns:xlink="http://www.w3.org/1999/xlink" x="0px" y="0px"
	 viewBox="0 0 773 1000" style="enable-background:new 0 0 773 1000;" xml:space="preserve">
<g id="Guide">
</g>
<g id="Layer_4">
</g>
<g id="Layer_3">
	<path id="XMLID_18_" d="M106.5,700.3c-7.3,0-14.6-0.7-21.8-2.1c-28-5.4-51.3-20.5-65.5-42.6C6.9,636.5,0.4,611.8,0.5,584.3
		c0-24.8,5.5-50.1,15.3-71.2l31.7,14.8c-14,30.1-18.4,78.5,1.1,108.9c20.1,31.3,65.7,35.5,94,19.7c36.4-20.3,64.3-74.1,82.1-112.9
		c11.8-25.7,20.2-52.4,29-80.6c5.1-16.4,10.4-33.3,16.4-49.9c21.7-60,51.4-95.2,90.9-107.7c0.9-0.3,1.8-0.5,2.6-0.8
		c30.6-8.8,63.7-1.9,88.5,18.5c25.1,20.7,38.5,52.3,35.8,84.6c-1.2,14.2-4.7,29.5-10.4,45.4c-8.4,23.5-20.6,45-32.3,65.8
		c-4.1,7.3-8.4,14.8-12.4,22.3c-11,20.6-25.4,51.3-22.9,81.5c0.3,2,3.3,18.6,19.7,30.2c18.4,12.9,48.1,15.5,85.9,7.4
		c65.7-14.1,123.6-64.4,141.7-105c52.6-118-17.7-186.7-18.4-187.4l24.1-25.4c0.9,0.9,23.3,22.4,37.5,61.3
		c12.9,35.4,21.4,92.9-11.1,165.7c-11.7,26.1-34.1,53-63.2,75.7c-31.4,24.5-67,41.5-103,49.2c-48.8,10.5-87.3,5.9-114.3-13.6
		c-29.7-21.5-33.4-53.1-33.5-54.5l0-0.3c-3.4-39.5,13.7-76.8,26.9-101.4c4.2-7.8,8.5-15.5,12.8-23c11.5-20.4,22.4-39.6,29.9-60.3
		c4.7-13,7.5-25.3,8.5-36.5c1.8-21.2-6.6-41.1-23.1-54.6c-16.1-13.3-36.8-17.6-56.7-11.9c-0.6,0.2-1.1,0.3-1.7,0.5
		c-28.4,9-50.8,37.2-68.5,86.3c-5.7,15.8-10.9,32.4-15.9,48.4c-8.8,28.1-17.9,57.1-30.6,84.8C235,605,204.6,662,159.7,687
		C144,695.7,125.4,700.3,106.5,700.3z"/>
</g>
</svg>
