<?xml version="1.0" encoding="utf-8"?>
<!-- Generator: Adobe Illustrator 19.0.0, SVG Export Plug-In . SVG Version: 6.00 Build 0)  -->
<svg version="1.1" id="Layer_1" xmlns="http://www.w3.org/2000/svg" xmlns:xlink="http://www.w3.org/1999/xlink" x="0px" y="0px"
	 viewBox="19 -104 975 1000" style="enable-background:new 19 -104 975 1000;" xml:space="preserve">
<g id="Guide">
</g>
<g id="Layer_3">
	<path d="M723.5,497.2c-36.4,0-70.4-9.5-99.4-27.9c-25.2-16-45.8-39.9-61.3-71c-10.4-21-18.6-45.3-24.3-72.4
		c-6.1,16.4-12.7,31.1-19.2,41.5c-71.1,113-118.2,117.7-172.8,123.3c-3.2,0.3-6.5,0.7-9.9,1c-42.1,4.6-108.2-9.1-141.6-39.2
		c-34.4-30.7-51.6-77-44.9-120.9c3.8-24.6,14.4-46.4,24.8-67.6c11.5-23.6,22.4-46,22.1-69.1c-0.3-24.4-12.5-54.3-34.6-61.4
		c-31.1-10-56.4-9.1-75.3,2.5c-28.2,17.4-34.7,54.5-34.8,54.9l-0.2,1l-0.3,1c-3.2,11.8-1.4,25.8,4.8,36.5c3.2,5.5,8.9,12.6,18.2,15
		l-8.8,33.9c-16.4-4.3-30.5-15.4-39.7-31.3C15.7,228.3,12.6,205,18,184.4c1.4-7.9,11.4-53.9,50.8-78.2c28-17.3,63.1-19.3,104.4-6.1
		c39.8,12.8,58.4,57.8,58.9,94.2c0.4,31.5-12.9,58.6-25.7,84.9c-9.6,19.7-18.7,38.3-21.6,57.6c-4.9,31.8,8.4,66.9,33.7,89.5
		c25.1,22.6,80.4,34.1,114.5,30.5c3.4-0.4,6.8-0.7,10.1-1c49.2-5,84.8-8.6,146.7-107.1c17.1-27.2,37-97.3,39.5-129.8
		c0.1-4.1,0.3-6.6,0.3-7l35,1.3c0,2-0.1,4.2-0.3,6.6c-0.9,29.6-0.6,169.8,78.6,220c67.2,42.6,150.3,16.5,186.9-9.9
		c22-15.9,59.7-65.4,66.8-130.4c6.8-62-15.3-122.2-65.6-178.7l26.1-23.3c30.2,33.9,51.6,69.9,63.8,106.9
		c10.6,32.4,14.1,65.6,10.5,98.9c-8.4,76.8-53.1,134.7-81.1,155c-26.1,18.9-63.5,32.8-99.9,37.3
		C741.3,496.6,732.3,497.2,723.5,497.2z"/>
</g>
</svg>
