<?xml version="1.0" encoding="utf-8"?>
<!-- Generator: Adobe Illustrator 19.0.0, SVG Export Plug-In . SVG Version: 6.00 Build 0)  -->
<svg version="1.1" id="Layer_1" xmlns="http://www.w3.org/2000/svg" xmlns:xlink="http://www.w3.org/1999/xlink" x="0px" y="0px"
	 viewBox="-6 -104 598.8 1000" style="enable-background:new -6 -104 598.8 1000;" xml:space="preserve">
<g id="Guide">
</g>
<g id="Layer_3">
	<path d="M301.2,596.3c-42.1,0-96-13.6-125.2-39.9c-34.4-30.7-51.6-77-44.9-120.9c3.8-24.6,14.4-46.4,24.8-67.6
		c11.5-23.6,22.4-46,22.1-69.1c-0.3-24.4-12.5-54.3-34.6-61.4c-31-9.9-56.2-9.1-75.1,2.4c-28.5,17.4-34.9,54.7-35,55.1l-0.2,1
		l-0.3,0.9c-3.2,11.8-1.4,25.8,4.8,36.5c3.2,5.5,8.9,12.6,18.2,15l-8.8,33.9c-16.4-4.3-30.5-15.4-39.7-31.3
		C-3.3,332.3-6.4,309-1,288.4c1.4-7.9,11.4-53.9,50.8-78.2c28-17.3,63.1-19.3,104.4-6.1c39.8,12.8,58.4,57.8,58.9,94.2
		c0.4,31.5-12.9,58.6-25.7,84.9c-9.6,19.7-18.7,38.3-21.6,57.6c-4.9,31.8,8.4,66.9,33.7,89.5c24.9,22.4,79.4,33.8,114.7,30.4
		l0.7-0.1l0.7,0c0.3,0,31.2-0.7,67.3-14.3c46.9-17.8,80.3-48.3,99.3-90.7c6.2-13.9,12.4-28.8,15.2-44.1c1.4-7.9,3.3-20.8,4-36.4
		c-10.3,1.4-31.8,3-55.4-2.1c-44.6-9.7-75.3-38.2-88.9-82.4c-15.1-49-0.7-72.7,14-83.9c29.6-22.6,77.9-8.6,93.1,1
		c32.7,20.8,54.8,52.6,65.6,94.7c8.8,34.1,9.5,74,2.2,115.3c-3.4,19.1-10.9,37-17.6,52.2c-22.8,51-64.3,88.9-120.1,109.7
		c-38.7,14.4-71.6,16-77.2,16.1C311.8,596.1,306.6,596.3,301.2,596.3z M411.6,229.6c-7.7,0-14.9,1.4-19.6,5
		c-11.2,8.6-5.9,32.4-1.8,45.8c9.8,31.9,31,51.6,62.9,58.5c23.6,5.1,45,1.4,47.2,1.1c-3.6-37.2-17.2-78.5-55.2-102.6
		C439.3,233.6,424.8,229.6,411.6,229.6z"/>
</g>
</svg>
