<?xml version="1.0" encoding="utf-8"?>
<!-- Generator: Adobe Illustrator 19.0.0, SVG Export Plug-In . SVG Version: 6.00 Build 0)  -->
<svg version="1.1" id="Layer_1" xmlns="http://www.w3.org/2000/svg" xmlns:xlink="http://www.w3.org/1999/xlink" x="0px" y="0px"
	 viewBox="19 -104 623 1000" style="enable-background:new 19 -104 623 1000;" xml:space="preserve">
<g id="Guide">
</g>
<g id="Layer_3">
	<path d="M528.2,680.8c-0.6-1.9-33-114.6-67.4-229.3c-11.1,6.7-22.9,12.6-35.4,17.8c-37.7,15.7-70.4,19.9-84.3,21.7
		c-1.6,0.2-2.9,0.4-3.8,0.5l-1,0.1c-5.1,0.5-10.5,0.7-16.1,0.7c-42.1,0-96-13.6-125.2-39.9c-34.4-30.7-51.6-77-44.9-120.9
		c3.8-24.6,14.4-46.4,24.8-67.6c11.5-23.6,22.4-46,22.1-69.1c-0.3-24.4-12.5-54.3-34.6-61.4c-31-9.9-56.2-9.1-75.1,2.4
		c-28.5,17.4-34.9,54.7-35,55.1l-0.2,1l-0.3,0.9c-3.2,11.8-1.4,25.8,4.8,36.5c3.2,5.5,8.9,12.6,18.2,15l-8.8,33.9
		c-16.4-4.3-30.5-15.4-39.7-31.3C15.7,228.3,12.6,205,18,184.4c1.4-7.9,11.4-53.9,50.8-78.2c28-17.3,63.1-19.3,104.4-6.1
		c39.8,12.8,58.4,57.8,58.9,94.2c0.4,31.5-12.9,58.6-25.7,84.9c-9.6,19.7-18.7,38.3-21.6,57.6c-4.9,31.8,8.4,66.9,33.7,89.5
		c24.8,22.3,78.9,33.7,114.2,30.5c1.1-0.2,2.4-0.3,4.1-0.5c44.4-5.7,82.4-18.9,113.7-39.4c-21-69.7-41.6-136.1-54.9-174.1
		c-10.5-30-12.7-58.9-6.4-83.4c6.4-25.1,21.1-44.7,42.4-56.6c31.8-17.7,67.1-7.7,77.2-4.3c42.6,14.7,61.5,52.6,65.2,65.9
		c5.2,19,28.1,118.5-35.3,213.4c-13.4,20-29.3,37.5-47.6,52.6c35.6,118.7,70.3,238.8,70.8,240.8L528.2,680.8z M472.9,127.6
		c-7.9,0-16.6,1.4-24.3,5.7c-28,15.6-35.6,53.1-20,98c12.6,36.1,31.6,97,51.4,162.3c11-10.5,20.9-22.3,29.6-35.2
		c54.9-82,35.3-167.9,30.7-184.5c-0.3-1-11.2-31.3-42.9-42.2C495.5,130.9,485.2,127.6,472.9,127.6z"/>
</g>
</svg>
