<?xml version="1.0" encoding="utf-8"?>
<!-- Generator: Adobe Illustrator 19.0.0, SVG Export Plug-In . SVG Version: 6.00 Build 0)  -->
<svg version="1.1" id="Layer_1" xmlns="http://www.w3.org/2000/svg" xmlns:xlink="http://www.w3.org/1999/xlink" x="0px" y="0px"
	 viewBox="-6 -104 740 1000" style="enable-background:new -6 -104 740 1000;" xml:space="preserve">
<g id="Guide">
</g>
<g id="Layer_3">
	<path d="M299.2,492.3c-42.1,0-96-13.6-125.2-39.9c-34.4-30.7-51.6-77-44.9-120.9c3.8-24.6,14.4-46.4,24.8-67.6
		c11.5-23.6,22.4-46,22.1-69.1c-0.3-24.4-12.5-54.3-34.6-61.4c-31-9.9-56.2-9.1-75.1,2.4c-28.5,17.4-34.9,54.7-35,55.1l-0.2,1
		l-0.3,0.9c-3.2,11.8-1.4,25.8,4.8,36.5c3.2,5.5,8.9,12.6,18.2,15l-8.8,33.9c-16.4-4.3-30.5-15.4-39.7-31.3
		C-5.3,228.3-8.4,205-3,184.4c1.4-7.9,11.4-53.9,50.8-78.2c28-17.3,63.1-19.3,104.4-6.1c39.8,12.8,58.4,57.8,58.9,94.2
		c0.4,31.5-12.9,58.6-25.7,84.9c-9.6,19.7-18.7,38.3-21.6,57.6c-4.9,31.8,8.4,66.9,33.7,89.5c24.9,22.4,79.4,33.8,114.7,30.4
		l0.7-0.1l0.7,0c0.3,0,31.2-0.7,67.3-14.3c46.9-17.8,80.3-48.3,99.3-90.7c6.7-15.1,10.7-24.3,15.3-44.8c3.6-16.3,8-36,11.2-56.3
		c-21.7,6.9-43.2,8.8-64.5,5.7c-39.2-5.8-58.1-28.4-67.1-46.4c-16.1-32.3-8-75.8,18.6-99c1.9-1.7,15-12.7,35.5-18.1
		c19.8-5.2,50.2-6.1,82.9,19.6c23.1,18.2,32.1,46.7,33.8,78.4c14-10.4,28.2-23.2,42.6-38.6c31-33.1,43.1-48.9,54.8-64.1
		c1.7-2.2,3.4-4.4,5.1-6.6l27.7,21.5c-1.7,2.2-3.3,4.3-5,6.5c-12.3,15.9-24.9,32.4-57,66.7c-23.2,24.8-46.5,44-69.7,57.5
		c-3,28.5-9.3,57-14.6,80.9c-5.3,24-10.4,35.5-17.5,51.4l0,0.1c-22.7,50.9-64.2,88.8-120.1,109.6c-38.7,14.4-71.6,16-77.2,16.1
		C309.8,492.1,304.6,492.3,299.2,492.3z M416.5,137.2c-14.7,12.8-19.4,38.8-10.3,57c7.8,15.5,21.1,24.5,40.9,27.4
		c20.6,3,41.8-0.4,63.6-10.2c1.3-30.6-3.1-58-20.5-71.7c-16.7-13.1-33.9-17.7-51.1-13.5c-13,3.1-21.8,10.2-22.5,10.9L416.5,137.2
		L416.5,137.2z"/>
</g>
</svg>
