<?xml version="1.0" encoding="utf-8"?>
<!-- Generator: Adobe Illustrator 19.0.0, SVG Export Plug-In . SVG Version: 6.00 Build 0)  -->
<svg version="1.1" xmlns="http://www.w3.org/2000/svg" xmlns:xlink="http://www.w3.org/1999/xlink" x="0px" y="0px"
	 viewBox="0 0 1117 1000" style="enable-background:new 0 0 1117 1000;" xml:space="preserve">
<g id="Guide">
</g>
<g id="Layer_3">
	<path id="XMLID_18_" d="M552.8,700.2c-50.9,0-88.3-18.7-89.9-19.6l-0.3-0.1c-18.9-10-34.6-26.6-45.4-47.8
		c-9.4-18.5-15-40.1-16.3-62.5c-2.1-39.9,3.9-73.1,10.8-111.5l0.1-0.5c2.4-13,2.9-25.5,1.5-37.3c-1.2-10.1-5.4-17-13.5-21.5
		c-6.5-3.7-13.1-4.5-13.9-4.6l-1.6-0.1l-1.3-0.4c-23.8-5.8-48.3,12.7-61,32.3c-11.7,18-18.2,39.2-25,61.7
		c-2.3,7.5-4.7,15.3-7.3,22.9c-16.6,49.1-40.7,87.2-71.6,113.2c-27.2,22.9-63.2,35.1-101.7,35.1c-9.8,0-19.8-0.8-29.8-2.4
		c-25.7-4.1-46.9-17.3-61.3-38C0.7,583.7-0.4,532.6,6.8,496.6l34.3,6.9c-5.5,27.6-5.5,69.2,12.9,95.7c9.1,13.1,21.6,20.8,38.1,23.4
		c39.4,6.3,77.1-2.8,103.4-24.9c25.9-21.8,46.5-54.6,61-97.6c2.4-7.2,4.7-14.7,6.9-21.9c7.3-23.8,14.8-48.4,29.1-70.5
		c19.6-30.3,57.2-56.5,97.2-47.6c19,1.8,53.6,15.6,58.3,56.9c1.7,15.2,1.1,31.1-1.8,47.5l-0.1,0.5c-6.6,36.3-12.2,67.6-10.3,103.4
		c1.6,29,13.7,65.5,43,81.2c1.8,0.9,35.1,16.8,78.4,15.6c58.3-1.5,107.5-32,146.1-90.7c26.3-39.9,33.6-75.4,37.7-107.9
		c0.9-7.2,1.2-14.7,0.9-22.5c-36.2,16.3-75.3,26.1-115.1,28.2c-16.7,0.9-38.5,0.8-59.4-7.4l-0.6-0.3c-18.1-7.3-32.2-22.1-38.6-40.6
		c-6.6-18.9-4.7-39.7,5.3-57.2c13.8-24.3,37-42.8,68.9-55c41.1-15.7,76.2-17.2,104.2-4.3c35.7,16.3,53.2,52.3,61.7,82.1
		c18.6-12.3,35.7-26.7,51-43.1c5.2-5.5,127.6-134.6,238.5-87.6l-13.6,32.2c-88.4-37.4-198.2,78.1-199.3,79.3
		c-20.3,21.8-43.7,40.6-69.2,55.9c1.8,15.5,1.9,30.4,0.1,44.5c-4.6,36.7-13,76.9-43.2,122.8c-56.9,86.4-127.2,105.6-176.1,106.5
		C555.2,700.1,554,700.2,552.8,700.2z M664.5,333.9c-14.4,0-31,3.6-49.6,10.7c-24.1,9.2-41.3,22.5-50.9,39.6
		c-4.9,8.7-5.9,19-2.6,28.4c3.2,9.1,9.8,16.1,18.6,19.6l0.4,0.1c11.4,4.5,25.2,6,44.7,5c38.9-2.1,77.1-12.3,111.8-29.5
		c-0.2-0.9-0.4-1.7-0.6-2.6c-4.8-19.2-17-53.3-44.2-65.7C684.1,335.7,674.9,333.9,664.5,333.9z"/>
</g>
</svg>
