<?xml version="1.0" encoding="utf-8"?>
<!-- Generator: Adobe Illustrator 19.0.0, SVG Export Plug-In . SVG Version: 6.00 Build 0)  -->
<svg version="1.1" xmlns="http://www.w3.org/2000/svg" xmlns:xlink="http://www.w3.org/1999/xlink" x="0px" y="0px"
	 viewBox="0 0 471 1000" style="enable-background:new 0 0 471 1000;" xml:space="preserve">
<g id="Guide">
</g>
<g id="Layer_3">
	<path id="XMLID_18_" d="M188.7,699.5c-22.3,0-44.6-3.3-66.2-9.9c-9.4-2.9-18.7-6.3-27.7-10.3c-33.5-14.7-62.5-38.7-83.8-69.6
		l-0.2-0.2c-12-17.3-13.6-39.7-4.2-58.6c9.4-18.9,27.5-30.8,48.5-31.7c0.8,0,1.6-0.1,2.4-0.1c4.4-0.1,8.9-0.2,13.3-0.3
		c6.7-0.2,13.5-0.4,20.4-0.4c-15.5-8.3-56.5-40.2-63.5-89.1c-2.5-17.5-1.1-44.6,19.8-74.6l0.1-0.1c22.2-31.8,54.3-41.7,68-45.9
		c14.5-4.5,58.5-18,102.9,6.9c13.8,7.7,38.9,25.6,51.7,58.2c12.8,32.8,6.6,63.5-0.8,83.5c-5.4,14.5-13.6,27.9-24.3,39.6l-0.5,0.6
		l-5.1,5.1c-24.7,24.7-55.5,41.1-88.9,47.3c-15.9,3-32.6,4.2-49.7,3.6c-9.5-0.3-19,0-29,0.3c-4.5,0.1-9.1,0.3-13.7,0.4
		c-0.5,0-1,0-1.4,0c-11.6,0.5-17,8.8-18.7,12.3c-3.8,7.6-3.2,16.2,1.6,23.2l0.2,0.2c17.6,25.5,41.5,45.4,69.1,57.4
		c7.7,3.4,15.8,6.4,23.9,8.8c69.3,21.2,145.6,0.9,194.3-51.6c50.3-54.2,61.3-123.5,32.7-205.9c-5.4-15.5-23.5-43.8-48.5-75.8
		l27.6-21.5c16.3,20.8,44.9,59.6,54,85.9c41.3,119.1,1,196.9-40.1,241.2c-28.6,30.8-65.4,52.8-106.3,63.7
		C227.5,697,208.1,699.5,188.7,699.5z M161.7,336c-15.8,0-28.9,4.1-35.7,6.1c-12,3.7-34.3,10.6-49.6,32.5l-0.1,0.1
		c-14.4,20.6-15.5,38.3-13.9,49.6c5,35.1,37.1,58.8,45.5,63.2c33.8,18,70.1,13.2,79.7,11.5c9.8-5.8,18.9-12.9,27.2-21.2l4.8-4.8
		c7.6-8.4,13.3-17.7,17.1-27.9c5.3-14.3,9.8-36.1,1-58.6c-8.8-22.5-26.4-35-36.2-40.4C187.8,338.4,173.9,336,161.7,336z"/>
</g>
</svg>
