<?xml version="1.0" encoding="utf-8"?>
<!-- Generator: Adobe Illustrator 19.0.0, SVG Export Plug-In . SVG Version: 6.00 Build 0)  -->
<svg version="1.1" xmlns="http://www.w3.org/2000/svg" xmlns:xlink="http://www.w3.org/1999/xlink" x="0px" y="0px"
	 viewBox="0 0 530.9 1000" style="enable-background:new 0 0 530.9 1000;" xml:space="preserve">
<g id="Guide">
</g>
<g id="Layer_3">
	<path id="XMLID_18_" d="M218.7,698.7c-13.8,0-27.4-1.4-40.6-4.3c-53.7-11.6-99.5-42.7-132.6-89.7C22.6,572,13.3,542.2,11.7,537
		C-7,485.2,0.5,424.9,31.3,379.3c30.9-45.8,84.4-75.4,139.6-77.2c21.7-0.7,38,3.9,49.9,14.2c11.8,10.2,18.1,25.2,17.6,42.3
		c-0.4,15-6.2,30-15.8,41.2c-19.3,22.5-48.1,29.9-68.1,33.5c-42.4,7.6-78.5,7.1-110.4-1.6c-10.2,30.2-10.2,63.8,0.7,93.8l0.2,0.7
		l0.2,0.7c0.1,0.2,8,28.2,29.6,58.6c28.2,39.7,65.4,64.8,110.6,74.6c94.1,20.4,189.8-48.7,227.9-127.3
		c15.4-31.7,21.8-64.3,18.6-94.2c-4.6-42.7-30.5-82.8-67.4-104.7l17.8-30.1c46.2,27.4,78.6,77.6,84.4,131.1
		c4,36.4-3.6,75.6-21.9,113.2c-23.4,48.3-62.6,90.1-110.3,117.7C297.4,687.5,257.3,698.7,218.7,698.7z M59.8,399.6
		c25.3,5.7,54.3,5.5,88.5-0.7c23.4-4.2,38.5-11.2,47.7-21.8c8-9.4,10.7-26.8,1.9-34.3c-4.9-4.2-13.6-6.1-25.9-5.7
		c-44.2,1.5-87,25.1-111.7,61.8C60.1,399.1,60,399.3,59.8,399.6z"/>
</g>
</svg>
