<?xml version="1.0" encoding="utf-8"?>
<!-- Generator: Adobe Illustrator 19.0.0, SVG Export Plug-In . SVG Version: 6.00 Build 0)  -->
<svg version="1.1" xmlns="http://www.w3.org/2000/svg" xmlns:xlink="http://www.w3.org/1999/xlink" x="0px" y="0px"
	 viewBox="0 0 736 1000" style="enable-background:new 0 0 736 1000;" xml:space="preserve">
<style type="text/css">
	.st0{fill:none;stroke:#FFFFFF;stroke-width:1.0357;stroke-miterlimit:10;}
</style>
<g id="Guide">
</g>
<g id="Layer_4">
	<path id="XMLID_6_" class="st0" d="M361.1,451.7"/>
</g>
<g id="Layer_3">
	<path id="XMLID_19_" d="M97.4,699.7c-32.7,0-63.5-14.8-80.5-40.2c-15.3-23-19.7-53.1-13.2-92c6.9-41.7,22.4-82.7,45-118.5
		l30.7,19.3c-20,31.7-33.8,68-39.9,105c-4.9,29.4-2.4,51,7.6,66c13,19.6,41.9,28.7,68.6,21.7c27.1-7.1,52.5-44.8,66.2-65.1
		c15.6-23.2,26.2-49.4,37.4-77.2c1.2-2.9,2.4-5.9,3.6-8.8c18.2-44.8,41.1-97,73.2-144.7c9.3-13.8,19.9-28,34.9-38.6l0.6-0.5
		c23.3-16.4,51.5-25.8,79.2-26.2c30.3-0.5,58.1,9.7,78.4,28.9c11.5,10.8,21.8,22.8,30.4,36c21.2,32.1,41.6,71.6,32.1,120.4
		c-3.3,16.9-10,32.6-19.5,45.4c-11.4,15.4-26.2,25.5-42.8,29.4c-21.1,4.9-44.7-0.6-66.3-15.4c-14.2-9.7-25.6-21.7-36.6-33.4
		c-2.1-2.2-4.2-4.4-6.3-6.6c-5.2-5.4-9.9-8.2-15.7-9.4c-5.6-1.1-12.5,5.4-14.6,7.7c-14.4,20.6-19.1,46.5-12.9,71.1
		c6.4,25.4,23.6,46.7,47.1,58.3l28.6,14.1c67.5,33.4,148.5,13.3,192.4-47.8l1-1.4c59.3-82.8,25.1-223.7,24.8-225.2l35.2-8.8
		c1.6,6.4,38.5,158.7-30.5,255l-1,1.4c-26.2,36.4-64.6,62.4-108.1,73.2c-43.5,10.8-89.6,5.8-129.8-14L367.9,665
		c-33-16.3-57.2-46.2-66.2-82c-8.9-35.2-2-72.2,18.9-101.6l0.6-0.7c2.2-2.7,22-26.6,50.3-20.9c13,2.6,24.4,9.1,34.7,19.8
		c2.2,2.3,4.4,4.6,6.6,6.9c10.2,10.7,19.8,20.9,30.8,28.4c13,8.9,26.8,12.5,37.8,10c18.7-4.3,31-26.4,34.9-46.4
		c5.7-29-2.1-56.1-26.8-93.5c-7.1-10.7-15.5-20.7-25-29.5l-0.1-0.1c-30.8-29.1-80.7-21.4-111.9,0.6l-0.6,0.4
		c-10.2,7.2-18.4,18.4-25.8,29.3c-30.3,44.9-52.2,95-69.7,138.1c-1.2,2.9-2.4,5.8-3.5,8.7c-11.4,28.3-23.1,57.5-40.9,83.9
		c-16.3,24.2-46.7,69.4-87.1,79.9C115.8,698.6,106.5,699.7,97.4,699.7z"/>
</g>
</svg>
