<?xml version="1.0" encoding="utf-8"?>
<!-- Generator: Adobe Illustrator 19.0.0, SVG Export Plug-In . SVG Version: 6.00 Build 0)  -->
<svg version="1.1" xmlns="http://www.w3.org/2000/svg" xmlns:xlink="http://www.w3.org/1999/xlink" x="0px" y="0px"
	 viewBox="0 0 493 1000" style="enable-background:new 0 0 493 1000;" xml:space="preserve">
<style type="text/css">
	.st0{fill:none;stroke:#FFFFFF;stroke-width:35;stroke-miterlimit:10;}
</style>
<g id="Guide">
</g>
<g id="Layer_4">
</g>
<g id="Layer_3">
	<g id="XMLID_3_">
		<path id="XMLID_6_" class="st0" d="M318.1,459.6"/>
		<path id="XMLID_9_" d="M199.1,698.5c-20.3,0-40.6-5.1-59.2-14.9c-21.4-11.3-38.9-27.9-50.8-48.1C76.9,614.7,72,579.1,74.4,529.4
			c1.7-35.4,6.5-65,6.7-66.3l3.3-20.3l19.5,6.5c28.7,9.5,82.9,21,106.3,11.1c9.3-3.9,16.9-8.6,22.4-14c15.2-14.7,20.3-40,12.5-61.5
			c-7.7-20.9-27-38.4-50.5-45.7c-13.3-4.1-27.9-5.4-43.5-3.7c-34.9,3.8-68.2,22.8-89.3,50.9s-29.9,65.4-23.8,100l-34.5,6.1
			c-7.8-43.9,3.5-91.4,30.2-127.1c26.7-35.7,69.1-59.9,113.5-64.7c20.3-2.2,39.7-0.5,57.7,5.1c34.2,10.6,61.4,35.7,72.9,67.1
			c12.7,34.7,4.3,74.4-21,98.7c-8.8,8.5-19.7,15.4-33.1,21.1c-11.2,4.7-24.8,6.5-39,6.5c-25.9,0-53.6-5.9-71.9-10.8
			c-5.3,44.2-7.3,105.9,6.4,129.3c17.5,29.8,52.2,48.1,86.4,45.5c33.4-2.6,67.2-21.6,92.6-52.3l34.9-42.6l27.1,22.2l-34.9,42.7
			c-31.5,38-74.1,61.7-116.9,65C205.3,698.4,202.2,698.5,199.1,698.5z"/>
		<path id="XMLID_10_" d="M277,840c-0.1,0-0.3,0-0.4,0c-31.4-0.2-52.8-29.6-54.5-56.6c-1.4-21.4,6.8-44,24.3-66.9
			c20.5-26.9,47.6-48.4,78.4-62.4l23.8-15.4l9.6,14.4c19.7,29.6,20.6,71.2,2.5,111.2c-8.4,18.7-19.9,35.6-34.1,50.4
			C310.2,831.7,294,840,277,840z M335.9,687.5c-24.2,11.6-45.4,28.8-61.6,50.2c-12.2,16.1-18,30.7-17.2,43.5
			c0.8,12.2,10.4,23.8,19.8,23.9c7,0,15.1-4.8,24.4-14.5c11.4-11.9,20.7-25.6,27.5-40.6C336.8,732,341.8,708,335.9,687.5z"/>
		<path id="XMLID_11_" d="M292.6,912.5c-6.8,0-13.7-1.1-20.5-3.7l12.5-32.7c11,4.2,26.1-2,38.1-7.9c18.4-9.1,31.1-17.3,41.3-26.7
			c24.7-22.8,37.5-59.1,32.7-92.4c-4.8-33.3-27.4-64.4-57.5-79.3l15.5-31.4c40.7,20.2,70.1,60.7,76.6,105.7
			c6.5,45-10.2,92.2-43.6,123c-12.7,11.8-28,21.8-49.5,32.4C325.1,906,309.2,912.5,292.6,912.5z"/>
		<rect id="XMLID_36_" x="330.3" y="422.1" width="35" height="228.1"/>
	</g>
</g>
</svg>
