<?xml version="1.0" encoding="utf-8"?>
<!-- Generator: Adobe Illustrator 19.0.0, SVG Export Plug-In . SVG Version: 6.00 Build 0)  -->
<svg version="1.1" xmlns="http://www.w3.org/2000/svg" xmlns:xlink="http://www.w3.org/1999/xlink" x="0px" y="0px"
	 viewBox="0 0 809.1 1000" style="enable-background:new 0 0 809.1 1000;" xml:space="preserve">
<g id="Guide">
</g>
<g id="Layer_3">
	<path id="XMLID_18_" d="M195.3,695.8c-43.3,0-83.7-16.5-118.8-48.9c-32.4-29.9-49.2-63.3-51.4-68.1c-2.6-4.9-20.9-40.7-24.3-87.1
		c-3.3-46.2,7.9-111.7,80.4-161.3c30.4-20.8,58.4-30.1,85.7-28.5c35.5,2.1,67,23.9,78.4,54.1c6.6,17.6,5.6,38-2.8,55.8
		c-7.7,16.2-20.6,28.1-36.3,33.4c-14.5,4.9-30.9,5-50.3,0.4c-45.2-10.8-62.3-38.9-64.1-42.1l30.4-17.3L122,386
		c0.5,0.7,11.5,18.3,42,25.6c12.8,3.1,22.9,3.2,30.9,0.5c6.6-2.2,12.3-7.7,15.9-15.2c4.3-9.1,5-19.8,1.7-28.5
		c-6.5-17.3-26.1-30.2-47.7-31.5c-19.2-1.1-40.1,6.2-63.8,22.5c-46.8,32.1-68.8,75.4-65.3,128.8c2.7,41.5,20.2,74.1,20.4,74.4l0.5,1
		c0.1,0.3,15.1,31.5,44.5,58.4c37.8,34.5,81.2,46.1,129,34.6c15.6-3.8,27.8-8.7,37.5-15.2c7.8-5.2,15.3-12.5,22.8-22.3
		c33-42.6,43.1-97.3,53.7-155.1c2.6-13.9,5.2-28.2,8.2-42.2c3.7-17.6,8.6-37.8,19.8-55.9c13.3-21.5,33.4-35.4,55-38
		c16.8-2.1,33.7,2.6,48.9,13.6c13.1,9.5,23.9,23.1,30.4,38.4c7,16.3,9.6,33.3,10.5,50c48.3-34.4,148.5-99,229.8-105.2l2.7,34.9
		c-98.5,7.5-237.7,117.7-239.1,118.9l-29.5,23.5l1.1-37.7c0.7-24.3,1.4-49.5-7.6-70.7c-7.1-16.7-24.5-33.2-42.8-30.9
		c-10.9,1.4-22,9.5-29.6,21.8c-8.2,13.3-12.2,30-15.3,44.7c-2.9,13.5-5.5,27.6-8,41.3c-10.9,59.4-22.2,120.9-60.5,170.2
		c-9.9,12.7-20,22.5-30.9,29.9c-13.1,8.8-29.1,15.4-48.8,20.2C223.7,694.1,209.4,695.8,195.3,695.8z"/>
</g>
</svg>
