<?xml version="1.0" encoding="utf-8"?>
<!-- Generator: Adobe Illustrator 19.0.0, SVG Export Plug-In . SVG Version: 6.00 Build 0)  -->
<svg version="1.1" id="Layer_1" xmlns="http://www.w3.org/2000/svg" xmlns:xlink="http://www.w3.org/1999/xlink" x="0px" y="0px"
	 viewBox="-18 -104 573.6 1000" style="enable-background:new -18 -104 573.6 1000;" xml:space="preserve">
<g id="Guide">
</g>
<g id="Layer_4">
</g>
<g id="Layer_3">
	<path d="M179.8,595.3c-41.3,0-80.6-13.7-115.7-40.6c-37-28.5-56.2-61.8-57-63.2l-0.6-1.1C-22.1,430.1-24,360.5,1.5,304.1
		c13.4-29.6,34.5-55.4,61.2-74.8c27.5-20,58.9-31.6,90.8-33.4c31.5-1.8,58.5,6.8,76.1,24.4c17.1,17,26,42.9,25.9,75.1
		c-0.1,36.4-12.6,64.7-34.9,79.8c-17.6,11.8-41.3,15.2-68.7,9.6c-31.5-6.4-61.6-22.3-84.8-44.7l24.3-25.2
		c18.4,17.8,42.4,30.4,67.4,35.5c12.5,2.5,30,3.8,42.2-4.4c17.4-11.7,19.4-39.5,19.5-50.9c0.1-15.8-2.6-37.2-15.5-50.1
		c-14.1-14.1-37.1-15-49.5-14.2c-50.6,2.9-99.7,38.2-122.1,87.7c-21.2,46.9-19.5,105.2,4.5,156.1c2.3,3.7,18.9,30.5,48.6,53
		c41.2,31.3,87.5,40.2,137.5,26.5c52.4-14.3,83.1-70.1,96.7-102c20.6-48.7,32.3-102.2,33.6-154.7l35,0.9
		c-1.4,56.9-14,114.8-36.4,167.5c-12.5,29.3-27.8,54.2-45.6,74.1c-21.8,24.3-46.7,40.5-74.1,48C215.2,592.8,197.3,595.3,179.8,595.3
		z"/>
	<path d="M457,755.5c-42.6-130.8-75.5-265.7-97.6-401.1l-0.1-1l-4.8-46.5l34.8-3.6l4.7,46c21.9,133.4,54.3,266.5,96.3,395.4
		L457,755.5z"/>
</g>
</svg>
