<?xml version="1.0" encoding="utf-8"?>
<!-- Generator: Adobe Illustrator 19.0.0, SVG Export Plug-In . SVG Version: 6.00 Build 0)  -->
<svg version="1.1" xmlns="http://www.w3.org/2000/svg" xmlns:xlink="http://www.w3.org/1999/xlink" x="0px" y="0px"
	 viewBox="0 0 233.1 1000" style="enable-background:new 0 0 233.1 1000;" xml:space="preserve">
<g id="Guide">
</g>
<g id="Layer_3">
	<g id="XMLID_3_">
		<path id="XMLID_19_" d="M169.7,702.1l-35.4-0.3c0.8-99.7,0.9-306.3,0.9-366.2c-29.1,4.1-65.2,39.3-89.8,71.8
			c-3.5,4.6-6,9.6-7.3,14.8c-3.6,13.5,2.5,16.5,6.6,18.4l-15.4,31.8C6.5,461.4-3,439.2,4,413.1c2.6-9.6,7-18.7,13.3-27.1
			c22.8-30.2,82.1-98.8,140-84.2l13.3,3.4l0,13.8C170.6,321.6,170.6,585.2,169.7,702.1z"/>
	</g>
</g>
</svg>
