<?xml version="1.0" encoding="utf-8"?>
<!-- Generator: Adobe Illustrator 19.0.0, SVG Export Plug-In . SVG Version: 6.00 Build 0)  -->
<svg version="1.1" xmlns="http://www.w3.org/2000/svg" xmlns:xlink="http://www.w3.org/1999/xlink" x="0px" y="0px"
	 viewBox="0 0 381 1000" style="enable-background:new 0 0 381 1000;" xml:space="preserve">
<g id="Guide">
</g>
<g id="Layer_4">
</g>
<g id="Layer_3">
	<path id="XMLID_6_" d="M120.6,704.5c-23.1-84-21.7-252.8-18.9-332.2c-11.8,9.2-21,16.6-29.4,23.4C57,408,43.9,418.6,21.1,435
		L0.7,406.6c22-15.8,34.8-26.2,49.6-38.1c14.6-11.8,31.3-25.3,60.2-46.8l30.6-22.8l-2.7,38.1c-3.8,52.5-9.2,266.9,16,358.3
		L120.6,704.5z"/>
	<path id="XMLID_5_" d="M236.9,556c-30.3,0-59.9-15.2-77.1-40.4c-3.3-4.8-5.9-9.5-8.5-14.1c-2.3-4.2-4.6-8.2-7-11.7
		c-6.8-9.7-11.5-13.5-15.7-12.6l-6.9-34.3c28.4-5.7,45.6,18.8,51.2,26.8c3.5,5,6.3,10,9,14.9c2.2,4.1,4.4,7.9,6.7,11.2
		c11.6,16.9,33.2,27,53.7,24.9c20.5-2,39.6-16.1,47.7-35c4.5-10.4,6.4-23.1,6.1-39.9c-0.3-13.2-1.8-23.4-4.8-32.1
		c-4.2-12.3-12.3-23.5-22.7-31.4l21.2-27.9c15.9,12,28.2,29,34.6,47.9c4.2,12.3,6.3,25.9,6.7,42.8c0.4,21.9-2.4,39.2-8.9,54.4
		c-13.2,30.7-43.2,52.7-76.5,56C242.8,555.9,239.8,556,236.9,556z"/>
</g>
</svg>
