<?xml version="1.0" encoding="utf-8"?>
<!-- Generator: Adobe Illustrator 19.0.0, SVG Export Plug-In . SVG Version: 6.00 Build 0)  -->
<svg version="1.1" xmlns="http://www.w3.org/2000/svg" xmlns:xlink="http://www.w3.org/1999/xlink" x="0px" y="0px"
	 viewBox="0 0 200.3 1000" style="enable-background:new 0 0 200.3 1000;" xml:space="preserve">
<g id="Guide">
</g>
<g id="Layer_3">
	<path id="XMLID_31_" d="M73.8,701.8c-10,0-19.8-3-27.7-9.2c-15.6-12.1-21.6-34.3-15-55.3c5.5-17.4,17.7-30.3,27.8-39.5
		c9.2-8.4,23.4-20.3,41.5-26.5l0.5-0.1l5.3-1.6c0-1.7,0-3.5,0-5.2c-0.4-67.8-2.8-136.4-7.2-204.3c-25.9,19-50.6,39.9-73.7,62.2
		L0.8,397.1c31.9-30.8,66.8-59,103.6-83.7l25-16.7l2.2,30c5.8,78.7,8.9,158.6,9.4,237.5c0.2,28.1-0.2,53.4-6.7,78.8
		c-5.3,21-14,36.2-26.5,46.4C97.8,697.6,85.6,701.8,73.8,701.8z M104.9,607.4c-6.9,3.5-14.2,8.8-22.3,16.3
		c-6.9,6.3-15.1,14.7-18.1,24.2c-2.1,6.7-0.7,14.2,3.1,17.1c4.1,3.2,12.6,1.9,18.2-2.7c6.5-5.4,11.4-14.5,14.8-28
		C102.7,625.6,104,616.7,104.9,607.4z"/>
</g>
</svg>
