<?xml version="1.0" encoding="utf-8"?>
<!-- Generator: Adobe Illustrator 19.0.0, SVG Export Plug-In . SVG Version: 6.00 Build 0)  -->
<svg version="1.1" id="Layer_1" xmlns="http://www.w3.org/2000/svg" xmlns:xlink="http://www.w3.org/1999/xlink" x="0px" y="0px"
	 viewBox="-174 -104 261.9 1000" style="enable-background:new -174 -104 261.9 1000;" xml:space="preserve">
<g id="Guide">
</g>
<g id="Layer_3">
	<path d="M-85.8,688.4c-5.2,0-10.4-0.5-15.5-1.4c-28-5.3-50.6-26.2-56.3-52l34.2-7.6c2.7,12.1,14.5,22.5,28.7,25.2
		c14,2.7,30.4-1.3,45.2-11c19.9-12.9,34.7-34.5,39.6-57.7c5-23.5,0.3-48.6-12.8-68.7c-3.9-5.9-7.5-10-11.1-12.5
		c-0.9,12.2-2.6,24.3-5.6,36.2c-5.2,21-14,36.2-26.6,46.5c-18.6,15.1-44.6,16.5-61.7,3.3c-15.6-12.1-21.7-34.3-15-55.3
		c5.5-17.3,17.7-30.2,27.7-39.4l0.1-0.1c14.6-13.3,27.7-21.7,41.4-26.4c1.9-0.7,3.9-1.3,5.9-1.8c0-1.7,0-3.5,0-5.2
		c-0.4-68.3-2.9-136.9-7.2-204.4c-25.9,19-50.6,39.8-73.7,62.2l-24.3-25.1c32-31,66.9-59.1,103.7-83.7l25-16.7l2.2,29.9
		c5.8,78.1,8.9,158,9.4,237.5c0,1.7,0,3.4,0,5.1c5.1,1.3,10,3.3,14.6,5.9c9.2,5.2,17.1,13.2,24.8,24.9
		c18.2,27.9,24.7,62.6,17.8,95.1c-6.9,32.6-26.9,61.6-54.8,79.8C-48.1,682.4-67.3,688.4-85.8,688.4z M-91.5,519.7
		c-6.8,6.4-15.1,14.9-18.1,24.3c-2.1,6.6-0.8,14.1,3,17c4.1,3.1,12.6,1.9,18.3-2.7c6.5-5.3,11.5-14.6,14.8-27.9
		c2.2-8.8,3.6-17.8,4.4-27C-76.1,506.9-83.4,512.2-91.5,519.7z"/>
</g>
</svg>
