<?xml version="1.0" encoding="utf-8"?>
<!-- Generator: Adobe Illustrator 19.0.0, SVG Export Plug-In . SVG Version: 6.00 Build 0)  -->
<svg version="1.1" xmlns="http://www.w3.org/2000/svg" xmlns:xlink="http://www.w3.org/1999/xlink" x="0px" y="0px"
	 viewBox="0 0 316 1000" style="enable-background:new 0 0 316 1000;" xml:space="preserve">
<g id="Guide">
</g>
<g id="Layer_4">
</g>
<g id="Layer_3">
	<path id="XMLID_4_" d="M172.1,699.1c-15.5,0-30.1-4.2-41.6-8.1c-51-17.3-96.8-47.8-132.5-88.2l24.1-21.3c32,36.2,73,63.5,118.7,79
		c11.2,3.8,24.3,7.5,36.7,6.1c19.4-2.2,36.7-19.2,39.2-38.6c1.3-9.7-0.6-20.7-2.4-31.3l-38.2-225.8C124,435.5,61.1,513.4,58,517.5
		c0.3-0.5,0.5-0.8,0.6-0.9l-27.2-17.3c0.7-1.1,1.8-2.8,142.3-176.5l22.5-27.8l50.1,296.2c2.1,12.4,4.5,26.4,2.6,40.9
		c-4.5,33.9-33.5,62.5-67.5,66.4C178.2,698.9,175.1,699.1,172.1,699.1z"/>
</g>
</svg>
