<?xml version="1.0" encoding="utf-8"?>
<!-- Generator: Adobe Illustrator 19.0.0, SVG Export Plug-In . SVG Version: 6.00 Build 0)  -->
<svg version="1.1" xmlns="http://www.w3.org/2000/svg" xmlns:xlink="http://www.w3.org/1999/xlink" x="0px" y="0px"
	 viewBox="0 0 471.6 1000" style="enable-background:new 0 0 471.6 1000;" xml:space="preserve">
<g id="Guide">
</g>
<g id="Layer_4">
</g>
<g id="Layer_3">
</g>
<g id="Layer_5">
	<path id="XMLID_18_" d="M169.6,699.6c-19.1,0-39.8-2.5-59.7-10.1C92,682.6,75.4,671,63.2,656.9c-13.7-15.8-21.7-34.2-23.2-53.3
		c-2.1-26.7,8.2-54.8,30.6-83.6c15.8-20.4,34.6-38.2,55.8-53c6.6-4.6,13.3-8.9,19.9-13c18.3-11.5,35.5-22.4,46.1-38.1
		c10.5-15.5,13.2-36,6.7-52.2c-6.5-16.5-22.6-28.4-39.2-29.1c-6.7-0.3-14.5,3-20.7,8.8c-6,5.6-9.9,12.8-10.9,20
		c-0.1,1.6-0.2,3.2-0.4,4.7L93,364.9c0-1.3,0.1-2.5,0.3-3.8c-0.3-7.3-7.1-20.5-16.8-22.7c-10-2.3-17.3,0-27.8,9
		c-10.5,9-17.5,26.2-10.7,36.6L8.7,403.2c-17.8-27.2-5.2-63.3,17.3-82.4c11.9-10.1,30.9-22.9,58.4-16.5c10.9,2.5,20.2,8.8,27.5,16.9
		c1.1-1.2,2.3-2.4,3.6-3.5c13.1-12.1,29.9-18.7,45.9-18c30.4,1.3,58.6,21.8,70.3,51.2c10.7,27,6.8,59.5-10.3,84.7
		c-14.7,21.7-35.9,35.1-56.4,48.1c-6.5,4.1-12.7,8-18.6,12.1c-18.3,12.8-34.5,28.2-48.2,45.8c-16.9,21.7-24.7,41.7-23.4,59.4
		c2.1,26.8,25.4,47.4,47.6,55.9c22.6,8.7,50.2,10.1,86.9,4.3c55.7-8.8,105-38.3,135.4-81.2c31.5-44.4,40.8-102.6,27.5-172.9
		l34.4-6.5c15.1,80,3.8,147.2-33.4,199.6c-18.3,25.8-41.7,47.2-69.7,63.8c-27,16-56.9,26.7-88.8,31.7
		C202.1,697.6,186.5,699.6,169.6,699.6z"/>
</g>
</svg>
