<?xml version="1.0" encoding="utf-8"?>
<!-- Generator: Adobe Illustrator 19.0.0, SVG Export Plug-In . SVG Version: 6.00 Build 0)  -->
<svg version="1.1" xmlns="http://www.w3.org/2000/svg" xmlns:xlink="http://www.w3.org/1999/xlink" x="0px" y="0px"
	 viewBox="0 0 684 1000" style="enable-background:new 0 0 684 1000;" xml:space="preserve">
<g id="Guide">
</g>
<g id="Layer_4">
</g>
<g id="Layer_3">
</g>
<g id="Layer_5">
	<path id="XMLID_18_" d="M489.2,699.6c-15.4,0-31-2.6-46.1-7.8c-22.6-7.8-43.1-20.9-59.2-38c-27.4-29.1-42.4-68.6-41.1-108.5
		c1.3-39.9,18.8-78.4,48.1-105.6l25.7,27.6c-21.6,20.1-35.1,49.7-36.1,79.2c-1,29.5,10.6,59.9,30.8,81.4
		c24.4,25.9,61.8,38.6,95.2,32.3c32.1-6,60.5-32.1,72.4-66.5c5.7-16.5,6.5-35.9,2.3-57.7c-5.4-28.2-18.3-55-37.5-77.6
		c-35.9-42.3-81.5-84.3-104.2-104.5c-61.5,73.2-125.7,145.5-191,215.1c-35,37.3-76.9,77.3-131.8,78.9c-23.6,0.7-47.7-6.9-67.9-21.4
		C28.7,612,13.8,591.6,7,569.1c-6.9-22.6-5.9-47.8,2.8-71.1c8.7-23.3,24.5-43.1,44.4-55.6l20.1,31.9c-26.7,16.8-40.4,53.6-31.2,83.8
		c9,29.6,39.8,52.2,70.7,52.2c0.6,0,1.3,0,1.9,0c40.4-1.2,75.6-35.2,105.4-67c69.2-73.8,137.1-150.6,201.9-228.3l12.2-14.6
		l14.5,12.3c2.9,2.4,71.2,60.4,122.9,121.4c23.4,27.5,39.2,60.4,45.8,94.9c5.4,28.4,4.2,54.3-3.7,77.1c-7.8,22.5-21,42.8-38.2,58.9
		c-18.2,16.9-39.9,28.1-62.9,32.4C505.5,698.8,497.4,699.6,489.2,699.6z"/>
</g>
</svg>
