<?xml version="1.0" encoding="utf-8"?>
<!-- Generator: Adobe Illustrator 19.0.0, SVG Export Plug-In . SVG Version: 6.00 Build 0)  -->
<svg version="1.1" xmlns="http://www.w3.org/2000/svg" xmlns:xlink="http://www.w3.org/1999/xlink" x="0px" y="0px"
	 viewBox="0 0 533 1000" style="enable-background:new 0 0 533 1000;" xml:space="preserve">
<g id="Guide">
</g>
<g id="Layer_5">
	<g id="XMLID_5_">
		<path id="XMLID_19_" d="M164.9,701.4c-35.6,0-73.7-12.4-110.2-35.9C20.6,643.6,3.2,618.9,3,592.1c0-5,0.6-9.7,1.8-14.3
			c23-119.2,134.4-256.2,139.2-261.9l16.8-20.5l12.2,23.5c24.4,46.9,42.6,86.7,57.2,118.8c4.2,9.3,8.2,18,11.8,25.7
			c12.5,26.8,25.5,54.6,34,83.9c7.6,26.1,9.6,48.9,6,68.9c21.5-4.1,42.8-12.8,62-25.5c25.2-16.6,47.2-39.7,65.3-68.7
			c19.3-31,29.3-61.1,29.7-89.4c0.5-31.9-11.9-61.4-33.8-81l23.3-26.2c29.6,26.3,46.2,65.6,45.6,107.7c-0.5,34.8-12.3,70.9-35,107.4
			c-20.8,33.4-46.3,60.1-75.8,79.5c-29.5,19.3-63.2,31-96.5,33.5c-20.4,29.3-59.4,47.8-101.7,47.9C165,701.4,165,701.4,164.9,701.4z
			 M51.3,579.5c-4,0-7.6,0.9-9.7,2.6c-2.2,1.8-3.6,5.4-3.5,9.7c0.1,17.7,19.4,33.8,35.6,44.3c30.8,19.9,62.4,30.4,91.3,30.4
			c0.1,0,0.1,0,0.2,0c20.3,0,39.7-5.8,54.5-15.4c-46.6-8.2-88.2-31.8-128.6-54.8c-3.4-1.9-6.7-3.8-10.1-5.7
			c-8.8-5-16.2-8.9-23.7-10.5C55.2,579.7,53.2,579.5,51.3,579.5z M51.4,544.5c4.2,0,8.5,0.4,12.8,1.3c13.5,2.8,25.2,9.4,33.8,14.2
			c3.4,1.9,6.8,3.8,10.2,5.8c43.7,24.8,88.8,50.4,137.2,53c5.3-16.3,4.3-36.6-2.9-61.8c-7.8-26.7-20.1-53.2-32.1-78.9
			c-3.7-7.8-7.7-16.7-11.9-26c-11.8-25.9-26-57-43.9-92.6c-26.7,35.9-79,111.6-104.4,185C50.6,544.5,51,544.5,51.4,544.5z"/>
	</g>
</g>
</svg>
