<?xml version="1.0" encoding="utf-8"?>
<!-- Generator: Adobe Illustrator 19.0.0, SVG Export Plug-In . SVG Version: 6.00 Build 0)  -->
<svg version="1.1" xmlns="http://www.w3.org/2000/svg" xmlns:xlink="http://www.w3.org/1999/xlink" x="0px" y="0px"
	 viewBox="0 0 510.6 1000" style="enable-background:new 0 0 510.6 1000;" xml:space="preserve">
<g id="Guide">
</g>
<g id="Layer_4">
</g>
<g id="Layer_3">
</g>
<g id="Layer_5">
	<g id="XMLID_3_">
		<path id="XMLID_6_" d="M88.9,700.9c-8.1,0-15.8-0.8-23.3-2.4c-27.5-5.8-50.4-23.8-59.7-46.8c-7.5-18.5-6.9-41.6,1.7-63.3
			c8.3-21.1,23-38.7,40.5-48.3c36.3-19.9,64.9-17.7,90.2-15.6c7.1,0.6,13.7,1.1,20.5,1.2c12.4,0.2,31,1.5,48.9,2.8
			c13.3,1,27,1.9,37.8,2.4l174.1-235.1l28.7,21.2L210.4,638.5c-31.6,42.7-71.4,54.2-75.6,55.4C117.8,698.6,102.8,700.9,88.9,700.9z
			 M113.7,558.9c-15,0-30.1,2.5-48.3,12.5c-21.6,11.9-34.9,45.7-26.3,67c4.9,12.2,17.9,21.8,34,25.2c14.4,3.1,31,1.7,52.3-4.1
			l0.4-0.1c1.8-0.5,31.8-9.5,56-42.1l38.6-52.2c-5-0.3-10-0.7-15-1.1c-17.4-1.3-35.4-2.6-46.8-2.7c-8-0.1-15.6-0.7-22.9-1.3
			C128.1,559.5,120.9,558.9,113.7,558.9z"/>
		<path id="XMLID_20_" d="M271,495c-6.6-16-15.7-31.1-25.3-46.9c-7.3-12-14.8-24.5-21.3-37.6c-6.2-12.6-12.3-27.8-15.6-44.3
			c-5.7,5.5-11.5,10.6-17.1,15.5c-2.5,2.2-5,4.3-7.5,6.4c-17.2,14.8-33.5,28.7-45.3,45.8c-15.1,21.8-20.5,33.4-15.2,49.5l-33.9,11.2
			c-10.8-32.9,3.2-57.1,19.7-81c14.4-20.9,33.3-37,51.4-52.6c2.5-2.1,4.9-4.2,7.3-6.3c17.1-14.8,36.2-32.4,46.1-53.9l32.5,14.7
			c-12.2,27.8,0.7,61.5,9.4,79.2c5.8,11.8,12.6,23,19.8,34.9c9.9,16.4,20.1,33.3,27.8,51.9L271,495z"/>
	</g>
</g>
</svg>
