<?xml version="1.0" encoding="utf-8"?>
<!-- Generator: Adobe Illustrator 19.0.0, SVG Export Plug-In . SVG Version: 6.00 Build 0)  -->
<svg version="1.1" id="Layer_1" xmlns="http://www.w3.org/2000/svg" xmlns:xlink="http://www.w3.org/1999/xlink" x="0px" y="0px"
	 viewBox="-129 -104 495 1000" style="enable-background:new -129 -104 495 1000;" xml:space="preserve">
<g id="Guide">
</g>
<g id="Layer_4">
</g>
<g>
	<g id="Layer_3">
		<path d="M52.5,594.7c-18.8,0-37.8-4-57.3-12c-28.3-11.6-54.1-30.3-73.3-45.3c-5.8-4.5-11.1-9.5-15.8-14.8l0,0
			c-31.7-36.1-36.4-71.8-34.7-95.3c1.5-21,9-41.4,21.6-59.1l99.1-138.6c8.6-12,20.1-21.2,33.1-26.8c14.1-5.9,27-8,44.6,0.7
			c18,9,23.2,22.2,26.9,31.8c30.2,77.3,44.4,165.8,43.5,270.6c-0.3,34.6-19.3,66-49.6,81.9c-2.8,1.5-4.7,2.3-5.1,2.5l-1.4,0.6
			l-1.5,0.3C72.7,593.6,62.6,594.7,52.5,594.7z M47.2,232.4c-2.3,0-4.7,0.8-8.5,2.4c-7.1,3-13.5,8.2-18.4,15l-99.1,138.6
			c-8.9,12.5-14.2,26.8-15.3,41.4c-1.8,24.7,7,48.2,26.2,70l0,0c3.2,3.7,7,7.2,11,10.4C-23.1,536.4,13.3,560,53,560
			c6.7,0,13.4-0.7,20.3-2.1c0.3-0.2,0.8-0.4,1.2-0.6c19-10,30.9-29.8,31.1-51.6c0.9-100.3-12.5-184.5-41.1-257.6
			c-3.2-8.2-4.3-10.5-10.1-13.4C51.4,233.1,49.3,232.4,47.2,232.4z"/>
	</g>
	<path d="M137.4,442.7l-28.7-19.4c0.8-1.2,19.4-28.6,52.4-58.1c44.1-39.4,93.2-63.8,142-70.4l4.6,34.3
		c-52.7,7.1-95.9,37.2-122.9,61.3C154.9,417.1,137.6,442.4,137.4,442.7z"/>
</g>
</svg>
