<?xml version="1.0" encoding="utf-8"?>
<!-- Generator: Adobe Illustrator 19.0.0, SVG Export Plug-In . SVG Version: 6.00 Build 0)  -->
<svg version="1.1" xmlns="http://www.w3.org/2000/svg" xmlns:xlink="http://www.w3.org/1999/xlink" x="0px" y="0px"
	 viewBox="0 0 393 1000" style="enable-background:new 0 0 393 1000;" xml:space="preserve">
<style type="text/css">
	.st0{fill:none;stroke:#FFFFFF;stroke-width:35;stroke-miterlimit:10;}
	.st1{fill:#010101;}
</style>
<g id="Guide">
</g>
<g id="Layer_5">
	<g id="Layer_4_1_">
		<path id="XMLID_7_" class="st0" d="M116.7,412"/>
		<path id="XMLID_19_" class="st1" d="M201.4,700.3c-15.5,0-31-2.9-45.7-8.8c-28.5-11.3-51.6-32.6-65-59.9
			c-2.2-4.6-4.2-9.3-5.9-14.1c-9.9-28-14-57.9-12-89c3-47.1,20.3-93.2,49.1-131.6c-2.6-0.3-5.1-0.8-7.7-1.5
			c-27.5-6.9-40.2-22.8-46-35C57.8,374,47.1,387.8,37,400.8c-3.2,4.1-6.4,8.2-9.5,12.2l-27.7-21.5c3.1-4,6.3-8.1,9.5-12.2
			c20.2-25.9,43-55.4,59.4-78.6l30.1,17.7c-1.3,2.8-4.2,16.1,1,27c3.8,7.9,11.2,13.2,22.8,16.1c17.1,4.2,34-5.2,39.3-11.2l26.3,23.1
			l0,0c0,0,0,0,0,0l-27.9,31.7c-31,35.3-49.7,79.9-52.6,125.6c-1.7,26.4,1.7,51.6,10.1,75.1c1.3,3.5,2.7,7,4.4,10.3
			c19.7,40,68,59.2,109.8,43.6c5.5-2.1,10.6-4.7,15.1-7.8c82.5-71,45.7-173,16.3-227.5l30.8-16.6c17,31.5,37.4,79.9,38.3,131.8
			c1,55.9-20.3,102.8-63.3,139.4l-0.6,0.5L268,680c-7.1,5.1-15.2,9.4-23.9,12.6C230.4,697.7,215.9,700.3,201.4,700.3z"/>
	</g>
</g>
</svg>
