<?xml version="1.0" encoding="utf-8"?>
<!-- Generator: Adobe Illustrator 19.0.0, SVG Export Plug-In . SVG Version: 6.00 Build 0)  -->
<svg version="1.1" xmlns="http://www.w3.org/2000/svg" xmlns:xlink="http://www.w3.org/1999/xlink" x="0px" y="0px"
	 viewBox="0 0 659.1 1000" style="enable-background:new 0 0 659.1 1000;" xml:space="preserve">
<g id="Guide">
</g>
<g id="Layer_3">
	<path id="XMLID_18_" d="M453.3,700.6c-12.6,0-25.1-1.8-37.1-5.5c-37.2-11.6-68.6-41.6-81.8-78.3c-8.9-24.6-9.6-50.1-10.3-74.7
		c-0.1-1.9-0.1-3.8-0.2-5.6c-1.4-47-6.5-95.3-33.9-129.9c-35.9-45.4-112.5-56.3-167.2-23.9c-63.7,37.8-92.7,91.5-86.1,159.8
		c0.4,3.1,8,52.3,42.8,78.7c19.3,14.6,44.1,19.9,73.8,15.6c27.3-4,47.5-35.4,49.1-62.3c1.7-27.9-18.7-56.2-44.5-61.9
		c-12.6-2.8-27.3,0.4-39.2,8.6c-11.1,7.5-18.5,18.4-20.4,29.9l-34.5-5.6c3.4-20.9,16.2-40.3,35.2-53.2c20-13.6,44.2-18.7,66.4-13.8
		c21.1,4.6,40.1,17.5,53.6,36.3c13.2,18.4,19.7,40.4,18.4,61.9c-2.6,41.3-32.8,88.1-79,94.7c-39.4,5.7-73.1-1.9-100.2-22.5
		C10.7,612.6,2.3,549.3,2,546.6l0-0.5C-6,464.2,29.6,397.3,105,352.5c33-19.6,72.9-27.4,112.4-22.1c41.1,5.5,76.6,24.8,100.1,54.4
		c33.7,42.6,39.9,97.6,41.5,150.6c0.1,1.9,0.1,3.8,0.2,5.7c0.6,22.9,1.2,44.4,8.2,63.8c9.6,26.6,32.3,48.3,59.3,56.8
		c27,8.4,58,3.4,81-13c35.8-25.7,48.7-73.6,53.2-109.3c8.7-69.4-7.3-166.6-81.2-212l18.3-29.8c38,23.3,66.9,60.8,83.8,108.4
		c14.8,41.8,19.7,90.8,13.8,137.8c-5.4,42.6-21.4,100.3-67.6,133.4C506.5,692.5,479.9,700.6,453.3,700.6z"/>
</g>
</svg>
