<?xml version="1.0" encoding="utf-8"?>
<!-- Generator: Adobe Illustrator 19.0.0, SVG Export Plug-In . SVG Version: 6.00 Build 0)  -->
<svg version="1.1" xmlns="http://www.w3.org/2000/svg" xmlns:xlink="http://www.w3.org/1999/xlink" x="0px" y="0px"
	 viewBox="0 0 1145 1000" style="enable-background:new 0 0 1145 1000;" xml:space="preserve">
<style type="text/css">
	.st0{fill:#FFFFFF;}
	.st1{fill:none;stroke:#000000;stroke-width:35;stroke-miterlimit:10;}
</style>
<g id="Guide">
</g>
<g id="Layer_3">
	<g id="XMLID_17_">
		<g id="XMLID_29_">
			<path id="XMLID_33_" class="st0" d="M-463.9,465.5c6.8,23.4,13.1,47,18.8,70.7c0.8,3.1,5.6,1.8,4.8-1.3
				c-5.7-23.7-12-47.3-18.8-70.7C-460,461.1-464.8,462.4-463.9,465.5L-463.9,465.5z"/>
		</g>
	</g>
	<path id="XMLID_21_" class="st1" d="M780.1,537.1"/>
	<path id="XMLID_39_" d="M677.7,698.4c-0.5,0-0.9,0-1.4,0c-25.4-0.4-50.2-9.5-69.8-25.7c-19.7-16.2-33.2-38.9-38.2-63.8
		c-3.7-18.8-4.6-36.7-4.8-48.4c-0.1-6.8,0.3-14,1.2-22.5c2.9-28.9-5.3-54.6-21.9-69c-15.8-13.6-37.7-15.6-58-10.1
		c19.8,34.3,30.3,75.7,30.4,120c0.1,23.2-5.8,55.9-22.5,78.3c-17.9,24.1-46.4,31.6-74.3,19.7c-27.1-11.6-42.2-41.7-42.6-84.9
		c-0.4-40,7.2-95.9,45.7-135.5c3.2-3.3,6.6-6.4,10.3-9.3c-3.9-3.4-7.8-6.2-11.9-8.2c-27.9-14.3-61.8,5.2-82.3,26.2
		c-23.7,24.4-38.9,56.2-54.9,90l-1.8,3.8c-22.5,47.3-48.9,82.3-80.7,107c-41.7,32.4-95.4,41.3-136.7,22.5
		C31.9,674,8.2,643.6,2,609.2c-5.5-30.6,4.7-60,26.1-74.8l20,28.7c-11.6,8-14.2,25.8-11.6,39.9c4.1,22.9,20.5,44,41.7,53.6
		c29.6,13.5,69.2,6.3,100.8-18.3c27.4-21.3,50.5-52.2,70.6-94.4l1.8-3.8c16.5-34.8,33.6-70.8,61.4-99.4
		c16.4-16.8,36.1-29.7,55.5-36.3c24.1-8.2,47.5-7,67.9,3.4c9.8,5,18.9,12.1,27.4,21.4c8.9-3.4,18.1-5.8,27.5-7.1
		c28.6-3.7,55.1,3.5,74.7,20.4c25.3,21.8,37.9,58.8,33.9,99c-0.7,7.2-1,13.2-1,18.7c0.1,10.2,0.9,25.7,4.1,41.8
		c7,35,38.1,60.8,74.1,61.3c2.5,0,5.4-0.1,8.6-0.4c55.5-4.9,101-47.1,110.6-102.7l1.1-6.5c5.6-32.2-8.7-64-36.3-81.1
		c-1.3-0.8-2.1-1.2-2.1-1.2l14.4-31.8c55.4,20.4,128-8.8,166.3-28.1c66.8-33.6,88.6-65.9,114.3-111.4l30.5,17.2
		c-14.9,26.5-28.8,48.2-47.7,68c-20.8,21.8-46.7,40-81.4,57.5c-38.2,19.2-88.6,38.4-137.9,38.8c2.2,3.7,4.2,7.6,6,11.6
		c9.4,20.9,12.2,43.9,8.3,66.4l-1.1,6.5c-12.3,71.2-70.7,125.3-142,131.6C684.6,698.3,681,698.4,677.7,698.4z M453.6,474.7
		c-2.4,1.9-4.7,4-6.8,6.2c-30.2,31-36.1,77.3-35.8,110.7c0.1,13.3,2.5,45,21.4,53.1c9.1,3.9,22,5.6,32.4-8.4
		c10.8-14.5,15.6-39.2,15.5-57.3C480.2,540.1,471,504.1,453.6,474.7z"/>
</g>
</svg>
