<?xml version="1.0" encoding="utf-8"?>
<!-- Generator: Adobe Illustrator 19.0.0, SVG Export Plug-In . SVG Version: 6.00 Build 0)  -->
<svg version="1.1" xmlns="http://www.w3.org/2000/svg" xmlns:xlink="http://www.w3.org/1999/xlink" x="0px" y="0px"
	 viewBox="0 0 1133.1 1000" style="enable-background:new 0 0 1133.1 1000;" xml:space="preserve">
<g id="Guide">
</g>
<g id="Layer_4">
</g>
<g id="Layer_3">
	<g id="XMLID_7_">
		<path id="XMLID_6_" d="M438,700c-13.9,0-26.4-2.9-36.9-6.8c-32.8-12.3-58.1-38.7-69.4-72.7c-4.9-14.7-8.3-29.8-11.6-44.4
			c-1.4-6.3-2.9-12.9-4.5-19.2c-5.7-23.1-16-55.8-39.5-73c-20.5-15-52.1-16.6-78.4-4.1c-31.9,15.1-50.8,41.3-55.9,77.7
			c-4,27.9,1.8,51.9,1.9,52.1l0.2,1c4.6,24.3,24.7,44.9,48.8,50.2c23.6,5.1,50-5.3,64.2-25.3c5-7.1,7.9-18.2,6.9-26.9
			c-1.3-12.1-14.1-22.9-27.4-23.2c-0.2,0-0.4,0-0.6,0c-13.5,0-27.7,9.8-33.8,23.4L170,594.4c12.1-26.9,39.1-44.6,67-44
			c30.7,0.6,58.3,25,61.5,54.4c1.9,17.3-3.2,36.8-13.1,50.9c-18.5,26.1-49.1,41.5-80.3,41.5c-6.6,0-13.3-0.7-19.9-2.1
			c-37.3-8.1-68.4-39.9-75.7-77.4c-1.1-4.5-7.1-32.2-2.4-65.1c6.8-48.1,33-84.3,75.6-104.5c38.2-18.1,83-15.2,114,7.5
			c32.8,23.9,45.9,64.4,52.9,92.9c1.6,6.6,3.2,13.3,4.6,19.8c3.2,14.4,6.3,28,10.7,41.1c8,23.9,25.6,42.4,48.5,51
			c30.3,11.3,60.8,1.5,90.7-29.3c36.8-37.8,44.9-97.6,48-151.2c3.4-59.9,4.2-120.7,2.1-180.7l35-1.2c2.1,61.1,1.4,122.9-2.1,183.9
			c-3.5,60-13,127.5-57.8,173.6C496.1,689.5,464.5,700,438,700z"/>
		<path id="XMLID_20_" d="M232.2,1118.6c-22.4,0-44.7-1.4-67-4.2c-30.4-3.8-74.9-12-109.5-39.1C25.9,1052,6.2,1016,3,979
			c-3.3-38.4,10.8-77.1,37.8-103.7c22-21.6,50-33.6,76.9-44c98.9-38.3,202.3-65.9,307.1-81.9c3.5-0.5,6.9-1,10.4-1.6
			c28-4.2,54.4-8.1,78.8-17.9c18.5-7.4,50.5-23.9,58-51.2c8-29.5-2.4-51.3-32.7-68.6l17.4-30.4c19,10.9,33.1,24.1,42,39.4
			c11.7,20.2,14.1,43.3,7.2,68.8c-10.8,39.8-48.8,62.5-78.7,74.5c-28.2,11.3-58,15.8-86.7,20.1c-3.4,0.5-6.8,1-10.2,1.5
			c-102.4,15.6-203.2,42.5-299.8,80c-23.5,9.1-47.8,19.4-65,36.3c-19.3,19-29.9,48-27.5,75.7c2.4,27.5,17.1,54.3,39.4,71.7
			c27.8,21.7,66,28.6,92.3,31.9c122.3,15.4,250.7-15.7,352.5-85.2s177.3-177.9,207.5-297.4c10.1-39.9,12.2-71.3,6.8-98.7
			c-6.5-33.1-25.3-60.3-50.2-72.6l14.4-31.9c7.7,3.1,28.4,2.8,63.4-7.5c32-9.4,70.3-25.4,107.7-45.1c85-44.6,148.9-97.9,166.5-139.1
			l32.2,13.8c-11.4,26.6-35.5,55-71.5,84.4c-30.7,25.1-69.1,49.9-111,71.9c-39.4,20.7-79.9,37.6-114,47.6c-11.5,3.4-22.2,6-31.9,7.8
			c13.9,17.7,24,39.7,28.8,64c6.4,32.7,4.1,68.9-7.3,114c-16.1,63.7-43.7,123.9-82,179c-38.4,55-85.4,101.7-139.6,138.8
			c-54.3,37.1-114.8,63.9-180,79.6C318.8,1113.4,275.5,1118.6,232.2,1118.6z"/>
	</g>
</g>
</svg>
