<?xml version="1.0" encoding="utf-8"?>
<!-- Generator: Adobe Illustrator 19.0.0, SVG Export Plug-In . SVG Version: 6.00 Build 0)  -->
<svg version="1.1" xmlns="http://www.w3.org/2000/svg" xmlns:xlink="http://www.w3.org/1999/xlink" x="0px" y="0px"
	 viewBox="0 0 887 1000" style="enable-background:new 0 0 887 1000;" xml:space="preserve">
<g id="Guide">
</g>
<g id="Layer_3">
	<g id="XMLID_3_">
		<path id="XMLID_6_" d="M376.6,699.3c-0.2,0-0.3,0-0.5,0c-30.6-0.2-60.8-17.7-83-48.1c-11.9-16.3-19.8-39.6-27.5-62.2
			c-4-11.9-7.8-23.1-11.7-31.6c-12.1-26.6-23.5-47.1-35.7-64.5c-11.1-15.8-25.6-26.7-43.1-32.3c-22.7-7.3-48.1-4.4-69.9,8.1
			c-28.4,16.3-49.8,40.1-60.4,67.2c-14.4,37.1-6.7,81.1,18.8,107c13.2,13.4,29.9,21.1,45.9,21.1c0.1,0,0.1,0,0.2,0
			c16.2-0.1,31.9-9.1,38-22.1c6-12.6,1.9-29.4-8.7-36.1c-4.8-3.1-11.8-3.6-18.2-1.5c-5.5,1.9-9.6,5.4-11.2,9.6l-32.8-12.3
			c5.3-14.2,17.2-25.3,32.8-30.5c16.4-5.5,34.4-3.6,48.1,5.1c25.4,16.1,35.1,52.3,21.6,80.7c-11.9,25-39.8,41.9-69.5,42
			c-0.1,0-0.2,0-0.3,0c-25.3,0-51.1-11.5-70.8-31.6c-17.7-18-29.5-41.7-34-68.5c-4.3-25.3-1.6-52.2,7.6-75.8
			c13.4-34.5,40.3-64.7,75.6-84.9c30.3-17.3,66-21.4,98-11c25,8,45.5,23.4,61,45.6c13.4,19.2,25.8,41.5,38.8,70
			c4.6,10.1,8.7,22.1,13,34.8c6.5,19.2,13.9,40.9,22.6,52.9c15.3,21,35.8,33.6,54.9,33.7c0.1,0,0.2,0,0.3,0
			c27.6,0,50.9-25.6,59.7-51.1c11.6-33.6,6.7-94.4,5.1-114.4l-5-61.5l34.9-2.8l5,61.5c3.1,37.8,5.7,92.3-6.9,128.7
			c-6.9,19.8-19.1,38.1-34.5,51.5C417.5,691.3,397.3,699.3,376.6,699.3z"/>
		<path id="XMLID_20_" d="M610.4,699.4c-8.7,0-17.5-0.6-26.3-1.7c-37.2-4.7-71.2-19.1-98.5-41.7l-0.5-0.5
			c-25.2-21.1-40.1-52.2-40.8-85.5l-0.7-34.6l35-0.7l0.7,34.6c0.5,23.2,10.8,44.8,28.3,59.4l0.4,0.3c44.8,37.1,112.5,45.9,168.3,22
			c54.2-23.2,95.9-75.4,109-136c9.1-42.4,3.4-85.9-15.7-119.3c-20.3-35.6-57.6-60.4-95-63.1l2.5-34.9c49.4,3.6,96.5,34.5,122.8,80.6
			c23.3,40.8,30.4,93.3,19.5,144c-15.4,71.6-64.9,133.2-129.4,160.8C665.1,693.9,638,699.4,610.4,699.4z"/>
	</g>
</g>
</svg>
