<?xml version="1.0" encoding="utf-8"?>
<!-- Generator: Adobe Illustrator 19.0.0, SVG Export Plug-In . SVG Version: 6.00 Build 0)  -->
<svg version="1.1" xmlns="http://www.w3.org/2000/svg" xmlns:xlink="http://www.w3.org/1999/xlink" x="0px" y="0px"
	 viewBox="-13 -104 547 1000" style="enable-background:new -13 -104 547 1000;" xml:space="preserve">
<style type="text/css">
	.st0{fill:none;}
	.st1{fill:none;stroke:#000000;stroke-width:35;stroke-miterlimit:10;}
</style>
<g id="Layer_1">
</g>
<g id="Layer_2">
	<path class="st0" d="M-151.2,547.3c-0.8,0.9-0.5,2.3-0.2,3.4c5.5,18.1,11.1,36.1,16.6,54.2"/>
	<g>
		<g id="Layer_1_1_">
			<g id="Guide">
			</g>
			<path d="M244.2,527.1l-2.7-164.3c-5.1-74,18-152.7,33-194.9c-48.7,14.8-75.6,47.5-87.8,104.8l-7.7,36.1l-23.6-29.3
				c-16.9-21.1-24.7-30.7-41.1-38.5c-8.3-3.9-16.8-7.9-25.2-9.6c-14.6-3-31,0.9-43.3,10.2c28.9-1.6,53.4,15.3,61.9,35.5
				c7.6,18,6.5,39.3-2.9,57.1c-8.3,15.6-21.7,26.3-36.9,29.2c-22.9,4.4-42.7-1.4-58.9-17.5c-15.1-15-22.9-37.3-21.5-61.3
				c1.5-26.3,14.1-51.9,33.9-68.3c20.8-17.4,48.7-24.6,74.7-19.2c12.4,2.6,23.3,7.7,33,12.2l0.1,0c13.5,6.4,23.2,14,32.3,23.5
				c10.6-29.1,26.1-51.9,47.1-69.3c23.4-19.3,53.2-31.4,91.3-36.8l31.2-4.5L318.6,151c-0.5,1.1-49,112.7-42.2,209.8l0,0.9l2.7,164.8
				L244.2,527.1z M24.2,302.9c1.8,7.2,5.2,13.5,9.8,18.1c8,7.9,15.9,10.2,27.5,7.9c4.6-0.9,9.4-5.2,12.6-11.3
				c4.5-8.5,5.1-18.6,1.6-27c-2.8-6.7-16.3-17.8-34.6-13.2c-2.5,0.7-10.8,6.2-15.2,14.3c-2.3,4.3-2.4,7.5-2.1,9.4
				c0.1,0.5,0.2,1,0.4,1.6C24.1,302.8,24.2,302.8,24.2,302.9L24.2,302.9z"/>
			<path id="XMLID_10_" class="st1" d="M416.4,278.7"/>
		</g>
		<path d="M363.5,410.3c-23.4,0-46.2-9.2-63.1-26.1l-0.8-0.8c-15-15.1-31.1-14-31.7-13.9c0.2,0,0.3,0,0.3,0l-4.2-34.7
			c12.2-1.5,38.6,1.9,60.5,24.1l0.7,0.7c12.8,12.8,30.4,18.3,48.3,15c17.9-3.3,32.4-14.8,39.9-31.4c6.7-15,12.7-33.1,18-53.8
			c7.6-30,7-63.9-1.9-100.9C413.5,122,363,71.6,297.4,56.7c-2.7-0.6-5.4-1.3-8-2c-35.6-9.2-72.9-5.4-105.2,10.7l-0.7,0.4
			c-87.3,44-75.3,139.9-75.2,140.9l-34.7,4.7c-0.2-1.3-4.1-31,5.4-67.4c12.7-48.8,43.4-86.6,88.6-109.4l0.9-0.4
			c39.8-19.9,85.9-24.6,129.6-13.2c2.3,0.6,4.7,1.2,7,1.7c38.4,8.8,73.5,28.2,101.5,56.2c27.9,27.8,47.5,62.9,56.7,101.3
			c10.2,42.6,10.8,82.2,1.7,117.7c-5.8,22.7-12.5,42.7-20,59.4c-12,26.9-36.5,46.2-65.5,51.6C374.4,409.8,368.9,410.3,363.5,410.3z"
			/>
	</g>
</g>
</svg>
