<?xml version="1.0" encoding="utf-8"?>
<!-- Generator: Adobe Illustrator 19.0.0, SVG Export Plug-In . SVG Version: 6.00 Build 0)  -->
<svg version="1.1" xmlns="http://www.w3.org/2000/svg" xmlns:xlink="http://www.w3.org/1999/xlink" x="0px" y="0px"
	 viewBox="0 0 861 1000" style="enable-background:new 0 0 861 1000;" xml:space="preserve">
<g id="Guide">
</g>
<g id="Layer_4">
</g>
<g id="Layer_3">
	<g id="XMLID_3_">
		<path id="XMLID_6_" d="M736.5,865.2l-34.4-6.3c10.4-56.3-0.8-112.9-12.7-172.8c-8.2-41.3-16.6-84.1-17.5-127.1
			c-1.4-64.7,14.4-128.9,45.4-185.7l0.2-0.4L733,346c-38.2,8-74.4,25.5-104.4,50.6c-38.8,32.5-66.6,77.5-78.4,126.8l-34-8.2
			c13.5-56.4,45.5-108.1,90-145.4c44.5-37.3,100.9-59.8,158.8-63.3l32.5-2l-49.6,85.7c-28.1,51.4-42.3,109.4-41.1,167.9
			c0.8,40,9,81.2,16.9,121.1C735.7,739.7,748.1,802.3,736.5,865.2z"/>
		<path id="XMLID_20_" d="M92.7,700.6c-23.1,0-42.2-9.3-57.9-28.1c-28.5-34.1-38.6-79.9-27-122.6c4-14.9,10.2-29.1,18.3-42.2
			c21.6-35,57.1-65,105.6-88.9c10.4-5.8,157-87,217.9-111.1l13.4,32.3c-31.8,13.7-37.9,41.3-22,101.2c28-17.4,58.4-31.5,90.1-41.6
			c51.3-16.3,106-22,158.1-16.6l-3.6,34.8c-80-8.3-163.2,12.4-231,56.1c1.7,3.3,3.3,6.6,4.9,10.1c8.1,18.2,13.8,38.8,16.9,61.1
			c4.4,32.4,2,61-7.2,85.2c-11.7,30.9-35.5,54.9-63.4,64.1c-16.9,5.6-33.3,4.8-46.3-2.1c-7.8-4.2-14.6-10.6-20.9-19.7
			c-10.6-15.4-16.9-34.3-18.2-54.6c-1.2-18.5,1.7-37.9,8.4-55.9c11.1-29.6,31.8-57.4,63.5-85c5.9-5.2,12.1-10.2,18.4-15
			c-0.8-2.2-1.5-4.4-2.1-6.7c-6.9-24.8-13.5-53.7-10.3-80.1c0.2-1.9,0.5-3.7,0.8-5.6c-67.4,33.7-149.6,79.3-150.7,80l-0.8,0.4
			c-42.7,21-73.5,46.6-91.7,76.1c-6.3,10.2-11.1,21.3-14.3,32.9c-8.6,31.7-1.1,65.7,20.1,91c8.8,10.6,20.6,19.6,46.6,13.6
			c18.6-4.3,42.5-14.6,34.7-55.2c-5.1-26.3-33.2-31-33.5-31l5.3-34.6c2.2,0.3,52.9,8.7,62.5,59c9.4,49.2-13.5,85-61.3,96
			C107.8,699.6,100.1,700.6,92.7,700.6z M325.8,494.6c-3.6,2.9-7.1,5.8-10.6,8.9c-27.2,23.7-44.7,46.9-53.7,70.9
			c-10.4,27.9-8.2,58,5.9,78.4c3,4.3,5.8,7.2,8.5,8.7c4.4,2.3,11.3,2.3,18.9-0.2c18.1-5.9,33.6-22.1,41.7-43.3
			c7.1-18.7,8.8-41.6,5.2-68.1c-2.6-19.1-7.3-36.4-14.1-51.5C326.9,497.1,326.4,495.9,325.8,494.6z"/>
	</g>
</g>
</svg>
