<?xml version="1.0" encoding="utf-8"?>
<!-- Generator: Adobe Illustrator 19.0.0, SVG Export Plug-In . SVG Version: 6.00 Build 0)  -->
<svg version="1.1" id="Layer_1" xmlns="http://www.w3.org/2000/svg" xmlns:xlink="http://www.w3.org/1999/xlink" x="0px" y="0px"
	 viewBox="-107 -104 396 1000" style="enable-background:new -107 -104 396 1000;" xml:space="preserve">
<g id="Guide">
</g>
<g id="Layer_4">
</g>
<g id="Layer_3">
	<path id="XMLID_18_" d="M-11,597.3c-4,0-8-0.3-12.1-0.9c-22.6-3.3-42.1-15.4-53.3-33.3l29.6-18.7c5.7,9.1,16.5,15.5,28.8,17.3
		s24.5-1.3,32.5-8.4c20.9-18.2,20.6-53.7,18.6-85.5L31,434.3c-17.7-1.2-35.1-4.9-51.3-11.1c-41-15.4-67.8-40.2-79.7-73.6
		c-21.3-60.2,15.4-124.8,17-127.5l30.3,17.5l-15.1-8.8l15.2,8.7C-53,240.1-83,293.2-66.9,338c8.3,23.2,28.2,40.9,59,52.6
		c11.7,4.4,24,7.3,36.7,8.6l-1.1-18.4c-2.1-34.5-4.8-77.4,11.8-115.2c14-32.1,41-56.6,72-65.7c34.9-10.2,73.5,0.3,96.1,26.2
		c13,14.9,20.5,34.1,21.7,55.7c1,19.5-3.3,39.9-12.3,57.4c-15,29.2-42,53.9-80.2,73.5c-22.3,11.4-46.4,18.5-70.7,21.1l2,32
		c1.8,29,5.1,82.9-30.5,114C24.4,591.2,7.2,597.3-11,597.3z M138.5,231c-5.8,0-11.5,0.8-17.1,2.4c-21.2,6.2-39.8,23.4-49.7,46.1
		c-13.2,30.1-10.9,66.7-8.9,99.1l1.2,20.2c19.5-2.3,38.9-8.1,56.9-17.3c31.6-16.2,53.5-35.8,65-58.3c13.1-25.6,11.3-56-4.5-74.1
		C171.2,237.6,155,231,138.5,231z"/>
</g>
</svg>
