<?xml version="1.0" encoding="utf-8"?>
<!-- Generator: Adobe Illustrator 19.0.0, SVG Export Plug-In . SVG Version: 6.00 Build 0)  -->
<svg version="1.1" xmlns="http://www.w3.org/2000/svg" xmlns:xlink="http://www.w3.org/1999/xlink" x="0px" y="0px"
	 viewBox="0 0 633 1000" style="enable-background:new 0 0 633 1000;" xml:space="preserve">
<g id="Guide">
</g>
<g id="Layer_3">
	<path id="XMLID_18_" d="M391.1,701.9c-5.8,0-11.6-0.6-17.5-1.8l6.9-34.3c35.4,7.1,52.7-22.2,57.2-31.3c8.9-18.3,9-39.5,6.9-62.2
		c-22.7,5-46.1,4.8-67.9-0.9c-44.6-11.8-81.9-48.9-97.2-96.7c-15-46.9-7.7-85.4,1.8-110.3c-15.8,13-29,29.5-39.3,49.2
		c-15.3,29.3-20,58.3-20.5,69c0.1,2,0.2,3.9,0.2,5.8l-34.7,3.5c-0.4-1.9-0.6-4.6-0.5-7.9c-2.1-25.1-20-58.8-38.1-70.7
		c-20.5-13.4-47.4-15.9-68.6-6.4c-21.4,9.7-36.6,32.1-36.8,54.6c-0.1,6.2,0.9,13.2,2.9,21.4c1,4.1,2.5,9.4,4.9,13.3
		c2.1,3.4,5.3,6.6,9.5,9.6c15.2,10.8,36.2,11.5,49,1.7c6.1-4.7,10.2-13,10.8-21.6c0.3-4.2-0.1-12.1-5.8-17.8
		c-5.3-5.2-14-7.2-20.4-4.6c-5.9,2.5-10.2,9.5-9.2,15.4L50,484.4c-3.4-21.7,9.6-44.6,30.4-53.2c19.5-8.1,43-3.3,58.5,12
		c11.3,11.2,17.2,27.6,16.1,44.8c-1.2,18.7-10.3,36.4-24.4,47.2c-24.9,19.1-63,18.8-90.6-0.9c-8.1-5.8-14.5-12.5-19.1-19.9
		c-4.9-8-7.4-16.5-9-23.1c-2.8-11.1-4.1-21-4-30.2c0.4-36.2,23.5-70.8,57.4-86.1c32.3-14.6,71.5-11.1,102.1,9
		c12.2,8,23.7,21.1,32.9,36.4c2.5-6.5,5.4-13.2,8.8-19.8c18.8-37.4,56.8-85.4,131.2-102l9,33.8c-7.9,2.5-20.2,13.3-29.9,32
		c-8.9,17.2-21.7,53.1-6.7,99.8c11.7,36.5,39.6,64.7,72.9,73.5c17.5,4.6,36.5,4.4,54.8-0.1c-0.2-1.3-0.3-2.5-0.4-3.7
		c-3.3-28.6-4.1-57.6-2.5-86.3c1.1-18.7,5.9-36.3,14.2-52.1c13.1-24.9,31.7-39.5,53.7-42.2c17.1-2.1,34.2,3.5,46.9,15.4
		c12.8,11.9,19.6,28.7,18.8,46c-0.1,1.1-0.1,2.7-0.4,4.4c-4.4,36.9-18.4,88.1-60.2,121.8c-9.9,8-20.7,14.7-32.1,20.1
		c3.3,29.2,4.5,60.6-9.4,89.1c-8.7,17.9-21.6,32.1-37.2,41.2C419.4,698.2,405.5,701.9,391.1,701.9z M512.3,387.6
		c-0.9,0-1.8,0.1-2.8,0.2c-10.2,1.2-19.3,9.2-27,23.8c-6,11.4-9.5,24.1-10.2,37.8c-1.4,24.7-0.9,49.6,1.6,74.2
		c5-3,9.9-6.4,14.5-10.1c25.5-20.6,42.3-55.6,47.4-98.7c0.1-0.5,0.1-1.2,0.2-2c0.3-7-2.4-13.8-7.7-18.7
		C524,389.9,518.2,387.6,512.3,387.6z"/>
</g>
</svg>
