<?xml version="1.0" encoding="utf-8"?>
<!-- Generator: Adobe Illustrator 19.0.0, SVG Export Plug-In . SVG Version: 6.00 Build 0)  -->
<svg version="1.1" id="Layer_1" xmlns="http://www.w3.org/2000/svg" xmlns:xlink="http://www.w3.org/1999/xlink" x="0px" y="0px"
	 viewBox="-107 -104 529 1000" style="enable-background:new -107 -104 529 1000;" xml:space="preserve">
<g id="Guide">
</g>
<g id="Layer_4">
</g>
<g id="Layer_3">
	<path d="M-11.2,597.5c-4,0-8-0.3-12.1-0.9c-22.6-3.3-42-15.4-53.3-33.2l29.6-18.7c5.7,9,16.5,15.5,28.8,17.3
		c12.3,1.8,24.5-1.3,32.6-8.3c20.9-18.3,20.6-53.7,18.6-85.5c-0.7-11.2-1.3-22.4-2-33.6c-17.7-1.2-35-4.9-51.3-11.1
		c-41-15.6-67.8-40.5-79.6-73.8C-121.3,289.3-84.6,224.8-83,222l30.3,17.5c-0.3,0.5-30.2,53.6-14.2,98.4c8.3,23.2,28.2,40.9,59,52.7
		c11.6,4.4,24,7.3,36.6,8.5c-0.3-4.4-0.5-8.8-0.8-13.2l-0.3-5.2c-2.1-34.5-4.7-77.4,11.8-115.3c14-32,41-56.6,72-65.7
		c34.9-10.2,73.6,0.3,96.2,26.2c13,14.9,20.5,34.1,21.7,55.7c1,19.5-3.3,39.9-12.4,57.5c-15,29.3-42,54-80.2,73.5
		c-22.3,11.4-46.5,18.5-70.8,21.1c0.7,10.7,1.3,21.5,1.9,32.2c2.7,43,0.8,86.6-30.6,114C24.2,591.4,7,597.5-11.2,597.5z
		 M138.5,231.1c-5.8,0-11.6,0.8-17.2,2.4c-21.2,6.2-39.9,23.5-49.8,46.1c-13.2,30.1-10.9,66.8-9,99.1l0.3,5.1c0.3,5,0.6,10,0.9,15
		c19.5-2.3,39-8.1,57-17.3c31.5-16.1,53.4-35.7,65-58.3c13.1-25.6,11.3-56.1-4.5-74.1C171.2,237.6,155.1,231.1,138.5,231.1z"/>
</g>
<path d="M327.8,387.6l-31.5-15.3C345.3,271,340.6,166,284.1,104.9c-19.7-21.4-48.1-40.3-76-50.8c-22.3-8.4-54.6-15.2-81.5,0.2
	C104.2,67,81,98,83.5,135.9c2.3,36.3,27.7,59.3,35.5,65.4l-21.8,27.4c-10.6-8.4-45.3-39.9-48.5-90.6c-1.5-23.6,4.1-47.3,16.1-68.5
	c11-19.4,26.8-35.6,44.7-45.8C140,6.3,178.5,5.5,220.5,21.3c32.7,12.3,66.1,34.7,89.4,59.8c32.9,35.6,51.7,83.7,54.6,139.2
	C367.2,274.5,354.5,332.3,327.8,387.6z"/>
</svg>
