<?xml version="1.0" encoding="utf-8"?>
<!-- Generator: Adobe Illustrator 19.0.0, SVG Export Plug-In . SVG Version: 6.00 Build 0)  -->
<svg version="1.1" xmlns="http://www.w3.org/2000/svg" xmlns:xlink="http://www.w3.org/1999/xlink" x="0px" y="0px"
	 viewBox="0 0 505 1000" style="enable-background:new 0 0 505 1000;" xml:space="preserve">
<g id="Guide">
</g>
<g id="Layer_4">
</g>
<g id="Layer_3">
	<path id="XMLID_18_" d="M222.2,697.6c-4.1,0-8.1-0.1-12.2-0.4c-41.9-2.5-96.6-22.9-112.8-72.2c-12.4-37.8,3.8-77.2,17.1-103.5
		c12.3-24.5,26.6-48.2,42.5-70.5c1.1-1.6,2.3-3.2,3.5-4.8c10.6-14.7,20.5-28.5,22.9-43.4c2.9-18.2-6.8-38.8-24.2-51.2
		c-16.3-11.7-38.8-16.8-63.4-14.4c-12.5,1.2-35.4,5.7-48.7,21.6c-8,9.5-10.8,23.7-7.7,37.9c3.1,14.2,11.7,25.9,22.9,31.1l-14.9,31.7
		c-21-9.9-36.8-30.5-42.2-55.3c-5.5-24.8,0.1-50.2,15-67.9c15.8-18.9,41.5-31,72.2-34c33-3.2,63.9,4.1,87.1,20.7
		c13.2,9.4,23.9,22.2,30.8,36.8c7.5,15.7,10.1,32.4,7.6,48.3c-3.6,23.1-17.1,41.9-29,58.4c-1.1,1.6-2.3,3.1-3.4,4.7
		c-14.9,20.9-28.3,43.1-39.8,66c-16.9,33.5-21.5,57.2-15.1,76.9c10,30.6,48.2,46.2,81.6,48.2c72.1,4.3,144.9-37.9,177.1-102.5
		c32.2-64.6,22-148.1-24.7-203.1l26.7-22.7c27.4,32.2,44.6,72.4,50,116.4c5.4,44-1.8,87.2-20.6,125s-49.1,69.5-87.4,91.7
		C298.4,687.1,260.3,697.6,222.2,697.6z"/>
</g>
</svg>
