<?xml version="1.0" encoding="utf-8"?>
<!-- Generator: Adobe Illustrator 19.0.0, SVG Export Plug-In . SVG Version: 6.00 Build 0)  -->
<svg version="1.1" xmlns="http://www.w3.org/2000/svg" xmlns:xlink="http://www.w3.org/1999/xlink" x="0px" y="0px"
	 viewBox="0 0 911.1 1000" style="enable-background:new 0 0 911.1 1000;" xml:space="preserve">
<g id="Guide">
</g>
<g id="Layer_3">
	<path id="XMLID_18_" d="M590.2,701.9c-13,0-25.6-0.9-37.7-2.6c-30.9-4.5-59-14.7-83.4-30.3C427,642,410.3,608,409.6,606.6l-0.3-0.7
		l-0.3-0.7c-9.7-25.7-5.2-57.5,12.1-85.1c14.4-23.1,35.3-40.9,53.7-56.6l53.2-45.3c7.9-6.7,16.1-13.7,20.1-21.7
		c5.4-10.8,3.3-26.3-5-37.7c-8.2-11.3-22.2-19.8-39.2-24c-41.1-10.2-85.3,8.3-119.1,25.5c-114.5,58.1-124.5,139.2-125.3,154.9
		l-34.9,1c-5.8-52.6-29.4-92.4-64.9-109c-26-12.2-56.6-10.2-81.9,5.5c-17.6,10.9-27.4,21.9-34.9,39.1c-6.3,14.6-9.2,30.7-8.6,47.2
		c1-1.2,2-2.4,3.1-3.6c22-24.2,52.9-32.8,87-24c17.6,4.5,33.2,16.5,43.7,33.7c9.2,14.9,14.1,32.7,14,50.1c-0.2,23-10.9,47-27.3,61.2
		c-4.7,4.1-40.6,33.2-93.4,5.3C20.8,600.1,6,552.4,0.7,516.2c-4-27.1-0.5-54.2,10-78.4c10.3-23.8,24.9-40.3,48.6-54.9
		c35.4-21.9,78.5-24.7,115.2-7.4c29.8,14,53.2,39.5,68.1,72.9c2.2-4.5,4.6-9,7.3-13.7c24.9-42.7,64.9-78.2,118.9-105.6
		c39.3-19.9,91.1-41.2,143.4-28.2c25.1,6.2,46.1,19.5,59.1,37.4c16.3,22.3,19.4,51.3,8.1,74c-7.2,14.3-19.1,24.5-28.7,32.6
		l-53.2,45.3c-17.3,14.7-35.2,30-46.7,48.5c-11.3,18.1-14.8,37.9-9.3,53.3c2.1,4,16.4,28.8,48.1,48.5c46.5,29,107,34.2,179.8,15.6
		c72-18.4,110.2-76,129.5-121c13.2-30.7,18.2-64.5,16.1-109.8c-1.4-31-5.8-62.9-13.1-94.9l-6-26.4l34.1-7.8l6,26.4
		c7.8,34,12.5,68,13.9,101.1c2.3,50.8-3.6,89.4-18.9,125.2c-14.5,33.7-33.5,62.5-56.4,85.6C747.3,662,714.8,680.6,678,690
		C647.1,697.9,617.7,701.9,590.2,701.9z M49.2,558.6c6.5,13.2,15.7,25.2,28.6,32.1c31.6,16.7,51,1.8,53.6-0.4l0.5-0.4
		c8.7-7.5,15.1-22.2,15.2-35c0.1-20.4-11.6-44.5-31.5-49.6c-26.8-6.9-43.3,3.6-52.4,13.6C50.6,532.7,47,550.6,49.2,558.6z"/>
</g>
</svg>
