<?xml version="1.0" encoding="utf-8"?>
<!-- Generator: Adobe Illustrator 19.0.0, SVG Export Plug-In . SVG Version: 6.00 Build 0)  -->
<svg version="1.1" id="Layer_1" xmlns="http://www.w3.org/2000/svg" xmlns:xlink="http://www.w3.org/1999/xlink" x="0px" y="0px"
	 viewBox="-53 -104 804 1000" style="enable-background:new -53 -104 804 1000;" xml:space="preserve">
<g id="Guide">
</g>
<g id="Layer_4">
</g>
<g id="Layer_3">
	<path d="M169.1,593.6c-4,0-8.1-0.1-12.1-0.4c-42-2.5-96.7-22.9-112.8-72.2c-12.4-37.7,3.8-77.1,17.1-103.5
		c12.3-24.3,26.6-48,42.6-70.5c1.2-1.7,2.4-3.3,3.6-5c10.5-14.6,20.5-28.5,22.8-43.3c2.9-18.2-6.8-38.8-24.2-51.2
		c-16.3-11.7-38.8-16.8-63.3-14.3c-12.5,1.2-35.4,5.6-48.8,21.6c-8,9.5-10.8,23.7-7.7,37.9c3.1,14.2,11.7,25.8,22.9,31.1l-14.9,31.7
		c-21-9.8-36.8-30.5-42.2-55.3c-5.5-24.8,0.2-50.2,15-67.9c15.9-18.9,41.5-31,72.2-34c32.9-3.3,63.8,4.1,87.1,20.7
		c13.2,9.4,23.9,22.2,30.8,36.8c7.5,15.7,10.1,32.4,7.6,48.4c-3.6,23-17.1,41.7-28.9,58.3c-1.2,1.6-2.3,3.2-3.5,4.9
		c-14.9,21-28.3,43.2-39.9,66c-16.9,33.5-21.5,57.2-15.1,76.8c10,30.5,48.2,46.2,81.6,48.2c72.1,4.2,144.9-38,177.1-102.5
		c32.2-64.6,18.1-181.7-28.5-236.5l-34.5-40.6L325,191c0.6,0.1,58.1,13.4,129.6,14.7c64.6,1.1,154.1-7.6,214.5-55.4l21.7,27.4
		c-30.6,24.2-69.6,41.7-115.9,52c-36.3,8.1-77.2,11.7-121.7,10.9c-37.6-0.7-71.1-4.5-95.5-8.1c14.1,27.7,24.1,61.4,28.4,97.2
		c6.4,53.3-0.4,104.9-18.8,141.7c-18.8,37.8-49.1,69.5-87.4,91.7C245.4,583.2,207.2,593.6,169.1,593.6z"/>
</g>
</svg>
